/* XPM */
static char *wall[] = {
/* columns rows colors chars-per-pixel */
"80 80 45 1 ",
"  c #464C3EAE39A3",
". c #49AE3F483993",
"X c #470E40253BC4",
"o c #4C2A43A73E88",
"O c #530045893EB2",
"+ c #58A4471B3F1F",
"@ c #5B4C48CB3F65",
"# c #4E1645E640E2",
"$ c #4F4F483B4380",
"% c #520546FE4109",
"& c #588947993FE8",
"* c #548949944398",
"= c #5B9C4BE0444D",
"- c #55604DF248E6",
"; c #5B704F0C487C",
": c #56F5513F4C7D",
"> c #5C31524F4C55",
", c #5C7856865166",
"< c #5E7D596F5464",
"1 c #5F9D5C74581F",
"2 c #61C24E8A45D3",
"3 c #5FFB4FC0481E",
"4 c #640050584752",
"5 c #6A2E52524767",
"6 c #647252B64A46",
"7 c #69EE55A54C53",
"8 c #6C5E58704F08",
"9 c #707A56844AA5",
"0 c #62AB572D5097",
"q c #62D25B0E5533",
"w c #6BF05B4C52F9",
"e c #64105E705929",
"r c #688C5F35588A",
"t c #71A85CFA5368",
"y c #6DF9601757B3",
"u c #6606612F5C20",
"i c #6A5762155BE7",
"p c #73F1605B56F1",
"a c #714D63105AEB",
"s c #786864BE5BB8",
"d c #6B8B66576112",
"f c #6EC5691363A6",
"g c #708B675260A4",
"h c #72CD695262A7",
"j c #77DC6EE9683E",
/* pixels */
"42522&@2+42&&&&273w==2====&&&&&33&==23rqqqw32=22=2<qq,<<quu1uwq<,,,00,ere<,egeq2",
"644244222522222253e3=2===&=&++&2==&3=4q32@=222222====@&23qd060w3====&=;3;==2;>q2",
"54442@265522222224w3&=232&&&+&&3244&3404266663336633=2==22q=36763;=2=2=32;;7;;q2",
"4222&@22552=2227336=+==33=&+*&66463334<==220633646862=2230q2222&=72===22232=26e6",
"222222257777222232==&&*=22=&&&664&&333,==22263224766332223e3==3&=2332=2=2;=;26q6",
"76084225577722226w80060063300667w0=63:,3366083232432=23=2=q2==22=3233==2=22;==e0",
"uqeeqq622222qq0,eeueqqu1qq,<,<qudq<<<eu<<qqruqq66q6=222333r;66wqr8qrr3====22;2dr",
"===&&2&&@252==0e-#oooX,$ooXoXXX##$,e>3:$*&&**=3;====&2===;=-,,,;--,>0r0*=*;q262=",
"232=+22&2262==2<###X#X##Xo $oXooX#$<========3=36=&&====;====**O.%&%%===***;0=722",
"&=222&&2@222=+2>X######oooX$ooXoo$-,*3=&3=333==3=%&&%=3e-%.==*==**%=;=**%*-q322=",
"22=22&=&@2@&=&;>X##$##oXoooooooXo$$q3&===3;=3===&&&+&=;q*%%==***=**=;====%-q32=2",
"3&=2&233332&=&;,###$####$oX$$Xoo##-<==&=3>=====3=&&.%=;e*&.O*&***;=***;*&%;<223=",
"2==3qrrifiiq63><o#;<0*oo$#X$=###$$:,:>06:>00w00000066>0u>00>;;;,0e8,000;3-><3073",
"q3=2;3;====3;&&&+=2632@23=&2746q,<riqqdu1qqqdddwqqqq,00rreqeeq<<<qrur0<<<<1ue,qq",
"=&&2&232&=2&&@&&+&+=36@5222=47543=234443uq:&==33;&OOO====63;>>;-%%&=-#%%%%%-*%%*",
"&=&==;2&&=&&2&&&&+++0022@@2=5773342344330>=====32&++*====683=-==;%%.=*;*%*-%%%%*",
"====22=&2=&&&2&&&&&&;q22333224656544224;q6========&2===@==@=*%O%;*%%%%=%%***%%%*",
"===2&22==2&=O++@3&=&;;22774222237w5==47600;=;;;=;&==+==*=====O%*-=%%#%%%%%%-*%%%",
";363600033;623==332=:>3255222775=4565477<>===@===*==========*%%%***%%%%%%%%*%%;;",
"1uuerrqidr<1qq000r>,ue0057tqwdhgu645447uq<6qww<166w006>r6qqw0>0q0>*%O%%%*O%;<eur",
"%##%###*=-<>=%o$%#o%>0>>63>>-;--%o$o#-<1d1<,:,::,1<>0>0iiqqq000ure00222;%%*%;;--",
"=&%%O%%%%%>:o%&=&&%o&>33>>3;=&&#o$$o####*$$######-o+=45884656;447722222;%%*%%-%=",
"-$%%o#*%%#:>=%o&>3=$%%=>666=***$#oXo#X#$$$$##$#o##$;4247785q67457276227==*%**%%*",
"%%%#O$===-,>%==&;=&;&=2;&3-*&%*q#oo$###$:###X##o###*244458w768662726222;%***%%%%",
"*$%%#%====>:o%&%&%%;;==3&=%&&*&1$#######o#$#Xo$:#oX=446645666444672272r,%**%%%%*",
">=%**>>>>>,:=->>;>6>-**>>>>>>;>,:$o$$###$#$###$$#$o;46475;6544568ww800,,-;>::;;:",
"e<;<ee1q<uuu<ue<qquuu<qqeqeeueud1<<>$*##$,::<<1,,1qryayi067646e1eqeereee,qdee11q",
"<u-$-$$#o#-::#o##$-$:qdq3==22230>;4465;;6q1q<,:,>><<>>>><q>;**oo.##%**-*#-*%%o%-",
">u$$$$$$$#--$#o$#$-$$>w2332625626465546420u;***O%*O*=OOO==*=**oOo%*;*#&o%**o%#*;",
";e-$$#oX#$-$##Xo##$$$:q2423633226664;46440u=**=*-%*;>=******=*%-oo%%%%##%**%Oo%*",
"*q=$######$##oooo###*-q344452622475>464427r=O*&*=*=*;;=*=**=**%:%%#%-%%%%*%#oo%%",
"#<$######$$##oX#ooo#$-<343525627775;56444q,=O;=**=*O;:=*=O*=O%%%%%o#*#o#%o%#-*-;",
"*q%$#####$#-,::::>:--:,68ww0w00;7yywwyww6<,:**=*;;*;**>000,00,>,:>>,:::#o%ooO%**",
"=3====&&==>u1quuu<,>,ee,err0qe0<1q<ququ0,eu<0>*q<<,1,<0<1qq1uqqq,<<qqq1===*@=;2;",
";===;==2==0q*=&=-*OO->-*-=%=*=<<*=+OOO=+O==*;====;u<***oo*OO%%oooooo%%<>;&=+&&&2",
"2=&23;===;0-%=3;=**%=3=;;;=;=*>;*=*=*=6**=*=>;4;;=,,%**%*:*%%*%%#OoOo%:>+@O=&;&=",
"==33422&236-%&=;&**O*==;63;**=;=++*+*;==O*==:6====;;%O%%****%*%%%%$o%*>>+&==&&&=",
"==36032=3=<>%==;=*%*====;3;===*=;*O*=*===*==;==>;*=*%***:****;*%%O%o$*10;&+==&&&",
"366006q6>><=*%==-&&=;=%;3==****=;=+**=*@*=&+==*====***O*=-*%%***o%%%o%>q6>;;6==;",
"uiiaaqirq<1=&&%+*=33;==3==**=*==6=*;6>-;>07qqqr000r<<0><00e>***:**$%%O:u0qrii,:1",
">32==&&&=32@&2&&+&q72222862228weu40qq111e<<,11,,><<<,,>,<1q1<>==*+==***%*OO%;,q,",
"233232=2&22=&2222&q2757785272555444460u,:-%o-*$o#$ooo$$o$*==*=*******+O+***+**1=",
"2322222==22=232@220227t502225222447447q:-****:%$$*$o%*%$$$q;;**+%=*+=***===;+%>=",
"22222&=2=5356322&&035wt778558222247488i<:-*:%--$*$$$o$$$#%1>;==*+=*=*==+*=;=**,=",
"23=222322222243223q077t9257w52624442651:**#%*-$$$$o$$$$$o*<>==**==*=;%****==+*,4",
"36308ww7q6=320763>q>wtstt0tt86;668ww7>,::::::q,>::*$$*:**:<>66>6>0>>>=;*>>6;+:,:",
"qwwqerequq,,0qqqqquqqqwurqriqq,,0<0q1uu1111,eiduu<<:,quu1uiuuiuuqqqqqu,<q1u>,1u1",
"$$-#o##$$-1e-&O%%->&&%%**&**&*1,$ Xo#$$-#o##$-*$#:1,=;****:=;:=O*%%%%*u1*$*oo$$$",
"$*$*#%%$%#,>&-&&&===OO=&*&**&O:-ooooo$$$$$;-o--o##,:==**;=*;6;;=;=O*O*1:o**-ooo$",
"$*$=$##%#o:>&=%&&O**&=*==&=&%&;-o##o$o;=o$$o*$$$#$:>*==*==*=;;;==**=*=>*oo:>*O%*",
"o#%***#-%#:>=;-==&&*&==*&&=&&%:-$oooo$---o$*$$$*$#,:**=**=+O*+==*@+*=;>-ooOooo**",
"%##$%%%-&->,;=63;*&&*=&&*-&&&=:-$o$*o$Oo-$oo-*oO##,>;*==*;;==O=*=***O*0:%%oXo$oo",
"#*>,:>>>>:qq>0q060006*=>;>66:;1,$:::,>>:>,,,q,,,::,,><000q>;-*>0000>:-1:*-oooooo",
"#qfdqeqeuudhiqiwrqqru1q<qeqq01rr,,,q,uuuu,<,11u<<uuu,1u<qiu11,<u1q1<,,e1,,,>oooo",
"oq6263222377523322;5rdq622222686@=4664;77OO*o-Ooo*:*o*%%o***:u:*##o#oo*$$oooooo*",
"o=25t5222244242425242e64626268t8758874776+-;=;-=**%%**%*%O*%$<*$%$*%#%*#oooo%oo%",
"O&2227722225222245222q624445787p448w76557;;**;O-***%**%%%%oOO<%o%#%*%-%#oo#o%oo#",
"#=2235752235273777255q4464444@5=4447565>5>OOO-*O=;****%O%%OOo1*%o-%-%--#o#%#ooo#",
"-67678075777725t8w74206;446454577w88766680*=-O***:****%%*%$X$<**o*%%**%#-o#$%-*$",
"euuwiuwdjguuuqerfsa827444;544uuiiahhiqy78a->+--;>rqqqr10qq<:,u**-%##*:,,1,:,1qee",
"**%#%%#*>3-*=>fdw8tt44444444456668806576766=;65wyihi0rq,,,,>1:==-%%O*;*%#:e<;%o%",
"%&&*%&&%%=>&**ww888742444457446478754687566655;46487;>5$o$%#$O==%&%o**%oO%1-%%%&",
"*&*O%&&%O&=%%#-577544244424544=678856788767785644447555*%o*%-%*--%%%*%%O%%:*%%**",
"*&%*%%%**&-=&*&2766544444;5445557777478754>57565457w78w=%o%%%%%O%*%***o-%*,*&*&;",
"&***#*#*%o&>*&%34337677442665564340w06+45645526266tt227=;%%%%*%%%%*%**%%-*<;*%&*",
"*=;:;6;;3->33>>8tt70>68wwwwtt87ww36<w860067wwttwww8w772=;*-;*-;;;,,--,-;--<,;;-;",
",,11qqee1q<<q11ueuqq>qrrqwiasqqwqqquirweq1rirririri87w0>;ree<1eeeee00<ee0eeee0<<",
"fd-#XXo#oX Xoo$$$$$;eqw322367623&3680660ur033333377677277870re--%#O%%%*&%--;*%%-",
"ee$#X####oXooo#%$%##,0644685994544648666qq665676507656677w72q>**=**&%*;;*%%=&%**",
",:###$####$#$##$$$##:0646685595643465666087666666727676678770;*-;=***=;2=%=;;=**",
">-###-$##o$$$$$o.$*$:06646559944444546448ww08668767w86667w88rr===*%***;6;&;===;;",
",:#$$$###o#$##oo#o$$:06665695546743=46648q88t8665wtw78655w78rq;=*=&*&=;;;*=;=;3;",
"<,#-#####oX#oo##oo#;,q06wtttpw036wwwwaw80wwaaattwtq00wtrttr0qe>>00000;,-;;-60,>-",
"1,#o$#$####$o$##$o-que<0<rerweqq1ueeeeuu<1qeu1<<queqqqueuqqqeu,<1<<<<<e<<<,,,<<,",
"#$$$#ooo$#X-$%%oo#%$$-$XX.Xo##:u,*$$o#$$$#o#o$###$>u,*%-%o#$$$$#####$$:1:$# XX#$",
"$$$:#oo#ooo#$*=$$$$$#$%#o%%oo##1-$$-###$##$$$**$###1-$*---$$##%%$$%%$$$1$#$####%",
"-**$* ooo###o#$o$=$$%#%%#%#X##%>$$$*###o##$oo-$####<$$%#O%#$#oo####%##$,$$###X#$",
"-$-$X ##$$#oooo#.$$O#####%X%*$#<$$**###o####$$$####<-$--##%$####%###%%#,$$#####$",
"$-&-#$$$$---$$-$-$$%%%##o%#%#$$>$o$#oo$$oo##oo#o##$,:#$$$-%%%%#oo##%#%$,-$##X###",
"$-uuquuuuqquuuduq>$&$%o#$i>##oo1$oo#XXooo##$$oo$##$<--,,,>-->q,q,,-0,->,--:,,,##"
};
