/* XPM */
static char *ball[] = {
/* columns rows colors chars-per-pixel */
"80 80 195 2 ",
"   c #7E7B6A",
".  c #7A7763",
"X  c #767F74",
"o  c #817E6B",
"O  c #7C8376",
"+  c #84816D",
"@  c #89846F",
"#  c #868371",
"$  c #898672",
"%  c #8C8975",
"&  c #8E8C79",
"*  c #838879",
"=  c #908D77",
"-  c #918E79",
";  c #94917C",
":  c #9A967D",
">  c #DF8F49",
",  c #DF8E47",
"<  c #DF944D",
"1  c #DF8E5C",
"2  c #DE9556",
"3  c #CE955C",
"4  c #E08E47",
"5  c #E08477",
"6  c #DFA266",
"7  c #DFCF66",
"8  c #DECF6A",
"9  c #DFD066",
"0  c #DFD06C",
"q  c #DBCE74",
"w  c #DDCD7B",
"e  c #DFC476",
"r  c #DFD272",
"t  c #DFD47C",
"y  c #E17A9B",
"u  c #E17B97",
"i  c #E17FA0",
"p  c #7B9795",
"a  c #79A3A8",
"s  c #77B1BB",
"d  c #5DBCDC",
"f  c #6CB8CF",
"g  c #6BB4C8",
"h  c #65BEDA",
"j  c #68BBD5",
"k  c #75B4C4",
"l  c #54BDE2",
"z  c #5DBFE0",
"x  c #76C6DB",
"c  c #4FC2EB",
"v  c #52C5EE",
"b  c #5BC2E6",
"n  c #4CC4F0",
"m  c #52C6F0",
"M  c #5CC9F0",
"N  c #65CAEC",
"B  c #6ACAEA",
"V  c #63CBF1",
"C  c #6CCEF1",
"Z  c #71CFF1",
"A  c #78D2F1",
"S  c #8A968A",
"D  c #999681",
"F  c #989884",
"G  c #849A94",
"H  c #A19E88",
"J  c #A39F85",
"K  c #A6A38B",
"L  c #A9A68D",
"P  c #ACA98E",
"I  c #AEAA91",
"U  c #AAA790",
"Y  c #B1AE94",
"T  c #B5B196",
"R  c #B9B596",
"E  c #B6B399",
"W  c #BAB69B",
"Q  c #BEB99D",
"!  c #B9B58A",
"~  c #81A1A0",
"^  c #90ACAB",
"/  c #97BAB7",
"(  c #BFBBA1",
")  c #B2BAB0",
"_  c #A8AFA6",
"`  c #E08C9F",
"'  c #DEB286",
"]  c #C1BD9E",
"[  c #DF87A0",
"{  c #D99AA4",
"}  c #E188A3",
"|  c #E097AA",
" . c #E096B0",
".. c #C2BEA2",
"X. c #DBBBB5",
"o. c #D1B0AA",
"O. c #B5C6B5",
"+. c #A5C4BC",
"@. c #CEC688",
"#. c #DACF83",
"$. c #D2CA8D",
"%. c #D5CA80",
"&. c #DED483",
"*. c #DDD58C",
"=. c #C9C493",
"-. c #C5C19D",
";. c #DEDA92",
":. c #D7D19D",
">. c #DEDC9E",
",. c #D8D297",
"<. c #D3CB94",
"1. c #E4DC9B",
"2. c #C6C1A4",
"3. c #C9C5A6",
"4. c #CDC8A7",
"5. c #C6C3A9",
"6. c #CAC6A9",
"7. c #CEC9AC",
"8. c #D2CDA5",
"9. c #D1CDAE",
"0. c #D6C7AF",
"q. c #DEDCA4",
"w. c #D5D0AF",
"e. c #D8D3AE",
"r. c #D8D5A3",
"t. c #CECBB1",
"y. c #C5C8B6",
"u. c #D2CEB1",
"i. c #DCC9B8",
"p. c #D6D1B3",
"a. c #D9D5B5",
"s. c #DDD8B6",
"d. c #D6D4BA",
"f. c #DAD6B9",
"g. c #DED9BB",
"h. c #CBD4BA",
"j. c #E0DBB7",
"k. c #E1DDBC",
"l. c #E0DBA6",
"z. c #DEE0AD",
"x. c #DEE1B0",
"c. c #DEE3BC",
"v. c #E5E0BE",
"b. c #E4E0B3",
"n. c #DFB2C5",
"m. c #8BC9D6",
"M. c #96CDD5",
"N. c #A0D0D1",
"B. c #B3D3CD",
"V. c #83D5F2",
"C. c #89D7F2",
"Z. c #8ED8F2",
"A. c #94DAF2",
"S. c #9CDDF2",
"D. c #A2DFF2",
"F. c #ABE2F3",
"G. c #A5E1F4",
"H. c #B4E4F3",
"J. c #DECEC1",
"K. c #C8D5C6",
"L. c #D2D6C2",
"P. c #DDDBC2",
"I. c #D3D9CB",
"U. c #D9D6C3",
"Y. c #DECFDC",
"T. c #C7D6D3",
"R. c #D8D8D5",
"E. c #E2DEC1",
"W. c #DEE6C5",
"Q. c #DEE7CA",
"!. c #DEE8CD",
"~. c #CFE0DF",
"^. c #DBE1D6",
"/. c #DDE9D3",
"(. c #D5E3DC",
"). c #DCE6DD",
"_. c #DDEBDB",
"`. c #E5E1C2",
"'. c #E9E4C4",
"]. c #EDE8C7",
"[. c #EAE6C8",
"{. c #EDE9CB",
"}. c #E7E3C8",
"|. c #F4F0D1",
" X c #D9E7E1",
".X c #DDECE3",
"XX c #DCEDEA",
"oX c #D7E6E6",
"OX c #DDF0EF",
"+X c #C5EAF4",
"@X c #CBEBF3",
"#X c #D3EEF4",
"$X c #DBEFF2",
"%X c #DDF1F4",
"&X c #DDF2F8",
/* pixels */
"p.f.f.f.s.s.k.a.j.9.w.3.] ..p.w.p.g.s.3.a.s.p.7.9.6.u.f.p.9.7.2.6.7.P.u.5.7.....3.7.9.9.w.g.k.p.a.6.7.3.2.7.`.P.p.k.k.4.`.`.p.6.2.7.g.E.g.g.E.j.E.j.].k.u.s.s.u.",
"p.a.f.f.w.a.v.j.s.p.7.6.2.9.9.4.f.p.7.9.a.g.7.3.3.9.9.f.p.7.6.9.7.u.p.6.2.9.2.2.p.p.9.p.p.f.a.p.u...6.7.u.E.p.6.7.k.9.p.k.a...2.t.s.a.k.`.s.a.k.j.E.s.u.9.a.u.u.",
"9.7.7.u.f.p.a.p.7.9.7.2.5.2.4.9.k.p.9.u.2.2.u.9.a.f.u.a.p.9.6.9.t.6.u.u.p.p.6.u.w.3.3.7.a.a.a.7.( ..2.u.9.7.7.u.s.P.a.w.u...] 9.E.j.k.`.k.g.u.f.u.9.d.9.f.E.7.u.",
"u.7.4.9.e.f.a.9.9.a.a.6.u.f.`.`.E.7.g.p.7.w.g.g.g.f.u.7.p.p.s.u.d.p.f.f.a.9.a.g.a.w.a.u.p.a.d.7.6.9.k.p.7.u.p.u.g.g.E.p.3.u.s.a.s.w.a.a.k.E.`.f.s.a.u.u.d.u.a.s.",
"9.6.u.a.s.'.f.p.f.g.u.6.s.v.`.k.d.u.p.p.j.a.k.E.g.k.a.p.a.g.p.3.a.s.u.p.u.p.p.a.9.7.p.s.s.s.u.6.u.`.d.7.P.g.g.k.s.g.u.9.g.f.a.p.9.a.a.p.a.s.u.4.E.s.9.a.u.9.u.u.",
"2.6.g.g.E.g.9.7.u.7.7.f.a.f.g.6.6.u.4.p.f.a.E.a.w.9.p.p.u.9.7.3.u.8.9.3.3.4.2.9...6.k.E.g.7.2.2.p.7.u.p.p.p.f.6.6.7.4.a.u.7.p.7.7.7.4.4.7.7.4.7.d.u.7.] ..4...7.",
"9.a.p.p.p.p.7.3.u.s.s.7.u.a.f.u.7.t.a.f.k.g.j.f.a.p.u.9.u.u.s.p.u.a.9.9.9.7.9.9.g.f.u.u.a.2.Q 6.g.g.s.u.a.a.a.4.5...u.s.a.d.d.6.u.7.6.2.u.p.p.4.9.a.7.4.7.4.6.9.",
"p.g.4.u.9.7.2.9.a.k.6.W t.7.6...( p.9.a.}.g.w.9.g.a.2.9.4.9.9.9.p.9.u.4.] 8.4.9.k.a.6.6.6.....f.p.f.7.7.f.w.7.Q E 7.a.E.`.f.7.9.a.3.5.6.2.u.u.9.u.9.u.....a.6.t.",
"u.7...4.5.7.u.j.a.p.7.3.u.] p.s.7.9.7.a.`.f.3.9.9.w.7.9.7.9.7.6.a.u.u.a.u.p.p.k.k.9.....2.Q 7.f.9.6.] 6.w.7.3.5.6.u.a.'.`.4...7.7.7.y.u.9.9.9.3.7.9.7.7.u.a.t.a.",
"k.9.u.u.9.a.u.u.2.5.5.u.u.u.E.u.Q 2.9.a.E.u.9.9.4.7.6.7.7.t.7.7.s.P.a.a.t.a.a.v.].a.a.u.6.9.p.p.....4.9.a.u.3...Q g.v.'.k.7.3.3.7.7.2.9.u.9.9.p.a.a.7.7...3.7.a.",
"a.7.t...u.u.9.u.3.2.u.3.9.u.u.7...3.t.a.a.p.g.u.7.2.2.3.2.2.2.3.u.u.4...4.g.p.9.u.9.7.5.u.7.9.9.7.u.p.p.u.4.....p.`.].v.k.u.9.4.a.7.5.7.a.9.9.g.j.9.7...6.a.a.w.",
"3...Q ..4.6.9.p.a.7.9.3.7.....3.6.6.u.u.p.9.9.a.9.7.3.3...Q 6.6.9...W ..7.p.u.7.6...W ..2.6.7.a.g.g.g.f.7.7.7.s.}.`.'.j.a.u.4.u.9.2.2.a.g.p.a.a.a.7.....7.u.u.4.",
"3...3.9.s.f.a.j.u.4.u...( 5.5...( ..Q 6.7.7.6.3.3.3.7.7.( W ( Q ..] 2.7.9.3...( ....2.9.a.a.`.'.a.a.j.9.4.u.u.9.s.a.9.4.u.3...4.9.9.`.[.f.g.p.7.a.6.u.i.u.7.7.3.",
"j.s.j.k.k.j.k.9.w.j.a...4.7.7...Q W 6.u.a.u.6.p.7.-.5.I W Q 2.5.4.a.u.4.4.9.5...7.u.w.g.s.9.g.g.E.v.E.9.9.a.p.3.a.u.u.t.9...4.p.f.p.f.9.7.g.a.g.g.E.'.d.u.g.u.7.",
"p.u.a.a.w.w.u.u.p.8.9.4.4.9.7.6.2.3.7.6.a.d.6.p.5.2.E Y Q 3.a.7.5.u.u.d.f.d.5.6.t.6.t.a.4.2.3.p.k.u.9.9.u.9.u.4.a.u.4.7.9.u.a.s.u.3...7.w.9.k.k.g.g.a.a.j.a.6.6.",
"9.4.9.4.4...9.j.9.9...5...5.u.u.9.p.P.g.a.g.u.7.2.5.5.7.a.p.t.7.t.L.^. X XoXXX$XoX X(.T.I.y.t.g.u.u.7.7.t.7.u.9.a.g.a.f.s.a.p.u.t.2.6.a.p.f.7.d.u.w.u.] ....6.a.",
"2...7.9.9.a.a.k.u.4.......3.9.u.u.w.k.j.`.`.j.9.Q 4.p.d.p.p.K.(.XX%X&X%X&X%X%X%X%X%X%X%X%X$XXX_.U.p.5.....7.u.u.a.u.u.f.s.p.p.p.7.u.f.u.3.7.u.u.9.s.5...d.u.u.w.",
"] 3.p.a.p.s.u.4.9.2.] ..Q 3.9.u.4.3.9.9.a.a.3.9.7.6.7.L.^. X_.Q.c.x.z.z.c.W./..X%X%X%X%X%X%X&X%X%X XK.y.....u.u.3.....7.9...9.u.a.s.u.4.4.....u.a.w.u.d.E.E.u...",
"u.k.j.e.s.9.3.9.5.Q 3.5.T Q 6.7.7.u.p.s.s.u.6.5.2.5.d.c.q.&.r 0 8 7 7 7 0 0 r t ;.W._.OX%X%X%X%X%X%X$XY.o...4.4...2.4.u.6.7.a.u.u.5.7.9.u.6.6.6.4.u.6...5.7.5.6.",
"'.s.a.9.7.3.5.5.....u.( ..u.p.s.p.k.k.a.g.u.5.Q -.*.&.0 9 9 9 9 7 7 7 9 9 9 7 7 7 9 t ;.W.OX%X%X%X%X%X X| { 0.i.9.u.9.4.5.u.u.7.6.7.6.t.....t.7.7.5...u...a.j.k.",
"7.9.5.4.9.3.9.3.7.t.2.( u.E.].s.a.k.a.u.7.7...=.q 7 7 7 7 8 7 7 7 7 7 7 7 7 7 7 7 7 7 7 0 ;.Q.OX%X%X%X%Xn.y | i.g.a.p.2.u.u.6...3.6.7.6.t.4.u.7.u.4.s.u.t.a.a.a.",
"u.9...3...3.3.7.6.6.2.9.p.}.E.9.9.a.9...7.4.<.q 7 7 7 7 7 7 7 7 7 7 7 7 7 7 7 7 7 7 7 7 7 7 0 ;.}.%X&X&XY.` y } X.p.9.2.u.k.9.f.u.u.a.g.E.u.u.7.4.a.4...t.9...5.",
"4.Q ] ....] ] ] Q ( 7.p.9.g.g.9.e.9.] ....@.8 8 7 7 7 7 7 7 7 7 7 7 7 7 7 7 7 7 7 7 7 7 7 7 9 9 r q.XX^.J.` y y } X.4.9.u.7.u.u.k.k.j.a.7...u.7.7.7...a.f.4...u.",
"......3...] Q ] u.u.s.9.a.g.j.e.s.3.5.7.=.8 7 7 7 7 7 7 7 7 7 7 7 7 7 7 7 7 7 7 7 7 7 7 7 9 9 9 7 8 #.6 2 1 5 y u [ X.a.9.7.u.u.g.s.u.5.7.u.s.9.7.a.k.a.w.9.a.u.",
"u.......6.u.3.9.k.a.e.9.`.g.s.p.2...( ] r 7 7 7 7 7 7 7 7 7 7 7 7 7 7 7 7 7 7 7 9 7 7 7 7 9 0 r r &.e < , > 4 5 y y | i.9.3.7.a.a.j.4.3.a.a.u.5.p.`.'.g.7.p.u.7.",
"5.3.a.p.a.w.9.0.9.9.4.a.p.9.u.....E R 8 7 7 7 7 7 7 7 7 7 7 7 7 8 7 7 7 7 7 7 7 9 0 t ;.q.c./._..XXX).' > > > 2 X.Y.Y.R.5.2.9.7.7.6.4.a.u.] 2.4.a.k.g.5.3.9.( 5.",
"a.u.a.p.f.a.a.a.p.f.g.d.p.7.3.6.( T w 8 7 7 7 7 7 7 7 7 7 7 7 7 7 7 7 7 7 7 7 r 1.b._.XX%X%X%X%X&X&X&X).' 2 4 3 M.+X&X$XI.7.a.t.9.9.p.7.6.4.u.5.g.k.p.6.7.3.3.6.",
"k.k.a.a.f.s.u.a.9.a.u.u.3.7.6.( T =.8 8 7 7 7 7 7 7 7 7 7 7 7 7 7 7 7 7 7 r q./.XX&X&X%X%X%X%X%X%X%X&X$XXXg...s c Z @X&XXXP.p.p.a.9.6.....5.7.u.9.u.7.Q 2.3.7.p.",
"E.a.u.j.u.a.j.j.u.9.3.3.] ..Q ] 4.&.7 7 7 7 7 7 7 7 7 7 7 7 7 7 9 9 9 0 *.!.OX%X%X%X%X%X%X%X%X%X%X%X%X%X%X&XG.m n n V.#X%X).9.9.a.6.2.2.7.4.9.3.2.6.2.2.7.w.9.a.",
"k.a.w.u.9.a.7.u.6...Q W Q ..W 7.:.8 7 7 7 7 7 7 7 7 7 8 7 7 7 7 9 9 0 z.XX%X%X%X%X%X%X%X%X%X%X%X%X%X%X%X%X%XG.n n n v D.%XXXu.4.6.3...9.p.7.9.2.7.p.7.t.2.u.p.g.",
"e.a.j.u.a.6.] ..Q T Q ....5.6.9.&.7 7 7 7 7 8 7 7 7 7 7 7 7 7 7 9 t Q.%X%X%X%X%X%X%X%X%X%X%X%X%X%X%X%X%X%X%XS.n n n n V +X%XI.t.p.9.p.a.a.9.9.7.g.g.f.7.9.a.g.g.",
"8.9.t.t.6.W I Y W ....3...Q ..8.r 7 7 7 7 7 7 7 7 7 7 7 7 7 7 8 *._.%X%X%X%X%X%X%X%X%X%X%X%X%X%X%X%X%X%X%X%XA.n n n n n Z.%XoXP.a.p.p.f.E.p.a.f.d.a.u.w.w.p.u.p.",
"7.] W Q W T ..3.3.2.2.......a.1.7 7 7 7 7 7 7 7 7 7 7 7 7 9 9 >.XX%X%X%X%X%X%X%X%X%X%X%X%X%X%X%X%X%X%X%X%X%XA n n n n n M +X%XP.w.w.g.`.p.9.w.3.6.7.w.7.3.3.Q 2.",
"6.W T ] Q ..u.4.9.4.2.5.7.E.k.&.7 7 7 7 7 7 7 7 7 7 7 7 7 9 >.OX%X%X%X%X%X%X%X%X%X%X%X%X%X%X%X%X%X%X%X%X%X#XA n n n n n n A.%X^.w.a.`.7.7.6.5.3.s.g.p.6.2.Q 2.Q ",
"] ..2.7.] 9.3...3.5.7.a.s.a.8.r 7 7 7 7 7 8 7 7 9 7 7 7 7 ;.XX%X%X%X%X%X%X%X%X%X%X%X%X%X%X%X%X%X%X%XOX%X%X@XN n n n n n n V +X_.6.3.] W ..W ( w.p.p.7.7.2.2.7.] ",
"7.3.3.7.u.7.7.u.7.9.4.u.9.6.8.0 7 7 7 7 7 7 7 7 7 7 7 9 t /.%X%X%X%X%X%X%X%X%X%X%X%X%X%X%X%X%X%X%X%X%X%X%XH.m n n n n n n v G.XXg.9.7.7.7.9.4.g.f.7.4.7.a.s.g.7.",
"7.7.7.7.u.u.u.9.9.4.p.t.6.d.q.0 7 7 7 7 7 7 7 9 7 7 7 0 c.%X%X%X%X%X%X%X%X%X%X%X%X%X%X%X%X%X%X%X%X%X%X%X%XS.n n n n n n n n V.#Xd.6.7.9.w.p.a.a.p.p.v.g.p.p.9.3.",
"7.5.6.9.p.u.4.....( ..4.f.{.1.8 7 7 7 7 7 7 7 7 7 7 9 >.%X%X%X%X%X%X%X%X%X%X%X%X%X%X%X%X%XOX%X%X%X%X%X%X%XA n n n n n n n n N @XL.5.6.6.7.7.3.a.a.g.`.a.6.4.2.Q ",
"6.2.3.u.7.3...6.2.Q u.g.`.`.*.7 7 7 7 7 7 7 7 7 7 7 t _.%X%X%X%X%X%X%X%X%X%X%X%X%X%X%X%X%X%X%X%X%X%X%X%X+XM n n n n n n n n n H.U.a.s.`.9.7.p.a.7.7.7.( 5.t.7.3.",
"3.5.u.6...6.3.9.p.f.k.k.g.t.w 7 7 7 7 7 7 7 7 7 7 9 z.%X%X%X%X%X%X%X%X%X%X%X%X%X%X%X%X%X%X%X%X%X%X%X%X%XF.v n n n n n n n n n A.L.p.g.f.u.7.a.6.3.5.2.3.2.p.t.t.",
"7.9.p.u.a.g.j.a.g.p.f.a.p.6.#.7 9 7 8 7 7 7 7 7 7 t _.%X%X%X%X%X%X%X%X%X%X%X%X%X%X%X%X%X%X%X%X%X%X%X%X#XA n n n n n n n n n c A I.w.s.a.p.u.t.2.5.u.s.u.5.4.4.7.",
"3.p.u.s.p.j.j.g.p.6.9.3.6.7.*.7 7 7 7 7 7 7 7 7 9 z.%X%X%X%X%X%X%X%XOX%X%X%X%X%X%X%XOX%X%X%X%X%X%X%X%X+XM n c n n n n n n n n Z K.a.w.p.a.7.7.p.7.u.u.3...4.....",
"9.6.9.p.g.k.a.4.( 6.p.3.u.7.*.8 7 7 7 7 7 7 7 7 0 /.%X%X%X%X%X%X%X%X%X%X%X%X%X%X%X%X%X%X%X%X%X%X%X%X%XS.n n n n n n n n n n n N K.g.k.k.9.t.7.7.6.6.4...9.7.] ..",
"9.9.p.9.g.s.p.5.3.s.j.9.p.a.r.0 7 7 7 7 7 7 7 7 ;.XX%X%X%X%X%X%X%X%X%X%X%X%X%X%X%X%X%X%X%X%X%X%X%X%X@XC n n n n v n n n n n n N K.p.p.p.a.s.a.7.6.u.7.2.9.4.9.a.",
"f.a.a.E.j.a.u.7.p.`.9.6.g.'.b.0 7 7 7 7 7 7 7 7 x.%X%X%X%X%X%X%X%X%X%X%X%X%X%X%X%X%X%X%X%X%X%X%X%X%XD.v n n n n n n n n n n n N K.7.9.9.a.s.u...u.9.7.9.7.5.7.u.",
"9.a.E.j.s.4.....9.u.9.a.a.P.a.r 7 7 7 7 7 7 7 0 !.%X%X%X%X%X%X%X%X%X%X%X%X%X%X%X%X%X%X%X%X%X%X%X%X#XZ n n n n n n n n n n n n x 2.2.6.9.9.3.6.3.u.7.5.] ....3.u.",
"`.E.a.9.u...W 6.g.g.g.a.f.g.w.&.7 7 7 7 7 7 7 &..X%X%X%X%X%X%X%X%X%X%X%X%X%X%X%X%X%X%X%X%X%X%X%X%XS.n n n n n n n n n n n n n m.t.w.4.3.7.u.7.5.u.u.7.4.u.f.j.a.",
"'.k.u.5.7.E ..a.g.P.u.6.7.p.7.$.9 7 7 7 7 7 7 ;.$X%X%X%X%X%X%X%X%X%X%X%X%X%X%X%X%X%X%X%X%X%X%X%X+XN n n n n n n n n n n n n c B.f.i.a.u.a.u.5.4.u.4.a.7.u.E.g.a.",
"s.7.( ( ] 2.f.k.a.6.5.Q ..9.9.8.0 7 7 7 7 7 7 q.%X%X%X%X%X%X%X%X%X%X%X%X%X%X%X%X%X%X%X%X%X%X&X$XC.n n n n n n n n n n n n n B h.p.f.g.g.7.7.4.7.7.a.u.9.s.f.u.s.",
"g.7.5...5.u.a.u...Q ....9.E.a.e.&.7 7 7 7 7 7 c.%X%X%X%X%X%X%X%X%X%X%X%X%X%X%X%X%X%X%X%X%X%X$XF.m n n n n n n n n n c v n n M.f.f.E.'.f.9.p.a.7.g.E.u.4.7.u.9.a.",
"6...( ( u.u.3.2.....6.5.7.a.p.9.q.8 9 9 7 7 8 Q.%X%X%X%X%X%X%X%X%X%X%X%X%X%X%X%X%X%X$X%X%X&X+XC n n n n n n n n n n n n n V K.f.E.p.4.7.9.p.9.6.7.u.u.W 6.u.t.t.",
"( W Y ..4.u.6.9.u.2.5.u.u.f.a.j.j.&.9 9 7 7 0 _.%X%X%X%X%X%X%X%X%X%X%X%X%X%X%X%X%X%X%X%X%X$XV.n n n n n n n n n n n n n n m.p.f.u.2.] ......4.7.5.2.T E ..6.7...",
"( ( 3.p.a.p.a.a.6.3.u.4.4.u.s.E.g.:.0 9 9 9 r _.%X%X%X%X%X%X%X%X%X%X%X%X%X%X%X%X%X%X%X%X$XS.m n n n n n n v n n n n n n N O.5.7.6.6.3.] T Q 6.6.3.....4.7.6...W ",
"d.g.k.k.`.k.d.4.f.g.a.9.9.j.g.s.e.7.*.0 9 9 t .X%X%X%X%X%X%X%X%X%X%X%X%X%X%X$X%X%X%X%X%XD.m n n n n n n n n n n n n n m N.2...4.6...( I W 7.7.6.u.a.a.3.5.u.6.6.",
"g.f.g.a.u.u.2.6.f.7.9.a.g.s.s.g.p.7.7.r 9 7 t .X&X%X%X%X%X%X%X%X$X%X%X%X%X%X%X%X%X%X%XH.M n n n n n n n n n n n n n n x t.5.7.t.( W Y W p.9.p.7.4.u.t.t.u.u.7.u.",
"E.u.9.7.3...4.p.u.a.u.d.g.k.`.E.g.g.a.:.0 7 t .X%X%X%X%X%X%X%X%X%X%X%X%X%X%X%X%X%X%XH.M n n n n n n n n n n n n n n B O.6.6.6.2.W I ..g.p.a.4.5...6.t.t.u.a.u.s.",
"[.[.j.f.u.9.s.E.E.j.g.u.f.j.E.j.a.w.9.4.$.8 t .X%X%X%X%X%X%X%X%X%X%X%X%X%X%X%X%X$XH.V n n n n n n n n n n n n n n M +.3.d.g.f.9.2.u.E.u.u.6.6.5.5.7.p.g.9.9.p.`.",
"P.a.t.u.u.7.4.a.s.u.u.s.f.a.j.u.5...Q 2.Q $.&._.%X%X%X%X%X%X%X%X%X%X%X%X%X%X%X$XS.m n n n n n n n n n n n n n n b / W 2.p.7.3.7.f.`.g.u.u.2.5...2.a.s.7.3.3.7.f.",
"9.....6.2...9.g.u.u.a.p.7.6.7.6.....2.6.5.P ! (.&X%X%X%X%X%X%X%X%X%X%X%X%X&X@XZ.m n n n n n n n n n n n n n n z p L 2.6.a.7.7.6.9.g.p.p.7.( ( ..p.a.7.6.6.9.p.a.",
"7.4.4.3.3.a.k.k.a.f.k.u.9.5.u.7.2.7.7.3.( - % _ (.&X%X%X%X%X%X%X%X%X%X&X$XH.Z n n n n n n n n n n n n n n n h G . : p.a.d.p.3.3.2.9.2.2.( W 6.g.E.f.u.f.p.k.`.p.",
"t.u.u.a.E.g.g.a.s.a.u.u.3.9.k.9.7.3.7.6.Y $     F T.#X$X%X%X%X%X%X%X%X+XA.M n n n n n n n n n n n n n n v g S $ $ ; 4.7.a.p.2.( 3.4.2.W 2.p.}.k.a.g.[.p.a.`.a.6.",
"a.f...3.9.p.p.s.u.6.2.3...5.u.4.3.9.6.3.T % + o # D ) oX&X&X%X&X%X+XS.V m n n n n n n n n n n n n n c d a * - % + ; ] 2.p.7.3.5.6.7.u.p.P.E.`.s.a.`.p.6.p.a.6.t.",
"....7...u.4.4.9...Q Q ..Q ..9.4.9.s.2.7.T +   $ % & $ D _ T.+XF.C.V n n n n n n n n n n n n n n v f a p   $ ; = - F W 3.6.....2.p.g.'.`.p.a.a.9.9.u.6.9.f.3.2.7.",
"5.6.4.6.5.3.5.] ..] 3...] 5.k.u.w.7.p.p.2.: # $ $ % $   o D ^ f b n n n n n n n n n n n n m z g ~ S o . % D : ; = P 7.t.6.t.7.u.g.`.`.f.E.j.E.7.u.p.a.p.p.2.9.7.",
"t.5.4.u.7.u.7.5.6.6...W 6.f.g.k.f.9.u.9.7.T - $ & & o o o $ o o G a k f h b l l l d h f s a S % $ % # # : F D D F 5.6.6.5.3.9.9.k.].j.p.k.9.7.5.7.f.P.a.t.u.6.2.",
"Q ] g.a.7.u.4.u.4.5.6...7.9.u.t.9.u.3.2.3...W & o o . o o o o o + $ % O O * X X O * & * % $ o $ @ o o - - - - - T ..Q ( ( 6.a.g.k.E.a.f.u.( ....5.u.9.Q Q 3.( ..",
"..9.j.u.p.p.9.4.p.s.`.f.E.a.u.g.a.9.4.] 3.3.u.T ; o o o o o o o $ % #   + o @ % % % $ # $ % $ % % $ D D : - H ..] Q W ..6.p.E.E.E.`.s.7.2.......u.a.6...6.....6.",
"k.k.a.j.a.u.u.9.d.s.f.a.u.p.g.d.9.p.4.5.w.w.u.u.w.Y : o   o o $ $ $ o   o % + = ; - % $ - % % % $ = % D H E 5.....2.W 2.g.'.E.j.{.j.6...Q ] W 2.2.6.5.W ..4.5.a.",
"v.a.9.u.a.s.a.g.s.f.f.u.2.4.9.p.p.w...t.a.7...u.9.6.Q J - % $ % o # o $ $ $ @ % - % o $ % & - - - D H Y ] ..E ] ..2...7.{.`.k.s.g.u...( ....2.] ..2...7.f.9.7.k.",
"].9.9.9.9.s.d.p.u.7.3.5.3.u.9.e.7.7...u.p...t.6.2.5.Q u.6.W Y F D ; - % o # $ % % + + % = ; F I ..5.t...Q W Y W ..7.7.k.v.a.a.7.5.5.........7...4.a.p.g.u.p.a.k.",
"j.w.9.7.u.t.6.4.7.......9.k.p.7.7.6.7.u.9.6...6.u.9.a.s.9.f.i.p.u.7...I L K K L U U Y T 4.2.3.4.7.5.( Q ( ....5.9.f.g.k.a.9.2...u.u.u.7.3.3.9.9.g.'.j.a.g.v.s.k.",
"9.9...4.4.Q Q 6.2...6.9.p.u.3.4.u.u.a.7.6.4.t.d.p.p.p.a.a.f.f.d.u.u.4.9.9.9.u.f.a.g.u.u.u...Q ....( ( ......6.s.g.s.P.u.7.4.6.9.u.7...t.g.j.k.k.a.s.a.j.g.p.p.g.",
"4.......2.6.7.7.Q ..7.3...] a.a.w.7.6.3.p.p.7.f.f.p.`.[.g.p.u.6.9.9.9.4.u.t.4.9.9.5.........6.3.W ( ..W ..5.E.'.k.s.u.7.7.3...3.6.5.f.k.a.g.k.a.9.u.a.9.2.2...5.",
"u.....u.7.t.7.2.9.4.6...3.a.E.w.4.2.3.p.s.9.u.f.p.w.E.p.7.7.3.7.g.`.j.u.7...5.4.p.2.Q 2.2.] ..T 6.t.....9.'.|.E.f.u.p.d.u.5.] 5.6.7.g.u.9.9.7.6.a.E.a.6...W ( 2.",
"u.5.7.g.a.p.7...6...3.w.E.k.p.4.6.] 3.u.6.7.u.p.7.p.7.( ( ( 3.7.a.a.p.u.4.u.a.3.2...4.6.2...Y R ....u.k.'.].E.d.7...3.3.5...2...] 4.5...5.....u.f.u...Q Q ..5.6.",
"a.u.f.d.i.a.w.w.4.u.p.s.g.p.....3.9.u.7.2.5.6.u.a.p.7.3.5.w.7.s.a.t.7.9.k.E.j.p.9.-.3.....Q ..9.7.a.k.'.`.f.6.6.3.5.7...] ....5.f.u.u.u.u.u.u.g.t...Q ..t.p.p.u.",
"s.g.w.a.u.a.f.a.p.s.g.9.7.p.a.a.a.7.3.2.7.a.a.u.6.3.7.u.w.p.a.p.p.p.k.j.a.f.p.7.9.u.4.3.7.p.g.s.j.k.v.a.8.7.d.f.6.6.6...3.7.u.g.f.7.7.9.p.9.P.g.6...7.9.u.E.k.i.",
"f.u...w.k.9.6.t.u.t.7.4.a.E.`.4.] 3.] 7.7.6.( 2.3.2.2.7.t.2.4.a.u.u.e.4.] Q ..2.2.3...3.a.E.g.a.f.f.3.2.7.a.f.5.T ..( 5.4.7.9.u.d.6.3.u.4.3.t.6...9.a.9.7.u.6.7.",
"4.3.7.9.7.7.7.t.7.6.u.9.p.9.2.( 2.p.a.a.6.2.2.p.u.p.p.g.p.6.w.p.2.3.] ..Q ] 2.2...] ..6.9.p.d.g.a.u.a.7.6.6.T ( ( 4.4.f.u.p.a.p.u.9.4.g.u.t.u.u...u.f.9.7.a.a.9.",
"7.4.9.9.7.7.7.u.u.u.f.9.9...R u.p.j.a.p.t.p.f.p.7.p.u.a.4.7.a.7.4.6...6.Q 6.6.3.2...6.u.7.p.p.p.3.w.i.6.6.( W u.2.u.g.E.s.s.j.g.7.u.4.f.u.g.k.s.a.k.s.f.9.E.a.9."
};
