/* XPM */
static char *char1_right[] = {
/* columns rows colors chars-per-pixel */
"80 80 214 2 ",
"   c #010100",
".  c #090501",
"X  c #090909",
"o  c #190E02",
"O  c #1A1A19",
"+  c #231303",
"@  c #371F05",
"#  c #25221D",
"$  c #2C2C2C",
"%  c #343434",
"&  c #332A21",
"*  c #4A2907",
"=  c #6B3C0A",
"-  c #7A450B",
";  c #4F493E",
":  c #5F5F5F",
">  c #484848",
",  c #73705F",
"<  c #6F6F6F",
"1  c #666666",
"2  c #7F7D6B",
"3  c #767675",
"4  c #884C0D",
"5  c #96540E",
"6  c #A45C0F",
"7  c #AD6110",
"8  c #BB6911",
"9  c #B3630F",
"0  c #BE7526",
"q  c #BF792B",
"w  c #B8762A",
"e  c #AF7B3D",
"r  c #B57B36",
"t  c #C26D12",
"y  c #CD7313",
"u  c #CB771C",
"i  c #D37613",
"p  c #DC7B14",
"a  c #D67A18",
"s  c #E27F15",
"d  c #C97B28",
"f  c #9F7745",
"g  c #AF7F43",
"h  c #837A63",
"j  c #827E6C",
"k  c #E58015",
"l  c #EC8416",
"z  c #F18716",
"x  c #F68A17",
"c  c #FE8E16",
"v  c #FF8F18",
"b  c #F0881A",
"n  c #FE911A",
"m  c #CB822F",
"M  c #D78328",
"N  c #CA8539",
"B  c #D08D3F",
"V  c #FC9424",
"C  c #F7952A",
"Z  c #FB9629",
"A  c #FD992D",
"S  c #FA9B33",
"D  c #F49A36",
"F  c #E88D2D",
"G  c #FDA13C",
"H  c #9D8156",
"J  c #A58457",
"K  c #B98953",
"L  c #A6814C",
"P  c #8C8165",
"I  c #84826E",
"U  c #8D846B",
"Y  c #99896A",
"T  c #868471",
"R  c #898672",
"E  c #8C8975",
"W  c #8E8B78",
"Q  c #928F7B",
"!  c #95927C",
"~  c #99947D",
"^  c #9B9072",
"/  c #A08B67",
"(  c #D9984B",
")  c #D49C55",
"_  c #CC914C",
"`  c #EB9E45",
"'  c #EFA54D",
"]  c #EDA044",
"[  c #F3A246",
"{  c #FEA342",
"}  c #F1A54B",
"|  c #FFA94F",
" . c #E5A85C",
".. c #E6A658",
"X. c #F5AB53",
"o. c #F8B15F",
"O. c #D7A76A",
"+. c #D3AD76",
"@. c #DCB57A",
"#. c #DFB071",
"$. c #CAA371",
"%. c #E2AC66",
"&. c #ECB267",
"*. c #FDB466",
"=. c #E6B979",
"-. c #FFBB73",
";. c #FFBF7B",
":. c #FFC07E",
">. c #8C8C8D",
",. c #9B9781",
"<. c #9C9983",
"1. c #979580",
"2. c #A29E85",
"3. c #A09E9B",
"4. c #AAA58D",
"5. c #A8A389",
"6. c #AEAB91",
"7. c #A5A29E",
"8. c #B1AD93",
"9. c #B3AF98",
"0. c #B6B296",
"q. c #B7B399",
"w. c #BAB69B",
"e. c #BDB99D",
"r. c #B9B597",
"t. c #BFBBA1",
"y. c #BDB3A4",
"u. c #B9B8B7",
"i. c #A6A6A6",
"p. c #CAB286",
"a. c #DABE8D",
"s. c #D6BA89",
"d. c #C1BD9E",
"f. c #CBBB97",
"g. c #D3BE95",
"h. c #C6AE81",
"j. c #E2BA81",
"k. c #C2BEA2",
"l. c #C3B9AB",
"z. c #C9BFB3",
"x. c #C5C19F",
"c. c #DBC293",
"v. c #DCC79B",
"b. c #D8C89E",
"n. c #E8C389",
"m. c #FFC78C",
"M. c #FFC588",
"N. c #E3C694",
"B. c #E9CA96",
"V. c #FFCA91",
"C. c #C6C1A4",
"Z. c #C9C5A6",
"A. c #CDC8A7",
"S. c #C6C3A8",
"D. c #CAC6A9",
"F. c #CEC9AC",
"G. c #D4C5A2",
"H. c #D5C9A5",
"J. c #DBCBA2",
"K. c #D1CDAE",
"L. c #D6C8AA",
"P. c #D5D0AF",
"I. c #DAD3AE",
"U. c #CFCBB0",
"Y. c #CEC4B2",
"T. c #D2CEB1",
"R. c #D1C9BC",
"E. c #D6C9B1",
"W. c #D6D1B3",
"Q. c #D9D5B5",
"!. c #DDD8B6",
"~. c #D7D3B8",
"^. c #DAD6B9",
"/. c #DDD9BB",
"(. c #FFD6AB",
"). c #FFD3A5",
"_. c #E0DBB7",
"`. c #E6D6B9",
"'. c #E1DDBD",
"]. c #E2D7B2",
"[. c #FCDCB9",
"{. c #E9D2A4",
"}. c #E5E0BF",
"|. c #C2C2C3",
" X c #CDCAC5",
".X c #CDCDCD",
"XX c #CEC7C0",
"oX c #DFDBC0",
"OX c #D2D0CF",
"+X c #CFCFD0",
"@X c #D3D3D3",
"#X c #DFDFDF",
"$X c #D0CBC5",
"%X c #E2DEC1",
"&X c #E5E1C2",
"*X c #E9E4C4",
"=X c #EDE8C6",
"-X c #EAE6CA",
";X c #EDE9CB",
":X c #E7E3C8",
">X c #FFE2C4",
",X c #FAE7CB",
"<X c #FBECDA",
"1X c #F4F0D1",
"2X c #ECE1D1",
"3X c #E3E3E3",
"4X c #EBEBEB",
"5X c #FFF6EC",
"6X c #FAF2E7",
"7X c #F3F3F4",
"8X c #FEF9F3",
"9X c #FFFFFE",
"0X c #FCF7F0",
"qX c #F8EFE2",
/* pixels */
"W.^.^.^.!.!.}.Q._.K.P.Z.d.k.W.P.W./.!.D.!.!.P.F.W.D.W./.W.K.F.Z.S.F./.T.S.F.C.C.Z.D.P.P.P././.W.Q.Z.D.S.Z.D.&X/.~.}./.F.&X}.W.D.D.F./.%X/./.&X!.}./.*X_.W./.Q.W.",
"W.Q.^.^.P.Q.'._.!.W.F.D.C.K.K.A.!.W.D.K.Q.Q.F.D.C.F.K.~.Q.F.D.F.F.W.W.D.C.U.k.C.W.W.F.W.W.^.!.W.P.C.D.F.W./.~.D.F./.K.W.}.~.C.C.D.Q.W.'.*X/./././.&X/.P.K.~.K.F.",
"K.F.F.T.Q.Q.Q.W.F.K.F.C.S.C.A.K./.^.F.P.Z.Z.F.K.Q.Q.K.~.W.F.D.F.U.S.W.W.~.W.D.W.P.Z.D.D.~.~.Q.F.k.t.Z.W.K.F.D.T././.~.P.F.C.d.F.&X/.}.}././.W.^.W.K.~.F.Q.%XD.W.",
"T.F.A.K.W.Q.Q.K.K.Q.Q.D.T.^.&X&X'.K./.W.D.W./././.^.W.F.W.W.!.P.W.~.~.^.Q.F.~./.W.P.!.W.W.~.!.D.D.K./.W.F.K.~.W././.&XP.Z.W.!.W.!.P.W.!.'.}.&XW.Q.^.K.W./.K.W.Q.",
"K.D.T.Q.!.*X^.W.^./.K.D.!.}.&X'.~.W.W.W./.!./.%X/./.Q.W.!.!.W.D.Q.Q.W.W.P.P.W.!.K.A.W.!.!.!.W.D.T.&XW.D.oXoX/./././.W.F././.~.W.P.~.Q.W.!.!.P.A.%X^.K.Q.K.K.T.W.",
"C.D././.%X/.K.F.T.F.F.^.Q.^./.D.S.U.D.W.^.Q.&XQ.P.P.W.~.T.K.D.D.W.K.F.Z.Z.Z.Z.F.C.D.'.%X/.D.C.C.W.F.W.W.W.W./.D.S.F.D.W.W.D.W.D.A.F.D.A.D.F.D.F.W.W.F.e.C.D.C.F.",
"K.Q.W.W.W.W.F.Z.T.^./.F.T.Q.^.T.D.W.~./././.!.Q.Q.W.P.K.T.P./.W.P.Q.A.P.K.A.F.K./.Q.W.T.~.Z.e.Z././.!.T.~.!.~.D.S.C.P.!.!.~.W.D.W.D.D.C.F.~.W.D.F.Q.F.F.F.D.D.K.",
"W./.A.T.K.A.S.K.Q.'.D.w.U.D.D.C.t.W.K.Q.:X/.W.P./.~.C.F.D.K.F.P.P.K.P.A.d.K.D.P./.~.D.D.D.t.e./.P./.D.U.Q.P.F.e.q.D.!.oX*X/.D.T.~.Z.Z.D.C.W.W.K.T.P.W.k.C.W.D.F.",
"W.F.k.D.D.F.K./.Q.W.A.C.T.k.W./.F.K.F.W.*X~.Z.F.F.P.F.K.F.F.F.F.W.W.T.^.W.Q.W.'.'.K.d.C.C.e.U./.F.Z.d.D.W.D.C.Z.S.W.!.&X*XD.C.D.U.F.D.W.K.W.F.D.D.P.F.F.K.Q.F.W.",
"_.F.W.T.F.Q.K.W.Z.C.D.K.T.T./.W.w.Z.K.!.'.W.P.F.A.F.D.F.F.U.U.D././.Q.W.U.W.Q.}.*XQ.W.T.D.F.W.W.C.C.D.F.Q.P.Z.e.w./.}.}.}.D.Z.D.D.F.S.F.W.K.F.W.!.Q.F.D.C.D.F.Q.",
"W.F.F.C.T.T.T.T.Z.C.T.D.K.T.T.K.C.D.K.~.~.W./.P.P.C.C.Z.Z.C.Z.Z.K.K.D.C.F.^.Q.K.W.F.F.D.W.F.P.F.F.K.~.P.W.D.C.C.Q.&X=X}./.P.A.D.~.F.Z.F.W.F.P./.!.F.F.C.D.W.W.W.",
"C.C.e.k.F.D.K.W.Q.F.F.D.F.C.k.C.S.D.T.W.W.P.K.W.F.F.Z.D.e.e.D.D.F.C.w.k.F.W.K.F.S.k.q.C.C.D.D.!./././.!.F.D.F./.*X&X&X}.Q.W.F.W.F.C.Z.Q./.W.Q.Q.Q.F.t.D.D.W.P.D.",
"D.C.C.H.!.Q.!.!.T.D.K.C.e.S.S.k.e.C.e.S.F.K.D.Z.D.Z.F.F.t.r.k.w.C.e.C.A.F.D.e.k.C.t.C.F.W.Q.&X*X!.Q.!.P.F.P.W.F./.Q.K.F.K.C.C.D.F.K.*X-X/./.W.F.W.D.W.~.W.F.F.D.",
"_././.}.'._._.K.W.!.Q.k.A.F.F.k.e.w.D.U.~.K.D.W.F.x.C.6.r.e.C.S.D.Q.W.F.F.K.Z.C.F.U.P.!.!.P././.&X}.&XF.K.Q.W.Z.~.K.T.F.F.C.F.P./.W.^.F.F./.W././.&X&X~.K./.P.F.",
"I.P.Q.!.P.K.K.W.I.K.K.Z.A.K.F.D.Z.S.F.D.W.~.D.W.S.C.q.9.d.Z.~.F.F.P.T.T.W.T.C.S.F.C.F.W.D.Z.Z.P./.W.F.F.T.K.W.A.Q.K.F.D.F.P.Q.!.W.S.k.F.P.K./.%X/.!.!.Q./.W.D.D.",
"F.D.F.D.A.C.K.!.K.F.k.Z.C.S.T.T.F.W.oX/.!./.W.D.C.S.S.D.~.W.U.Z.k.D.W.T.K.T.k.S.F.k.t.f.#.p.D./.W.W.D.U.F.D.W.K.Q./.Q.Q./.Q.P.W.F.C.D.Q.W.^.F.~.W.W.K.e.e.Z.D.W.",
"Z.C.D.F.W.~.!./.W.F.C.d.C.C.K.W.K.W._./.}.&X/.K.e.D.P.~.W.F.D.d.C.F._.W.D.C.D.F./._.N.' V @.!.!.~.U.D.t.C.D.K.W.W.W.W.Q.!.P.P.W.D.W.Q.K.Z.F.T.U.K./.C.C.W.W.W.W.",
"e.C.P.!.W.Q.W.D.F.C.e.C.r.C.K.T.D.Z.F.K.!.Q.D.K.F.D.F.W.F.D.C.D.W.}.'.D.w.Z.D.P.Q.n.S v v %.k.C.D.Z.C.S.C.Z.W.F.Z.d.C.F.F.D.F.W.~.!.W.D.D.C.Z.T.!.P.F.~.oX%XU.C.",
"W./.!.I.!.P.Z.F.Z.w.D.D.r.e.D.D.D.P.W./.Q.T.D.D.Z.C.F.^.F.C.e.Z.W.!.D.d.S.F./.H.&.n c v c ..d.C.C.e.T.F.e.k.D.D.k.C.D.F.D.F.~.W.K.F.U.F.F.S.D.D.D.U.D.C.C.D.S.D.",
"*X/.!.P.D.C.Z.D.k.C.F.y.k.T.Q.!.~._.'.!.^.T.Z.e.e.C.D.D.C.t.F.P.~.P.A.P.F./.{.X.n n c c c ] A.K.D.Z.W.k.C.F.P.Q.F.W.K.D.S.F.T.F.D.F.D.Y.Z.k.F.D.F.S.k.T.Z.~./.'.",
"F.F.D.D.F.Z.F.Z.F.T.k.t.T.'.=X!./._.Q.U.F.F.C.w.C.C.D.d.Z.D.W.P.F.K./.F.U.N.G v c v v v v D J.W.W.D.D.k.~.^.&X/./.Q.W.Z.T.W.D.C.Z.D.F.D.F.K.T.F.F.F.Q.T.F.Q.W.W.",
"W.F.C.Z.Z.Z.Z.F.D.Z.S.K.W.:X&XK.F.~.F.C.F.D.S.k.e.F.P.~.W.~.W.~.K.P.D.D.j.C n v v v v v v C v.W.Q.F.C.T./.'.!.K.F.W.K.C.W./.T.W.T.P.Q./.%XK.T.F.F.Q.D.C.U.K.C.Z.",
"D.r.e.C.C.x.d.e.e.e.F.W.T.^./.K.I.P.k.k.k.0.t.k.F.P././.W.K.Q.W.W.D.D.=.V c v v v v v v c v a.U.F.C.S.W.W.~.Q.W.P.^.D.K.T.F.U.T.'.'._.Q.F.k.T.F.K.F.C.W./.F.C.K.",
"C.C.x.C.t.e.e.x.T.W.^.K.Q.'._.P.^.Z.S.D.k.w.S.W./.}./././.'./.D.D.~.n.V c v v v v v v v c c =.U.W.^.W.D.T.Q.Q.Q./.W.Q.Q.F.D.W.W.^.^.W.D.D.T.^.K.A.Q._.!.W.F.Q.P.",
"U.C.e.C.F.T.Z.K._.W.W.K.&X/.!.W.C.t.t.w.d.k.C.W.&X*X'.W././.T.k.b.=.A v v v v v v v v v v c ' G.W.oXK.F.oX^.Q./.~.K.K.W.F.D.F.W.Q.!.A.D.Q.Q.T.S.W.}.*X/.K.W.T.D.",
"D.Z.W.P.Q.K.K.T.K.K.F.Q.W.K.T.k.d.q.8.0.8.e.F.W.!.^.W.Q.F.w.p. .S n v v v v v v v v v v c n b M ) a.T.~.K.~./.W.D.F.D.F.C.C.K.F.F.D.A.Q.T.d.k.F.Q.'./.D.C.K.k.S.",
"~.W.!.W.!.Q.W.Q.Q.^./.Q.W.F.Z.D.k.w.0.e.S.D.Q.!.W.!.P.A.g...C v n v v v v v v v v v v v c n z y y M &.v.^.W.W.^.K.F.K.F.F.F.W.T.K.K.W.A.D.A.T.D./.'.W.D.F.Z.C.F.",
"/.'.Q.W.!./.W.Q.K.W.T.T.A.D.D.y.0.S.t.F.*X*X'.'.*X/.A.O.D v v v v v v v v v v v v v v c n c x i y s c G j.K.Q.F.K.!.T.D.Q./.W.W.Q.T.A.k.k.S.A.T.K.T.F.e.k.D.F.W.",
"&XQ.W./.K.W.!./.W.F.C.C.d.k.e.k.D.K.C.F.=X/.K.!./.I. .n v v v v v v v v v v v v n c c n v v x y a x n c V  .H.W.Q.W.k.K.'.^.F.W.W.D.C.C.F.A.K.D.C.S.C.C.F.K.T.Q.",
"}.Q.W.K.K.~.F.T.D.d.d.e.d.k.e.A.~.F.C.~.}.K.W.W.G.} v c v v v v v v v v v v v v c n n c v n x i l c v v v n ' G.K.D.C.Q.'.T.F.D.D.D.k.K.W.F.K.C.U.W.F.T.C.T.W._.",
"P.I./.W.Q.D.x.`.Z.9.e.k.k.S.Z.K.!.T.F.~.F.F.D.x.[ v v v v v v v v v v v v v v v v c c v v v x l v v v v v v x ` b.U.K.K.F.S.Z.U.W.T.W.Q.Q.K.F.F./.'.^.D.K.!./.'.",
"A.P.U.F.D.w.G.8X%Xk.k.S.k.e.k.K.F.D.~.U.C.F.H.' v v v v v v v v v v v v v v v v v c n v v v v c v v v v v v n v ( k.K.A.C.K.A.^.Q.Q.T.^.'.Q.^.^.W.Q.K.W.K.W.K.W.",
"F.e.w.w.q.e.2X9X8XE.C.k.t.t.~./.T.F.F.F.!.!.&.n c v v v v v v v v v v v v v v v v v v v v v v v v v v v v v n v b O.Z.A.W./.W.P.W.K.'.&XW.K.K.D.F.K.K.F.D.C.e.k.",
"D.e.q.d.e.F.5X9X9X<XZ.Z.D.&X}.U.F.D./.&X*XB.V v n v v v v v v v v v v v v v v v v v v v v v v v v v v v v l 8 k c M s.}.;X~.W.!.K.Q.&XF.F.F.S.D.Q._.P.F.C.d.C.d.",
"d.k.Z.L.d.%X9X9X9X9X'.!./.!.P.~.T.P.=X&XJ.G c v c v v v v v v v v v v v v v v v v v v v v v v v v v v v n =   = x z ( I./.F.P.P.D.Z.d.w.k.e.d.K.W.W.F.F.C.C.F.d.",
"F.D.k.A.Q.5X9X9X9X9XqXI.F.D.D./.'.}.'.P.#.x c v v v v v v v v v v v v v v v v v v v v v v v v v v v v v k +   o y c p +.F.U.D.T.Q.T.A.A.D.K.A.!.^.D.D.F.Q.!./.F.",
"F.U.F.A.`.9X9X9X9X9X9X`.A.W.=X=X/.P.W.f.D c c v v v v v v v v v v v v v v v v v v v v v v v v v v v c n 6 .     8 n s B P.&XQ.K.T.D.F.T.T.W.Q.W.W.W.}._.Q.W.W.C.",
"F.C.D.F.B.>X5X8X6X>Xm.o.I.=X;X!.D.Z.t.O.n c v v v v v v v v v v v v v v v v v v v v v v v v v v v v c n 4       5 v z a s.~.d.C.F.D.D.A.F.F.D.!.Q./.&XW.D.D.k.e.",
"D.C.D.H.[ A G { G A c V B.*XW.k.d.C.Z.} c n v v v v v v v v v v v v v v v v v v v v v v v v v v v v v n 4       - x x i ) F.C.F.W.Q.!.%XK.F.W.Q.F.F.D.C.C.U.D.S.",
"D.S.T.g.C c c c c c c c &.K.C.A.C.W.B.Z c v v v v c n v v n v v v v v v v v v v v v v v v v v v v v v n 4       - v c p m G.%X^.K.W./.^.T.K.Q.A.D.C.C.D.C.W.T.T.",
"F.K.W.a.Z v v v c n c c Z c.Q.Z.T./.n.n c v v v v v v v v v v v v v v v v v v v v v v v v v v v n c c n 5       6 v v k u c.W.Z.F.T.^.Q.W.T.T.k.D.F./.F.Z.D.D.F.",
"A.W.W.N.n v v v c n n c c [ b.P.~./.%.c v v v v v v v v v v v v v v v v v v v v v v v v v v v v c c n v t o   . 8 n v k y +.F.Z.T.Q.K.W.Q.K.F.T.D.W.W.D.d.D.x.k.",
"K.Z.F.a.V v v v n c c n n c G v./.^.' c v v v v v v v v v v v v v v v v v v v v v v v v v v v v n c v v z *   @ k n n k y _ K.I._._.'.'.K.K.U.F.D.D.D.C.F.F.k.C.",
"K.K.^.c.S v v v c c n c c n c C X.=.G c v v v v v v v v v v v v v v v v v v v v v v v v v v v v v v v v v 7 * 6 x v c k y M $.Y Y ^ 2.6.W.!.W.F.D.U.A.Z.K.A.K.W.",
"^.W.Q.!.[ c c v n c n c c c n c c n n v v v v v v v v v v v v v v v v v v v v v v v v v v v v v v c c n c z p l v v c s y 8 * .       O 5./.K.C.~.K.F.K.D.S.D.K.",
"K.~.}./.=.n c v c c c n n n c c n n c c v v v v v v v v v v v v v v v v v v c v v v v n c c c c c n v c c c c c v c c s y 9 + .         , D.D.C.F.F.A.e.C.C.Z.W.",
"*X&X/.F.H.` c n c n n c c n c n c c c n v v v v v v v v n v v v v v v v v A :.[.[.[.(.m.*.G S A V c c c c c c c c n C M N K &           I K.F.Z.W.K.F.F.F.~.!.Q.",
"*X/.W.S.S.+.D c n c c n c c c n c n v v v v v v v v v v v v v v v v v v V ).9X9X9X9X9X9X9X5X<X>X(.m.:.-.-.-.;.M.m.).[.E. X X3 X       # w.W.D.D.K.F.W.F.W.*X/.Q.",
"!.D.t.t.e.Z.v.{ c c v v v v v v v v v v v v v v v v v v v v v v v v v c | 8X9X9X9X9X9X9X9X9X9X9X9X9X9X9X9X8X9X9X9X9X7X.X.X.X|.1 O X O j A.K.F.F.F.E.T.K./.!.F.!.",
"/.F.Z.C.Z.W.W.v. .C n v v v v v v v v v v v v v v v v v v v v v v v v c -.9X9X9X9X9X9X9X9X9X9X9X9X9X9X9X9X9X9X9X9X9X3X.X.X.X.X Xi.>.7.E.F.W.Q.F.'.%XT.A.F.K.K.!.",
"D.C.t.t.W.F.D.Z.d.p.O.] A V v v v n n n v v v v v v v v v v v v v v v c -.9X9X9X9X9X9X9X9X9X9X9X9X9X9X9X9X|.@X9X9X7X@X.X.X.X.X.X+X+XE.K.K.W.P.D.F.T.T.e.S.T.K.F.",
"t.q.9.t.D.K.D.F.U.C.A.H.b.v.n.n.n.B.=.S v v v v v v v v v v v v v v c c *.8X9X9X9X9X9X9X9X9X9X9X9X9X9X9X9X< > 4X9X4X@X.X.X.X.X.X XY.d.k.k.k.Z.F.D.C.0.0.S.F.D.l.",
"q.t.Z.W.Q.W.Q.!.D.Z.P.F.D.W./.%X/.~.U.' c v v v v v v v v v v v v v v c { 8X9X9X9X9X9X9X9X9X9X9X9X9X9X9X9X.X$ < 3X@XOXOX.X.XR.Y.A.S.D.d.0.e.D.D.Z.d.k.A.F.D.k.q.",
"~.%X_.}.&XoX~.F.!./.W.F.P.!././.I.A.F.@.n v v v v v v v v v v v v v v c A ,X9X9X9X9X9X9X9X9X9X9X9X9X9X9X9X9Xu.$ % < >.3.D.l.k.Z.S.C.d.6.e.F.A.F.T.Q.Q.Z.S.T.D.D.",
"/.Q./.Q.W.U.C.D./.D.F.~./.!././.Q.F.K.x.[ c v v v v v v v v v v v v v v n m.9X9X9X9X9X9X9X9X9X9X9X9X9X9X9X9X9Xu.: % O > k.S.K.F.t.w.6.q.W.P.W.F.D.T.F.U.T.T.F.T.",
"%XW.P.D.C.k.D.W.W.Q.W.~././.&X}.!./.~.U.@.V v v v v v v v v v v v v v v c { <X9X9X9X9X9X9X9X9X9X9X9X9X9X9X9X4X@X.Xz.u.k.K.F.A.k.q.6.S./.W.W.D.S.S.S.U.U.W.Q.T.^.",
"-X;X/.~.F.K.!.}.'././.U././.}._.W.W.K.D.x.) v v v v v v v v v v v v v v v v :.8X9X9X9X9X9X9X9X9X9X9X9X9X9X4X@X.X.X.XR.z.Q./.^.K.C.U.%XW.U.D.Z.C.Z.D.~./.K.K.W.}.",
"oXQ.F.T.~.D.Z.!.!.~.F./.~.~.!.W.D.k.e.C.x.~ N x v v v v v v v v v v v v v v Z ).9X9X9X9X9X9X9X9X9X9X9X9X4X+X.X.X.X.Xw.k.E.L.D.F.^.&X/.W.T.C.S.k.S.Q.!.F.C.Z.F./.",
"F.Z.C.Z.Z.x.P./.W.P.!.!.F.D.D.D.k.k.x.D.x.! Y m z c c n v v v v v v v v v v v A (.9X9X9X9X9X9X9X9X9X7X#X+X.X.X.X.Xy.! k.Q.K.F.A.K./.W.W.F.t.t.C.W.Q.D.D.D.K.W.Q.",
"F.Z.D.Z.Z.~././.W.~./.F.F.F.F.F.C.F.F.D.0.E E Y q k x c v v v v v v v v v v v v A V.5X9X9X9X9X9X7X3X@X.X.X.X.X.Xz.~ W k.^.P.C.D.C.K.C.Z.w.w.D.oX}.~.T.^.W.}.&X~.",
"F.~.P.~.&X/./.!./.W.W.U.D.F._.K.D.D.F.D.0.R 2 2 U e u p z x v v v v v v v v v v c n *.>X8X8X7X#X@X.X.X.X.X.X.Xz.<.E W 0.W.T.C.k.Z.D.Z.0.C.W.&X}.Q.'.-XW.Q.}.Q.D.",
"~.~.x.Z.F.W.W./.W.Z.C.Z.C.D.W.F.Z.P.D.Z.C.! I I I E L q y a p l z x c x x v c c x x s F O.z. X.X@X.X.X.X+X$Xl.,.I E ! w.W.K.S.D.D.D.T.W.oX%X&X!.W.&XW.D.W.W.D.U.",
"k.C.D.C.F.F.F.F.C.0.e.C.e.e.F.D.F.!.Z.D.D.6.R T W W E P f w t y y a a p p p a p p i y y y d _ $.f.z.XX Xl.4.~ E Q ~ 6.C.D.k.k.C.W./.*X&XW.~.^.F.P.U.Z.K.Q.D.C.F.",
"C.D.D.Z.S.Z.Z.e.C.x.Z.C.d.D./.P.P.F.W.I.Z.D.e.! E E E I I U H r 0 u y y y y y y y y y y y i y y d N K ^ Q <.1.! 2.e.F.U.D.U.F.T./.&X&X/./.}.&XD.T.W.Q.W.W.D.F.K.",
"D.S.D.W.D.W.D.Z.D.D.C.q.D.~././.^.F.W.K.D.D.W.F.0.1.I j I R I 2 U Y J L w 0 d 0 0 0 0 0 q r L L H Y I I ~ ,.5.t.D.U.D.D.S.S.F.W.}.=X/.W.}.I.D.S.F.^.oX^.U.T.D.C.",
"e.t./.W.F.P.D.T.D.Z.S.C.F.K.W.U.T.W.C.C.C.Z.W.K.D.e.2.1.E 2 2 j I E E 2 h P , 2 h P U P U R U R I I E <.6.C.W.F.C.C.w.t.t.D.!.!./.oX~.!.F.e.k.t.D.T.K.w.e.C.t.k.",
"Z.P.!.W.W.W.F.A.W./.&X/./.Q.P./.Q.K.A.d.Z.Z.T.F.A.A.F.C.q.6.4.,.~ ~ E I T I T E E W E I W Q ! ,.5.6.U.~.*X/.~.F.x.w.w.k.D.W./.oX&X&X/.D.C.C.C.C.T.Q.D.k.D.C.k.D.",
"/.}.W./.~.W.P.P.W.^.^.^.W.~./.W.F.I.D.D.K.Q.T.K._.W.T.S.t.Z.D.D.F.C.0.4.6.0.4.q.t.w.0.0.C.C.S.W.K././.*X/.W.F.C.t.Z.q.Z.oX=X&X_.=X/.D.C.w.e.r.C.C.D.S.w.k.F.C.W.",
"}.W.A.W.W./.W./.!.^.Q.T.C.A.K.W.W.W.S.D.Q.K.S.K.F.F.Z.d.Z.W.W.W.F.W.D.U.P.W.K.Q./.Q.D.K.Q./.&X/.'.'./.U.Z.k.w.e.C.C.w.K.;X&X'.!./.W.C.t.k.k.C.e.k.C.k.F.^.K.F.&X",
"=XP.P.F.F./.W.~.T.F.Z.S.D.P.K.P.F.D.k.T.W.C.U.D.C.S.e.K.P.F.W.T.U.^.Q.Q.Z.K.~.!.!.F.F.P.W.!.!./.'./.F.C.w.w.0.w.x.F.F./.}.W.~.D.Z.S.t.C.C.k.D.C.A.Q.W./.T.W.W._.",
"/.W.P.F.I.K.F.D.F.k.e.C.K./.P.F.F.F.F.T.F.D.S.S.T.K.~.!.F.Q.~.W.~.!.Q.F.F.W.Q.^./.W.!.W.}.P.D.F.T.S.C.w.t.t.C.Z.P.~././.!.F.Z.C.U.F.U.D.Z.Z.P.F./.&X_.Q._.'./.'.",
"K.P.x.D.D.e.w.D.C.k.D.K.W.W.D.D.T.T.W.F.D.D.D.^.~.W.W.Q.!.^.^.^.W.K.D.K.K.K.K.Q.~./.U.T.K.d.e.k.C.w.w.t.C.t.S.^././.oXW.F.F.D.F.W.F.k.U././.'.}.!.!.Q././.Q.W./.",
"Z.C.e.C.C.D.D.F.e.C.D.D.k.e.Q.Q.K.F.D.D.W.W.F.Q.Q.W.&X-X!.W.U.D.P.K.K.D.K.F.D.F.K.D.k.k.C.k.D.C.w.t.t.w.t.S.'.*X'.^.W.D.D.Z.C.Z.D.S.^.}./././.Q.P.U.!.F.C.C.k.C.",
"T.k.k.U.F.U.F.Z.F.F.D.C.Z.!.&XP.A.C.Z.W.!.K.T.Q.~.P.}.W.F.U.D.A./.&X/.W.F.C.D.A.W.C.e.x.C.d.k.0.D.U.C.Z.K.*X1X&X^.T.W.~.W.C.e.S.D.F./.U.F.K.F.D.!.&XQ.S.k.w.t.C.",
"U.C.F./.~.W.D.Z.Z.C.Z.P.%X/.P.D.D.x.D.K.D.F.W.~.A.W.F.e.t.t.Z.K.Q.Q.W.P.F.P.W.D.C.d.D.D.C.e.0.r.C.t.D./.*X;X%XW.D.C.Z.Z.D.C.C.C.e.D.S.C.S.e.Z.U.~.W.C.w.e.k.S.D.",
"~.~.~.^.W.W.P.P.D.K.P.!./.W.x.C.D.F.T.F.C.S.D.F.Q.~.D.D.Z.K.K.Q.~.F.F.F./.&X_.W.K.x.D.C.k.e.d.K.F.~.%X=X&X/.S.U.Z.S.D.C.e.t.e.D.!.W.F.T.W.K.F.oXU.t.w.C.T.T.W.T.",
"!./.P.W.F.~./.~.~.Q./.K.K.W.Q.Q.Q.F.D.x.F.Q.~.W.D.Z.F.K.P.W.Q.W.W.W.'./.Q./.P.F.K.W.D.C.D.W./././.}.}.I.A.F.~.~.D.D.D.C.Z.D.W./.~.F.D.F.!.P././.D.D.K.F.W././.~.",
"Q.P.C.T./.P.F.F.T.F.F.D.W.}.&XD.d.Z.x.F.F.D.t.C.D.C.C.F.U.C.D.!.K.P.I.A.d.e.t.Z.C.C.d.D.^.}./.W.Q.~.Z.Z.F.Q./.S.q.t.t.Z.D.F.F.T.~.D.Z.P.D.C.U.D.e.F.W.K.F.W.D.F.",
"D.Z.A.P.F.F.F.U.F.S.W.K.W.A.C.e.C.W.W.Q.D.C.C.W.P.W.W./.W.D.P.W.D.Z.d.k.w.C.C.C.d.e.C.D.K.W.~./.W.W.W.F.D.D.q.w.e.D.F.^.W.W.~.W.W.F.F./.P.U.U.W.C.~.Q.K.F.~.Q.K.",
"F.A.P.P.D.F.F.W.W.W.Q.F.K.C.e.T.W._.Q.W.U.K./.~.D.W.W.W.D.K.W.F.D.S.C.D.w.Z.D.D.C.C.D.K.F.W.W.W.A.P.~.D.D.t.w.W.Z.K./.'.!.!._.!.D.W.D.!.W.~.oX/.W.'./.Q.K.&X!.K."
};
