/* XPM */
static char *char2_front[] = {
/* columns rows colors chars-per-pixel */
"80 80 188 2 ",
"   c #010100",
".  c #0F0D03",
"X  c #110F03",
"o  c #231E06",
"O  c #2C2508",
"+  c #362D09",
"@  c #3F360B",
"#  c #40370B",
"$  c #796715",
"%  c #7E6B16",
"&  c #7B7865",
"*  c #7F7C6B",
"=  c #7A7767",
"-  c #816D16",
";  c #8A7518",
":  c #8D7819",
">  c #917C19",
",  c #E57E22",
"<  c #E87C23",
"1  c #827D63",
"2  c #817E6B",
"3  c #AD931E",
"4  c #BDA01F",
"5  c #BB9F23",
"6  c #B99E28",
"7  c #B69C2B",
"8  c #A7943E",
"9  c #AF9936",
"0  c #B29A32",
"q  c #BDA021",
"w  c #BEA32B",
"e  c #BDA330",
"r  c #DC8722",
"t  c #CE9922",
"y  c #D49F23",
"u  c #E99325",
"i  c #E69424",
"p  c #C2A522",
"a  c #CBAC24",
"s  c #DFA325",
"d  c #CEB029",
"f  c #D4B325",
"g  c #DCBB27",
"h  c #DCBB2A",
"j  c #D8B726",
"k  c #C5AA35",
"l  c #D9BB36",
"z  c #EBAB26",
"x  c #E0B827",
"c  c #E1BE28",
"v  c #EBBB29",
"b  c #E5C229",
"n  c #EAC72A",
"m  c #ECC82A",
"M  c #E2C027",
"N  c #F0CC2B",
"B  c #EBC933",
"V  c #E6C73B",
"C  c #E7C83D",
"Z  c #E9C93B",
"A  c #E9C734",
"S  c #998C4E",
"D  c #9F9049",
"F  c #8F865D",
"G  c #958A56",
"H  c #A59442",
"J  c #A49349",
"K  c #A99744",
"L  c #A19455",
"P  c #AA9C5A",
"I  c #BBA852",
"U  c #B5A14B",
"Y  c #85826D",
"T  c #8A866D",
"R  c #8D896D",
"E  c #9B9160",
"W  c #9E9568",
"Q  c #868371",
"!  c #898673",
"~  c #8C8975",
"^  c #8E8C78",
"/  c #918F7A",
"(  c #918E77",
")  c #95927C",
"_  c #98957E",
"`  c #969174",
"'  c #A2996D",
"]  c #C4AE49",
"[  c #C2AC45",
"{  c #D3BA4A",
"}  c #C2AF53",
"|  c #C6B35A",
" . c #D0BB59",
".. c #D0BD64",
"X. c #C8BB79",
"o. c #C9B96C",
"O. c #DFC54F",
"+. c #DDC454",
"@. c #DAC45B",
"#. c #E4C744",
"$. c #E6C843",
"%. c #E9CA42",
"&. c #E5C94D",
"*. c #E7CA4B",
"=. c #E5CB55",
"-. c #E8CD54",
";. c #E2CA5B",
":. c #DDC763",
">. c #CEC077",
",. c #DCCB75",
"<. c #DCCB7D",
"1. c #D4C477",
"2. c #E1CC6A",
"3. c #E6D06B",
"4. c #EAD56F",
"5. c #E1CF7B",
"6. c #E1CD70",
"7. c #E4D17B",
"8. c #999681",
"9. c #9C9983",
"0. c #979580",
"q. c #A29E86",
"w. c #A9A58C",
"e. c #A7A48C",
"r. c #AEAB91",
"t. c #B1AE93",
"y. c #B3AF98",
"u. c #B6B296",
"i. c #B9B597",
"p. c #B7B399",
"a. c #BAB69B",
"s. c #BDB99D",
"d. c #BFBBA1",
"f. c #C3BB8E",
"g. c #CABF89",
"h. c #C1BD9E",
"j. c #C4BD93",
"k. c #C2BEA2",
"l. c #CDC182",
"z. c #CEC38C",
"x. c #D3C686",
"c. c #DECF83",
"v. c #DCCE8B",
"b. c #D6C98A",
"n. c #C6C19D",
"m. c #CBC49E",
"M. c #CCC391",
"N. c #D4C992",
"B. c #D2C99B",
"V. c #D8CE97",
"C. c #DCD29D",
"Z. c #DFD397",
"A. c #E4D381",
"S. c #E2D694",
"D. c #C6C1A4",
"F. c #C9C5A6",
"G. c #CDC8A7",
"H. c #C7C3A8",
"J. c #CAC6A9",
"K. c #CEC9AC",
"L. c #D2CCA4",
"P. c #D1CDAE",
"I. c #DAD1A2",
"U. c #D5D0AE",
"Y. c #DAD4AD",
"T. c #CFCBB0",
"R. c #D2CEB1",
"E. c #D6D1B3",
"W. c #D9D5B5",
"Q. c #DDD8B6",
"!. c #D7D3B8",
"~. c #DAD6B9",
"^. c #DED9BB",
"/. c #E2D9A4",
"(. c #E0D8AB",
"). c #E1DBB6",
"_. c #E1DDBC",
"`. c #E5E0BE",
"'. c #DFDBC0",
"]. c #E2DEC1",
"[. c #E5E1C2",
"{. c #E9E4C4",
"}. c #EDE8C6",
"|. c #E6E3CA",
" X c #EAE6CA",
".X c #EDE9CB",
"XX c #F0EDCE",
"oX c #F4F0D1",
/* pixels */
"E.~.~.~.Q.Q._.W.Q.P.U.F.h.k.E.E.E.Q.Q.F.~.Q.E.K.P.J.R.~.!.P.K.D.F.K.^.R.J.K.D.k.D.K.P.R.U.^._.E.W.J.K.D.H.K.[.^.!.`.^.G.{.[.E.D.H.G.'.]._._.].).].Q. X_.W.Q.W.R.",
"E.W.~.~.U.W.`._.^.Y.K.J.D.P.P.G.W.!.K.P.W.~.K.F.F.P.P.~.E.K.J.P.K.R.R.J.D.K.k.D.E.E.P.E.E.~.W.E.P.D.J.K.R._.E.K.K.^.P.E.`.!.D.D.K.Q.R._.].Q.Q._._.].Q.P.R.R.R.R.",
"P.K.K.R.W.E.W.!.G.R.J.D.D.D.F.U._.W.P.P.D.D.R.P.W.W.R.W.E.P.F.R.T.H.R.!.!.E.J.!.U.G.F.K.!.W.!.P.k.h.F.R.P.K.J.R.~.^.W.U.K.D.h.K.]._._.]._.^.R.W.R.P.!.P.W.].J.R.",
"R.K.G.P.Y.W.W.P.R.W.W.J.R.!.{.[._.K.^.E.K.U.^.^.^.~.E.K.E.E.Q.P.!.!.~.~.W.K.W.^.E.U.W.E.E.W.W.J.J.P.^.!.K.P.!.E.^.^.[.E.D.E.~.W.).P.W.W._.].{.!.~.Q.R.R.^.R.W.Q.",
"P.J.R.W.Q.{.~.E.~.^.R.J.Q.[.[._.!.R.!.!._.W._.].^.^.W.E.W.^.!.F.W.W.R.W.P.U.E.Q.P.K.E.Q.Q.Q.R.J.R.[.!.K.'.'.^._.~.^.E.K.^.^.!.U.P.Q.W.W.!.Q.R.J.].Q.P.W.R.P.R.R.",
"D.J.^.Q.].^.R.K.R.K.K.~.~.W.^.F.H.R.G.E.W.W.].W.U.P.E.W.P.P.K.F.E.P.P.F.F.F.F.P.D.F.^.].^.K.D.D.E.K.R.E.E.E.~.J.J.K.J.!.E.K.!.J.G.K.F.G.G.K.G.P.R.R.G.h.k.J.k.K.",
"P.W.E.!.E.!.G.D.R.Q.^.K.R.W.~.T.G.R.!.^._.^.).~.W.!.P.P.R.E.Q.E.P.Q.K.P.P.G.G.P.^.~.R.R.!.D.s.F.^.^.Q.P.!.W.W.J.H.D.P.Q.W.!.E.J.R.P.K.k.R.!.R.G.R.Q.K.P.P.G.K.R.",
"E.^.G.R.P.K.D.P.W.^.J.a.K.K.J.D.d.E.P.E.|.^.U.P.^.~.D.K.G.P.K.P.P.P.R.G.h.P.G.U._.W.J.J.F.D.k.~.U.~.K.T.W.U.K.s.p.G.~.`.{.~.K.R.W.H.H.K.k.R.W.P.R.R.P.k.k.R.K.K.",
"E.K.k.J.J.K.R.^.W.!.K.D.R.k.E.Q.K.P.K.W.{.!.F.P.P.P.P.P.K.P.K.K.W.R.R.W.E.E.E.`._.P.h.D.D.s.T.~.P.H.D.J.E.G.D.D.J.E.Q.[.{.J.D.K.K.K.J.R.R.R.K.H.G.P.K.K.R.!.P.E.",
").K.E.R.K.W.P.E.F.D.J.R.R.R.^.!.s.D.P.W.].R.P.P.P.F.J.P.K.T.K.K.Q.'.!.W.K.!.W.`.{.W.E.R.J.P.E.E.D.k.G.K.Q.E.D.h.s.~.`.[.`.J.F.D.K.K.k.R.R.P.P.R.Q.W.K.K.k.J.G.W.",
"!.K.T.k.R.R.P.R.F.D.R.F.P.R.R.K.D.F.R.W.W.E._.R.P.n.D.J.D.D.D.F.R.P.G.k.K.^.W.P.!.K.K.J.R.K.P.P.J.P.!.U.E.J.D.D.E.`.}.`.^.U.L.J.W.K.F.K.W.P.R.Q.Q.R.G.k.G.R.W.E.",
"F.k.d.k.G.G.K.E.W.K.K.F.K.k.k.F.D.K.T.R.R.P.P.W.K.K.D.F.h.s.J.J.K.D.a.k.K.R.R.G.H.k.a.k.D.F.K.W.^.^.~.Q.K.J.K.^.{.[.{._.W.E.J.!.R.k.F.W.Q.R.Q.Q.W.K.k.H.K.!.R.G.",
"F.H.D.K.Q.~.W.).R.G.R.k.h.H.H.k.s.k.d.J.K.P.F.F.F.F.K.K.d.a.h.a.D.s.D.G.P.F.d.h.X.f.D.P.W.W.[.{.Q.W.Q.U.K.P.E.K.~.W.P.J.R.D.D.G.P.R.|.|.~.^.E.K.R.J.R.!.R.P.K.F.",
").Q._._._.)._.P.E.Q.W.k.J.G.P.k.h.a.J.T.!.P.K.E.K.k.k.y.a.s.D.H.G.W.E.K.K.P.F.M.Z b.E.^.Q.P.^.^.[.`.[.K.P.W.E.F.W.E.R.K.K.k.K.E.^.R.W.P.K.Q.W.~._.].{.!.R.].P.K.",
"Y.P.W.Q.P.U.R.R.Y.P.P.F.G.K.K.J.D.J.K.K.!.!.K.R.H.H.p.y.h.D.!.P.K.R.P.P.!.R.H.l.$.z.K.U.m.D.D.E.^.E.K.K.R.P.!.G.W.P.K.J.P.P.W.Q.R.H.k.K.R.R.].].Q.Q.Q.W.^.R.G.J.",
"P.G.K.G.F.F.P.).P.K.k.H.F.H.R.R.K.!.^.Q.W.^.R.K.D.k.H.K.!.!.K.F.k.F.6.=.N.P.k.1.#.j.h...&.j.K.^.!.E.J.T.K.K.P.P.W.^.W.W.^.W.U.E.R.k.G.Q.R.~.K.~.R.R.R.h.k.k.J.E.",
"D.D.K.K.E.W.Q.^.R.G.k.k.k.F.P.E.R.P._.).[.]._.P.s.J.R.~.R.R.G.k.k.P.S.=.#.1.H.<.-./.5.Z ,.G.Q.).E.R.H.k.D.J.P.E.E.E.W.~.^.U.E.E.K.R.W.R.F.K.R.R.P.Q.H.k.!.R.R.W.",
"d.D.P.Q.E.W.E.K.P.F.s.k.i.F.P.R.K.F.K.P.Q.W.F.P.P.G.P.R.K.F.D.J.R.].].G.:.Z x.<.*.A.Z ,.R.G.k.k.K.D.k.H.D.D.E.K.D.k.k.K.K.F.K.P.W.~.R.G.G.k.F.R.W.P.R.Q.].].R.k.",
"E._.Q.Y.^.P.F.K.H.s.H.H.a.s.G.K.G.R.R.Q.!.R.J.F.F.k.K.W.K.k.k.D.W.Q.G.h.k.;.*.6.$.$.+.k.k.k.h.n.n.h.R.K.d.k.F.K.D.D.F.K.J.K.W.E.R.J.K.R.R.H.K.H.J.R.H.k.k.K.H.J.",
"{.^.W.P.G.D.F.F.k.k.R.d.k.R.W.!.W._._.Q.^.R.H.s.s.D.J.J.k.k.K.R.W.R.G.P.P.(.-.%.A Z b.K.k.G.P.P.J.D.!.k.D.K.U.U.K.E.P.G.H.T.R.K.J.K.J.K.k.k.T.K.K.H.k.R.J.!.Q.).",
"K.P.H.G.P.F.P.F.K.R.k.k.R._.{.^.Q._.W.R.K.K.k.s.k.F.F.k.D.G.R.P.P.P._.P.B.S.3.n m C v.B.U.P.Y.P.E.K.F.D.!.~.{.^.~.W.!.F.R.!.F.k.F.J.K.H.K.K.R.K.R.G.~.R.T.W.W.W.",
"E.P.k.F.D.D.F.K.G.H.k.R.R.|.{.P.G.W.K.k.K.H.H.k.h.K.R.W.!.!.W.W.P.V.,.+.%.A m m m m A %.;.5.I.R.~.K.D.P.~._.^.P.K.E.P.D.E.^.P.!.R.P.W._.].R.R.K.G.W.G.k.T.P.k.H.",
"J.i.h.D.D.h.h.s.s.h.K.R.R.Q.Q.R.W.R.k.k.k.u.d.k.P.P.].Q.R.R.W.I.6.C n m m m m m m m m m m m %.6.B.D.D.R.E.E.W.E.E.W.F.P.R.K.P.R._._._.W.K.k.R.K.K.K.k.E.Q.G.k.R.",
"k.k.h.D.k.h.s.k.R.R.^.P.W._.).R.~.F.H.J.k.h.k.!.^._.^.~._.).5.%.n m m m m m m m m m m m m m m n $.<.U.K.E.W.W.W.^.!.W.W.K.K.E.R.~.Q.E.H.K.R.Q.R.K.W._.).E.K.W.E.",
"R.k.k.k.K.R.F.P._.W.U.P.[.Q.Q.W.k.h.k.a.d.k.F.W.].{._.W.(.4.B m m m m m m m m m m m m m m m m m m B @.L.].!.W.).W.P.P.!.K.F.K.W.W.).L.J.E.W.R.H.W.].{._.K.W.R.K.",
"G.F.W.E.!.R.P.P.P.P.G.W.E.P.R.k.k.a.t.y.t.s.K.R.W.Q.W.C.=.m m m m m m n m m m m m m m m m m m m m m m +.B.!.^.!.J.K.G.K.k.D.R.K.K.J.J.E.R.k.k.G.W.].Q.F.F.P.k.k.",
"W.R.Q.R.Q.!.W.!.!.Q.^.!.R.P.F.J.k.a.y.s.H.G.W.!.R.Q.I.&.m m m m m m m m m m m m m m m m m m m m m m m n { L.R.~.P.K.P.K.K.G.!.T.K.R.E.P.J.J.P.F.Q._.!.H.G.F.H.K.",
"_._.!.W.Q.).P.W.P.W.R.R.J.K.J.d.u.k.k.K.{.{._._.{.).;.n m m m m m m m m m m m m m m m m m m m m m m m m c  .U.P.P.Q.R.F.W.^.E.E.W.R.K.k.k.J.K.R.K.R.K.k.k.H.K.R.",
"].Q.P.Q.R.Q.Q.Q.R.P.F.D.h.k.s.k.G.P.H.P.{._.P.Q.^.5.m m m m m m m m m m m m m m m m m m m m m m m m m m m h o.E.W.E.D.P._.~.K.E.W.G.k.k.K.G.P.G.k.J.k.H.P.R.P.Q.",
"_.E.E.R.P.W.P.P.J.k.s.s.s.k.i.K.W.K.k.W.].P.W.R.N.Z m m m m m m m m m m m m m m m m m m m m m m m m m m m b k x.P.F.D.E._.R.K.J.H.F.k.P.!.G.P.k.R.R.P.R.k.R.E.).",
"Y.E.Q.R.W.K.s.h.i.y.s.k.k.H.J.P.Q.R.T.R.P.P.H.m.=.m m m m m m m m m m m m m m m m m m m m m m m m m m m m m f ] G.K.P.P.K.H.H.K.W.P.R.Q.W.R.P.P._._.!.G.P.Q.).].",
"P.P.R.T.H.a.t.y.s.k.k.F.k.s.k.P.R.H.!.T.k.K.R.c.m m m m m m m m m m m n m m m m m m m m m m m m m m m m m m b p X.J.P.F.F.R.G.^.!.W.R.Q.].R.!.~.R.!.R.E.R.R.R.R.",
"K.s.p.s.s.a.D.D.D.D.D.D.d.d.!.~.P.K.K.K.Q.Q.U.&.m m m m m m m m m m m m m m n m m m m m m m m m m m m m m m n a [ L.F.K.W.Q.!.U.E.P._.].E.P.P.G.G.P.P.P.F.H.h.k.",
"J.s.u.n.s.s.U.J.K.G.D.D.K.`.[.R.J.J.^.{. XE.>.B m m m m m m m m m m m m m m m m m m m m m m m m m m m m m m m h p g.!._. X!.E.W.P.W.].P.P.K.F.H.~.^.R.G.k.k.k.h.",
"s.D.D.K.s.K.n.D.J.J.K.Q.~.Q.U.!.E.U.}.[.E.F.+.m m m m m n m m m m m m m m m m m m m m m m m m m m m m m m m m M p | W.Q.~.P.P.E.G.F.h.s.h.i.k.P.R.R.K.T.k.F.K.h.",
"J.G.D.G.!.K.K.!.K.K.J.U.K.J.K.^._.`._.E.D.f.V m m m m m m m m m m m m m m m m m m m m m m m m m m m m m m m m n a e V.!.K.P.P.R.W.R.J.G.K.P.K.Q.Q.K.F.K.W.Q.Q.P.",
"K.T.K.K.E.T.E.K.U.J.E.T.D.!.{.}.^.E.U.D.J.v.m m m m m m m m m m m m m m m m m m m m m m m m m m m m m m m m m m f q X.R.!.].~.P.R.J.K.R.R.E.W.W.W.R._._.W.E.R.F.",
"K.D.J.K.E.E.G.d.D.s.D.J.~..X.X~.J.D.s.D.!.2.m m m m m m m m m m m m m m m m m m m m m m m m m m m m m m m m m m j 5 | W.^.!.k.k.R.G.H.G.K.K.F.Q.!._.[.W.G.F.k.s.",
"J.D.G.K.K.D.D.D.D.s.E.Q.[.[.E.D.h.D.G.Q.~.&.m m m m m m m m m m m m n m m m m m m m m m m m n m m m m m m m m m h 4 ] R.P.G.D.P.R.!.Q.].R.G.R.W.K.P.J.k.k.T.J.H.",
"J.H.E.J.D.J.D.U.E.~.^.^.Q.E.D.K.D.E.^.^.I.C m m m m m m m m m m n n 7 ; a m m m m m m a : 3 n m m m m m m m m m c 5 k B.T.!.].W.P.E.^.!.R.R.W.G.H.H.k.G.H.!.R.R.",
"K.U.E.K.Q.Q.).Q.Q.!.W.E.E.K.Q.D.E.~.Q.!.Z.Z m m m m m n m m m m n - .   O 5 m m m m q O   X - m m m m m m m m m c 4 w z.U.~.W.D.K.R.!.W.E.R.R.k.H.R.^.R.H.G.G.K.",
"D.E.E.~.E.^.^.^.E.J.E.D.G.K.K.U.!.^.U.E.Z.m m m m m m m m m m m c O       $ m m m N $       O b m m m m m m m m c t w 1.U.R.K.G.R.E.E.E.W.P.K.R.K.R.R.G.k.G.k.k.",
"U.H.K.E.^._.E.G.d.J.E.G.R.K.P.Q._.E.!.Y.7.n m m m m m m m m m m b +       - N m m N %       + b m m m m m m m m c q a 1.k.D.P.E._.^.)._.P.R.K.K.H.T.H.k.P.G.h.k.",
"K.U.!.U.^.^.E.D.D.Q._.K.E.!.^.^.`.!.|.`.*.n m m m m m m m m m m m : o X @ t N m m m q @ X o > n m m m m m m m N c q f O.L.P.W.R.E.E.E.E.W.W.W.K.H.R.G.F.P.G.P.W.",
"Q.E.W._.`.W.P.K.!.[.K.G.^.{.{.^.E.~.[.S.B m m m m m m m m m m m m g 3 > p b m m m m b p > 3 g m m m m m m m m m c p b B v.T.G.H.R.R.P.R.W.~.R.k.R.P.G.P.K.H.G.R.",
"K.!.[.~.W.G.D.D.P.P.P.W.W.'.!.G.K.!.!.3.m m m m m m m m n m m m m m c c b m m N m m m m c v m m m m m m m m m m f f m m :.J.K.D.F.k.J.P.P.J.G.H.R.K.G.h.H.k.F.R.",
"{.[.Q.P.E.D.u.J.^.^.^.!.'.~.!.U.E.E.Y.*.N m m m m m m m m m m m m m m m v z z v v z z v m m m m m m m m m m m m j c m m O.n.D.d.P.R.K.F.P.P.G.H.R.R.K.K.R.!.).W.",
"{.^.R.D.J.u.D.E.'.^.E.J.J.E.K.D.J.].S.Z m m m m m m m m m m m m m m m m u < < r r < < u m m m m m m m m m m m b j b m m Z N.D.T.~.!.E.R.E.R.J.G.R.K.R.K.R.].^.W.",
"~.K.d.d.s.D.Q.^.E.J.D.s.D.K.K.U.E.`.C.Z m m m m m m m m m m m m m m m m u < < < < < < u m m m m m m m m m m m M c n n n Z N.K.W.R.Q.^.^.K.P.K.K.K.E.R.P.~.Q.R.Q.",
"^.K.D.D.H.E.!.E.D.s.D.D.K.].Q.E.U.E.Y.-.m m m m m m m m m m m m m m m m i < < < < < < i m m m m m m m m m m m g p g n n -.Q.'.~.~.].|.~.P.E.W.P.^.].R.G.K.R.P.W.",
"J.H.d.d.E.K.G.D.D.d.J.D.K.W.E.K.^.`.[.(.c.&.m m m m m m m m m m m m m m y < < < < < r z m m m m m m m m m m m d 4 q O.A.I.].~.~.].W.G.K.G.E.R.H.K.R.R.i.H.R.R.T.",
"d.p.r.D.J.E.H.K.T.D.J.P.!.W.E._.`.^.Q.~.~.c.m m m m m m m m m m m m m m x r < < < < r h m m m m m m m m m m M q 4 q >.T.Q.'.E.~.R.k.h.k.k.k.G.K.F.D.p.p.k.T.J.k.",
"a.d.D.E.W.E.Q.W.J.F.U.K.F.E.Q.].^.E.R.T.K.B.V m m m m m m m m m m m m m b a , < < , t b m m m m m m m m m m d 4 4 w i.k.K.D.J.K.G.H.F.h.y.d.G.H.F.k.k.G.K.K.k.p.",
"~.^._.`.{.^.!.K.~.Q.E.K.U.Q.~.Q.U.G.K.G.T.D.@.m m m m m m m m m m m m m m g t r , t g n m m m m m m m m m c q q 4 I n.D.R.D.k.G.H.k.k.r.i.K.G.G.R.W.!.F.H.R.J.J.",
"^.Q.~.W.E.T.D.G.~.K.P.!.^.Q.~.^.!.P.K.D.K.H.x.A m m m m m m m m m m m m m m j a a j m m m m m m m m m m b a q q w X.d.k.K.H.K.K.k.a.t.p.W.R.!.K.G.R.T.T.R.R.K.R.",
"'.!.U.J.D.k.J.E.E.Q.E.!.^._.[.`.^.^.~.U.K.J.D.@.m m m m m m m m m m m m m m m n b m m m m m n m m m m n f 4 q 4 I K.K.J.K.J.J.D.a.r.k.^.E.!.G.F.k.H.T.R.R.W.R.Q.",
".X.X^.!.K.P.^.^._.^.~.R.~._.`._.E.E.U.F.D.u.w.W l m m m m m m m m m m m m m m m m m m m m m m m n n n f q q q e ' k.H.J.~.~.~.R.k.R.].R.R.K.H.H.k.K.!.Q.P.P.E.].",
"^.W.K.E.E.K.J.Q.Q.E.R.W.!.W.Q.E.D.D.s.D.s.e.~ Q P A m m m m m m m m m m m m m m m m m m m m m m n n f q q q q S * 2 q.D.E.K.F.K.W.{.^.R.R.k.H.k.H.W.Q.P.F.F.P.!.",
"K.D.D.H.D.n.U.^.E.E.W.W.K.K.J.J.d.D.D.J.s._ ) ~ ^ I b m m m m m m m m m m m m m m m m m m m m n n f q q q q D Y = & ^ k.W.K.K.G.P.^.R.W.R.d.d.k.!.W.G.H.H.P.W.W.",
"K.J.J.F.J.W._.^.E.!._.P.K.F.K.K.D.K.K.J.u.Q ~ ~ ! ~ U h m m m m m m m m m m m m m m m n m m n b a q q q q D R Y & 2 ^ k.~.E.H.G.k.P.F.F.s.a.H.'.].W.R.^.E._.[.W.",
"K.!.U.!.[.^.^.W.^.E.R.R.F.K._.P.J.G.J.J.u.Q * * T Q ! K d c n m m m m m m m m m m m m m n b f q q q q w D Y ^ ! ! ~ ^ u.!.E.D.h.H.K.k.u.k.W.|._.W._. XW.W.].Q.H.",
"!.!.n.F.K.E.W.Q.E.F.D.F.D.F.E.K.D.U.J.J.D.8.Y Y Y ~ ~ ^ L w a f g b b m m m m m b b c f a q q q q q 7 S Y Q / ^ Y ~ ) s.E.K.H.J.K.K.R.!._.].].Q.W.].R.J.W.W.J.T.",
"k.D.J.D.K.K.K.K.D.i.d.D.s.s.K.F.U.Q.D.J.G.r.! Q ~ ) ^ Y Y F H q p p a a d a a a a q q q q q 4 q w 8 F = * ! / ^ / _ r.D.J.D.k.D.R.).|.{.E.!.~.P.P.P.H.P.Q.H.k.G.",
"D.J.J.J.J.H.D.s.D.n.F.k.h.J.^.E.U.K.E.E.D.G.s._ ! ~ ! Y Y Q ! G K 0 6 4 4 4 5 t q q 4 4 w q 0 K E ! ! 2 ^ 8.8.) q.s.K.K.H.T.K.R.).[.].Q._._.].G.R.!.Q.E.R.H.P.P.",
"J.H.J.E.K.P.K.D.K.F.D.p.J.!.~.^.~.P.U.P.G.G.!.J.y.8.Y 2 Y ! 2 2 ! ` W L H 9 0 0 0 0 0 8 L E R ~ Q ~ Q 2 0.9.e.k.K.T.H.H.H.F.R.P._.{.^.E._.U.K.H.P.W.].!.R.R.H.F.",
"s.k.^.E.K.U.J.E.F.F.H.D.K.P.E.R.P.E.F.D.k.F.!.P.G.i.q.0.~ * 2 2 Y ~ ! * 1 Y & 1 1 T R T ! ~ Q ! Q Y ~ 9.r.k.R.K.F.k.s.d.d.H.W.)._.].W.~.R.s.d.k.H.R.K.s.k.k.h.k.",
"D.P.Q.E.E.U.K.K.E.Q.[.^.].W.R.~.~.P.F.h.F.F.R.G.K.G.G.D.p.y.e.9._ ) ! Q Q Y Y ~ ~ ~ Q ! ~ ) / 9.e.t.T.!.[._.~.T.h.s.a.k.K.R.]._.{.[.Q.K.D.D.k.k.R.W.H.k.H.k.k.J.",
"_.`.W.~.W.E.P.U.!.~.~.~.E.E.^.!.P.E.F.J.R.W.R.R._.!.R.D.k.H.F.J.K.D.u.w.r.y.w.p.d.a.u.u.k.H.G.R.R.^.).{._.R.P.k.k.H.a.D._.{.]._.{._.J.k.i.s.s.D.k.T.H.a.k.K.H.W.",
"`.E.K.E.W.~.W.^.Q.~.~.R.D.K.P.E.E.E.k.K.W.P.H.P.P.G.F.h.D.P.W.!.K.R.G.R.W.R.P.Q.^.!.F.P.W._.].^._._.Q.T.k.k.a.d.k.k.k.K..X]._.).^.R.H.d.k.k.D.h.k.k.k.K.!.P.K._.",
"}.U.U.K.K.~.!.!.R.K.D.H.F.U.P.U.G.J.k.R.W.k.R.H.k.H.s.R.P.P.R.R.R.~.W.!.F.P.R.~.Q.P.P.P.E.Q.W._.].!.R.k.s.i.p.i.k.P.P.).`.!.W.G.F.H.d.k.D.k.K.k.G.!.W.^.R.R.W._.",
"^.E.U.J.E.K.J.G.K.k.h.D.P.^.E.K.R.J.K.R.K.J.H.H.R.R.!.Q.P.!.W.W.!.~.~.G.P.R.W.Q.~.!.~.E._.P.K.P.P.H.d.s.d.k.k.H.P.!.^._.W.P.F.k.R.P.T.K.J.D.P.P.Q.{.).W._._.)._.",
"P.U.n.G.J.s.s.J.D.k.J.P.E.R.F.G.R.R.!.G.H.K.J.~.R.!.R.W.Q.Q.!.W.R.R.K.P.P.P.R.!.!.Q.R.R.P.h.s.k.k.d.d.k.k.k.H.Q.^.~.'.R.P.G.H.P.R.K.k.R.^.)._._.W.Q.W._.).W.E.].",
"J.D.s.D.k.J.K.P.s.D.F.F.k.s.W.W.P.K.G.F.R.R.P.~.~.R.]. XQ.R.R.G.R.P.P.H.R.R.G.K.R.H.k.k.k.k.J.F.s.d.k.s.k.J.].[.].Q.R.K.R.F.k.F.J.H.!._.W.^._.W.P.R.Q.K.k.k.k.H.",
"E.d.k.T.P.K.K.D.K.K.J.D.F.W.[.U.P.k.F.E.^.P.P.~.W.Y.].R.R.K.H.K.).[.).R.K.k.H.G.R.k.h.F.F.k.k.u.H.T.k.k.P.{.oX].Q.R.R.!.R.k.k.H.H.R.^.R.P.P.K.G.~.].!.J.k.s.k.k.",
"R.D.K.^.W.E.K.D.J.k.F.U.]._.E.G.F.h.F.R.K.K.R.W.K.R.K.k.k.d.F.P.W.W.E.R.G.R.W.F.F.h.G.H.k.k.t.u.k.k.P.^.{. X].!.G.k.H.F.H.k.k.k.h.J.H.k.H.s.D.R.!.R.k.s.d.k.H.H.",
"E.!.!.!.!.!.P.U.F.P.E.Q.^.E.k.k.G.P.P.R.k.H.J.R.W.!.G.J.H.P.P.W.!.K.P.K._.].).W.P.h.F.k.k.s.k.R.K.Q._.{.].^.H.J.H.J.K.k.k.k.k.H.W.E.P.R.R.P.R.'.R.k.s.k.R.R.R.R.",
"Q.^.U.E.P.!.~.W.W.W.^.P.P.!.W.W.!.P.F.k.K.!.W.R.G.F.R.P.P.E.W.E.E.W._.^.W.~.P.P.P.P.G.F.K.R.).).Q.].[.W.L.G.~.!.K.J.H.k.F.P.R._.!.P.K.P.E.U.'.~.J.H.K.R.R.^.^.~.",
"~.U.D.R.^.U.J.T.R.T.K.F.E._.[.J.h.F.h.K.P.J.d.k.F.k.k.P.R.D.F.Q.R.R.Y.G.h.s.k.H.F.F.k.H.Q._.^.!.~.W.H.F.K.W.'.k.u.k.k.H.G.K.R.R.!.J.F.R.G.D.T.J.h.K.W.P.P.R.F.K.",
"G.F.K.U.K.K.K.R.K.J.R.P.E.L.D.d.k.E.W.W.K.k.k.R.R.R.R._.E.H.P.E.F.D.h.k.s.k.D.D.k.k.k.G.P.E.!._.W.R.E.G.K.H.a.d.k.G.G.!.R.E.W.R.R.P.G.^.R.T.R.R.k.!.W.P.K.W.W.P.",
"K.G.P.U.J.K.K.R.R.!.W.P.P.D.a.R.E._.W.E.R.R.^.!.K.W.P.!.G.P.W.P.G.J.k.F.h.H.J.J.k.k.G.R.K.E.R.E.F.R.~.G.H.d.a.R.k.R.]._.Q.Q.).Q.K.R.G.~.R.^.].Q.W._.Q.W.R.].Q.P."
};
