/* XPM */
static char *char2_left[] = {
/* columns rows colors chars-per-pixel */
"80 80 189 2 ",
"   c black",
".  c #090802",
"X  c #181404",
"o  c #3C330A",
"O  c #342C09",
"+  c #4E420E",
"@  c #594C10",
"#  c #766415",
"$  c #7B7866",
"%  c #7F7C6B",
"&  c #797767",
"*  c #867217",
"=  c #E87C23",
"-  c #E77F27",
";  c #827D63",
":  c #817E6C",
">  c #97801B",
",  c #A38A1D",
"<  c #BD9F1F",
"1  c #BC9F21",
"2  c #B59C2D",
"3  c #B59920",
"4  c #AA963B",
"5  c #AE993B",
"6  c #AA9539",
"7  c #B19A31",
"8  c #B09B3A",
"9  c #BDA021",
"0  c #BFA42C",
"q  c #BFA533",
"w  c #E88525",
"e  c #E98C24",
"r  c #E7822D",
"t  c #E58634",
"y  c #E99224",
"u  c #C3A522",
"i  c #C7A823",
"p  c #CDAD24",
"a  c #C3A72B",
"s  c #CFB025",
"d  c #D3B325",
"f  c #D8B726",
"g  c #DCBA27",
"h  c #C1A632",
"j  c #D3B633",
"k  c #D7BA38",
"l  c #EBAC27",
"z  c #EAA326",
"x  c #EBB228",
"c  c #E1BE28",
"v  c #EBBD29",
"b  c #E6C329",
"n  c #EAC629",
"m  c #ECC82A",
"M  c #E4C127",
"N  c #E9C633",
"B  c #EAC832",
"V  c #E8C93C",
"C  c #E6C636",
"Z  c #9D8F4D",
"A  c #9E904D",
"S  c #8E865F",
"D  c #978C56",
"F  c #9E925B",
"G  c #A39349",
"H  c #A39552",
"J  c #BEAA4C",
"K  c #BFAC56",
"L  c #8A8462",
"P  c #85826E",
"I  c #8A856A",
"U  c #958D66",
"Y  c #928C6C",
"T  c #98916B",
"R  c #868471",
"E  c #898673",
"W  c #8C8975",
"Q  c #8E8B79",
"!  c #918E7A",
"~  c #95927D",
"^  c #99967F",
"/  c #A09664",
"(  c #BFAF65",
")  c #DB9B5E",
"_  c #E08E45",
"`  c #E59448",
"'  c #E09B59",
"]  c #C3AD49",
"[  c #C3AC45",
"{  c #CAB244",
"}  c #C4B052",
"|  c #C6B45D",
" . c #C8B55A",
".. c #D6BF57",
"X. c #CCBC6F",
"o. c #CDB774",
"O. c #E6A868",
"+. c #DFC44B",
"@. c #E7C945",
"#. c #EACC46",
"$. c #E1C64B",
"%. c #E5C94B",
"&. c #E8CC4B",
"*. c #E5C544",
"=. c #E5CB55",
"-. c #E4CC5C",
";. c #EACF59",
":. c #DAC561",
">. c #DAC668",
",. c #CEC07B",
"<. c #DBCA79",
"1. c #D8C778",
"2. c #E3CC65",
"3. c #E3CE6E",
"4. c #E5D37B",
"5. c #999681",
"6. c #9D9A83",
"7. c #A09C83",
"8. c #A29F89",
"9. c #AAA68D",
"0. c #ACA88F",
"q. c #A6A38B",
"w. c #AEAA92",
"e. c #B1AE94",
"r. c #B5B196",
"t. c #BAB597",
"y. c #B7B399",
"u. c #BAB69B",
"i. c #BDB99D",
"p. c #BFBBA1",
"a. c #CABE82",
"s. c #C5B68C",
"d. c #DAB887",
"f. c #C2BC95",
"g. c #C1BD9E",
"h. c #CCBF9B",
"j. c #C2BEA2",
"k. c #CDC38C",
"l. c #CDC284",
"z. c #D3C685",
"x. c #D6CA8C",
"c. c #D9CC8A",
"v. c #D9CA83",
"b. c #CCC496",
"n. c #C6C19F",
"m. c #CCC398",
"M. c #D9CE93",
"N. c #D3CA9C",
"B. c #D4C897",
"V. c #DDD39E",
"C. c #E0CF81",
"Z. c #E1C599",
"A. c #E0D69C",
"S. c #E6D994",
"D. c #C6C1A4",
"F. c #C9C5A6",
"G. c #CDC8A7",
"H. c #C7C3A8",
"J. c #CAC6A9",
"K. c #CEC9AC",
"L. c #D2CCA6",
"P. c #D1CDAD",
"I. c #DFCBA4",
"U. c #DAD1A0",
"Y. c #D5D0AE",
"T. c #DAD3AD",
"R. c #CFCBB0",
"E. c #D2CEB1",
"W. c #D6D1B3",
"Q. c #D9D5B5",
"!. c #DDD8B6",
"~. c #D7D3B8",
"^. c #DAD6B9",
"/. c #DED9BB",
"(. c #E1DAAC",
"). c #E0DBB7",
"_. c #E1DDBD",
"`. c #E0D7B5",
"'. c #E5E0BF",
"]. c #DFDBC0",
"[. c #E2DEC1",
"{. c #E5E1C2",
"}. c #E9E4C4",
"|. c #EDE8C6",
" X c #E6E3C9",
".X c #EAE6CA",
"XX c #EDE9CB",
"oX c #F0EDCE",
"OX c #F4F0D1",
/* pixels */
"W.^.^.^.!.!.).Q.!.P.W.F.g.j.Q.P.W./.!.F.^.!.Y.K.E.J.W.^.W.P.K.D.H.K./.E.H.K.D.j.H.K.P.Y.Y./._.W.Q.F.K.D.H.K.'./.W.'./.G.{.'.W.J.D.K./._._./.[./.'./..X_.W./.Q.P.",
"W.Q.^.^.Y.Q.'._.).Y.G.J.j.P.E.G.Q.W.K.P.Q.^.K.J.D.P.K.^.Q.K.K.K.K.W.W.J.D.R.D.D.W.W.P.W.W.~.W.W.Y.D.J.K.E.[.~.G.K./.P.W.{.~.D.D.K.^.Q._.{./.!._.).[./.P.E.W.P.E.",
"P.K.K.E.^.Q.!.W.K.E.G.H.H.D.G.P./.^.E.P.D.H.P.P.Q.^.E.Q.W.K.J.K.R.H.E.W.~.W.J.W.Y.G.F.K.~.Q.~.Y.p.j.D.W.K.K.K.W./.].W.Y.K.D.g.K._._._.'._.^.W.Q.E.P.Q.P.Q.[.J.W.",
"E.K.G.P.Y.Q.Q.E.P.Q.Q.J.E.^.{.{._.P./.W.K.Y.)././.^.W.K.W.W.!.W.~.~.^.^.Q.K.W./.W.Y.Q.W.W.Q.Q.J.J.E./.W.K.R.W.W././.{.W.H.W.!.W./.P.Q.Q._.[.{.~.^.!.E.P./.P.Q.^.",
"P.J.E.Q.!.}.^.W.^./.E.J.!.'.{._.~.E.W.W._.Q._.[././.Q.W.!./.W.F.Q.Q.W.Q.Y.Y.W.!.P.K.W.!.!.!.E.K.E.{.~.K.]./././././.W.K././.~.Y.P.Q.Q.Q.Q./.E.G.[.^.P.Q.P.P.E.E.",
"D.J././.[./.K.P.E.K.K.^.Q.^./.F.J.E.J.W.Q.W.{.Q.Y.P.W.W.E.P.K.J.Y.P.K.F.F.F.F.K.D.F./.[./.J.D.D.W.K.W.W.W.W.^.J.J.K.J.~.W.J.~.J.G.K.G.K.K.K.G.K.Q.E.K.i.j.G.j.K.",
"P.Q.W.W.W.W.K.D.E.^./.K.E.^.^.E.J.E.Q.^._./.).^.Q.W.E.P.E.Y.!.E.Y.Q.K.P.P.G.K.P./.Q.E.E.~.D.i.H././.Q.P.~.Q.Q.J.H.D.K.!.Q.~.W.K.E.K.J.D.E.W.W.F.P.Q.K.K.P.G.K.E.",
"W./.G.E.P.K.D.P.Q._.J.u.K.J.J.D.p.W.P.Q. X/.Y.P./.Q.D.P.J.P.K.Y.Y.P.Y.J.g.P.G.Y._.~.J.J.G.D.i./.Y./.K.R.Q.Y.K.p.y.J.!.{.}./.K.K.Q.F.H.J.D.E.W.P.P.E.P.D.j.W.J.K.",
"E.K.j.J.J.K.P./.Q.W.J.H.E.j.Q.!.K.P.K.Q.{.^.F.P.P.P.P.P.K.P.P.K.W.E.W.~.E.Q.W._._.P.j.D.D.i.R./.K.F.g.J.W.G.D.H.H.W.!.{.{.G.D.J.K.K.K.E.E.E.P.F.G.P.P.K.E.Q.E.E.",
"_.K.W.P.K.Q.P.W.F.D.G.E.E.E._.E.i.D.P.Q.[.E.P.P.K.G.J.K.K.K.K.K./.].Q.W.R.Q.!._.}.Q.W.E.J.K.W.W.D.D.J.K.Q.Y.F.g.u./.'.}.'.J.F.F.K.K.H.K.E.P.P.E.Q.Q.G.K.j.J.G.!.",
"Q.K.R.D.E.E.E.E.F.D.E.F.P.E.E.K.j.F.R.Q.Q.W./.E.P.D.D.J.D.D.D.H.P.P.J.D.K.^.Q.P.W.K.K.J.W.K.Y.K.K.P.~.Y.W.J.D.D.Q.'.|.'./.W.G.G.W.K.D.K.Q.P.P.!./.P.J.j.G.E.Q.E.",
"D.j.p.j.G.J.K.Q.Q.K.P.D.K.H.j.D.H.K.E.E.W.P.P.Q.P.G.D.F.g.i.J.J.K.D.u.j.G.Q.P.K.J.j.u.j.D.J.J.!./././.!.K.J.K./.{.{.}._.Q.W.J.W.P.D.J.Q.^.W./.Q.Q.K.j.H.K.~.E.G.",
"F.D.D.P.Q.^.!.!.E.G.P.D.i.H.H.j.p.j.i.J.R.K.G.H.F.F.K.K.p.u.j.u.D.i.D.G.P.F.g.f.o.g.D.K.W.Q.{.}.!.Q.!.Y.K.P.W.K./.Q.P.J.E.D.D.G.P.P. X X^.^.Q.K.W.K.E.~.E.P.K.D.",
")./.).)._./._.L.Q.!.Q.D.G.K.K.j.i.i.J.E.~.P.G.W.K.j.D.e.u.i.D.H.J.Q.W.K.K.P.F.,.@.N.W./.!.Y././.{.'.{.K.P.Q.W.F.W.E.P.E.K.D.K.W./.E.Q.P.P.!.W.^./.[.}.~.E._.E.P.",
"Y.W.!.!.E.T.P.Q.T.P.P.D.G.P.K.J.D.H.K.K.W.~.K.E.H.D.y.w.i.F.W.P.K.Y.L.E.W.E.H.X.$.b.K.E.F.F.D.Y./.W.K.K.E.P.W.G.Q.E.J.J.P.E.Q.!.E.J.j.K.Y.E.[.[././.Q.Q.^.E.F.J.",
"P.G.K.J.G.j.P.^.P.G.j.D.D.H.E.E.K.W././.!./.W.J.D.H.H.R.~.W.R.J.j.F.2.-.N.E.j.>.$.n.i.+.:.f.K./.W.W.J.R.K.J.W.P.Q./.Q.Q./.Q.Y.Y.E.j.G.Q.E.^.G.^.E.E.E.g.j.D.G.W.",
"D.D.K.K.W.Q.!./.E.G.j.j.j.F.P.Q.P.P.[.`.{.[._.P.i.F.P.^.E.P.K.g.D.K.S.&.%.l.R.>.;.(.2.V c.K.!.!.~.E.H.j.D.J.P.W.W.W.~.Q.!.Y.W.W.G.E.^.E.H.P.E.E.P.^.H.j.~.E.E.Q.",
"g.D.Y.!.W.Q.W.J.P.D.j.j.u.D.P.E.G.F.K.L.!.Q.F.K.P.K.P.W.P.H.D.J.Y.[./.N.+.+.B.>.=.4.V z.W.F.j.D.J.H.D.H.D.D.W.K.H.j.j.K.K.F.K.W.Q.^.E.G.J.D.D.E.Q.T.P.^.].[.E.D.",
"W._.!.Q./.E.F.K.H.i.G.H.u.u.K.K.G.P.Q.^.^.E.G.J.D.j.K.^.K.j.p.D.~.Q.G.g.b.%.=.2.@.@.:.D.g.j.g.n.n.i.E.K.i.j.F.K.D.D.F.K.J.R.~.Y.E.J.K.P.K.H.G.H.F.E.H.D.H.G.H.K.",
"}.^.Q.L.G.D.F.F.j.j.R.p.j.P.Q.^.~._._.!.^.E.H.i.i.D.J.J.j.j.K.Y.~.Y.F.Y.P.V.#.@.m @.N.J.D.F.K.P.F.H.W.j.D.K.Y.W.K.Y.P.K.H.K.E.K.J.K.J.R.D.j.R.K.G.H.j.E.D.Q.^.).",
"K.K.J.G.P.D.P.F.K.E.j.i.E.[.|.).^._.Q.E.K.K.j.i.j.D.G.j.D.G.W.W.K.Y./.K.G.A.;.m m %.c.B.T.P.Y.Y.W.K.F.D.W./.{._./.Q.W.F.E.W.J.D.D.K.K.J.R.R.E.K.E.K.^.E.K.Q.Q.Q.",
"W.P.j.H.D.F.F.K.J.J.H.P.Q. X[.P.K.Q.K.j.K.J.J.j.j.K.W.W.W.W.Q.Q.Y.L.c.:.#.V N m m m B V &.3.c.T.^.K.H.P././.!.P.K.W.P.H.W./.P.W.E.E.Q./._.P.P.K.G.Q.G.j.R.P.j.H.",
"G.u.g.D.D.g.g.g.u.g.K.W.P.^.^.P.Q.P.p.j.j.y.p.j.K.Y.[./.W.E.Q.P.C.+.B m m m m m m m m m m m N -.c.n.D.Y.W.~.Q.W.Y.^.J.P.W.K.E.E.[._.).Q.K.j.E.R.K.K.j.Q.^.G.D.P.",
"j.j.g.D.j.g.i.g.E.W.^.P.Q./.).Y./.D.J.J.j.p.j.E.!._./.^./._.S.=.B m m m m m m m m m m m m m m m N -.L.K.E.Q.Q.Q./.W.W.Q.K.J.W.E.`.^.E.J.G.E.^.P.K.Q._.!.Q.K.Q.E.",
"E.D.g.j.K.E.D.P.).Q.E.P.{././.W.D.g.p.i.g.j.H.~.[.|./.Q.).S.#.m m m m m m m m m m m m m m m m m m m %.x.].^.Q./.~.P.P.W.K.F.K.Q.Q.!.G.D.Q.Q.E.J.Q.[.{._.P.W.E.R.",
"J.D.Q.Q.!.P.P.E.P.P.K.Q.W.E.E.j.g.u.e.e.e.i.G.W.!.^.Q.T.<.B m m m m m m m m m m m m m m m m m m m m m C z.W./.~.J.K.J.K.D.D.E.K.P.H.G.Q.E.j.j.G.Q.[.).H.D.P.j.j.",
"Q.E.Q.E.^.!.Q.Q.Q.^./.Q.W.K.D.J.j.y.r.i.H.F.Q.^.W.!.L.1.B m m m m m m m m m m m m m m m m m m m m m m n k v.W.~.P.K.P.K.K.K.W.R.P.E.E.P.G.G.E.H.^._.W.J.K.D.H.K.",
"_._.Q.Q.^.).P.Q.P.Q.E.E.G.J.G.p.r.H.j.K.}.}._._.{./.<.B m m m m m m m m m m m m m m m m m m m m m m m m n k x.E.P.!.E.F.Q./.W.W.Q.P.K.j.j.H.K.E.P.E.K.p.j.G.G.E.",
"[.!.P.^.W.Q.!./.E.K.D.D.j.j.i.j.G.P.D.E.}./.E.^./.U.#.n n m m m m m m m m m m m m m m m m m m m m m m m m M { N.Q.W.D.P._./.K.E.Q.J.j.D.G.G.P.D.D.J.j.D.P.P.P.!.",
"_.Q.Q.E.P.Q.K.E.G.j.i.i.g.j.u.G.W.K.j.Q.{.P.W.E.P.2.m m m m m m m m m m m m m m m m m m m m m m m m m m m m d | P.J.D.W._.E.K.J.G.D.j.P.W.P.P.D.P.E.P.E.D.P.Q.^.",
"T.Q.Q.E.Q.G.g.g.i.r.u.j.j.H.J.P.^.E.R.W.P.R.J.J.C.m m m m m m m m m m m m m m m m m m m m m m m m m m m m m M a a.K.P.P.K.D.H.K.W.P.W.!.~.E.P.K._./.~.G.P.!./._.",
"P.P.R.K.H.u.e.e.u.j.j.J.j.i.j.P.P.J.~.R.g.K.E.U.#.m m m m m m m m n m m m m m m m m m m m m m m m m m m m m n d ] D.P.G.F.P.K./.^.W.E.^._.Q.^.~.W.^.E.W.W.E.E.E.",
"K.i.u.i.u.y.g.F.D.D.D.j.p.p.Q./.E.K.K.K.^.!.W.<.m m m m m m m m m m m m m m m m m m m m m m m m m m m m m m m c 0 l.F.G.!./.W.Y.Q.E._.[.Q.P.P.G.G.E.P.K.D.F.g.j.",
"J.u.t.g.i.j.Y.J.P.K.D.F.K.[.{.E.K.J./.{..XQ.f.$.m m m m m m m m m m m m m m m m m m m m m m m m m m m m m m m b u } L.'..X~.W.Q.P.Q.[.P.K.G.H.H.^.).E.G.D.j.D.g.",
"g.D.D.G.g.P.D.j.F.J.K.Q./.Q.P.W.E.Y.|.{.W.F.z.m m m m m m m m m m m m m m m m m m m m m m m m m m m m m m m m m s q N.!./.K.Y.Y.G.D.g.i.j.u.g.P.E.W.P.R.D.j.K.g.",
"K.F.H.J.W.K.K.W.K.K.J.Y.P.J.K./._._._.W.D.j.:.m m m m m m m m m m m m m m m m m m m m m m m m m m m m m m m m m f 9 ,.Y.K.R.K.W.Q.E.G.G.J.E.L.^.^.K.H.G.Q.!./.P.",
"K.R.K.K.E.E.W.P.P.K.W.K.F.W.}.|._.T.W.D.J.T.&.m m m m m m m m m m m m m m m m m m m m m m m m m m n m m m m m m M 9 J W.~.{.^.K.E.J.K.P.E.Q.Q.Q.Q.W._._.Q.Q.E.F.",
"K.D.F.K.W.E.F.j.j.p.j.K./.XXoXQ.J.D.i.D.^.N.N m m m m m m m m m m m n m m m m m m n m m m m m m m m m m m m m m M u q N./.~.i.D.P.J.H.G.G.K.F.^.Q./.}.W.J.D.j.i.",
"H.D.J.P.K.D.D.J.D.i.W.!.{.{.E.j.g.D.G.Q.^.<.m m m m m m m m m m m m m m m m m m m m m m m m m m m m m m m m m m b i 0 l.K.K.H.K.E.Q.^.[.E.G.E.Q.K.P.J.j.H.R.J.D.",
"G.J.R.K.D.J.D.P.W.^._././.W.D.K.D.W././.~.2.m m m g d M m m m m m m m m m m m m m m m m m m m m m m m m m m m m b p 9 X.E.~._./.P.W._.~.E.E.Q.G.H.H.j.G.D.W.E.E.",
"K.P.W.K.Q./.).!.).W.^.Q.E.K.Q.F.W./.!.W.!.-.m m 3 O X + d m m m m m m m m m m m m m m m m m m m m m m m m m m m m p <  .Y.!.W.D.K.E.^.Q.E.E.E.j.D.E./.E.D.G.F.K.",
"F.W.W.^.W.)././.E.K.E.F.J.P.P.E.W./.Y.W.!.&.m M +       # m m m m m m m m m m m m m m m m m m m m m m m m m m m m p 9 } L.W.K.J.E.~.P.Q.Q.P.K.E.K.Q.E.D.j.G.j.j.",
"P.J.P.W./._.W.G.j.D.E.J.P.P.P.^./.Q.W.W.T.#.m f o       @ m m m m m m m m m m m m m m m m m m m m m m m m m m m b p < ] i.j.P.W././.)._.P.E.K.K.J.J.F.j.P.P.g.D.",
"P.P.W.Y.!./.W.H.H.!._.P.E.^.^.).'.~. X X(.V m m # .   X , m m m m m m m m m m B m m m m m m m m m m m m m m m m n p < J L.W.W.W.E.Q.E.Q.!.Q.Q.K.J.E.P.D.P.F.P.W.",
"^.W.Q._._.Q.P.K.E.{.P.G./..X[._.Q.^.[._.V.#.n n d * # > g m m m m m m m m m m m m m m m m m m m m m m m m m m m n i 9 [ L.K.F.J.E.E.E.E.Q.^.E.j.E.K.K.P.J.J.G.E.",
"P.Q._./.!.G.j.D.P.P.P.Q.Q.].^.J.K.Q.^.Z.` w y x m g d c m m m m m m m m m m m m m m n m m m m m m m m m m m m m M u 9 ] G.G.K.D.j.D.G.P.P.J.G.D.E.K.J.g.H.j.D.W.",
"}.{./.P.W.j.t.J././.).~././.W.E.E.Q.d.t = = = w l m m m m m m m m m m m m m m m m m m m m m m m m m m m m m m m M 9 9 } K.H.D.j.E.P.G.F.P.E.K.H.E.P.G.K.P.~.).Q.",
"{._.E.D.J.u.j.W.].[.E.H.K.E.E.j.G.I.` = = = = = e v m m m m m m m m m m m m m m m m m m m m m m m m m m m m m m g 9 9  .W.R.D.K.^.~.~.E.E.E.G.G.E.K.W.K.E.}./.Q.",
"/.K.i.p.i.H.Q._.W.J.D.i.j.R.P.P.T.O.= = = = = = = z m m m m m m m m m m m m m m m m m m m m m m m m m m m m m m d 9 9 X.W.K.R.~.W.^././.K.K.K.P.K.W.E.P.^.!.E.Q.",
"/.K.H.j.H.W.Q.W.D.i.j.D.K.{.Q.W.d.r = = = = = = = z m m n m m m m m m m n n m m m m m m m b n m m m m m m m m b i 9 9 z././././.Q.[.}.^.P.W.Q.K./.[.E.G.K.E.P.Q.",
"J.H.p.p.W.K.F.D.j.i.J.D.K.Q.Q.K.' = = = = = = = - l m m m m m m m m m m n b m m m m m m m g b m m m m m m m m g 9 9 h V.[.[././.{.W.F.K.K.W.P.J.K.E.E.u.J.E.P.R.",
"p.u.e.j.J.W.J.P.E.D.J.E.W.Q.Q.).O.- = = = = = = e n m m m m m m m m m m m c n m m m m m M s b m m m m m m m m s 9 9 ] P.~./.W.~.E.D.g.j.D.j.J.G.J.j.r.t.j.R.J.j.",
"y.p.D.W.Q.W.Q.Q.J.F.Y.K.F.W.^.[.!.d.) _ r - w e x m m m m m m m m m m m m b g m m m m m d p n m m m m m m m M 9 9 9 ( p.K.D.J.K.J.H.F.g.r.i.J.J.D.j.D.G.K.J.j.y.",
"~.]._.'.{._.~.K.Q./.W.K.Y././.!.Y.K.G.h.h.s.o.C m m m m m m m m m m m m m m f f m m m g u d m m m m m m m n p 9 9 0 s.D.W.j.j.F.J.j.j.w.i.K.G.G.E.Q.~.D.H.E.J.J.",
"_.^./.Q.W.E.D.F./.K.E.~./.!.Q./.Q.K.P.D.E.H.G.=.m m m m m m m m m m m m m m b d d f d 9 0 M m m m m m m m f 9 9 9 K i.D.K.H.K.K.p.u.w.u.W.P.~.K.G.E.R.E.E.E.K.E.",
"/.W.Y.J.D.j.J.W.E.Q.W.W./._.{.'././.~.E.K.J.j.,.B m m m m m m m m m m m m m m b d i 9 i g m m m m m m m g u 9 9 0 b.K.G.K.J.J.H.u.w.H./.W.W.G.H.H.H.R.K.W.Q.E.^.",
" XXX/.Q.K.P./._.{./.^.E.^._.'._.W.W.E.G.j.t.y.6.J n m m m m m m m m m m m m m m n b c b m m m m m m m c i 9 9 9 H w.D.F.^./.^.P.D.E.[.W.E.J.H.H.D.K.Q.^.Y.P.W.{.",
"].~.K.E.W.K.J.!.Q.W.E.Q.~.Q.!.W.J.j.i.D.i.y.5.R Y k m m m m m m m m m m m m m m m m m m m m m m m m c i 9 9 9 6 ; $ Q i.W.K.F.K.Q.{./.E.E.D.H.j.H.Q.!.P.D.D.K.^.",
"P.D.D.F.D.n.P./.W.W.Q.Q.K.J.G.J.j.j.j.J.F.9.~ W Q T j m m m m m m m m m m m m m m m m m m m m m m g u 9 9 9 7 L $ $ : e.W.P.K.K.E./.W.Q.K.p.p.j.E.Q.K.H.K.E.W.Q.",
"K.J.J.F.J.Q._./.W.Q._.P.K.J.K.K.D.K.K.F.F.~ E Q W Q F j m m m m m n m m m m m m m m m m m m m b f 9 9 9 9 7 U R $ P W q.W.Y.F.H.j.P.D.D.p.u.J./.[.^.E./.E._.{.W.",
"K.~.P.Q.[././.Q./.Q.E.E.J.P._.P.G.G.K.J.D.~ % : R W R D q g b m m m m n m m m m m m m m n n f u 9 9 9 9 6 S Q W W W W 6.W.W.D.j.D.K.D.u.D.W.{._.Q._.}.W.Q.{.Q.J.",
"Q.Q.D.F.P.W.Q.!.W.F.D.F.j.F.W.G.F.E.J.H.K.0.R : P W W W U 8 i s f b b n n m m n n b M f s u 9 9 9 9 9 4 L R Q Q P W E 9.W.K.H.H.J.K.E.W.[.[.{.!.Q.{.W.J.W.Q.G.R.",
"D.j.K.D.P.J.K.K.j.t.p.D.i.i.K.J.P.Q.F.K.G.i.~ R Q ! W P : P Z 0 9 9 u s s s s s s u 9 9 9 9 9 1 9 7 D ; : E ~ Q ! Q ^ g.J.D.j.D.E.)..X{.W.~.^.P.P.E.H.P.Q.J.j.G.",
"D.J.J.D.J.D.H.g.j.n.F.j.g.J./.W.Y.K.W.Y.F.G.F.q.Q W W : P R R L A 8 2 9 9 9 9 9 9 9 9 9 9 9 0 5 F Y R : W 5.^ ~ ^ 0.J.R.J.R.K.R./.'.{.^._._.[.K.E.W.Q.W.W.H.P.P.",
"K.H.J.W.K.P.K.F.J.F.D.y.J.^././.^.P.P.E.G.G.W.E.j.8.R : P E : : E ~ T F A 6 2 2 7 2 7 4 H F U W E W R R ~ 6.6.r.j.K.J.J.H.H.K.W._.}._.W._.Y.K.H.P.~.[.~.R.E.J.D.",
"u.j./.W.K.Y.J.E.J.F.H.D.K.P.W.R.E.W.D.D.D.D.~.E.G.g.0.6.! : : : P W E % % L $ % ; I Y P W E P E P P E 5.q.u.K.H.F.j.u.p.p.J.^.)._.[.Q.Q.E.i.j.p.H.P.P.i.j.D.p.j.",
"D.P.Q.W.W.Y.P.G.W./.{./.].Q.E./.Q.P.G.g.D.G.E.K.G.G.G.H.p.r.0.7.6.~ W P E P P W W W E E W ! ! 5.6.9.J.W.'./.~.K.g.i.u.j.J.W.[._.{.{.Q.K.D.n.D.j.E.Q.J.j.H.j.j.J.",
"_.'.Q./.Q.W.P.Y.W./.Q.^.W.W./.W.P.Q.F.J.P.Q.E.E._.W.E.H.p.J.G.G.P.F.y.w.w.r.9.y.p.u.r.e.j.D.H.P.Y././.{./.W.K.D.j.D.u.D.[.{._._.|._.J.j.u.i.i.D.j.R.H.y.j.G.H.Q.",
"'.T.K.W.~.^.~._.^.^.Q.E.D.J.P.W.W.E.j.R.Q.P.J.K.P.G.D.g.j.E.W.W.R.E.G.R.W.W.P.Q./.~.F.Y.Q./.{./._._./.R.D.j.u.p.D.D.i.K.XX{._././.E.H.p.p.j.D.g.j.j.j.K.^.P.K.[.",
"|.Y.P.K.K./.W.W.E.K.F.H.F.Y.P.Y.G.K.j.E.Q.j.R.J.j.J.g.E.E.E.W.E.R.Q.Q.Q.D.P.Q.Q./.K.K.Y.W./.Q./._.^.E.j.u.u.r.u.j.K.E./.'.W.Q.G.F.H.p.D.D.j.K.j.G.Q.Q./.E.W.W.).",
"/.W.Y.K.W.K.J.J.K.j.j.D.P.).Q.K.P.J.K.E.K.J.H.H.E.E.~.!.P.~.Q.E.^./.Q.K.P.W.Q.^.^.W.!.W._.Y.J.P.P.H.p.i.i.j.D.D.P.^././.Q.P.D.D.P.K.K.K.H.F.P.P.!.{.).Q._._.!._.",
"Y.P.g.G.K.i.i.J.j.j.J.E.W.E.F.G.E.E.W.K.H.G.J.^.W.W.E.Q.!.^./.~.E.P.K.K.P.P.E.Q.~./.R.E.P.g.i.j.j.p.p.j.j.p.H././.^.].W.K.G.J.P.E.K.j.E././._._.!.!.Q././.Q.Q./.",
"J.D.i.D.j.J.K.P.p.D.J.F.j.g.Q.Q.P.K.G.D.E.E.P.^.~.E.[..X^.W.E.G.P.P.P.F.E.E.G.K.E.H.j.j.j.j.G.D.u.p.j.p.j.J._.}._.^.E.K.K.J.j.D.K.H.^.[.Q./._.Q.P.W.Q.K.D.D.j.H.",
"W.p.j.R.P.K.K.D.K.G.J.D.F.Q.{.P.P.D.D.Q./.P.P.~.Q.Q.[.E.P.P.H.G./.{._.P.J.D.F.K.Q.j.j.j.j.j.j.r.J.J.D.D.P.}.OX[.^.E.W.Q.E.D.g.J.J.K./.E.P.P.K.G.^.[.Q.J.p.i.p.D.",
"P.H.K./.^.W.J.F.F.j.F.P._._.W.F.F.g.F.E.K.K.W.Q.K.E.P.j.j.j.D.P.Q.Q.W.P.K.P.Q.D.j.j.G.G.H.j.e.t.j.j.R./. X.X[.~.J.D.D.H.H.j.j.D.i.J.D.j.H.p.D.E.^.E.j.i.p.j.H.J.",
"W.~.~.~.~.W.P.Y.K.E.W.!./.W.D.j.G.P.P.E.j.H.H.E.Q.W.J.F.D.P.P.^.Q.R.K.P./.{._.T.P.h.D.j.j.g.j.P.K.Q._.}.{.^.J.J.D.H.K.D.j.j.j.D.^.W.K.W.E.P.P.].R.j.u.j.E.E.E.E.",
"!./.Y.E.P.~.^.Q.Q.Q./.E.K.W.Q.Q.Q.P.F.j.K.~.^.E.K.D.K.P.P.W.Q.Q.W.W._./.Q.^.Y.K.E.E.G.D.K.E._.)./._.{.Q.L.G.~.~.K.J.K.j.D.E.W./.^.K.K.P.Q.Y./.^.K.H.K.P.W././.^.",
"/.P.D.W._.Y.K.R.E.K.G.G.W.{.{.J.g.D.g.P.K.J.j.j.F.D.j.E.E.D.F.Q.P.Y.T.G.g.i.j.H.D.D.j.J.^.[.^.Q.^.Q.F.D.G.Q.].j.y.g.i.H.J.G.K.E.~.K.F.P.F.D.R.J.g.K.Q.P.K.W.F.K.",
"G.F.K.E.K.K.K.K.R.J.E.P.W.L.D.p.j.W.Q.Q.G.j.j.E.E.W.E._.W.H.P.Q.F.H.g.j.u.D.D.D.g.i.j.K.E.W.~./.Q.E.W.G.J.J.p.p.g.G.G.^.W.W.Q.W.E.K.K./.E.R.E.W.j.W.Q.P.K.W.Q.P.",
"K.G.L.W.J.K.K.E.E.E.^.P.P.D.u.E.W.).!.E.E.E.[.W.G.Q.E.W.G.P.W.P.J.J.j.J.i.J.F.J.D.D.J.E.G.W.E.Q.G.E.^.G.J.p.y.E.D.E.]._.^.!.).!.K.E.G.^.W.^.[.^.~._./.Q.P.{.^.P."
};
