/* XPM */
static char *char2_back[] = {
/* columns rows colors chars-per-pixel */
"80 80 173 2 ",
"   c #7A7767",
".  c #7B7865",
"X  c #7F7C6B",
"o  c #827D63",
"O  c #817E6B",
"+  c #BDA01F",
"@  c #BB9F24",
"#  c #B99E28",
"$  c #B69C2B",
"%  c #AF9936",
"&  c #A7943E",
"*  c #B29A32",
"=  c #BDA021",
"-  c #BEA32B",
";  c #BDA330",
":  c #C3A522",
">  c #CCAD23",
",  c #CDAF2E",
"<  c #CFB024",
"1  c #CEB029",
"2  c #D4B325",
"3  c #D8B726",
"4  c #DCBB27",
"5  c #DCBB2A",
"6  c #C5AA35",
"7  c #DBBC33",
"8  c #E0BE27",
"9  c #E1BE28",
"0  c #E2C027",
"q  c #E5C229",
"w  c #EAC62A",
"e  c #ECC82A",
"r  c #EBC932",
"t  c #E6C73B",
"y  c #E7C83F",
"u  c #EAC93A",
"i  c #998C4E",
"p  c #9F9049",
"a  c #8F865D",
"s  c #958A56",
"d  c #A59442",
"f  c #A89542",
"g  c #A49349",
"h  c #AB9846",
"j  c #A19455",
"k  c #AA9C5A",
"l  c #B5A14B",
"z  c #B8A651",
"x  c #BDAA53",
"c  c #85826D",
"v  c #8A866D",
"b  c #8D896D",
"n  c #9B9160",
"m  c #9E9568",
"M  c #868371",
"N  c #898673",
"B  c #8C8975",
"V  c #8E8C78",
"C  c #918E77",
"Z  c #918F7A",
"A  c #95927C",
"S  c #98957E",
"D  c #969174",
"F  c #A2996D",
"G  c #C4AE49",
"H  c #C2AC45",
"J  c #D3BA4A",
"K  c #C2AF53",
"L  c #C3B058",
"P  c #CAB65D",
"I  c #D0BB59",
"U  c #C9B96C",
"Y  c #C7B875",
"T  c #CEBF75",
"R  c #C0B57F",
"E  c #CBBD7C",
"W  c #DFC54F",
"Q  c #DBC355",
"!  c #DCC45B",
"~  c #E6C843",
"^  c #E8CA41",
"/  c #E3C74B",
"(  c #E4C94D",
")  c #E2C646",
"_  c #E4CA54",
"`  c #E8CD55",
"'  c #E4CC5D",
"]  c #DDC865",
"[  c #DBC666",
"{  c #CDC07B",
"}  c #D5C370",
"|  c #D8C777",
" . c #D7C87B",
".. c #DDCC7D",
"X. c #E2CD6B",
"o. c #E3CD67",
"O. c #E5D06B",
"+. c #E9D46F",
"@. c #E0CE79",
"#. c #E4D17B",
"$. c #979580",
"%. c #999681",
"&. c #9C9983",
"*. c #A29E85",
"=. c #A19E88",
"-. c #A4A18B",
";. c #A9A58C",
":. c #AEAA8E",
">. c #AEAB91",
",. c #B1AE93",
"<. c #B3AF98",
"1. c #B6B296",
"2. c #B9B597",
"3. c #B7B399",
"4. c #BAB69B",
"5. c #BEB99D",
"6. c #BFBBA1",
"7. c #C3BA8D",
"8. c #CABF89",
"9. c #C6BD90",
"0. c #C1BD9E",
"q. c #C2BEA2",
"w. c #CEC48C",
"e. c #CCC083",
"r. c #D2C687",
"t. c #DECF83",
"y. c #DCCE8A",
"u. c #DFD18A",
"i. c #C6C09D",
"p. c #CBC49C",
"a. c #D0C694",
"s. c #D4C993",
"d. c #D2C99A",
"f. c #D8CF9D",
"g. c #DED295",
"h. c #DDD39C",
"j. c #E3D283",
"k. c #E0D28B",
"l. c #E3D692",
"z. c #C6C1A4",
"x. c #C9C5A6",
"c. c #CDC8A6",
"v. c #C7C3A8",
"b. c #CAC6A9",
"n. c #CEC9AC",
"m. c #D2CBA5",
"M. c #D1CDAE",
"N. c #DAD1A2",
"B. c #D5D0AE",
"V. c #DAD4AD",
"C. c #CFCBB0",
"Z. c #D2CEB1",
"A. c #D6D1B3",
"S. c #D9D5B5",
"D. c #DDD8B6",
"F. c #D7D3B8",
"G. c #DAD6B9",
"H. c #DED9BB",
"J. c #E2D8A4",
"K. c #E1D9AC",
"L. c #E1DBB6",
"P. c #E1DDBC",
"I. c #E5E0BE",
"U. c #DFDBC0",
"Y. c #E2DEC1",
"T. c #E5E1C2",
"R. c #E9E4C4",
"E. c #EDE8C6",
"W. c #E6E3CA",
"Q. c #EAE6CA",
"!. c #EDE9CB",
"~. c #F0EDCE",
"^. c #F4F0D1",
/* pixels */
"A.G.G.G.D.D.I.S.D.M.A.x.0.q.A.Z.A.P.S.c.S.D.Z.n.Z.b.Z.G.F.M.n.z.x.n.H.Z.b.n.z.q.b.n.M.M.A.H.P.A.S.b.n.z.v.n.R.H.F.P.P.c.T.I.A.b.x.c.H.Y.H.P.Y.L.Y.D.!.P.Z.D.D.Z.",
"A.S.G.G.B.S.P.P.H.V.c.b.z.M.M.c.S.A.n.M.S.G.n.c.x.M.M.G.A.n.b.n.n.A.Z.b.z.n.q.z.Z.A.M.A.Z.S.S.A.Z.q.b.n.Z.H.A.b.n.P.M.A.T.F.q.z.n.S.S.P.Y.D.D.P.P.Y.D.M.Z.S.Z.M.",
"M.n.n.Z.S.A.S.F.n.M.c.v.v.z.c.M.P.F.M.M.z.z.Z.n.S.S.M.S.A.M.b.M.C.v.Z.F.A.F.b.A.B.c.c.n.G.S.S.M.0.0.z.A.M.n.n.Z.G.H.S.B.M.z.0.n.Y.P.P.Y.Y.G.Z.S.Z.M.S.M.F.Y.c.Z.",
"Z.n.c.M.V.S.S.M.M.S.S.b.Z.G.T.T.P.M.H.A.n.B.P.H.H.G.F.n.A.A.D.Z.F.F.G.G.S.n.S.H.S.M.S.Z.A.S.G.b.b.M.P.F.n.M.F.Z.H.H.T.A.x.Z.D.S.P.M.S.S.P.Y.R.F.F.S.Z.Z.H.Z.S.F.",
"M.b.Z.S.D.R.G.A.G.H.Z.b.H.I.R.P.F.Z.F.A.P.S.P.Y.D.H.S.A.S.H.A.x.A.S.A.S.M.A.A.D.M.n.A.D.D.D.Z.b.Z.Y.G.n.U.H.H.P.H.G.F.n.H.H.F.A.M.D.S.S.F.D.Z.c.Y.D.M.A.Z.M.Z.Z.",
"z.b.H.D.Y.H.Z.n.Z.n.n.G.S.S.H.x.v.Z.c.A.S.S.Y.S.A.M.B.F.Z.M.n.x.A.M.M.x.x.c.x.n.q.x.P.Y.P.n.z.z.Z.M.Z.A.Z.F.G.b.b.n.b.S.C.n.A.n.c.n.x.c.n.n.c.n.F.Z.M.0.q.c.q.n.",
"M.S.A.F.A.F.c.z.A.S.H.n.Z.G.G.C.b.Z.F.H.P.H.L.D.S.F.M.M.Z.Z.D.A.M.D.n.M.M.c.c.M.H.G.Z.Z.F.z.5.v.H.H.D.Z.F.S.S.b.v.z.B.S.S.G.A.b.Z.M.n.q.Z.S.A.c.M.S.M.n.n.c.b.Z.",
"A.H.c.Z.M.n.z.M.S.P.b.4.n.b.b.z.6.A.M.A.W.H.A.M.H.S.z.M.c.M.M.M.M.M.B.b.0.M.c.B.P.S.b.b.x.q.q.D.A.G.n.n.S.B.M.5.3.x.G.P.R.G.n.C.S.v.v.b.q.Z.F.M.Z.M.M.q.q.S.n.n.",
"A.n.q.b.b.n.M.H.S.F.n.z.Z.q.A.D.n.M.n.S.T.G.x.M.M.Z.M.M.n.M.n.n.S.Z.Z.G.Z.A.A.I.P.M.q.z.z.5.C.H.n.b.5.n.A.c.z.z.b.A.S.R.R.x.q.n.n.n.n.Z.Z.Z.n.v.c.M.n.n.Z.F.M.A.",
"P.n.A.Z.n.F.M.A.z.z.b.Z.Z.Z.P.Z.5.z.M.S.Y.Z.M.M.c.c.b.M.n.C.n.n.D.U.S.F.C.S.D.P.R.S.A.Z.b.M.A.Z.z.0.n.n.S.B.x.q.5.G.I.R.P.n.x.x.n.n.q.Z.Z.M.M.Z.D.S.n.n.q.b.c.S.",
"A.n.C.q.Z.Z.M.Z.x.z.M.x.M.Z.Z.n.z.x.Z.S.S.A.H.M.M.z.q.b.z.q.z.x.M.M.x.z.n.D.A.M.F.n.n.v.Z.n.M.M.n.M.F.B.A.b.z.z.S.T.E.I.H.B.m.x.S.n.x.n.Z.Z.Z.D.D.Z.c.q.c.Z.S.A.",
"z.z.6.q.c.c.M.A.S.n.M.x.n.v.q.x.z.n.C.Z.Z.Z.M.S.M.n.z.x.0.q.b.b.n.z.4.q.n.A.Z.n.z.q.4.z.z.x.n.S.H.H.H.S.n.n.n.H.R.I.R.H.S.A.b.F.Z.q.x.S.L.Z.D.D.S.n.q.v.n.F.Z.c.",
"x.z.z.m.S.D.S.L.M.b.Z.z.5.v.v.q.5.q.6.b.n.M.x.x.x.x.n.n.6.3.q.4.z.5.z.c.M.x.6.6.z.5.z.M.A.S.T.R.S.D.D.M.n.M.B.n.H.S.M.n.Z.z.z.x.n.Z.W.W.G.H.A.c.Z.b.Z.F.Z.M.n.x.",
"P.D.P.P.P.L.P.M.A.D.S.q.b.c.M.q.0.4.b.C.F.M.n.A.n.0.q.,.4.5.z.v.c.S.A.n.n.M.x.z.n.Z.B.H.D.B.P.H.T.I.I.M.M.F.A.x.S.M.Z.n.n.z.n.A.H.Z.S.M.n.D.S.G.P.Y.R.F.Z.Y.M.n.",
"B.B.S.D.Z.B.Z.Z.V.M.M.x.c.M.n.b.z.b.n.b.A.F.n.Z.v.q.3.<.0.x.F.M.c.A.Z.Z.A.Z.q.v.n.z.n.A.b.z.z.B.H.F.n.C.Z.M.F.c.S.Z.n.b.M.M.S.D.Z.b.q.n.Z.Z.Y.Y.H.D.D.S.H.Z.x.b.",
"M.c.n.x.c.z.M.L.M.n.q.x.z.v.C.Z.n.A.U.H.D.H.Z.n.v.v.v.n.F.A.n.b.q.v.F.Z.M.Z.q.b.b.q.5.q.b.q.n.H.A.Z.n.n.n.n.M.M.S.H.S.S.H.S.B.A.Z.q.c.D.Z.G.n.G.Z.Z.Z.0.q.q.c.A.",
"z.z.n.n.A.S.D.H.Z.c.q.q.q.x.M.Z.Z.Z.P.L.Y.Y.P.M.5.x.Z.G.A.C.b.q.q.M.P.Z.c.q.n.m.o.J.S.m.M.c.D.L.F.Z.v.q.z.b.M.F.A.A.F.S.H.B.A.A.n.Z.G.Z.x.n.Z.Z.M.G.q.x.F.Z.Z.S.",
"q.z.A.S.A.S.A.c.n.x.q.q.2.x.M.Z.n.z.M.M.D.S.x.M.M.c.M.Z.Z.x.z.c.Z.P.P.n.6.q.n.s.u g.v.M.Z.x.0.z.n.z.q.v.z.z.Z.n.x.0.q.n.n.x.n.Z.S.G.Z.b.n.q.q.Z.D.A.M.G.Y.Y.Z.q.",
"B.P.D.V.H.Z.z.n.v.5.c.v.2.5.b.n.c.Z.Z.D.F.Z.b.x.x.q.n.S.b.q.q.z.D.S.d.7.q.Z.U.y.~ a.q.0.w.q.q.z.i.5.Z.n.6.q.x.c.q.z.x.n.b.n.S.Z.M.c.n.C.Z.v.c.b.b.Z.x.q.q.n.v.n.",
"R.H.S.M.c.z.x.b.q.q.C.6.q.Z.S.D.S.P.P.D.D.Z.v.5.5.z.b.b.q.q.c.Z.S.Z.[ ~ t.D.Y.u.) p.c._ ( p.c.M.b.z.F.q.z.n.B.A.M.A.M.c.b.C.Z.n.b.n.b.C.q.q.C.n.c.v.q.Z.x.S.G.P.",
"n.M.x.b.M.z.M.x.n.Z.q.5.Z.Y.R.D.D.P.S.Z.n.n.q.6.q.x.x.0.z.c.Z.Z.M.M.K.] u +.k.! t | ' u y.M.V.A.A.n.x.q.F.G.T.P.D.S.A.x.Z.A.b.q.q.n.n.b.n.n.Z.n.Z.n.G.Z.n.S.S.S.",
"Z.M.q.x.z.x.x.n.x.v.v.Z.A.Q.Y.M.n.A.n.q.n.n.v.q.0.n.A.F.Z.F.S.S.M.f. .( e e w w 9 q q 5 _  .a.M.S.n.z.M.G.P.H.M.n.A.Z.z.A.H.M.F.Z.Z.S.P.Y.M.Z.n.n.A.c.q.Z.M.q.v.",
"c.4.0.z.z.0.0.0.5.q.b.S.Z.D.D.M.A.M.q.q.q.1.3.q.M.M.P.D.F.M.S.N.X.~ w e e e e e q q 4 2 > : , ! d.z.z.A.A.S.S.A.A.G.c.M.Z.n.Z.Z.P.P.P.S.n.q.Z.C.n.n.q.A.D.c.q.Z.",
"q.q.0.z.q.0.5.0.Z.Z.D.M.F.H.P.V.D.b.b.b.q.q.q.F.H.P.H.G.P.P.#.^ e e e e e e e e e q > : < 9 q e ~ ..B.n.A.S.S.S.G.F.A.S.n.n.A.Z.D.S.A.v.n.Z.D.M.n.S.P.L.Z.M.S.Z.",
"Z.z.0.q.n.Z.x.M.P.A.A.M.T.H.D.A.q.q.q.3.6.q.q.A.Y.R.P.F.K.+.r e e e e e e e e e e 8 : 4 e e e e e r ! m.U.S.S.Y.S.M.M.F.c.x.n.S.S.L.c.b.S.S.Z.v.S.P.R.P.M.A.Z.C.",
"b.x.S.A.F.M.M.M.M.M.M.A.A.M.Z.q.q.2.,.<.,.5.n.S.D.D.S.h._ e e e e e e e e e e e e 3 9 e e e e e e e e Q d.F.H.Z.b.n.n.n.q.z.Z.n.n.b.c.A.Z.0.q.c.S.Y.D.v.x.n.q.q.",
"S.Z.D.Z.D.S.S.F.S.G.D.S.A.n.x.v.q.3.<.0.v.c.S.G.A.D.N.( e e e e e e e e e e e e w q e e e e e e e e e e J m.Z.D.M.n.M.n.M.b.F.C.n.Z.A.M.b.c.Z.b.D.P.Z.n.c.x.x.n.",
"P.P.F.S.D.P.M.S.M.S.Z.Z.b.n.b.6.2.q.q.n.R.R.P.P.R.S.' w e e e e e e e e e e e e e e e e e e e e e e e e 9 I V.M.M.D.Z.x.F.D.F.A.S.Z.n.q.q.v.n.Z.Z.Z.n.q.q.v.c.A.",
"Y.D.Z.D.Z.D.D.D.Z.n.x.z.0.q.5.q.c.Z.x.Z.R.H.M.D.P.@.e e e e e e e e e e e e e e e e e e e e e e e e e e e 5 U A.A.F.q.M.P.D.n.Z.S.c.q.q.n.c.M.c.q.v.q.v.M.Z.M.S.",
"P.A.A.M.M.S.M.Z.c.q.0.4.0.q.4.c.Z.n.q.S.Y.M.S.Z.s.u e e e e e e e e e e e e e e e e e e e e e e e e e e e q 6 w.M.b.x.A.P.M.n.n.v.x.q.M.F.c.M.q.Z.Z.M.Z.q.Z.A.P.",
"V.A.D.Z.S.n.5.0.5.<.5.q.q.v.b.M.H.Z.Z.Z.M.Z.v.z.( e e e e e e e e e e e e e e w e e e e e e e e e e e e e e 2 G c.n.M.M.c.v.z.C.S.M.Z.D.S.Z.M.M.P.P.F.c.M.D.L.Y.",
"M.M.Z.C.b.3.,.,.4.q.q.v.q.5.q.M.Z.v.F.C.q.n.Z.@.e e e e e e e e e e e e e e e e e e e e e e e e e e e e e e q : Y b.M.b.x.Z.c.D.F.S.Z.D.Y.Z.F.G.Z.F.Z.A.Z.Z.Z.Z.",
"n.5.5.5.3.3.0.z.x.z.z.0.q.6.S.G.C.n.n.n.S.D.V.( e e e e e e e e e e e e e e e e e e e e e e e e e e e e e e w > H c.x.n.S.D.S.M.A.Z.P.Y.A.M.M.c.c.M.M.c.x.v.0.q.",
"x.5.1.5.5.z.B.c.n.c.z.x.n.Y.T.C.n.c.H.R.Q.F.T r e e e e e e e e e e e e e e e e e e e e e e e e e e e e e e e 5 : 8.S.P.Q.F.S.S.M.S.Y.M.M.n.x.v.G.P.Z.n.q.q.q.0.",
"5.z.x.n.5.M.z.z.b.v.n.F.H.S.B.F.Z.A.Q.I.A.x.! e e e e e e e e e e e e e e e e e e e e e e e e e e e e e e e e q : P A.D.F.M.M.A.c.x.0.4.0.4.0.M.Z.Z.n.C.q.x.n.0.",
"n.x.z.c.F.n.n.A.n.M.n.B.M.x.n.H.P.P.P.A.x.7.t e e e e e e e e e e e e e e e e e e e e e e e e e e e e e e e e w : 6 f.A.n.Z.n.Z.S.Z.c.c.n.M.n.D.D.n.x.n.S.D.D.M.",
"n.n.n.n.Z.C.A.M.M.c.A.C.x.A.R.E.P.B.A.z.n.t.w e e e e e e e e e e e e e e e e e e e e e e e e e e e e e e e e e < : 8.Z.F.Y.D.Z.Z.c.n.Z.Z.S.D.A.S.Z.P.P.S.A.Z.x.",
"n.x.x.n.A.C.n.5.z.5.6.n.H.!.!.G.x.x.5.z.F.o.w e e e e e e e e e e e e e e e e e e e e e e e e e e w e e e e e e 3 + K Z.P.Z.q.q.M.v.v.n.n.c.x.D.F.P.T.S.c.x.q.5.",
"x.x.x.C.n.x.z.n.z.5.A.D.T.T.A.q.5.z.c.S.D./ e e e e e e e e e e e e e e e e e e e e e e e e e e e e e e e e e e 4 @ G Z.M.M.x.M.A.S.D.Y.Z.c.A.S.n.M.b.q.q.C.b.v.",
"v.b.C.n.z.x.z.n.S.G.P.H.H.Z.z.n.z.A.P.H.N.t e e e e e e e e e e e e e e e e e e e e e e e e e e e e e e e e e e 8 + 6 d.Z.Z.Y.F.M.Z.U.F.Z.M.A.b.v.v.q.c.v.F.Z.Z.",
"n.M.A.n.S.D.L.D.H.F.F.A.A.n.D.x.Z.H.D.F.h.u e e e e e e e e e e e e e e e e e e e e e e e e e e e e e e e e e e 9 + ; 8.Z.L.F.q.n.Z.F.S.A.Z.Z.q.b.Z.D.Z.v.c.x.n.",
"c.A.A.S.A.H.H.H.B.b.B.x.x.n.n.M.F.H.M.A.l.w e e e e e e e e e e e e e e e e e e e e e e e e e e e e e e e e e e 9 : : r.Z.Z.Z.c.Z.A.B.A.S.M.C.Z.n.Z.Z.x.q.c.q.q.",
"M.n.n.A.H.P.S.c.6.x.A.x.Z.n.M.H.P.S.F.V.#.e e e e e e e w e e e e e e e e e e e e e e e e e e e e e e e e e e e 9 + > } q.q.M.Z.P.D.P.P.M.Z.n.n.b.b.x.q.M.M.q.q.",
"n.M.F.B.H.G.A.x.x.D.P.M.A.S.H.H.P.S.W.I.` e e e e e e e e e e e e w e e e e e e e e e e e e e e e e e e e e e e 8 + 2 ( m.Z.S.Z.A.A.A.A.S.S.S.n.b.Z.M.q.M.c.M.S.",
"S.F.S.H.P.S.M.n.F.T.n.c.H.Q.T.P.A.S.T.l.e e e e e e e e e e e e e e e e e e e e e e e e e e e w e e e e e e e e 8 : w r y.Z.x.v.Z.Z.M.Z.S.D.Z.q.Z.n.n.M.n.v.c.Z.",
"M.F.T.H.D.c.q.z.M.Z.M.S.S.U.G.x.M.F.F.O.e e e e e e e e e e e e e e e e e e e e e e e e e e e e e e e e e e e e 3 < e e o.v.M.q.x.q.b.M.Z.v.n.b.Z.n.c.0.v.q.x.Z.",
"R.T.D.M.A.q.2.b.H.H.P.F.H.H.F.M.A.A.V.` e e e e e e e e e e e e e e e e e e e e e e e e e e e e e e e e e e e e 2 8 e e ( 0.q.q.M.Z.n.x.n.Z.c.q.Z.M.n.n.M.F.P.D.",
"R.H.Z.z.b.2.q.F.H.U.Z.v.n.Z.n.z.n.H.l.u e e e e e e e e e e e e e e e e e e e e e e e e e e e e e e e e e e e w 3 w e e u d.q.Z.G.F.A.Z.A.Z.n.c.Z.n.Z.n.Z.Y.D.A.",
"D.n.5.6.5.x.S.H.S.b.z.5.q.C.n.B.S.P.h.u e e e e e e e e e e e e e e e e e e e e e e e e e e e e e e e e e e e 9 8 e e e u a.Z.S.Z.D.H.H.n.M.n.n.n.A.Z.M.F.D.Z.D.",
"H.n.v.q.v.A.F.A.z.5.q.z.n.T.S.B.Z.B.V.` e e e e e e e e e e e e e e e e e e e e e e e e e e e e e e e e e e e 8 : 4 e e ` K.U.G.G.Y.W.G.M.Z.S.n.H.Y.Z.c.n.Z.M.S.",
"b.v.6.6.Z.n.c.z.q.5.v.b.n.S.S.n.H.T.T.J.j._ e e e e e e e e e e e e e e e e e e e e e e e e e e e e e e e e q < @ + J j.J.Y.D.F.Y.S.c.n.M.A.M.b.M.Z.Z.4.b.Z.Z.n.",
"6.3.>.z.n.Z.b.M.Z.z.n.n.A.S.S.P.I.P.G.G.F.t.e e e e e e e e e e e e e e e e e e e e e e e e e e e e e e e e 9 : + : E Z.F.H.F.G.Z.q.0.q.q.q.c.n.v.q.1.2.q.C.b.q.",
"3.6.z.A.S.S.S.S.b.x.B.c.x.A.G.Y.H.A.Z.Z.n.d.t e e e e e e e e e e e e e e e e e e e e e e e e e e e e e e e 2 @ @ ; 7.q.c.x.b.n.b.v.x.0.,.6.c.v.x.q.x.b.n.n.q.3.",
"F.Y.H.I.T.H.F.n.S.H.A.M.B.D.H.D.B.n.n.x.Z.z.! e e e e e e e e e e e e e e e e e e e e e e e e e e e e e e 8 : + + x 0.z.Z.q.q.b.v.6.q.:.5.n.n.c.Z.S.F.q.v.Z.n.b.",
"H.S.H.S.A.Z.z.x.G.n.M.F.H.D.G.H.S.n.n.x.n.v.r.r e e e e e e e e e e e e e e e e e e e e e e e e e e e e w : + @ - R 6.q.n.v.n.C.q.6.,.2.F.M.Z.M.c.Z.C.Z.Z.Z.n.Z.",
"Y.A.B.n.z.q.b.A.A.G.Z.F.H.P.T.I.H.H.F.M.n.b.0.! e e e e e e e e e e e e e e e e e e e e e e e e e e e e < + + + K M.n.b.n.b.b.z.2.>.q.P.Z.F.C.b.q.b.C.C.Z.S.Z.S.",
"Q.Q.H.S.n.M.G.P.P.H.G.Z.G.P.I.P.A.A.M.x.q.4.;.F 7 w e e e e e e e e e e e e e e e e e e e e e e e e w 2 = + : * F 5.b.b.G.H.G.M.x.Z.Y.Z.Z.n.b.q.q.n.F.D.M.M.A.Y.",
"H.F.C.Z.A.n.n.D.D.A.Z.S.F.S.D.A.b.q.5.z.5.;.B N k r e e e e e e e e e e e e e e e e e e e e e e e w 2 = = @ @ i X X =.q.Z.M.x.n.F.T.H.Z.Z.q.q.q.b.S.D.M.q.x.M.G.",
"n.x.q.x.z.i.B.H.A.A.S.S.n.b.c.b.q.q.q.b.5.S A N Z z q e e e e e e e e e e e e e e e e e e e e e w 2 : + + @ g O     B q.S.Z.n.c.Z.P.S.Z.n.q.6.q.Z.G.c.b.n.Z.S.S.",
"n.n.n.x.b.S.P.H.A.F.P.M.n.b.n.n.z.n.n.c.1.M N V N B l 9 e e e e e e e e e e e e e e e e e e e 9 > @ @ = @ d B M   O C 0.G.Z.x.v.q.M.q.x.6.3.n.H.Y.F.Z.H.Z.P.Y.S.",
"n.F.M.S.T.H.D.S.H.S.Z.Z.b.n.P.M.n.x.n.b.1.M X O M N N h 1 9 w e e e e e e e e e e e e e w 9 2 : + @ + @ g c V N B B B 1.S.M.z.q.q.n.x.4.z.F.Y.P.D.Y.R.F.D.Y.D.v.",
"F.F.i.x.n.A.S.G.A.x.z.x.q.b.F.c.x.Z.c.v.z.%.c c c B B B j - > 2 9 q w w w w e w q q 9 2 > : + @ @ + $ i O M Z B c B A 5.F.n.x.v.n.c.Z.Z.Y.Y.Y.D.S.Y.Z.v.Z.S.c.C.",
"z.q.n.z.C.n.n.n.q.2.6.z.5.5.n.x.M.D.x.n.x.,.M M V Z B c c a f # = : > > < < > < > : + @ + @ = = @ & a O X N Z V Z S >.q.n.q.q.z.Z.P.W.T.S.S.D.M.M.Z.c.M.D.x.q.n.",
"z.b.b.v.b.z.z.q.q.i.x.q.0.n.H.B.M.n.A.B.z.c.5.%.M B B M c M M s f * @ + @ + = @ = = + + @ @ * h n B M O B &.%.A *.5.n.C.b.C.n.Z.P.P.R.F.P.P.Y.n.Z.Z.S.S.A.v.M.M.",
"n.v.n.M.n.A.n.z.b.x.z.4.b.F.H.H.S.M.A.M.c.c.F.b.<.%.c O c M O O M D F j d % * * * * % & j n C B N B M M S &.-.q.M.C.v.v.v.x.Z.M.P.E.P.Z.P.M.M.v.n.G.Y.F.Z.Z.v.q.",
"5.5.H.A.n.B.n.Z.b.x.v.z.n.M.A.C.M.A.z.z.q.x.F.M.c.4.*.$.B O O O c B M O o c o O o v b c N M O M v c M =.,.q.Z.n.v.q.5.6.6.b.S.L.P.Y.S.F.Z.0.q.0.v.Z.Z.4.q.q.q.q.",
"z.M.S.A.A.A.n.c.A.D.T.H.P.A.A.G.S.M.c.0.z.c.Z.n.n.c.c.z.3.,.;.&.S A B O M O M N B B v M Z $.Z &.=.,.Z.F.T.P.S.M.q.5.6.q.b.Z.Y.P.Y.Y.D.n.z.q.q.q.Z.F.b.q.v.q.q.b.",
"P.I.S.H.S.A.M.B.F.G.G.G.A.F.H.F.M.A.x.b.Z.A.Z.M.P.A.Z.v.q.v.c.v.n.z.1.;.,.,.;.2.6.6.,.2.q.q.c.Z.Z.P.P.Y.H.Z.Z.q.q.q.2.q.P.R.Y.P.!.P.c.q.5.5.0.q.q.b.b.2.q.n.x.S.",
"T.V.n.A.F.G.F.P.D.G.G.Z.z.x.M.A.A.A.q.n.F.M.v.Z.M.c.x.q.x.M.S.Z.C.Z.v.Z.Z.Z.M.S.D.F.x.Z.D.H.Y.P.P.Y.D.Z.q.q.5.5.q.q.q.c.~.Y.P.D.H.Z.q.q.q.q.z.0.q.q.q.n.F.M.n.P.",
"R.B.B.n.n.D.F.A.Z.n.z.v.x.A.M.V.c.b.q.Z.A.z.C.b.q.v.5.Z.M.Z.F.Z.Z.D.D.F.x.M.S.D.D.M.M.Z.A.H.S.P.P.F.Z.q.5.4.,.4.q.n.Z.P.P.S.S.c.b.v.6.q.q.q.c.q.c.G.S.U.Z.A.A.P.",
"H.S.B.n.B.n.b.c.n.q.q.z.M.P.A.n.Z.b.n.Z.M.v.q.b.Z.Z.S.D.M.F.S.Z.F.D.F.c.M.A.S.D.G.Z.H.Z.P.M.n.M.Z.q.6.5.q.q.q.v.Z.S.D.P.S.M.x.q.Z.M.C.n.x.z.Z.M.L.Y.L.S.P.P.L.P.",
"M.M.0.x.n.5.5.b.q.q.b.M.A.Z.z.c.Z.Z.F.c.x.n.n.G.Z.S.Z.A.D.G.H.F.Z.Z.n.M.M.M.Z.F.F.D.Z.Z.M.0.5.0.q.6.5.q.q.q.v.D.H.G.U.Z.Z.c.b.n.Z.n.q.Z.H.P.P.P.S.D.S.L.P.S.A.P.",
"b.z.5.q.z.b.n.n.5.z.b.x.q.0.S.D.M.n.c.x.Z.F.Z.F.G.Z.Y.!.D.Z.Z.c.M.M.M.x.Z.Z.c.n.Z.b.q.q.q.q.c.x.6.6.q.5.q.v.Y.R.P.D.Z.n.C.x.q.x.b.v.F.P.S.H.P.S.M.Z.D.M.q.q.q.v.",
"A.6.q.Z.n.n.n.z.M.c.b.q.x.S.T.M.M.z.x.A.D.M.M.G.A.A.P.Z.Z.n.v.c.P.Y.P.M.n.q.x.c.Z.q.q.q.q.q.q.,.v.C.q.q.M.R.^.Y.G.Z.A.F.Z.b.q.v.v.Z.H.Z.M.M.n.b.S.Y.S.v.q.5.q.q.",
"C.z.n.H.S.A.n.z.b.q.b.B.Y.P.B.n.x.0.x.Z.c.n.Z.F.M.Z.M.q.q.q.v.Z.S.S.A.M.c.Z.S.z.x.0.c.v.v.q.,.2.q.q.Z.H.Q.E.Y.F.c.q.q.b.q.q.q.q.0.c.v.q.v.q.q.Z.F.Z.q.5.0.q.v.v.",
"S.F.F.G.F.F.M.B.c.M.A.D.H.Z.z.q.c.M.M.C.q.v.c.Z.S.S.b.x.z.M.M.S.S.C.n.M.P.Y.P.A.M.0.x.q.q.0.q.M.n.S.P.R.Y.G.b.b.v.b.C.q.q.q.q.x.G.Z.Z.Z.Z.M.Z.U.Z.6.5.q.Z.Z.A.Z.",
"D.H.B.A.Z.F.G.S.F.S.H.Z.M.F.S.S.F.n.x.q.n.F.F.Z.c.x.Z.M.Z.A.S.A.A.A.P.P.S.D.Z.M.M.A.c.z.n.Z.P.D.L.P.R.A.c.n.G.F.n.b.b.q.x.n.A.H.F.M.M.M.A.M.P.G.n.v.M.n.Z.P.Y.F.",
"G.M.z.M.P.B.n.C.Z.M.n.x.A.P.T.x.0.x.0.M.n.c.q.q.x.q.q.M.Z.q.c.D.Z.Z.V.c.0.5.q.v.x.z.q.c.D.Y.G.S.H.F.x.x.n.S.U.q.1.0.q.v.c.n.n.Z.F.b.z.Z.c.x.C.b.q.c.S.M.M.Z.v.n.",
"c.x.c.A.n.n.n.n.n.b.Z.M.A.m.z.6.q.Z.A.S.n.q.q.Z.Z.Z.Z.P.Z.x.M.A.x.z.0.q.4.q.q.v.q.q.q.c.Z.F.S.P.A.Z.Z.n.c.v.4.6.q.n.c.F.Z.Z.F.A.Z.M.c.P.Z.C.Z.Z.q.Z.F.M.n.S.S.M.",
"M.x.M.B.b.n.n.Z.Z.Z.G.M.M.z.4.Z.A.P.D.A.Z.Z.H.F.n.S.M.F.c.M.F.Z.n.c.q.v.0.v.c.v.q.q.c.Z.c.A.Z.A.c.Z.G.c.b.6.2.Z.q.Z.P.P.D.L.P.L.n.Z.c.F.Z.H.Y.G.S.P.P.S.M.Y.S.M."
};
