/* XPM */
static char *char1_back[] = {
/* columns rows colors chars-per-pixel */
"80 80 187 2 ",
"   c #7F7D6C",
".  c #B6752C",
"X  c #BA762B",
"o  c #BE792A",
"O  c #BD7627",
"+  c #AF7939",
"@  c #B17C3D",
"#  c #B87931",
"$  c #CD7313",
"%  c #C6761F",
"&  c #C97419",
"*  c #CE791D",
"=  c #D27613",
"-  c #D77814",
";  c #DD7C14",
":  c #D0791A",
">  c #E27F15",
",  c #CD7E27",
"<  c #C47F32",
"1  c #9D7847",
"2  c #867758",
"3  c #86785C",
"4  c #9C7E53",
"5  c #A77C47",
"6  c #817E6C",
"7  c #887C62",
"8  c #E68115",
"9  c #EC8416",
"0  c #F18716",
"q  c #F58917",
"w  c #FF8E17",
"e  c #FF8F18",
"r  c #F68B1A",
"t  c #FE911C",
"y  c #D1832D",
"u  c #CE8533",
"i  c #CD8B3D",
"p  c #D28C3B",
"a  c #DA8C35",
"s  c #EB8C26",
"d  c #FC9423",
"f  c #F5952C",
"g  c #FA972A",
"h  c #FA982D",
"j  c #F79123",
"k  c #EF9B3B",
"l  c #F59A34",
"z  c #FA9C33",
"x  c #F59E3A",
"c  c #FA9E38",
"v  c #F7A13E",
"b  c #FDA13D",
"n  c #9D845C",
"m  c #B18043",
"M  c #A28355",
"N  c #AD8858",
"B  c #AC8652",
"V  c #84826E",
"C  c #8E846A",
"Z  c #8C8064",
"A  c #90866B",
"S  c #9B8868",
"D  c #858270",
"F  c #898672",
"G  c #8C8975",
"H  c #8F8B78",
"J  c #918E79",
"K  c #998D70",
"L  c #95927D",
"P  c #98957E",
"I  c #CC9149",
"U  c #D0954C",
"Y  c #D79D54",
"T  c #C99757",
"R  c #EC9C41",
"E  c #F09E41",
"W  c #DAA057",
"Q  c #EFA146",
"!  c #EFA64F",
"~  c #F3A244",
"^  c #FCA443",
"/  c #F3A64D",
"(  c #FFA74A",
")  c #EAA654",
"_  c #E5A85B",
"`  c #EBAB5B",
"'  c #E7A555",
"]  c #F4AC58",
"[  c #D4A566",
"{  c #DBA965",
"}  c #CDAD7A",
"|  c #D5AD73",
" . c #CDB07D",
".. c #D9B47A",
"X. c #DCB173",
"o. c #E5AC63",
"O. c #E8AC60",
"+. c #E6B066",
"@. c #EFB060",
"#. c #EAB36A",
"$. c #E3B06B",
"%. c #F9B364",
"&. c #E9B875",
"*. c #999681",
"=. c #9C9983",
"-. c #979580",
";. c #A39D83",
":. c #A4A18B",
">. c #ACA68A",
",. c #AEAA90",
"<. c #B1AD93",
"1. c #B3AF98",
"2. c #B6B296",
"3. c #BBB495",
"4. c #B7B399",
"5. c #BAB69B",
"6. c #BEBA9D",
"7. c #BFBBA1",
"8. c #CCB283",
"9. c #DBBA85",
"0. c #DBBD8B",
"q. c #D6B785",
"w. c #C7B893",
"e. c #CABB95",
"r. c #C1BD9E",
"t. c #D7BE92",
"y. c #E2BC82",
"u. c #E0BE88",
"i. c #E8BD80",
"p. c #C2BEA2",
"a. c #DCC08E",
"s. c #CBC09B",
"d. c #DDC395",
"f. c #D5C49B",
"g. c #DDC99D",
"h. c #DDC599",
"j. c #ECC78B",
"k. c #E3C28A",
"l. c #E2CC9D",
"z. c #C6C1A4",
"x. c #C9C5A6",
"c. c #CDC8A7",
"v. c #C7C3A8",
"b. c #CAC6A9",
"n. c #CEC9AC",
"m. c #D4C6A2",
"M. c #D2CAA6",
"N. c #DBCBA3",
"B. c #D1CDAE",
"V. c #D7CBAB",
"C. c #D5D0AF",
"Z. c #D8D2AE",
"A. c #CFCBB1",
"S. c #D2CEB1",
"D. c #DACEB1",
"F. c #D6D1B3",
"G. c #D9D5B5",
"H. c #DDD8B6",
"J. c #D7D3B8",
"K. c #DAD6B9",
"L. c #DED9BB",
"P. c #EFD7AC",
"I. c #ECD3A3",
"U. c #E1DAB6",
"Y. c #E1DDBC",
"T. c #ECDBBC",
"R. c #E4DAB4",
"E. c #FBDAB2",
"W. c #F5DAB6",
"Q. c #E5E0BE",
"!. c #ECE2BE",
"~. c #DFDBC0",
"^. c #E2DEC1",
"/. c #EDDEC1",
"(. c #E5E1C2",
"). c #E9E4C5",
"_. c #EDE9C6",
"`. c #E7E3C8",
"'. c #EAE6C9",
"]. c #EDE9CB",
"[. c #F4E9C9",
"{. c #F7ECD9",
"}. c #F7EFE4",
"|. c #FDF3E6",
" X c #FEF7EF",
".X c #FFFBF6",
"XX c #FFFFFF",
/* pixels */
"F.K.K.K.H.H.Y.Z.H.B.C.x.r.p.F.C.C.L.H.n.K.H.S.n.S.c.S.K.J.n.A.z.x.A.~.B.v.n.z.r.x.n.B.S.C.L.~.C.G.b.A.v.v.c.Q.~.G.Y.Y.c.(.Q.F.b.x.b.L.L.L.L.(.L.Q.L._.L.F.L.G.C.",
"F.G.K.K.Z.G.Q.Y.H.F.n.b.z.B.B.c.K.C.c.B.G.K.n.c.z.S.B.K.F.n.c.n.n.S.F.b.z.A.z.z.S.C.B.F.S.K.G.F.S.s.c.b.S.~.G.b.n.L.n.G.Q.J.p.z.n.L.G.Q.(.L.L.L.L.Q.L.C.C.G.n.A.",
"B.n.n.S.G.G.G.F.n.S.b.z.z.z.x.F.Y.J.A.B.z.v.B.B.K.K.S.J.F.n.x.B.A.v.S.F.G.F.b.F.S.c.x.n.G.J.G.B.r.6.v.S.A.n.b.S.K.~.G.C.B.z.r.n.(.L.Q.(.Y.L.F.G.F.A.G.n.G.~.b.F.",
"S.n.c.B.F.G.G.B.C.G.G.b.S.K.(.(.^.n.L.C.n.C.H.L.L.K.F.c.F.G.H.F.J.J.G.K.G.A.G.H.G.C.K.C.G.G.G.b.b.B.~.F.n.B.G.G.L.L.(.C.x.S.H.G.G.C.F.G.L.(.(.J.G.G.C.S.L.S.F.G.",
"B.b.S.G.H.).K.F.K.L.S.x.L.(.(.Y.F.S.J.G.Y.G.Y.Y.L.L.G.F.G.H.J.x.G.G.C.G.B.C.G.K.B.n.G.K.H.U.A.b.S.(.J.n.~.~.L.L.H.K.F.n.~.L.F.F.Z.G.G.F.G.G.F.b.(.J.B.G.F.n.A.F.",
"z.b.L.L.^.L.B.n.S.n.n.K.G.G.L.x.v.F.n.F.G.J.(.G.C.C.F.G.S.B.b.x.S.B.B.v.x.x.x.n.p.b.L.^.~.n.z.z.S.A.S.C.S.G.K.c.b.A.c.G.B.n.F.n.c.n.c.b.n.n.x.n.F.F.n.6.z.b.x.b.",
"B.G.F.F.F.F.n.x.F.G.L.n.S.G.K.S.b.S.J.K.Y.L.U.K.G.G.B.B.S.C.H.F.C.G.n.B.B.c.c.B.L.G.F.A.F.v.6.x.L.L.H.B.J.G.G.b.v.p.S.G.J.K.F.n.F.b.b.z.F.F.F.c.n.G.n.b.n.c.b.B.",
"F.L.c.S.B.n.z.B.G.Y.b.5.A.b.b.z.p.S.B.G.`.L.C.S.H.J.z.n.b.B.n.C.C.B.C.c.r.B.c.C.Y.G.b.b.c.r.r.L.C.L.A.A.G.C.n.6.4.n.H.^.).K.b.A.G.v.z.v.z.F.F.C.F.C.B.z.z.F.b.n.",
"F.n.z.b.b.n.C.L.G.F.b.z.F.r.F.K.n.B.n.G.(.G.x.B.B.B.B.B.c.B.n.n.F.S.F.G.F.G.F.Y.Y.A.r.z.z.6.A.L.B.b.p.c.C.c.z.v.b.S.H.).(.c.p.n.n.n.b.A.B.F.n.c.c.C.n.b.A.G.n.F.",
"L.n.F.B.n.G.n.F.x.z.b.S.S.S.Y.F.6.z.B.G.Y.F.B.n.c.c.x.A.n.A.A.n.L.~.G.F.n.G.G.Q.).G.G.A.x.A.F.S.p.p.x.B.J.C.x.p.5.L.Q.Q.^.c.x.x.n.n.v.A.A.C.n.F.G.G.n.n.x.b.n.G.",
"F.n.n.z.F.A.C.A.x.z.S.x.n.S.S.n.z.x.A.G.G.G.L.F.B.z.p.c.z.p.z.v.B.B.b.z.n.K.G.C.F.n.n.x.S.B.B.B.A.B.J.C.F.c.z.z.G.Q.].Q.L.S.n.c.G.n.v.n.F.n.F.H.H.C.b.z.b.F.F.F.",
"z.z.5.z.n.b.n.C.F.n.S.x.n.z.p.x.x.A.A.S.S.S.B.F.B.n.v.x.r.r.b.b.n.z.5.p.n.F.A.n.v.p.5.z.z.x.n.G.H.L.H.J.n.n.n.L.).Q.).Y.K.F.b.F.n.x.x.G.L.F.G.G.G.n.7.x.b.F.F.c.",
"x.x.z.c.G.G.G.H.B.b.B.z.6.v.v.p.6.p.6.b.A.A.c.c.x.x.A.n.7.5.6.6.z.6.z.c.n.c.6.7.z.6.z.B.C.G.(.).K.G.H.C.n.S.C.n.H.G.A.c.S.x.z.c.b.C.).'.L.L.F.b.F.b.F.J.F.n.n.x.",
"L.H.Q.Q.Q.H.Q.C.F.H.G.p.c.n.n.z.6.6.b.A.G.B.b.F.n.r.p.<.5.6.z.v.b.G.F.n.n.B.z.z.A.A.G.H.K.C.L.L.^.Q.^.S.B.G.C.x.G.S.B.A.n.r.c.G.L.F.J.n.n.L.F.L.L.^.).J.A.L.C.n.",
"Z.F.Z.G.F.C.B.F.Z.V.B.x.c.n.n.b.z.v.n.n.F.J.n.S.v.z.4.1.6.x.J.B.n.F.A.S.F.F.v.z.n.z.n.F.c.x.z.C.L.G.B.n.B.B.G.c.J.S.n.c.n.S.G.K.F.v.7.n.Z.C.~.Q.L.L.G.G.L.F.c.b.",
"n.c.n.c.x.z.B.L.B.n.p.b.z.b.A.S.A.F.L.H.H.K.S.b.z.z.z.A.G.F.A.v.p.x.F.F.B.n.z.v.b.r.6.p.b.7.n.L.S.B.c.A.A.b.S.B.K.H.G.K.H.K.C.C.n.x.b.G.F.J.n.J.A.C.F.6.7.z.x.F.",
"x.z.n.n.F.G.G.L.F.n.z.p.z.x.B.F.B.C.Y.H.Q.(.L.B.6.c.S.G.F.B.c.r.s.B.Y.F.c.z.b.B.L.Y.C.B.B.b.G.G.J.B.v.p.v.c.n.S.G.C.G.K.K.C.C.C.n.F.G.S.x.n.B.A.B.L.x.z.J.F.F.F.",
"6.z.C.G.F.G.F.b.n.v.5.z.3.z.C.A.b.x.n.C.H.G.c.n.B.c.A.S.B.v.z.c.S.Y.Y.b.6.p.b.S.K.G.x.n.F.b.s.z.n.v.p.v.z.z.F.A.v.r.p.n.n.x.n.S.G.L.S.b.b.z.x.A.G.F.n.G.~.~.n.x.",
"F.L.H.Z.L.n.c.n.z.5.b.v.3.6.b.n.b.B.G.L.K.F.b.x.v.p.A.K.n.r.7.v.J.J.c.r.v.n.L.F.B.b.p.z.p.p.r.x.r.6.S.A.6.r.c.n.p.r.c.A.b.n.K.S.n.b.n.A.n.z.b.b.c.A.v.x.v.b.b.b.",
").L.H.C.n.z.x.c.z.z.n.7.p.A.G.K.G.L.Y.G.K.A.b.6.6.z.x.b.p.p.n.C.G.S.c.B.A.H.Q.J.x.v.b.c.z.x.c.B.c.z.G.p.v.n.S.C.B.G.n.n.c.A.S.A.b.n.n.n.v.z.n.n.n.v.p.A.c.G.G.L.",
"n.n.x.b.n.x.n.c.n.F.z.6.F.L._.H.L.Y.G.A.n.b.z.5.p.z.c.r.v.c.F.C.B.B.U.B.A.K.F.r.v.A.S.n.F.B.C.C.G.b.c.p.F.K.).L.K.G.F.x.A.G.v.z.z.b.b.n.n.b.F.n.n.n.G.A.n.G.F.F.",
"F.B.p.v.x.x.c.b.x.x.z.A.F.`.(.B.n.F.b.z.n.b.v.z.r.n.S.J.F.J.F.F.B.S.c.v.J.J.z.v.C.G.n.B.B.F.C.G.K.n.v.S.K.^.L.n.A.G.B.z.C.L.S.F.S.C.G.L.(.C.S.n.n.G.b.x.n.A.z.x.",
"b.5.7.z.z.p.6.6.6.6.n.F.A.L.L.B.F.C.z.p.z.2.5.v.B.C.Y.L.F.B.G.F.F.b.c.S.K.A.r.x.F.b.A.B.F.B.B.B.b.z.v.S.C.G.K.G.S.G.c.B.S.b.A.S.Y.Y.L.G.n.v.n.n.n.n.s.G.L.n.x.C.",
"p.z.s.z.7.7.6.s.A.F.L.B.G.L.U.F.K.x.v.b.7.5.z.F.H.Y.L.K.~.Y.L.n.A.F.Y.H.g.d.a.a.a.q.g.f.c.A.n.A.J.K.F.b.S.K.G.Z.K.J.J.G.A.c.G.S.L.G.F.b.v.S.L.n.n.G.L.G.F.n.F.F.",
"A.z.r.z.n.A.x.n.L.F.F.C.(.H.L.F.z. .{  .w.s.v.J.(._.Y.F.H.L.A.p.f.k.@./ v d t t t t h v ~ ` i.f.A.(.B.n.^.G.G.^.J.B.M.N.a.$.a.J.G.H.c.c.G.G.F.z.G.(.).L.n.F.A.b.",
"x.x.G.C.G.Z.C.C.C.B.b.G.G.B.B.p.p.} j t f k { &.N.G.G.G.C.6.8._ v t w w w w w w e e e w w w t v +.d.C.J.A.F.H.g...+.Q h t t a.n.n.b.n.F.F.6.z.n.G.L.L.x.c.n.p.v.",
"G.A.G.F.G.G.F.G.G.K.L.G.F.n.z.b.r.3.f t w w w t z Q +.a.a.W f e w w w w e e w w e e e e w w w w w h %.d.d.#.Q h t w w w w v Z.B.C.S.F.c.b.b.B.b.L.L.J.b.n.x.x.n.",
"Y.Y.K.F.H.L.F.G.B.F.A.F.b.b.b.7.2.z.' w w w t w w w w t d w w e w w w w e e e e e e e e w w e e e w w d d t w w e e e e w @.C.C.G.n.v.z.p.v.n.B.n.F.n.5.z.c.b.F.",
"(.G.B.L.C.G.H.L.F.n.x.z.r.p.6.p.c.n.X.t w w w t w w e e e e e e e e e e e e e e e e e e w w w w e w w w w w w w w w w w w i.n.C.G.b.z.z.b.c.n.x.z.b.p.z.n.C.n.G.",
"Q.G.F.C.B.F.B.A.b.r.6.5.6.p.5.n.G.n.8.f w t w w e e e e e e e e e e e e e e e e e e e e t w t w e e w t t w t w w t w w g a.n.b.b.x.z.n.G.n.F.x.A.F.B.A.z.F.G.L.",
"Z.F.G.F.G.b.6.6.6.2.5.z.z.z.b.B.L.F.x.v w w w w e e e e e e e e e e e e e e e e w w w t w w w t t w w w w w w w t w w w k s.x.n.G.B.F.K.G.B.n.n.L.L.G.b.n.G.L.L.",
"c.C.A.A.b.5.<.2.5.p.p.b.p.6.p.B.n.b.J.` w w w t e e e e e e e e e e e e e e e e t w w w w w w w w w w t w t w t w w t w ' B.n.K.G.F.A.L.L.G.G.J.G.K.C.F.C.F.F.F.",
"n.6.5.5.5.5.p.x.x.z.z.p.z.7.G.K.A.b.b.$.t w t w e e e e e e e e e e e e e e e e e e e e e e e e e e e e e e e e e e e t i.H.G.C.F.C.L.(.F.B.C.x.b.n.C.n.x.z.6.z.",
"b.6.5.r.5.r.S.b.n.n.z.x.b.^.^.F.n.n.L.I.g w w w e e e e e e e e w e e e e e e e e e e e e e e e e e e e e e e e e e w d P.H.C.G.Z.F.(.n.n.b.x.v.L.H.F.b.z.6.z.6.",
"6.p.x.c.r.B.s.z.x.b.n.G.L.G.B.F.F.C._.Q.v w w w e e e e e e e e e e e e e e e e e e e e e e e e e e e e e e e e e e e v Z.B.C.F.c.x.r.5.p.5.6.C.F.F.n.n.z.z.n.s.",
"n.c.v.b.F.n.n.F.n.n.b.C.n.b.n.L.Y.Y.Q.Z.) w t w e e e e e e e e e e e e e e e e e e e e e e e e e e e e e e e e e e w ` n.A.n.A.G.B.n.n.b.C.n.H.G.n.b.n.G.L.K.b.",
"n.n.n.n.A.A.F.n.B.b.F.A.x.F.)._.U.G.S.s.x e e w e e e e e e e e e e e e e e e e e e e e e e e e e e e e e e e e w w q a Z.(.K.n.F.b.n.B.F.F.G.F.G.F.Q.L.F.G.F.x.",
"n.v.c.n.F.F.b.z.z.6.p.n.L.].].L.b.x.6.| t e e e e e e e e e e e e e e e e e e e e e e e e e e e e e e e e e w e w w q * ..G.7.z.n.v.b.b.n.b.c.G.G.L.(.F.b.x.z.5.",
"x.v.v.B.n.z.z.b.z.6.F.H.).(.F.z.r.x.x.! w e e e w e e e e e e e e e e e e e e e e e e e e e e e e e e e e e e e t w q = U c.x.n.G.G.G.(.C.b.F.H.n.n.v.z.x.A.v.x.",
"c.b.A.b.p.b.z.B.C.L.L.Y.G.F.z.b.z.C.l.h w e w e e e e e e e e e e e e e e e e e e e e e e e e e e e e e e e e e w w q - , f.~.L.n.F.L.K.F.n.F.b.x.v.x.v.z.F.F.A.",
"n.B.F.B.G.H.U.H.L.F.K.F.F.b.G.c.S.L.j.t w w w t e e e e e e e e e e e e e e e e e e e e e e e e w w w w w w w w w t q ; $ 0.G.z.n.F.K.G.F.S.A.z.b.A.L.B.x.x.x.n.",
"x.F.F.K.F.L.L.L.F.b.C.x.b.n.n.B.J.L.#.w w w w w e e e e e e e e e e e e t e e e e e e e e e e e w t w t t w t w w w t - $ [ n.x.n.G.C.F.G.n.n.F.b.F.S.x.p.x.z.p.",
"B.x.B.S.H.~.G.c.p.x.F.c.A.n.C.L.L.G.` w w t w t e e e e e e e e e e e e e e e e e e e e e e e e t w w w w w w t w w w 8 $ I n.F.L.L.L.L.C.A.n.n.b.b.x.z.B.n.r.x.",
"B.B.J.C.H.L.C.v.x.H.L.n.F.G.L.L.^.Z.~ w w w w w e e e e e e e e e e e e e e e e e e e e e e e e w w w t w w w w t w w 8 $ i Z.F.F.F.G.F.G.G.G.n.b.S.n.x.n.c.B.F.",
"J.G.G.~.Y.G.B.n.G.(.n.b.L.'.).L.Z.Z.v w w w e e e e e e e e e e e e e e e e e e e e e e e e e e w w w t t w w t w t w ; $ u s.v.A.F.B.F.G.K.S.p.F.n.n.B.b.b.b.B.",
"B.G.Q.L.H.n.p.z.C.n.n.H.G.~.J.x.C.Z.b w t w e e e e e e e e e e e e e e e e e e e e e e e e e e t w w w w w w w w w w ; $ u c.x.z.z.b.n.B.b.x.x.n.n.n.r.v.p.z.F.",
"(.(.H.S.S.p.3.b.L.L.L.J.L.L.F.C.F.Z.v w e e e e e e e e e e e e e e e e e e e e e e e e e e e e e e e e t w t w w w q - $ u z.6.A.C.b.x.V.B.n.z.F.C.n.b.n.G.L.G.",
"(.Y.S.v.b.3.p.J.~.~.F.v.b.F.n.x.b.H.^ w e e e e e e e e e e e e e e e e e e e e e e e e e e e e e e e e w w w w w t 0 = $ i r.A.K.J.F.F.F.S.b.n.n.n.F.n.F.).L.G.",
"H.b.6.p.6.z.K.Y.G.b.z.6.p.A.n.B.G.Y.] w w w w w t w t w e e e e e e e e e e e e e e e e e e e e e e e e e e e e e e 8 $ $ I c.G.F.K.L.L.n.n.n.n.n.F.B.B.K.G.S.H.",
"L.A.v.p.v.S.G.C.p.6.z.s.A.^.G.C.S.C.#.w w w w t w w e w e e e e e e e e e e e e e e e e e e e e e e e e e e e e e e 8 $ $ [ Y.K.G.~.'.J.B.F.G.n.L.(.F.c.n.S.B.G.",
"n.v.6.6.G.A.x.z.p.6.b.v.n.G.G.n.H.(.j.t w w t w e e e e e e e e e e e e e e e e e e e e e e e e e e e e e e e e e r = $ $ a.~.G.(.F.x.n.n.C.B.b.n.S.S.5.b.S.B.b.",
"7.4.<.z.b.S.c.n.S.v.b.A.F.K.K.U.Q.^.l.h w w w w e e e e e e e e e e e e w t e e e e e e e e e e e e e e e e e e e 8 $ $ y g.J.K.S.x.r.z.z.z.b.b.x.z.2.2.p.n.n.v.",
"4.7.z.C.K.G.K.G.b.v.S.n.x.F.K.^.L.F.B.) w w w w e e e e e e e e e e e e e e e e e e e e w w w w e e e e e e e e q = $ $ U s.b.A.b.v.x.r.2.6.b.b.x.p.p.b.n.b.p.4.",
"J.~.Y.Y.(.L.J.c.J.H.G.B.C.H.H.H.C.c.A...t w t w e e e e e e e e e e e e e e e e e e e e t w t w e e e e e e e e 8 $ $ &  .v.7.c.b.p.7.,.6.n.c.b.S.G.K.x.b.S.b.b.",
"~.G.H.G.S.A.v.x.L.n.S.F.L.H.L.H.G.A.B.s./ w w t e e e e e e e e e e e e e e e e e e e e w w w w e e e e e e e 9 $ $ $ u x.v.n.A.7.4.,.5.F.C.F.n.b.S.A.A.S.F.b.S.",
"L.G.S.n.c.r.b.G.C.J.F.F.L.Y.(.Q.H.L.J.B.9.d w w e e e e e e e e e e e e e e e e e e e e w t w t e e e e e e 0 = $ $ y  .n.b.c.v.5.,.v.L.F.F.n.z.z.v.n.A.F.F.S.K.",
"'.].Y.J.A.B.H.Y.Q.L.K.S.K.Y.Q.H.G.G.A.b.6.W w w e e e e e e e e e e e e e e e e w t w t w w w w w w w w w 9 - $ $ $ T c.L.L.G.B.z.A.^.F.A.b.v.v.z.n.G.L.C.B.F.(.",
"~.F.B.S.F.n.n.H.K.F.B.K.J.G.K.G.v.p.6.s.6.>.p e e e e e e e e e e e e e w e e e w w w w t w w t t w t w 9 - $ $ $ . P p.F.B.x.n.G.(.L.F.S.z.v.p.v.G.G.B.z.x.b.L.",
"n.z.p.x.z.p.B.L.F.S.G.G.A.c.c.b.p.p.p.b.6.P K u r e e e e e e e e e e e e e e e w t t w w w t w w w r 8 $ $ $ $ . Z F z.G.C.n.n.B.L.F.G.n.7.7.p.F.G.b.v.b.A.F.G.",
"n.b.c.x.x.G.Y.Y.G.G.Y.B.b.c.A.n.z.n.n.c.2.F G A < 9 w e e e e e e e e e e e e e w w w w w w w w r 9 - $ $ $ $ . 2 6 H 6.K.A.x.x.z.B.z.z.5.7.b.L.(.G.S.K.F.Q.(.G.",
"A.G.B.G.Y.L.H.G.K.G.S.S.c.n.~.B.c.v.n.b.<.F 6 6 C @ y 8 0 e e w w w e e e e e e w w w w w q q 8 - $ $ $ $ & m C G G H 2.F.F.z.p.x.n.z.2.z.F.(.Q.G.L.'.F.G.(.G.b.",
"G.J.p.x.A.F.G.K.C.x.v.x.r.b.G.c.c.S.b.x.s.P V V V G M O $ 8 8 8 r r r e e e e e w t t 0 8 ; - $ $ $ $ $ X n H G V G L 5.G.n.z.v.b.n.S.F.~.^.(.H.G.(.F.b.F.G.b.n.",
"z.p.n.z.B.n.c.B.p.5.7.z.5.6.n.c.n.H.z.n.c.,.F V H J F Z 1 X & = = - 8 0 e e e e w w 0 $ $ $ $ $ $ & X 1 Z D L H J P ,.z.b.z.p.z.C.L.'.(.F.G.L.n.C.A.v.B.G.b.z.n.",
"v.b.x.v.x.v.x.r.p.p.c.p.r.b.L.S.C.n.G.C.v.c.6.P F G F 6 V Z n + O % = r e e e e w t 0 $ $ $ % o @ n A V G =.-.L ;.6.n.A.b.A.n.A.L.(.(.L.L.Y.~.n.S.F.G.F.F.x.n.n.",
"n.v.x.S.A.C.n.x.c.v.p.5.b.J.L.L.K.B.C.S.x.c.J.b.1.-.V 6 V F V   C S N s t w w t w t q u 5 B n A F G V F L =.:.z.n.A.b.b.v.z.n.C.Q.).L.F.Q.C.n.v.n.K.~.G.A.S.b.z.",
"5.6.L.F.n.S.c.B.c.v.b.p.n.S.F.A.S.S.z.z.z.z.G.B.c.6.;.P G     6 V G A a w w w w w w r B G F V F V V G =.,.z.F.b.x.p.5.7.7.b.G.Y.L.^.G.G.B.6.7.7.b.B.A.5.7.x.7.p.",
"x.B.G.G.F.C.n.n.G.K.(.K.Y.G.S.L.K.n.c.r.x.x.S.n.c.c.c.z.5.<.:.=.P L G i w w w w w w w a K L P P :.,.A.J.(.Q.G.n.r.6.5.p.b.F.L.L.(.(.G.n.z.s.z.p.S.G.b.p.b.p.p.b.",
"Y.Q.G.H.J.F.B.C.G.H.K.K.F.G.K.F.n.G.x.c.C.G.S.B.L.J.S.v.7.b.x.c.n.z.2.W w t w t t w w t Y e.n.Z.F.L.L.).L.A.n.z.p.z.5.z.^.).(.Y.].Y.n.p.5.6.6.z.z.b.b.5.p.n.z.G.",
"Q.G.c.C.J.H.G.L.K.K.K.S.p.c.B.G.G.C.z.b.K.B.b.A.B.n.v.r.z.B.G.F.n.F.b...t w w w w w w w t b &.l.R.L.K.S.z.z.5.5.z.z.7.n.].(.Y.H.L.F.z.7.7.z.z.6.p.z.p.b.K.B.n.Y.",
").C.B.B.B.K.F.F.S.n.x.v.c.C.B.C.b.b.p.S.C.z.A.b.p.b.6.B.B.B.F.F.A.L.G.Z.l w t w t w w t w w w b W.T.V.p.5.5.2.5.p.n.n.Y.Q.F.G.c.x.v.7.z.v.7.b.z.n.G.F.L.S.F.F.Y.",
"Y.F.C.n.F.B.n.b.b.p.r.p.S.L.C.n.B.n.A.B.A.b.z.v.A.B.G.H.A.K.F.F.G.G.G.n.` w w t w t w w w w w %. X X^.p.6.7.z.x.B.G.L.L.G.n.z.z.n.A.A.b.x.x.C.n.H.(.L.G.Y.Y.H.Y.",
"B.B.p.x.n.6.5.b.v.p.b.B.G.S.v.c.A.S.F.n.x.b.b.K.F.G.S.G.H.K.K.J.F.n.n.B.a.g w w w w w w w w d E.XXXX.X{.V.7.v.K.L.K.~.F.B.n.b.B.S.n.z.A.L.L.L.Q.H.H.G.U.L.G.F.L.",
"c.v.5.z.p.c.n.n.p.z.c.v.6.6.K.K.B.n.b.c.S.G.n.K.G.F.(.'.K.F.B.c.B.B.B.x.B.+.t w w t w w w w b |.XXXXXXXX|.D.L.).^.K.S.n.n.x.p.z.b.v.K.Q.L.L.L.G.B.F.G.n.z.z.p.v.",
"S.p.p.B.n.A.n.z.c.c.b.z.c.K.Q.C.c.z.x.C.G.B.S.J.J.C.Y.F.A.B.v.b.L.(.L.F.b.e.k w w w w w w w b .XXXXXXXXXXX|.[.Y.H.S.S.G.S.v.p.b.b.n.L.S.n.B.n.b.G.(.G.n.7.7.7.z.",
"S.v.n.L.J.J.c.z.x.p.c.S.(.L.G.c.c.r.x.S.n.n.F.J.c.F.n.7.p.6.v.S.G.G.F.C.n.F.g.v w w w w w w ( .XXXXXXXXX.X{.T.S.c.p.v.x.v.p.z.p.6.v.v.p.v.6.x.A.K.A.p.6.6.p.v.b.",
"J.F.F.K.F.G.S.C.c.B.G.G.K.G.r.r.c.B.B.n.z.v.c.n.G.J.b.c.x.B.B.G.K.n.n.n.L.Q.Q.h.] t w w w w b  XXX.X|.{.T.K.b.b.v.x.A.p.7.p.p.z.L.F.n.F.F.B.n.~.A.7.5.z.S.S.F.S.",
"H.L.C.S.S.J.K.J.J.K.~.B.n.G.J.G.J.n.c.r.n.J.K.S.b.v.n.S.S.G.G.C.F.F.Y.Y.G.K.A.n.M.a.` k v h ] W.T.).!.F.n.n.J.J.n.v.n.p.x.n.F.L.J.n.n.n.G.Z.L.L.n.x.n.B.F.L.L.K.",
"K.B.z.C.Y.C.c.A.S.n.b.c.Z.^.(.c.r.v.r.A.n.b.6.v.x.s.z.n.B.z.b.G.B.C.Z.c.r.r.p.x.x.z.z.s.G.U.H.Z.H.G.x.z.c.G.~.v.2.p.6.x.c.n.B.S.F.n.x.F.x.z.A.x.6.n.G.B.n.F.x.n.",
"n.x.c.C.n.n.A.B.A.c.S.B.C.c.z.6.p.G.G.G.c.p.p.S.S.G.F.~.C.x.S.G.x.v.r.p.6.r.z.z.p.6.p.c.S.G.J.~.F.S.S.V.b.b.5.5.r.c.n.J.S.F.G.F.F.n.b.L.C.A.A.F.z.J.G.B.n.F.G.n.",
"n.c.B.S.b.n.n.B.S.S.K.n.S.z.6.S.S.Y.H.C.A.G.L.J.n.S.A.G.c.n.G.A.b.b.p.b.6.b.b.x.z.z.b.B.c.S.G.C.c.S.K.c.b.7.5.S.z.S.L.^.K.U.U.K.n.F.b.G.F.K.~.L.F.L.L.G.B.(.L.B."
};
