/* XPM */
static char *char2_right[] = {
/* columns rows colors chars-per-pixel */
"80 80 188 2 ",
"   c black",
".  c #0C0A02",
"X  c #171304",
"o  c #3B320A",
"O  c #453A0C",
"+  c #53460E",
"@  c #5C4E10",
"#  c #6C5C13",
"$  c #796715",
"%  c #7E7C6B",
"&  c #7A7865",
"*  c #947E1A",
"=  c #8A7618",
"-  c #E77D24",
";  c #E87C23",
":  c #E77F28",
">  c #827D64",
",  c #817E6C",
"<  c #BD9E1F",
"1  c #BC9F23",
"2  c #B69D2D",
"3  c #B79B20",
"4  c #AF9834",
"5  c #AD993C",
"6  c #A9953C",
"7  c #B19A32",
"8  c #B29C39",
"9  c #BDA021",
"0  c #BEA433",
"q  c #DE8321",
"w  c #CC9321",
"e  c #D39822",
"r  c #E48225",
"t  c #EA9C26",
"y  c #E58635",
"u  c #C3A522",
"i  c #C6A823",
"p  c #CCAD24",
"a  c #C2A62C",
"s  c #D4B325",
"d  c #D8B726",
"f  c #DDBB27",
"g  c #DFBD28",
"h  c #C3A433",
"j  c #D7BA38",
"k  c #D4A524",
"l  c #E7A226",
"z  c #E1BE28",
"x  c #EBB528",
"c  c #E5C229",
"v  c #EAC62A",
"b  c #ECC82A",
"n  c #E3C027",
"m  c #EAC933",
"M  c #E5C63B",
"N  c #EACA3C",
"B  c #E8C736",
"V  c #9E8F4A",
"C  c #988D57",
"Z  c #9C915D",
"A  c #A3934A",
"S  c #A49759",
"D  c #BFAE5B",
"F  c #84826E",
"G  c #89856C",
"H  c #8B8566",
"J  c #918A64",
"K  c #948D6A",
"L  c #9A9269",
"P  c #868371",
"I  c #898673",
"U  c #8C8975",
"Y  c #8E8B78",
"T  c #918E7A",
"R  c #908D77",
"E  c #94917C",
"W  c #98947B",
"Q  c #A39862",
"!  c #DD944F",
"~  c #D99E5F",
"^  c #E08C42",
"/  c #E19249",
"(  c #E19D5A",
")  c #C5AC4B",
"_  c #C1AB47",
"`  c #C9B34D",
"'  c #C6B155",
"]  c #C7B355",
"[  c #C6AD7C",
"{  c #DAA770",
"}  c #C2B87F",
"|  c #C9B765",
" . c #E2B17C",
".. c #DDC558",
"X. c #E3C644",
"o. c #E6C843",
"O. c #E9CB43",
"+. c #E2C74C",
"@. c #E5C94A",
"#. c #E8CA48",
"$. c #E4CA54",
"%. c #EACE54",
"&. c #E2CA59",
"*. c #D4C26D",
"=. c #DFCA6B",
"-. c #DBC86A",
";. c #CFC076",
":. c #D4C57C",
">. c #DAC975",
",. c #E3CD63",
"<. c #E0CB6C",
"1. c #E6D069",
"2. c #E2CF75",
"3. c #E1CF7A",
"4. c #E5D277",
"5. c #9A9882",
"6. c #A19E87",
"7. c #A09D88",
"8. c #A6A38A",
"9. c #A9A68D",
"0. c #AAA68B",
"q. c #B1AD8F",
"w. c #ADAA92",
"e. c #B1AE93",
"r. c #B5B196",
"t. c #BAB597",
"y. c #B7B399",
"u. c #BAB69B",
"i. c #BDB99D",
"p. c #BFBBA1",
"a. c #CAB38C",
"s. c #C5BB88",
"d. c #DFB786",
"f. c #C1BD9E",
"g. c #C8BB92",
"h. c #C2BEA2",
"j. c #CDC288",
"k. c #D3C583",
"l. c #DBCE8D",
"z. c #D8CA88",
"x. c #DFD088",
"c. c #C5C09F",
"v. c #CAC39B",
"b. c #CCC393",
"n. c #D3C991",
"m. c #D3CB9B",
"M. c #D4C798",
"N. c #DCD093",
"B. c #E4D485",
"V. c #E4D589",
"C. c #E2D491",
"Z. c #E3D798",
"A. c #C6C1A4",
"S. c #C9C5A6",
"D. c #CDC8A7",
"F. c #C7C3A8",
"G. c #CAC6A9",
"H. c #CEC9AC",
"J. c #D2CBA4",
"K. c #D1CDAE",
"L. c #DDC8A2",
"P. c #D5D0AE",
"I. c #D9D3AE",
"U. c #DCD4A8",
"Y. c #CFCBB0",
"T. c #D2CEB1",
"R. c #D6D1B3",
"E. c #D9D5B5",
"W. c #DDD8B6",
"Q. c #D7D3B8",
"!. c #DAD6B9",
"~. c #DED9BA",
"^. c #E1DAAE",
"/. c #E3D9A0",
"(. c #E0DBB7",
"). c #E1DDBC",
"_. c #E5E0BF",
"`. c #E6E0B5",
"'. c #DFDBC0",
"]. c #E2DEC1",
"[. c #E5E1C2",
"{. c #E9E5C4",
"}. c #EDE8C6",
"|. c #E6E3CA",
" X c #EAE6CA",
".X c #EDE9CB",
"XX c #F0EDCE",
"oX c #F4F0D1",
/* pixels */
"R.!.!.!.(.W.).E.W.K.P.D.f.h.R.K.R.~.W.D.!.W.P.H.T.D.R.Q.Q.K.H.S.S.H.~.T.F.H.A.h.S.H.H.R.P.!.~.R.E.G.H.S.A.H.[.~.R.[.~.D.[._.R.D.F.H.~.].).).].).).).{.(.T.~.E.K.",
"R.E.!.!.K.E._.(.W.R.H.G.A.K.K.D.E.R.H.K.E.!.H.G.A.K.K.!.R.H.G.H.H.T.R.G.A.Y.A.A.R.R.K.R.R.!.E.R.R.A.F.D.R.].Q.D.D.~.K.R.[.Q.A.A.H.E.E.(.[.!.E.).).].~.K.K.Q.K.T.",
"K.H.H.T.!.E.E.R.H.K.H.A.F.A.D.P.~.E.H.K.A.S.Y.K.E.E.T.Q.R.K.G.K.Y.F.T.R.Q.Q.G.R.P.D.G.D.Q.Q.Q.H.h.i.S.T.H.H.D.R.~.'.Q.P.H.A.i.H.].).)._.).~.Q.E.T.K.E.K.E.].D.T.",
"T.H.D.K.I.E.E.K.K.E.E.G.T.!.].{.].K.~.R.H.P.~.~.~.!.R.H.P.R.W.K.Q.Q.!.!.R.H.E.!.R.P.E.R.R.E.W.D.H.K.'.R.H.Y.R.Q.~.~.].R.S.R.~.R.~.K.E.E.).).].E.!.E.T.T.~.T.E.E.",
"K.G.T.E.W.{.E.R.!.~.T.G.E.[.[.).Q.T.Q.R.).E.(.].~.~.E.R.E.~.R.G.E.E.P.Q.P.P.R.W.K.H.R.W.W.W.H.H.T.[.Q.H.'.~.~.~.!.!.Q.H.~.~.Q.T.K.E.E.E.E.!.T.D.].!.K.E.K.K.T.Q.",
"A.G.~.W.].~.K.K.K.H.H.!.E.!.~.G.F.R.D.R.!.E.[.E.P.P.R.E.R.K.H.G.R.K.H.S.S.S.G.H.A.G.~.].~.H.A.A.R.H.T.R.R.R.!.F.D.H.D.E.R.D.R.H.D.H.D.D.H.H.D.H.R.Q.H.i.h.D.h.H.",
"K.E.R.Q.R.T.H.F.R.!.~.H.T.E.!.K.H.Y.E.!.~.~.(.!.R.R.T.K.K.P.~.T.P.E.D.T.K.D.D.K.~.!.R.T.Q.S.i.G.!.~.W.R.Q.W.Q.D.F.A.H.!.!.Q.Q.H.T.H.G.A.T.Q.R.D.K.E.K.K.K.D.G.K.",
"R.~.D.T.K.H.F.K.E.).G.u.Y.G.G.A.p.R.K.E.|.~.P.K.~.!.A.H.G.K.H.P.K.K.P.D.f.K.H.P.(.Q.G.F.D.h.p.!.R.!.H.H.E.P.H.i.y.D.W._.{.Q.H.H.E.G.A.G.A.T.T.K.K.K.K.h.h.Q.G.H.",
"T.H.h.G.F.K.K.~.E.Q.G.F.T.h.E.E.H.H.K.E.{.Q.G.K.K.K.K.K.H.K.H.H.E.R.T.!.R.R.R._.~.H.h.S.A.p.Y.!.H.F.p.D.R.D.A.S.F.R.W.[.[.D.A.D.H.H.H.T.K.T.K.D.D.K.H.H.K.E.K.T.",
").H.R.T.H.E.K.R.A.A.D.K.T.K.~.Q.i.A.K.E.).T.K.H.D.D.G.H.H.Y.H.H.~.~.Q.Q.H.Q.W._.{.Q.R.P.D.H.R.R.A.A.D.H.E.P.S.f.i.~.[.{._.D.S.F.H.H.h.T.T.K.K.T.E.E.H.H.h.D.H.E.",
"E.H.H.A.T.T.K.T.S.A.K.G.K.T.K.K.A.G.Y.E.E.R.~.P.K.A.A.G.A.A.A.A.K.K.G.A.H.!.R.K.Q.H.H.F.R.H.R.H.H.T.Q.P.R.F.A.A.Q._.}._.~.T.H.D.E.H.F.K.E.K.T.~.!.K.D.h.G.T.E.E.",
"S.h.i.h.H.D.H.E.E.H.K.F.H.A.f.F.A.H.T.T.R.K.K.Q.H.H.A.G.f.i.G.G.H.A.u.f.D.R.R.H.F.p.u.A.A.F.D.W.~.~.~.!.D.H.H.~.{.[.[.~.Q.R.H.R.K.h.S.E.!.R.E.E.E.K.h.F.H.Q.K.D.",
"F.S.A.J.E.E.E.(.T.D.K.f.i.F.F.h.i.A.i.G.H.T.G.S.G.G.H.H.p.u.h.i.A.i.A.H.K.G.g.;.c.i.A.K.R.E.[.{.W.E.W.P.H.K.R.H.~.E.K.G.K.A.A.D.K.T.|.|.!.).E.K.Q.D.T.Q.T.K.H.F.",
").E.(.).).(.).K.E.E.E.S.D.H.H.h.i.i.G.Y.Q.Y.D.R.H.f.h.r.y.i.A.F.G.E.I.D.D.K.k.M m.Y.R.W.W.P.~.~.[._.[.H.K.E.R.S.R.T.T.Y.H.A.H.R.~.T.E.K.K.!.K.!.~.].{.Q.T.).K.K.",
"P.P.E.W.K.I.K.E.I.K.K.F.D.K.H.G.A.F.H.H.R.Q.H.T.F.A.y.e.f.S.R.T.H.P.T.K.R.T.b.o.k.A.H.P.S.v.A.P.~.Q.H.H.Y.K.R.D.E.R.H.D.H.K.E.W.T.F.f.K.K.T.].).!.~.E.E.!.T.D.F.",
"K.G.H.H.D.h.K.E.K.K.h.F.A.F.T.T.H.Q.~.!.W.~.T.D.A.F.F.H.Q.R.Y.F.f.G.P.$.>.K.b.X.>.A.p.s.+.*.H.~.R.T.D.Y.H.H.T.K.E.~.E.E.~.E.P.R.T.h.D.E.T.!.K.!.T.K.T.f.f.F.S.E.",
"A.A.H.H.R.Q.W.~.T.H.h.h.h.S.K.T.K.E.(.)._.[.).K.i.G.T.!.R.H.D.h.A.K.(.>.M -.M.@.V.].l.N $.n.!.W.Q.Y.F.h.A.D.K.R.R.Q.Q.!.~.P.R.R.H.T.!.T.F.K.K.T.K.!.F.h.Q.T.T.R.",
"f.A.P.W.R.!.R.D.K.A.f.h.t.S.K.T.D.S.K.K.E.E.S.K.K.D.K.T.H.G.A.D.P.[.).H.*.M :.#.B.V.N -.U.H.f.f.D.F.A.F.A.A.R.H.A.f.p.H.H.S.H.P.Q.!.T.D.D.h.F.T.E.I.K.!.~.].T.F.",
"P.).W.I.W.K.A.H.F.i.G.F.t.i.G.H.F.K.R.~.E.T.G.F.S.h.H.!.H.h.p.A.Q.E.G.f.A.&.#.#.-.o...c.h.h.f.S.c.i.T.H.i.f.G.H.A.A.G.Y.G.Y.Q.R.K.D.H.T.T.F.H.F.D.T.F.F.h.K.F.H.",
"{.~.E.K.D.A.G.G.h.A.H.p.h.K.E.!.E.).).E.!.T.F.i.i.A.G.G.h.h.H.P.E.K.D.K.Y.C.N m N +.m.D.h.S.H.K.G.S.Q.p.A.H.P.R.H.R.J.D.F.H.T.H.F.H.G.Y.h.h.H.H.D.F.f.T.F.E.!.).",
"H.K.G.G.K.A.K.S.H.T.A.p.T.).}.W.E.).E.T.K.H.h.i.h.A.G.f.A.D.P.P.K.K.(.J.n.V.N b b <.m.J.Q.T.P.P.R.H.G.h.Q.!.{.~.~.E.R.S.Y.Q.G.h.F.D.H.G.Y.D.T.D.T.H.E.K.K.E.E.E.",
"R.K.f.F.A.G.S.H.G.G.h.K.R.|.].K.K.Q.H.h.D.G.G.h.h.H.P.Q.R.Q.Q.E.J.x.,.o.B B b b b B N @.=.N.P.R.E.H.A.K.!.).~.K.H.R.K.A.R.(.K.Q.T.K.E.~.].T.T.H.K.T.D.F.Y.K.h.F.",
"G.t.f.A.A.f.f.f.i.i.D.Q.K.~.~.K.E.K.h.h.h.r.p.h.H.P.).~.R.K.I.x.$.m v b b b b b b b b b b m &.l.H.h.A.T.R.R.E.R.P.E.G.K.T.H.K.T.).).).E.H.h.T.K.H.H.f.E.!.D.h.T.",
"A.h.f.A.h.f.i.f.K.Q.!.K.E.~.(.P.E.F.F.G.h.i.F.T.~.).~.!.~.Z.$.b b b b b b b b b b b b b b b b B ,.U.Q.H.R.E.E.E.~.Q.Q.E.H.H.R.T.(.!.T.F.H.T.!.K.H.E.).E.E.D.E.T.",
"T.A.f.h.H.T.F.K.).I.E.K.[.W.~.R.S.f.p.u.f.h.F.Q.).{.).E.V.O.b b b b b b b b b b b b b b b b b b b %.n.H.'.E.!.~.Q.K.K.R.H.G.H.R.E.E.D.S.E.E.T.F.E.).[.).H.Q.T.H.",
"G.A.E.P.!.P.K.K.K.K.D.E.R.K.T.A.f.t.e.e.e.i.D.E.E.~.I.2.m b b b b b b b b b b b b b b b b b b b b v M k.K.Q.~.R.D.H.G.H.A.A.K.H.K.G.D.E.T.f.h.H.E.).W.S.F.K.h.h.",
"E.T.E.R.E.E.E.E.E.E.~.Q.R.H.A.G.h.r.r.p.F.D.!.E.E.W.2.b b b b b b b b b b b b b b b b b b b v b b b b j k.Q.R.E.K.H.K.H.H.H.Q.K.K.K.Q.D.D.H.T.F.~.).Q.G.K.S.F.H.",
").).E.E.W.~.K.E.K.Q.T.T.G.H.G.p.r.F.h.H.{.{.).)._.B.m b b b b b b b b b b b b b b b b b b b b b b b b v j n.E.K.K.W.T.G.E.!.Q.R.E.K.G.h.h.F.D.T.K.T.H.i.h.F.D.R.",
"].E.K.~.P.E.E.).R.H.G.A.f.h.i.f.D.K.A.K.{.).K.E.Z.O.b b b b v b b b b b b b b b b b b b b b b b b b b b n ` J.R.E.R.A.K.(.~.H.T.R.D.h.S.D.D.K.F.A.G.h.A.K.K.K.E.",
").E.E.K.K.Q.K.K.G.f.i.u.i.h.u.H.Q.H.h.Q.).K.Q.K.$.b b b b b b b b b b b b b b b b b b b b b b b b b b b b s | K.K.G.A.R.).T.D.H.G.F.h.K.Q.H.K.A.T.T.H.T.S.T.E.W.",
"I.E.!.T.E.G.i.i.i.r.i.h.A.A.G.K.!.T.H.Q.K.T.G.*.b b b b b b b b b b b b b b b b b b b b b b b b b b b b b n a } H.Y.K.K.D.G.F.Y.Q.K.R.E.E.K.H.K.~.~.!.D.K.E.~.).",
"J.T.Y.Y.G.u.e.r.u.h.h.G.h.i.h.K.T.G.Q.Y.h.H.m.O.b b b b b b b b b b b b b b b b b b b b b b b b b b b b b v p ) G.G.K.D.A.K.H.!.E.E.T.!.).E.E.!.Q.!.T.R.T.R.K.T.",
"H.f.u.u.u.y.f.S.A.A.A.h.p.p.E.!.T.D.H.H.!.!.4.v b b b b b b b b b b b b b b b b b b b b b b b b b b b b b b f 0 j.H.D.H.E.!.R.P.E.K.).].R.K.K.D.D.K.K.H.S.G.f.h.",
"D.u.y.f.i.h.P.D.H.D.A.S.H.].[.T.H.D.~.{. XU.X.b b b b b b b b b b b b b b b b b b b b b b b b b b b b b b b v u ] K.R.(. X!.R.E.K.E.].K.K.D.F.G.!.).T.D.h.f.h.f.",
"i.A.S.H.i.Y.A.A.G.G.D.!.~.E.P.Q.T.R. X[.R.:.v v v b b b b b b b b b b b v b b b b b b b b b b b b b b b b b b p 0 J.!.~.!.K.P.R.D.F.f.i.h.u.f.K.E.T.K.H.A.A.K.f.",
"H.G.A.D.Q.H.H.R.H.Y.D.P.K.G.H.!.~._.~.R.S...b b b b b b b b b b b b b b b b b b b b b b b b b b b b b b b b b s 9 :.E.R.H.T.H.T.E.T.D.D.G.T.D.!.E.H.F.H.E.~.E.H.",
"H.H.H.H.P.T.R.H.Y.D.R.Y.D.R. X}.~.R.P.A.m.O.b b b b b b b b b b b b b b b b b b b b b b b b b b b b b b b b b f 9 ' J.T.!.].E.K.T.G.H.K.T.E.E.E.E.R.).).E.I.T.G.",
"H.A.G.H.R.Y.G.f.A.i.h.H.!..XXXQ.D.S.i.A.N.m b b b b b b b b b b b b b b b b b b b b b b b b b b b b b b b b b n u 0 s.Q.!.Q.f.A.K.G.F.D.D.D.G.!.E.!.[.R.G.G.h.i.",
"S.A.G.Y.H.S.A.G.A.i.R.W.[.[.R.h.i.A.D.!.B.b b b b b b b b b b b b b b b b b b b b b b b b b b b b b b b b b b v i 9 n.Q.K.H.A.H.T.E.!.].T.H.T.E.H.K.G.h.F.H.G.A.",
"G.G.T.D.A.G.A.Y.R.E.).~.~.T.A.D.A.R.~.~.1.b b b b b b b b b b b b b b b b b b b b b b b b b b b b b b b f s n b i 9 :.Q.H.Q.].!.K.R.).Q.T.K.E.D.F.F.A.G.A.Q.T.T.",
"H.Y.R.Y.E.W.`.W.~.R.Q.R.R.H.W.S.R.~.W.P.%.b b b b b b b b b b b b b b b b b b b b b b b b b b b b v v < o X O u p 9 | D.K.~.Q.A.H.T.Q.E.T.T.T.h.F.K.!.K.F.D.G.D.",
"S.R.R.!.P.~.~.!.R.D.R.A.D.H.H.P.Q.~.P.J.#.b b b b b b b b b b b b b b b b b b b b b b b b b b b b v v +       # p 1 ' Q.R.K.K.G.T.E.K.E.E.K.H.T.D.E.T.G.f.G.h.h.",
"P.D.H.P.~.).R.H.p.G.R.D.Y.H.H.~.~.Q.R.U.N b b b b b b b b b b b b b b b b b b b b b b b b b b b b b v O       @ p < ' K.i.A.K.K.).~.).).K.T.K.H.G.G.G.f.K.K.f.A.",
"H.Y.Q.P.W.!.R.S.G.W.~.H.R.W.~.~._.Q.|.`.N b b v b b b b b b b b b b b b b b b b b b b b b b v b b b v = .   X * p 1 ` H.K.K.E.R.T.R.T.E.E.E.E.H.G.T.H.S.H.D.K.Q.",
"W.R.E.)._.W.H.H.Q.[.H.D.~. X[.).R.W.[.^.N b b b b b b b b b b b b b b b b b b b b b b b b b b b b b b s = $ * s i < ) K.R.H.F.F.T.K.K.T.E.Q.T.h.Q.H.H.K.G.G.D.T.",
"H.Q.[.~.W.D.h.A.P.H.H.W.W.'.Q.D.H.W.R.W.N b b b b b b b b b b b b b b b b b b b b b b b b b b b b b v v f d f z e q : ( M.G.H.S.F.h.D.K.K.D.G.F.H.H.D.f.A.h.A.R.",
"{.[.W.H.Y.A.y.G.!.~.~.Q.!.~.Q.H.R.R.W.U.O.b b b b b b b b b b b b b b b b v b b b b b b b b b b b b b b b b b l ; ; ; ; ^ a.A.f.T.T.D.F.K.K.H.F.T.K.H.G.K.E.).E.",
"{.).Y.S.D.y.A.Q.'.'.R.G.G.R.H.F.D.~.)._.%.b b b b b b b b b b b b b b b b b b b b b b b b b b b b b b b b b x r ; ; ; ; ; / f.Y.Q.Q.E.K.E.T.D.D.K.H.Q.H.T.{.!.W.",
"!.H.i.p.i.A.!.~.Q.D.A.i.p.Y.H.P.W.~.!.W.,.b b b b b b b b b b b b b b b b b b b b b v v b b b b b b b b b b l ; ; ; ; ; ; : { I.R.!.~.~.H.H.H.H.H.T.T.K.!.E.T.E.",
"~.H.A.A.A.R.Q.P.A.i.A.A.H.[.W.P.H.P.!.~.4.b b b b b b b b b b b b v v b b b b b v b n v b b b b b b b b b b t ; ; ; ; ; ; ; y L.!.). X!.H.R.E.H.~.{.T.D.H.T.K.E.",
"F.F.p.p.R.Y.G.A.h.p.G.F.H.E.R.H.W.[.[.'.C.m b b b b b b b b b b b v v v b b b b b b f n b b b b b b b b b b l ; ; ; ; ; - ; -  .].Q.D.H.K.P.K.G.H.T.T.t.G.T.T.H.",
"p.u.e.h.D.T.G.H.Y.A.D.Y.R.!.E.~._._.!.!.U.N b b b b b b b b b b b b n v b b b b b v p c b b b b b b b b v c k - ; ; ; ; ; ; y d.T.A.f.h.A.h.G.D.F.A.r.u.h.Y.G.h.",
"u.p.S.R.E.R.Q.W.D.S.R.D.D.R.!.[.~.R.T.Y.H.&.v b b b b b b b b b b b v d v b b b b f i v b b b b b b b b b z u w - ; : y / ~ a.H.G.F.G.f.e.i.G.G.F.f.A.D.H.G.h.y.",
"Q.'.~._.{.~.Q.D.Q.W.R.P.P.W.!.W.P.D.H.D.R.k.m b b b b b b b b b b b b f d v b b n i p v b b b b b b b b c p 9 < 2 a.a.a.J.h.h.D.G.h.f.w.i.K.D.D.T.E.Q.A.F.T.H.G.",
"~.E.~.Q.R.Y.S.S.~.H.H.Q.~.W.!.~.Q.H.H.S.H.c.+.v b b b b b b b b b b b v s p s s i u f b b b b b b b b v s 9 9 1 ' p.h.h.K.h.H.Y.h.y.e.u.R.K.Q.H.D.T.Y.T.T.T.G.T.",
"].R.P.D.A.h.D.Q.R.Q.R.Q.~.~.[._.~.~.Q.R.H.D.;.v b b b b b b b b b b b b v s i 9 i d v b b b b b b b b f u 1 9 0 s.Y.H.D.H.H.H.h.u.w.h.~.R.Q.H.F.F.F.H.Y.Q.E.K.!.",
" X X~.Q.H.Y.W.[._.!.~.Y.!.).[.(.E.R.R.S.p.w.W _ b b b b b b b b b b b b b b n f c b b b b b b b b b z u 1 1 u S w.Y.G.G.!.~.!.K.A.T.].T.T.H.F.h.F.H.Q.!.K.K.R.].",
"'.W.H.K.Q.D.D.!.W.R.K.!.Q.E.W.R.F.p.i.A.r.Y P K j b b b b b b b b b b b b b b b b b b b b v b b b z u 9 9 9 5 G % E r.h.T.K.G.H.E.[.~.T.T.A.F.h.G.E.E.K.F.F.K.!.",
"H.A.A.S.A.c.P.~.R.R.W.E.H.D.H.G.p.A.A.S.8.I E U S j v b b b b b b b b b b b b b b b b b b b b b f u 9 9 9 8 H , & % 9.H.E.K.H.G.R.~.R.E.H.p.p.h.T.E.D.F.D.K.T.E.",
"H.D.H.A.G.Q.(.~.R.Q.~.H.H.G.H.H.A.D.H.A.Y F I Y U S j v b b b b b b b b b b b b b b b b b b c s u 1 9 < 7 J I P & , 9.E.!.K.S.F.f.K.A.h.i.y.Y.~.].E.T.~.R.).{.E.",
"H.Q.P.Q.[.~.~.W.W.R.R.T.G.H.~.K.D.G.D.p.T F , % P P Z 0 f v b b b b b b b b b b b b b b c d i 9 < 9 9 5 H , T I U U 8.H.Q.T.A.f.F.H.A.t.A.E.|.).E.).{.E.E.).E.F.",
"Q.Q.c.S.H.Q.R.!.R.S.A.G.A.S.R.H.S.K.H.F.8.I F F F U U L 8 u s d n v b b b b b b c n f p i 9 9 9 < 1 6 H , P T Y G R e.F.R.H.F.G.G.D.T.Q.).].].W.E.[.T.G.Q.E.D.T.",
"A.h.H.A.H.D.D.H.h.u.i.A.i.i.H.D.K.W.S.H.c.E F F Y E Y F F V 2 9 u i p p p p p p i 9 9 < 9 9 9 9 7 C % % , I E Y T e.f.h.G.h.h.A.T.).{.{.R.E.!.K.K.H.G.K.!.D.h.H.",
"F.D.F.S.G.S.F.i.A.c.G.h.i.G.~.R.P.H.R.P.A.c.8.I I I I F F F K V 4 0 9 9 9 9 9 9 9 9 9 9 1 2 5 Z K U P , I 5.5.5.t.H.K.Y.G.Y.H.T.~.[.].!.).).).H.T.Q.E.Q.T.F.K.T.",
"H.F.D.R.H.Y.H.S.G.G.A.y.G.Q.!.(.!.H.R.K.D.D.T.u.7.T , , F I , , I L S A 5 7 7 7 2 7 6 A Z K I U I Y F P E 7.r.Q.E.Y.F.G.F.A.K.K.).}.~.Q.).P.H.F.K.E.].Q.T.T.D.h.",
"i.i.!.R.H.R.D.T.G.G.F.A.H.K.R.T.T.R.S.A.h.S.Q.K.S.e.W Y F , , , F I I , > H & > > G G P I I G I F , Y 9.u.T.~.H.A.h.i.p.p.G.E.).~.].E.E.K.i.h.p.F.T.K.y.f.F.p.h.",
"A.P.E.R.R.P.H.D.R.W.{.!.).E.R.!.E.K.G.f.G.S.T.H.D.D.G.h.e.0.6.E E E P F P F P U U U U I T E E 6.w.u.!.).{.).E.H.f.i.u.h.G.Q.).].[.[.E.H.A.f.A.h.T.E.H.h.F.h.h.G.",
"~._.E.~.Q.R.K.R.Q.!.E.!.R.R.!.Q.H.I.S.G.K.E.T.T.).Q.K.F.h.F.F.G.G.h.e.8.w.w.9.r.p.u.t.u.F.G.T.R.R.~.~.[.~.T.H.A.h.A.u.A.].[.).(.}.).H.h.i.i.i.A.h.H.F.y.h.D.F.E.",
"_.E.D.R.E.!.E.~.W.!.!.T.A.H.K.R.E.R.h.H.E.K.G.H.K.H.F.f.A.K.E.Q.H.T.H.T.R.R.K.E.~.E.G.K.E.~.[.~.).).!.T.A.h.u.i.h.A.h.H..X].).W.~.T.A.p.h.h.A.f.h.h.h.H.!.K.K.).",
"{.R.H.H.H.!.Q.Q.T.H.A.F.G.P.K.P.G.G.h.T.R.A.Y.G.h.G.i.T.K.K.R.T.T.!.E.E.F.K.E.E.~.H.H.P.R.W.E.~.).!.T.h.i.i.r.u.h.H.H.)._.E.E.H.G.F.p.A.h.h.H.h.D.E.E.~.T.T.E.).",
"~.E.P.H.R.H.D.D.H.h.f.A.K.~.R.H.K.G.H.T.H.G.F.F.K.K.E.E.K.E.E.Q.Q.!.E.H.K.P.E.!.!.R.~.R.(.K.H.K.T.F.p.i.i.p.h.A.K.!.~.~.E.K.A.h.K.H.T.G.A.G.K.K.E.[.(.E.).).E.).",
"P.K.A.D.D.i.y.H.A.h.G.K.R.K.G.D.T.T.Q.H.G.D.G.Q.Q.R.T.E.W.!.Q.E.T.T.D.K.K.K.T.E.E.!.T.T.R.f.i.h.h.i.p.h.h.h.F.~.~.!.].T.K.D.D.K.T.H.h.T.~.~.].(.W.W.E.).~.E.E.~.",
"D.S.i.A.A.G.D.H.p.A.D.F.h.i.E.E.K.H.D.A.T.Q.Y.E.E.R.]. X!.T.T.G.K.K.K.G.T.K.D.H.K.G.f.h.h.h.G.A.i.p.h.i.h.F.].{.).!.T.H.K.F.f.F.G.F.!.).!.~.).E.K.T.W.H.h.F.h.A.",
"Y.p.h.Y.H.H.H.A.H.D.G.A.G.E.[.P.K.A.F.E.W.K.K.E.E.P.).R.K.K.G.H.~.[.).T.D.h.F.D.T.h.f.A.A.h.h.r.F.Y.h.h.K.{.oX].!.T.Q.E.T.F.f.G.G.Y.~.T.K.K.H.D.!.].E.G.h.i.i.A.",
"Y.S.D.~.E.Q.H.A.G.h.G.P.].(.R.D.G.f.G.K.H.D.Q.R.H.K.H.f.h.p.A.K.E.E.Q.K.H.T.E.F.F.f.D.G.A.f.e.t.h.h.T.~.{. X].Q.D.h.F.S.F.h.h.h.f.G.F.h.F.i.A.T.!.T.h.i.i.h.F.G.",
"Q.Q.Q.!.Q.Q.K.P.G.K.R.W.~.T.A.h.G.K.K.Y.h.F.G.T.E.Q.H.G.S.K.K.E.E.H.H.K.~.[.).I.K.c.F.A.h.i.h.K.K.E.).[.{.Q.G.G.F.F.H.h.f.h.h.F.!.R.H.R.T.K.T.'.Y.h.u.h.K.Q.T.T.",
"W.!.P.T.K.Q.!.E.E.E.~.K.H.Q.E.E.E.H.S.c.H.E.E.T.D.F.T.K.K.R.E.R.R.E.).~.E.!.K.H.K.T.D.F.H.T.).(.~.)._.W.J.D.Q.Q.D.H.D.h.F.T.T.~.E.H.K.K.E.K.~.!.G.G.K.K.T.~.~.Q.",
"!.K.A.R.).P.H.H.T.H.H.G.E.).[.G.f.S.f.H.H.G.p.h.F.A.h.H.T.A.H.E.K.K.I.D.f.i.h.A.S.A.h.G.E.[.!.E.!.E.F.F.D.E.'.F.r.f.f.F.G.D.K.T.Q.G.A.K.G.A.H.G.i.H.E.K.H.Q.F.K.",
"H.S.D.P.H.H.H.Y.H.G.T.K.P.J.A.p.h.R.E.E.G.A.h.T.K.R.R.).P.G.K.P.A.G.f.h.i.h.A.A.h.h.h.D.K.R.Q.~.E.T.Q.D.G.G.y.y.h.D.H.Q.T.E.R.E.T.H.D.).K.H.T.Q.A.Q.E.K.H.E.E.K.",
"K.S.K.P.G.H.H.T.T.Q.E.K.K.A.u.T.R.(.W.R.K.R.~.Q.H.E.T.R.G.K.Q.K.D.G.h.G.i.G.G.G.A.h.D.K.H.K.Q.R.D.T.E.D.G.p.p.T.h.T.~.].!.(.(.E.H.Q.G.E.R.~.].!.Q.).E.E.K.].E.K."
};
