/* XPM */
static char *char1_front[] = {
/* columns rows colors chars-per-pixel */
"80 80 206 2 ",
"   c #010000",
".  c #0F0801",
"X  c #160C02",
"o  c #2A1804",
"O  c #341D05",
"+  c #3B2105",
"@  c #222222",
"#  c #383838",
"$  c #4C2A07",
"%  c #462706",
"&  c #653909",
"*  c #7F470C",
"=  c #714D26",
"-  c #4B4B4B",
";  c #545454",
":  c #686868",
">  c #7D7B6A",
",  c #7B7865",
"<  c #747474",
"1  c #82490C",
"2  c #884C0C",
"3  c #95530E",
"4  c #8F500D",
"5  c #B26310",
"6  c #BA6811",
"7  c #AF6210",
"8  c #BA7628",
"9  c #B57A35",
"0  c #AD793A",
"q  c #C56E12",
"w  c #CC7313",
"e  c #C4741C",
"r  c #CD7619",
"t  c #D27614",
"y  c #DA7A14",
"u  c #D47A1A",
"i  c #CD700E",
"p  c #E17E15",
"a  c #C87B26",
"s  c #93754B",
"d  c #997D53",
"f  c #957D56",
"g  c #AB7E45",
"h  c #817E6C",
"j  c #877C63",
"k  c #E58015",
"l  c #EA8214",
"z  c #F18716",
"x  c #F58917",
"c  c #FF8E16",
"v  c #FF8F18",
"b  c #F78C1A",
"n  c #FF9119",
"m  c #CE802C",
"M  c #DD8220",
"N  c #CE8434",
"B  c #D38A39",
"V  c #FC9322",
"C  c #F99629",
"Z  c #FC982D",
"A  c #F59A33",
"S  c #FC9C34",
"D  c #F39D3B",
"F  c #F39834",
"G  c #EA8D28",
"H  c #FAA03C",
"J  c #9B8058",
"K  c #A58557",
"L  c #84826E",
"P  c #89836D",
"I  c #94876A",
"U  c #868471",
"Y  c #898673",
"T  c #8D8975",
"R  c #8E8B78",
"E  c #918E7B",
"W  c #94917C",
"Q  c #99967E",
"!  c #A08660",
"~  c #BDA577",
"^  c #CE8C43",
"/  c #CF914B",
"(  c #CD9458",
")  c #D69C58",
"_  c #D49244",
"`  c #E59C48",
"'  c #F09E40",
"]  c #DBA45F",
"[  c #ECA34C",
"{  c #F4A243",
"}  c #FDA545",
"|  c #F3A44A",
" . c #FCA94F",
".. c #EBAC5D",
"X. c #E8A657",
"o. c #F2AE5C",
"O. c #F8AB55",
"+. c #FCB15D",
"@. c #CD9D6B",
"#. c #CB9D65",
"$. c #D7A867",
"%. c #CEA171",
"&. c #C6A87F",
"*. c #DBAD72",
"=. c #DAB57D",
"-. c #CDA06F",
";. c #E2AD66",
":. c #ECB064",
">. c #E6B36E",
",. c #FFB363",
"<. c #FFB86D",
"1. c #FAB567",
"2. c #E7B877",
"3. c #FFBA71",
"4. c #F1BB73",
"5. c #EFC17F",
"6. c #999682",
"7. c #9C9983",
"8. c #A19E87",
"9. c #A5A28A",
"0. c #A9A58C",
"q. c #AEAA92",
"w. c #B1AD93",
"e. c #B5B196",
"r. c #BAB597",
"t. c #B6B399",
"y. c #BAB69A",
"u. c #BEB99D",
"i. c #ACACAC",
"p. c #BFBBA1",
"a. c #BEBEBE",
"s. c #D5B783",
"d. c #D3BB8E",
"f. c #DABC8A",
"g. c #D6B986",
"h. c #CDBD95",
"j. c #C1BD9E",
"k. c #C8BA96",
"l. c #D3BF95",
"z. c #CDAE8E",
"x. c #E3BC83",
"c. c #C2BEA2",
"v. c #CDBCA9",
"b. c #CDBFB1",
"n. c #CAC29E",
"m. c #D3C49C",
"M. c #DBC496",
"N. c #E5C38A",
"B. c #FFC689",
"V. c #FFC78B",
"C. c #E6CA97",
"Z. c #FFCC97",
"A. c #C6C1A4",
"S. c #C9C5A6",
"D. c #CDC8A7",
"F. c #C6C3A8",
"G. c #CAC6A9",
"H. c #CEC9AC",
"J. c #D1CDAD",
"K. c #D7CBA7",
"L. c #D5D0AF",
"P. c #DAD2AE",
"I. c #CFCBB0",
"U. c #CDC6BF",
"Y. c #D2CEB1",
"T. c #D6D1B3",
"R. c #D9D5B5",
"E. c #DDD9B6",
"W. c #D7D3B8",
"Q. c #DAD6B9",
"!. c #DED9BB",
"~. c #E5D3A8",
"^. c #F3D5AD",
"/. c #E0DBB7",
"(. c #E1DDBC",
"). c #E8DCBA",
"_. c #FEDAB5",
"`. c #EBCBA8",
"'. c #E5E0BE",
"]. c #C9C7C5",
"[. c #D1CCC6",
"{. c #DFDBC0",
"}. c #D2D2D2",
"|. c #DCDDDD",
" X c #D9D7D5",
".X c #E2DEC1",
"XX c #EBDED2",
"oX c #E5E1C2",
"OX c #E9E4C4",
"+X c #EDE8C6",
"@X c #EBE5C9",
"#X c #EDE9CB",
"$X c #E7E3C8",
"%X c #FFE7CD",
"&X c #F1E7C9",
"*X c #FFEAD3",
"=X c #F6EAD9",
"-X c #F4F0D1",
";X c #ECECEC",
":X c #E5E4E3",
">X c #FFF1E2",
",X c #FDF7EE",
"<X c #EFF1F2",
"1X c #F4F4F4",
"2X c #FEF9F4",
"3X c #FFFFFF",
/* pixels */
"T.Q.Q.Q.E.E.(.P.E.J.T.S.u.A.T.L.R.E.E.S.E.E.T.H.J.D.T.Q.R.H.I.F.S.H.!.Y.G.H.A.c.S.H.J.L.L.E.!.L.W.S.H.F.F.H.'.!.T.(.(.D.OXoXT.F.F.H.E.!.!.!.oXE.oXE.@X!.T.!.E.T.",
"T.R.Q.Q.L.R.'.(.E.T.H.G.A.J.J.D.W.T.H.J.W.Q.H.S.F.J.H.Q.T.H.G.H.H.T.T.G.A.I.A.c.T.T.J.T.Y.Q.R.T.L.A.S.H.T.{.R.H.H.!.H.T.'.R.c.A.H.Q.T.'.OX!.E.!.!.oXE.L.I.R.H.H.",
"J.H.H.Y.R.R.R.W.H.H.H.A.F.A.S.L.!.W.H.L.A.S.J.J.W.E.Y.W.T.J.G.H.I.G.Y.Y.T.T.G.T.L.A.F.H.W.W.W.H.p.p.F.L.H.H.H.T.!.{.R.L.J.A.j.H.oX!.'.'.!.E.W.R.T.I.W.H.R.{.F.T.",
"Y.H.D.J.P.R.R.J.L.R.R.G.J.Q.oXoX.XJ.!.T.H.L.!.!.!.W.T.H.T.T.E.T.T.W.Q.Q.W.H.W.!.T.L.E.T.R.W.E.H.H.L.(.T.H.I.T.T.!.!..XT.S.J.!.R.E.L.T.E.(.oXoXW.R.R.L.T.!.L.T.T.",
"J.G.Y.R.E.OXQ.T.Q.E.T.F.E.oXoX(.W.Y.T.T.!.E.!.(.!.(.W.L.E.E.T.S.R.R.T.W.L.T.R.E.J.H.T.E.E.E.T.G.I.oXW.H.{.!.!.!.Q.!.T.H.!.!.T.T.L.E.T.T.E.E.T.H.oXW.J.R.T.H.T.T.",
"A.G.!.E..X!.Y.H.Y.H.H.Q.R.Q.!.S.F.Y.H.T.W.W.oXE.L.L.T.R.T.H.H.S.L.J.J.A.S.S.A.H.A.S.!.oX!.H.A.A.T.H.T.T.T.T.E.F.G.H.G.R.Y.H.T.H.D.H.S.H.H.H.S.H.T.T.H.y.A.H.A.H.",
"J.R.T.W.T.W.D.A.T.Q.!.H.I.R.Q.I.G.Y.T.!.(.!.!.W.T.R.J.L.Y.T.E.T.L.W.H.L.L.S.D.L.!.Q.T.Y.T.A.p.F.!.E.E.I.W.W.E.G.F.A.J.E.W.Q.W.G.T.H.G.A.I.R.T.S.H.R.H.H.H.S.H.J.",
"T.!.D.Y.J.H.A.J.R.!.H.y.H.H.G.A.c.T.J.T.OX(.L.T.E.W.A.H.G.H.H.L.L.L.L.S.j.L.S.L.!.R.G.F.H.c.p.E.L.E.I.I.R.L.H.u.t.G.E.(.OXQ.H.I.T.F.F.G.A.I.T.H.T.L.J.A.A.T.F.H.",
"T.H.c.S.S.H.T.!.R.R.H.A.T.c.T.Q.H.J.H.R.OXR.S.H.J.J.H.L.H.J.J.H.T.J.T.R.T.T.T.'.!.H.c.F.A.u.I.E.H.S.j.G.T.D.A.F.G.T.E.OXoXS.A.H.H.H.H.I.H.T.H.H.S.L.H.G.H.E.H.T.",
"(.H.T.Y.H.W.J.T.A.A.G.Y.Y.J.!.W.u.A.J.W.(.T.L.H.D.H.S.H.H.I.H.H.E.{.W.T.H.R.E.'.OXR.T.L.G.H.T.T.A.c.H.J.E.L.A.j.y.E.oX'.'.G.A.F.H.H.A.I.T.L.H.Y.E.T.H.H.F.S.H.E.",
"W.H.H.A.T.J.L.I.S.A.Y.S.H.T.J.H.A.S.Y.W.R.T.!.T.J.A.A.G.A.c.A.A.L.J.H.A.H.W.R.L.T.H.H.F.Y.J.J.J.H.J.T.L.T.G.A.A.W.OX+X'.!.L.D.D.T.H.F.H.T.H.T.E.E.J.H.A.H.T.T.T.",
"A.A.y.c.H.H.H.T.R.H.H.G.H.A.c.S.A.H.Y.Y.T.J.J.T.J.H.A.S.c.p.G.G.H.A.t.c.H.T.T.H.F.c.t.A.A.S.H.R.!.!.!.W.H.H.H.!.OXoXoX(.R.T.H.R.L.A.F.R.E.T.E.R.R.H.p.A.H.T.T.S.",
"S.F.A.D.E.R.E.E.Y.G.J.c.u.F.F.c.p.c.u.F.H.J.G.S.S.S.J.H.p.y.c.y.A.y.A.S.H.S.u.u.A.p.A.J.T.R.OXOXE.W.E.L.H.J.T.J.!.T.H.H.H.F.A.S.H.J.$X#XQ.!.R.H.T.G.Y.W.T.H.H.F.",
"E.E.'.'.(./.(.J.P.E.R.A.G.H.H.A.u.u.G.Y.T.J.H.T.H.j.c.w.y.u.c.G.H.R.T.H.H.T.F.A.H.Y.L.!.E.L.!.!.oX'.(.J.J.E.T.A.W.T.H.H.H.A.H.T.E.T.R.H.H.E.T.E.!.oXOXW.L.!.L.H.",
"T.L.P.E.L.L.J.T.T.J.J.S.D.H.H.G.A.F.H.H.W.W.H.Y.F.c.t.w.c.F.T.J.H.L.T.Y.T.Y.F.A.H.A.H.T.S.F.A.L.!.T.H.J.I.H.T.D.E.L.H.H.H.L.E.E.T.F.u.H.T.T.{.{.E.E.E.R.!.T.F.H.",
"L.S.H.S.S.A.J.E.J.H.c.G.A.S.J.Y.H.T.!.!.E.!.Y.H.A.F.F.I.T.T.Y.F.c.F.T.Y.J.H.A.F.H.j.u.c.G.p.H.!.T.J.H.I.H.H.T.J.W.E.E.W.E.W.L.L.I.A.H.R.T.W.H.Q.Y.T.Y.u.u.F.S.T.",
"A.A.H.H.L.R.E.E.W.H.n.p.A.F.H.T.L.L.'.E.'.oX!.H.u.S.L.Q.T.H.S.n.c.J.(.Y.D.c.D.J.!.'.L.L.H.H.R.E.R.I.F.c.A.G.J.T.T.T.W.R.E.T.L.T.H.T.R.H.S.H.J.J.J.E.F.A.T.T.T.T.",
"u.A.L.E.T.W.T.H.H.A.y.A.r.A.L.I.H.F.H.L.E.R.S.J.J.S.H.T.J.F.F.S.Y.(.(.H.p.c.H.J.E.T.F.S.T.S.c.A.H.F.c.F.A.A.T.H.A.c.A.H.H.F.H.T.W.E.Y.G.H.F.F.J.E.L.H.W.{.{.I.A.",
"L.(.E.L.E.J.F.H.A.y.S.G.y.u.H.H.G.m.M.P.R.I.H.S.F.A.H.W.H.c.u.A.R.E.S.j.c.J.(.T.H.H.A.A.A.j.n.A.n.c.Y.H.p.c.G.D.A.A.F.I.m.l.K.T.H.H.H.I.H.F.H.F.S.I.G.A.A.H.F.H.",
"OX!.E.L.D.F.F.S.A.A.I.p.c.H.R.E.R.N.S { ..2.d.k.y.F.H.G.A.p.H.T.R.Y.D.J.Y.!..XR.S.F.H.S.A.F.H.H.F.F.T.c.A.H.T.L.D.N.>.X.D S g.H.G.H.H.H.F.c.H.H.H.F.c.Y.F.R.E.!.",
"H.H.S.S.J.S.J.S.H.I.F.p.T.{.OXE.E.~.Z c c n V F [ *.g.u.F.H.T.L.J.J.(.J.H.Q.Y.j.F.H.T.H.T.L.L.L.T.H.F.A.T.M.5.o.D V n v v C h.A.A.H.H.H.H.H.T.H.J.H.R.H.I.E.T.R.",
"T.H.A.F.F.A.S.H.S.H.A.H.T.$XoXH.D.L.| v n v v v v v C ' >.M.L.W.J.J.G.A.W.W.A.F.L.T.L.H.H.T.T.T.E.S.d.;.{ Z n v v v v v v | J.W.Y.L.T.!.{.L.J.H.H.R.S.A.I.H.n.F.",
"H.r.u.A.A.A.j.u.y.p.H.R.L.Q.E.T.P.L.$.v v v v v v v v v n C o.N.Y.I.G.T.E.J.j.S.L.S.H.H.T.Y.I.H.d.X.C n c c n n v v v v c ;.J.Y.!.(.!.R.H.F.I.H.H.H.n.W.!.H.A.J.",
"A.A.n.F.u.u.y.n.I.T.E.H.R.!.E.L.!.F.s.V v v v v v v v v v n c C ..N.C.2.:.[ D A A { [ ..>.f.g.X.C c c c n c c n v v v n V s.W.J.!.E.T.F.F.T.E.H.H.R.!.E.T.H.R.T.",
"I.A.n.c.H.I.F.J.!.L.T.L.oXE.E.T.A.p.k.F v v v v v v v v v v v v v V V v v v v c v v c v v n V v v v v v v v v v v v v v F h.H.R.R.E.D.F.R.R.T.A.W.oXOX(.J.T.Y.G.",
"F.A.T.T.R.L.J.L.L.J.H.R.T.L.Y.A.u.y.q.` v v v v v v v v v v v v v v v v v v v v v v v v v v v v v v v v v v v v v v v v ` S.Y.H.H.G.D.R.Y.j.v.H.T.(.!.A.F.J.c.F.",
"R.T.E.T.E.E.T.W.T.E.E.W.L.H.F.G.A.t.e.] v v v v v v v v v v v v v v v v v v v v v v v v v v v v v v n v v v v v v v v n ;.H.W.H.J.J.Y.J.D.H.Y.F.!.(.W.G.H.A.A.H.",
"!.(.W.T.E.!.L.R.Y.T.I.T.F.H.H.p.e.A.p.=.V v v n v v v v v v v v v v v v v v v v v v v v v v v v v v v v v v v v v v v n N.E.W.R.R.Y.D.c.c.F.D.Y.J.Y.H.u.c.D.D.T.",
"oXR.H.!.T.T.E.!.T.H.S.A.j.A.y.c.F.L.F.m.Z c v v v v v v v v v v v v v v v v v v v v v v v v v v v v v v v v v v c c c S ~.!.I.T.T.D.v.c.D.G.Y.G.A.G.c.A.H.J.J.R.",
"'.T.T.T.L.R.H.J.H.p.u.y.u.p.y.H.T.H.A.T.o.c v n v v v v v v v v v v v v v v v v v v v v v v v v v v v v v v v v n c c ..(.Y.H.G.G.S.c.J.W.P.K.c.J.Y.J.Y.A.Y.R.!.",
"L.E.E.Y.R.H.y.u.y.t.y.A.A.F.S.H.E.I.I.W.g.n n c v v v v v v v v v v v v v v v v v v v v v v v v v v v v v v c n n c b N.H.F.A.I.T.Y.T.Q.R.=X@XK.(.!.R.G.J.E.!.(.",
"D.L.I.H.F.y.e.e.y.p.A.S.c.u.A.L.H.G.W.I.n.A c n v v v v v v v v v v v v v v v v v v v v v v v v v v v v v v n c n c H m.F.H.H.E.R.T.Y.R.&X2X2X).W.Q.J.T.Y.T.J.T.",
"H.j.y.u.y.t.j.S.S.A.A.j.p.c.W.E.I.H.H.H.R.4.v v v v v v v v n c v v x v v v v v n v v v v x v v v v v v v v v v v v ;.D.E.Q.T.L.L.L.!.&X,X3X3X=XJ.J.J.D.S.F.u.c.",
"H.y.t.j.u.c.L.S.H.D.A.F.H.{.oXY.H.H.E.OX$X1.v v v v v v v v v n v 1 O 5 n v v v c v v n 7 O 2 n v v v v v v v v v x ) /.#XR.T.R.J.R.OX=X3X3X3X2X&XE.Y.D.c.j.A.j.",
"u.n.F.D.u.J.A.A.G.G.H.R.!.R.J.R.Y.L.#XoXN.n v v v v v v v v c n y o   $ z c v v v v n z %   o y v v v v v v v v v z u g.Q.J.L.T.S.S.K.,X3X3X3X3X=XP.Y.H.A.A.J.j.",
"H.F.S.S.W.H.H.T.H.H.H.L.J.G.H.!.(.(.!.L.[ v v v v v v v n v n c 3     X w n v v n c n w X     3 n v v v v v v v v v y / D.Y.H.Y.R.K.XX3X3X3X3X3X2XR.F.H.R.E.!.H.",
"H.H.H.H.Y.I.T.J.J.H.T.H.S.T.OXOX!.L.T.s.V v v v v v v v n c n n 1       6 n c n v v c 6       1 n c v v v v v v v v l a l..XE.J.T.m.^.>X3X3X3X2X>X^.(.(.P.T.T.A.",
"H.A.H.H.T.L.S.c.A.u.c.H.!.+X-XR.H.A.u.] v v v v v v v v n c v n 1       6 n v v v v n 6       * n n v v v v v n v v z r $.Y.j.c.H.g.A } <.B.B.<.} } ).W.G.S.c.u.",
"F.F.F.H.H.F.A.G.A.u.T.E.$XoXT.c.u.A.m.A v v v v v v v v n n c n *       6 n v v v v n 6       * c c n n v v v v v v x t N h.F.J.T.2.v c v c c c c C d.c.F.H.G.A.",
"S.F.Y.H.A.S.F.H.W.E.!.!.!.Y.A.H.A.T.C.n v v v v v v v v c n c c 1       6 n v v n n n 6       1 n n n c v v v v v v c y r f..XW.J...c v v v v v c V =.F.A.W.Y.Y.",
"H.L.T.H.R.E./.E.(.T.Q.R.Y.H.R.S.T.!.5.c c c n n v v v v v v v c 4     X q n v v v v n q .     4 c v v v v v v v v v v y w *.R.A.m.F v v v v v v n n N.I.A.H.S.G.",
"S.T.T.Q.T.!.!.!.J.D.J.S.G.J.J.J.T.!...c c n v v v v v v v v v v q X   + k n v v v v n k +   X w c v v v v v v v v v v p i ) H.d.{ n v v v v v v c V M.F.c.G.c.n.",
"L.S.J.T.!.(.T.D.c.F.J.D.J.J.J.R.!.R.| c v v v v v v v c v v v v x & . 4 n x x x x x x v 3 X & z c n v v v v v v v v v p w N $.A v v v v v v v v c F m.n.J.D.c.F.",
"H.J.R.L.E.!.T.F.F.E.(.J.Y.Q.Q.(.'.T.H c v v v v v v v c v v v v n y 5 l 5 + o o o o + 5 l 5 t v n c v v v v v v v v v y w M n c v v v v v v v v c ..D.A.J.H.H.T.",
"R.W.Q.!.'.E.H.H.W..XJ.H.!.$X$X(.T.P.D v v v v v v c c c c v v v v c x v %             $ n x c v n v c c c c c c c c v y w y c c v v v v c n c c A M.D.L.G.G.H.J.",
"H.R.oXE.R.D.A.A.J.Y.J.T.R.{.R.D.J.R.S v v v v S ,.<.<.<.+.} C n v v v v %             % v v v n n Z } +.<.<.<.+.S c c y w y c c v v v v c n c V =.H.S.u.A.A.A.T.",
"OXoXE.J.T.A.t.S.!.!.!.W.!.!.Y.J.Y.P.D v n n ,.*X3X3X3X3X2X=X%X_.Z.B.<. .=             =  .<.B.Z._.%X=X2X3X3X3X3X*X+.z t w y c c v v v v n c V *.T.L.H.H.H.T.E.R.",
"OX!.Y.A.G.t.c.R.!..XY.G.H.Y.J.A.G.(. .v v S *X3X3X3X3X3X3X3X3X3X3X3X3X2X[.#         # [.3X2X3X3X3X3X3X3X3X3X3X3X3X*XF w w y c n v v v v n F =.H.H.H.T.H.T.OX!.E.",
"E.H.y.p.u.F.R.(.T.H.A.y.A.H.H.L.R.(.:.c c +.2X3X3X3X3X3X3X3X3X3X3X3X3X3X1X].: # # : ].1X3X3X3X3X3X3X3X3X3X3X3X3X3X2X` w w p c c n c n Z X.M.H.H.H.L.L.J.Q.W.L.E.",
"!.I.F.A.F.T.T.T.A.y.A.A.H.oXR.L.J.T.2.n c <.3X3X3X3X3X3X3X3X3X3X3X3X3X<X1X1X:X}.}.:X1X2X;X3X3X3X3X3X3X3X3X3X3X3X3X2X) i w z v v C H 5.M.H.T.W.H.!.oXT.S.H.Y.J.W.",
"F.F.u.p.T.H.S.A.A.p.G.F.H.R.T.J.!.$XC.C c +.2X3X3X3X3X3X3X3X3X3X3X3X<X; a.3X3X2X1X3X3Xa.; ;X3X3X3X3X3X3X3X3X3X3X3X;X/ w r O.>.x.~.K.S.H.D.L.L.G.H.I.Y.y.G.Y.H.G.",
"p.y.q.A.G.T.H.H.I.A.H.H.T.R.R.(.(.oX~.| c } 2X3X3X3X3X3X3X3X3X3X3X3X1X; - ].1X3X3X1X].- ; 1X3X3X3X3X3X3X3X3X3X3X3X}.N i _ R.W.!.W.A.j.A.A.A.G.G.G.A.e.r.c.I.H.F.",
"y.p.F.L.E.T.R.R.H.S.T.H.S.T.R..X(.T.Y.>.v S %X3X3X3X3X3X3X3X3X3X3X3X3X}.- @ ; < < ; @ - }.3X3X3X3X3X3X3X3X3X3X3X;Xv.a w -.S.S.H.G.F.S.j.e.u.S.F.F.j.n.G.G.G.c.t.",
"W.{.!.'.OX!.R.D.R.E.T.H.L.!.E.!.J.D.H.h.A n B.3X3X3X3X3X3X3X3X3X3X3X3X3X;Xi.: - - : i.;X3X3X3X3X3X3X3X3X3X3X3X<X}.@.w m m.A.c.S.S.c.p.q.u.H.D.H.T.W.E.F.F.Y.H.G.",
"!.R.!.T.T.Y.F.F.E.H.H.R.!.E.E.!.T.J.J.A.>.v S *X3X3X3X3X3X3X3X3X3X3X3X3X3X3X3X3X3X3X3X3X3X3X3X3X3X3X3X3X3X3X1X|.v.m w #.H.G.H.H.p.y.q.y.T.L.T.H.S.Y.H.I.Y.W.G.Y.",
"oXT.L.H.A.p.H.T.Y.W.T.W.!.!.oXoX!.!.W.J.D.{ v 3.2X3X3X3X3X3X3X3X3X3X3X3X3X3X3X3X3X3X3X3X3X3X3X3X3X3X3X3X3X2X|.[./ i ^ h.H.G.H.A.y.q.F.!.T.T.H.F.F.S.I.I.T.R.H.Q.",
"#X#X!.R.H.H.E..XoX!.Q.Y.Q.(.'.(.T.T.J.D.c.~ G V Z.2X3X3X3X3X3X3X3X3X3X3X3X3X3X3X3X3X3X3X3X3X3X3X3X3X3X3X2X|.].-.r a ~ H.Q.!.E.I.A.I..XT.I.G.F.F.F.H.R.E.J.L.L.oX",
"!.R.H.L.T.H.H.E.R.T.Y.R.W.R.E.T.G.c.u.A.y.W K M V V.2X3X3X3X3X3X3X3X3X3X3X3X3X3X3X3X3X3X3X3X3X3X3X3X3X;X X].@.r e s R u.T.H.F.H.Q.oX!.Y.Y.A.F.c.S.W.W.H.A.F.H.Q.",
"H.A.A.F.A.n.L.!.T.T.R.R.H.H.G.G.c.c.c.D.e.T E K M b 3.>X3X3X3X3X3X3X3X3X3X3X3X3X3X3X3X3X3X3X3X3X3X1X:X}.F.( w e s , L y.E.H.H.H.Y.Q.T.T.H.p.p.A.T.R.H.F.G.Y.T.R.",
"H.G.H.F.F.R.!.!.T.R.(.J.H.S.H.H.A.H.H.G.w.Y T R J a p | _.2X3X3X3X3X3X3X3X3X3X3X3X3X3X3X3X3X3X1X:X X].z.N w a J , L T u.E.T.S.F.n.L.A.A.p.y.G.!.'.R.Y.!.T.(.oXR.",
"H.R.J.R.oX!.E.E.!.R.T.Y.G.H.(.J.H.S.H.G.y.T h h Y I 0 r k X.`.>X3X3X3X3X3X3X3X3X3X3X3X2X<X;X|.}.b.z.N r e 0 I T Y T E u.T.T.A.p.F.H.A.t.A.T.oXoXW.(.OXT.E.'.W.H.",
"W.W.A.F.H.T.T.!.T.S.A.S.c.G.T.D.S.Y.D.F.H.q.L h L T T K 9 r t B *.`.XX:X;X1X<X<X;X:X|.}.].b.z.#.N w e 8 d U W R P T 0.A.T.H.F.F.G.H.L.T.{..XoXE.R.'.T.G.T.W.D.H.",
"A.c.H.A.H.H.H.H.p.y.u.A.u.u.H.H.J.E.A.D.D.j.8.Y R E T L h f 0 e w r m / ( @.%.%.%.%.#.( ^ a r w a 0 f j > Y W T W e.u.F.G.A.A.A.T.!.$XoXT.W.E.H.J.J.G.J.W.S.A.H.",
"A.H.S.F.G.A.F.u.A.n.S.c.p.G.!.L.J.H.W.P.F.D.J.r.Q R Y L h Y Y j f g 9 a e q w w w w q e a 9 g J I T U > Y 7.7.9.n.H.J.I.F.I.H.I.!.oXoXE.(.(..XH.Y.T.W.T.T.S.H.H.",
"H.F.G.I.H.T.H.F.G.F.A.t.H.R.!.!.W.H.T.J.S.H.T.R.I.p.Q U L U L > U E E I J J f d J J d J T T T Y U T L U 8.e.G..XW.J.G.G.F.S.J.L.'.OX(.T.(.L.H.F.H.W.{.E.I.T.H.A.",
"y.u.!.T.H.T.H.H.H.F.F.A.H.H.T.I.T.T.A.A.A.A.R.H.H.A.r.y.0.6.E Y U T U h > h , > , L U L Y Y P T R W 9.c.T.!.(.H.A.c.y.p.p.G.W.E.(..XW.E.J.u.c.u.H.H.Y.y.p.A.y.A.",
"A.H.E.T.T.L.H.D.T.E.oXE..XR.T.Q.R.L.S.n.S.S.T.H.D.S.D.G.A.A.A.y.u.t.9.6.6.E W 6.6.6.Q 6.9.q.e.c.S.H.OXOXOX(.R.H.j.u.y.c.G.T.(.(.oXoXW.H.A.A.A.c.I.R.H.c.F.A.p.F.",
"'.'.E.E.R.T.L.L.W.Q.E.W.T.T.!.T.H.T.S.F.L.T.Y.J.!.R.T.A.p.G.S.H.T.L.S.p.F.Y.G.W.(.(.T.J.!.W.R.E.R.E.!.oX!.Y.H.A.c.A.y.A.{.OX.X(.+X(.G.c.y.u.u.A.A.H.F.t.A.H.A.R.",
"'.L.H.T.R.Q.R.!.E.E.W.T.A.H.L.T.R.T.A.H.R.H.F.J.H.H.F.j.A.Y.R.W.I.Y.S.I.T.T.D.E.!.W.S.J.R.(.oXE.(.(.!.I.A.c.y.u.A.A.j.H.#XoX(.E.Q.Y.A.p.c.c.A.j.A.A.p.H.E.H.H.(.",
"+XL.J.H.H.E.W.T.H.H.F.F.F.L.J.L.H.F.p.Y.T.A.I.G.A.H.u.J.J.J.T.Y.H.E.E.R.A.J.T.W.E.J.H.L.Y.E.W.(.(.Q.Y.c.y.u.e.y.c.H.J.!.'.T.R.H.S.G.p.A.c.c.H.c.S.R.T.!.Y.T.T.'.",
"!.R.J.H.T.I.G.H.H.A.j.A.L.!.T.H.H.H.H.J.H.F.A.F.J.J.R.R.H.R.T.W.W.E.W.H.H.T.E.Q.Q.T.E.T.(.Y.H.H.J.F.p.u.u.c.c.S.J.W.!.!.R.J.F.A.Y.J.I.H.S.S.Y.D.E.oXE.E.!.oXE.(.",
"J.J.n.S.H.u.y.G.A.p.H.H.L.T.S.S.T.I.W.H.H.H.H.W.T.T.W.R.R.Q.Q.R.T.J.H.H.J.L.L.W.T.!.Y.Y.Y.j.u.j.c.p.p.c.c.c.F.Q.!.Q..XT.H.D.G.H.Y.H.c.I.!.!.(.'.E.E.E.!.!.T.T.!.",
"G.A.u.A.A.F.H.H.p.A.H.F.n.y.R.W.L.H.S.F.T.R.H.R.R.T.{.#XE.W.Y.S.J.J.J.S.T.H.S.H.J.F.c.c.c.c.G.A.y.p.c.y.p.G.{.OX(.Q.Y.H.H.F.n.A.G.F.Q..XW.(.(.W.J.Y.E.H.F.A.c.F.",
"Y.c.c.Y.H.I.H.A.H.D.S.A.F.E.oXL.H.A.S.T.E.H.Y.R.R.L.'.T.H.H.F.H.E.oX!.T.H.A.H.D.T.A.u.A.A.j.A.e.G.I.A.A.J.OX-X.XE.Y.T.R.Y.A.p.G.G.H.!.Y.J.J.H.S.E.oXW.G.c.y.p.A.",
"I.F.H.!.R.T.H.A.F.A.S.L.oX!.L.S.S.j.F.L.H.H.T.W.H.L.H.p.c.u.F.L.E.R.T.L.H.T.T.A.A.j.H.S.A.u.w.r.A.c.H.!.OX#XoXT.G.A.F.F.G.A.A.A.j.G.A.c.F.p.A.Y.Q.Y.j.u.y.c.G.F.",
"R.T.T.Q.W.T.J.L.S.L.T.E.!.T.A.A.S.J.J.I.c.F.G.H.R.W.H.F.F.J.J.R.W.I.H.H.E.oX!.T.H.n.S.A.c.u.A.H.H.W..XOXoXQ.G.G.F.F.H.A.p.p.u.F.Q.Y.Y.Y.Y.J.J.{.Y.u.y.A.Y.T.Y.Y.",
"E.!.L.Y.J.R.E.R.R.E.!.J.H.R.R.T.R.H.S.A.H.Q.R.T.H.A.I.J.L.T.R.T.T.R.(.!.R.E.L.H.T.T.S.A.H.T.E.!.E.'.'.E.D.H.W.W.H.F.H.A.A.H.T.!.Q.H.H.J.R.L.!.Q.H.F.H.J.T.!.!.Q.",
"Q.J.A.T.!.L.H.I.I.H.H.S.T.oXoXH.j.S.n.H.H.F.p.A.A.A.A.H.H.A.S.E.J.T.L.D.p.u.c.F.A.A.A.S.R.oXE.W.Q.T.A.A.S.R.{.F.t.u.p.F.G.H.H.T.W.H.S.J.A.A.I.G.j.H.R.L.H.T.H.H.",
"H.S.H.L.H.H.H.I.I.F.T.J.T.D.A.y.A.T.R.R.G.A.A.Y.L.T.T.!.T.H.L.T.S.A.n.u.y.A.A.A.n.u.p.H.I.T.W.!.R.T.T.H.H.G.t.y.u.S.H.E.T.T.T.T.Y.H.H.(.L.I.Y.T.c.R.R.J.H.T.T.H.",
"H.S.J.L.H.H.H.I.T.T.R.H.H.A.u.T.T.!.T.T.I.T.E.T.H.W.T.R.S.H.R.H.G.F.c.H.u.F.F.F.A.A.H.H.H.L.R.T.S.T.R.G.H.u.y.T.A.L.!.'.E.E.E.E.H.Y.D.W.T.Q..XQ.T.(.Q.W.J.oX!.J."
};
