/* XPM */
static char *char1_left[] = {
/* columns rows colors chars-per-pixel */
"80 80 205 2 ",
"   c #010100",
".  c #0A0704",
"X  c #150C02",
"o  c #1D1D1D",
"O  c #331C05",
"+  c #22201A",
"@  c #282725",
"#  c #35332F",
"$  c #4E2C07",
"%  c #5B5B5B",
"&  c #444444",
"*  c #675F50",
"=  c #6F6F6F",
"-  c #7F7D6B",
";  c #717171",
":  c #81480C",
">  c #894D0D",
",  c #95540E",
"<  c #AA5F10",
"1  c #BB6912",
"2  c #BE7525",
"3  c #BA762A",
"4  c #BB772B",
"5  c #B67D3A",
"6  c #CE710F",
"7  c #C46E12",
"8  c #CD7313",
"9  c #CB761A",
"0  c #D37613",
"q  c #D67814",
"w  c #DB7B14",
"e  c #D77E1E",
"r  c #E27F15",
"t  c #CB7C26",
"y  c #D37E22",
"u  c #8A795A",
"i  c #9B7C51",
"p  c #A77D48",
"a  c #837A63",
"s  c #817F6D",
"d  c #897E63",
"f  c #E58015",
"g  c #EC8416",
"h  c #E98418",
"j  c #F58917",
"k  c #FE8E16",
"l  c #FF8F18",
"z  c #F38817",
"x  c #FF911A",
"c  c #CA8537",
"v  c #D38A36",
"b  c #DF943D",
"n  c #D88223",
"m  c #FB9323",
"M  c #FC9629",
"N  c #FD982C",
"B  c #F6962C",
"V  c #EE9C3E",
"C  c #F69A33",
"Z  c #FC9C34",
"A  c #F69D3A",
"S  c #F79B37",
"D  c #FCA13F",
"F  c #9B845E",
"G  c #A38357",
"H  c #B4854C",
"J  c #84826E",
"K  c #8C846C",
"L  c #91866A",
"P  c #858370",
"I  c #898673",
"U  c #8C8975",
"Y  c #8F8C78",
"T  c #918C76",
"R  c #938F7A",
"E  c #9F8F73",
"W  c #95927C",
"Q  c #99967D",
"!  c #A3916F",
"~  c #A59777",
"^  c #CF8E41",
"/  c #CB9149",
"(  c #D4944A",
")  c #CF9D5C",
"_  c #DEA55C",
"`  c #EAA149",
"'  c #F3A243",
"]  c #FFA748",
"[  c #ECAC5C",
"{  c #ECA856",
"}  c #F1AA54",
"|  c #FFAE58",
" . c #FFB15F",
".. c #D6A666",
"X. c #CDAA79",
"o. c #D3AD74",
"O. c #DCB173",
"+. c #D4B27C",
"@. c #CDA56D",
"#. c #E5AC63",
"$. c #E6AA65",
"%. c #E9B46E",
"&. c #F6B466",
"*. c #E5B572",
"=. c #E3B779",
"-. c #FEBA72",
";. c #FFBF7B",
":. c #FFC07E",
">. c #848484",
",. c #9B9681",
"<. c #9C9983",
"1. c #9C9C9C",
"2. c #A29E86",
"3. c #A9A58C",
"4. c #A7A38A",
"5. c #AEAB91",
"6. c #B1AE93",
"7. c #B6B296",
"8. c #B7B399",
"9. c #BAB69B",
"0. c #BEB99D",
"q. c #BAB597",
"w. c #BFBBA1",
"e. c #BFB4A3",
"r. c #AFAFB0",
"t. c #B8B8B8",
"y. c #CAB58A",
"u. c #DBBE8B",
"i. c #D7B985",
"p. c #C1BD9E",
"a. c #CABE9B",
"s. c #CDB898",
"d. c #D1BF98",
"f. c #E2BE84",
"g. c #C2BEA2",
"h. c #C4BAAD",
"j. c #CBBFA9",
"k. c #CBC09D",
"l. c #D4C39B",
"z. c #DCC699",
"x. c #E6C289",
"c. c #FFC485",
"v. c #FFC688",
"b. c #FFC88D",
"n. c #EACA97",
"m. c #FFCD99",
"M. c #FFC990",
"N. c #C6C1A4",
"B. c #C9C5A6",
"V. c #CDC8A7",
"C. c #C7C3A9",
"Z. c #CAC6A9",
"A. c #CEC9AC",
"S. c #D5C9A5",
"D. c #D1CDAE",
"F. c #D9CEAB",
"G. c #D8C9A4",
"H. c #D5D0AF",
"J. c #D8D2AD",
"K. c #CFCBB1",
"L. c #CDC6BF",
"P. c #D2CEB1",
"I. c #D6D1B3",
"U. c #D9D5B5",
"Y. c #DDD8B6",
"T. c #D7D3B8",
"R. c #DAD6B9",
"E. c #DED9BB",
"W. c #E2CDA1",
"Q. c #E6D1A3",
"!. c #FFD6AB",
"~. c #FFD6AB",
"^. c #E0DBB7",
"/. c #E1DDBD",
"(. c #E3D4B7",
"). c #FFDEBC",
"_. c #FFDBB5",
"`. c #E5E0BF",
"'. c #CCCCCC",
"]. c #CBC8C4",
"[. c #DFDBC0",
"{. c #D7D7D7",
"}. c #E2DEC1",
"|. c #EADFC5",
" X c #F9DFC4",
".X c #E5E1C2",
"XX c #E9E4C4",
"oX c #EDE8C6",
"OX c #EAE7CA",
"+X c #EDE9CB",
"@X c #E7E3C8",
"#X c #FFE2C2",
"$X c #F5E6CA",
"%X c #F2E6D2",
"&X c #F9EBD9",
"*X c #EDE9D7",
"=X c #EBECEC",
"-X c #E5E5E5",
";X c #FDF2E4",
":X c #FDF6EE",
">X c #F6F1EC",
",X c #F4F5F5",
"<X c #FEFAF4",
"1X c #FFFFFF",
"2X c #F7EFE1",
/* pixels */
"I.R.R.R.Y.Y./.U.Y.D.H.Z.p.p.I.H.I.E.Y.Z.R.Y.H.A.I.Z.H.T.T.D.A.B.Z.A.E.P.C.A.N.N.B.A.D.H.H.E./.H.U.B.A.N.B.A..X[.I.`./.V..X`.I.Z.B.A.E.E.E.E..XY.`.E.XX`.I.E.R.H.",
"I.U.R.R.J.U.`./.Y.H.A.Z.N.D.D.V.U.I.A.D.U.R.A.Z.N.D.D.R.I.A.Z.A.A.I.I.C.N.K.g.N.I.I.D.I.I.T.U.I.H.N.Z.A.P.}.I.Z.A.E.A.I..XT.N.N.A.R.I.`.XXE.R.E.E..XR.H.D.T.A.H.",
"D.A.A.P.U.U.U.I.A.D.A.N.N.N.Z.H./.T.A.D.B.B.A.D.U.U.P.T.I.D.Z.A.A.C.P.T.I.I.Z.I.H.Z.Z.A.T.T.I.D.g.0.N.I.D.A.A.P.E.E.T.H.H.N.0.A.`.E.`.`.E.E.I.U.I.D.T.A.U.}.Z.H.",
"P.A.V.D.I.U.U.D.D.U.U.Z.P.R..X.X}.D.E.I.V.H.E.E.E.R.I.A.I.I.Y.H.T.I.R.R.U.A.U.E.H.H.U.I.I.U.R.A.Z.D.[.I.A.A.I.I.E.E..XI.B.H.R.U.R.J.I.R./..X.XT.T.U.H.H.E.D.I.T.",
"D.Z.P.U.Y.XXR.I.R.E.P.B.E..X.X/.I.P.I.I./.U./.}.E.E.U.I.U.E.I.Z.U.U.I.I.H.H.I.R.D.V.I.Y.E.Y.P.Z.P..XT.A.[.E.E.E.R.E.I.A.E.E.T.I.H.T.U.I.R.Y.H.Z..XR.D.I.H.A.P.I.",
"N.Z.E.E./.E.D.A.P.A.A.R.U.U.E.Z.C.I.A.I.U.U..XU.H.H.I.U.I.D.Z.Z.I.D.A.B.B.Z.B.A.N.Z.E.}.E.Z.N.N.I.A.P.I.I.I.E.Z.Z.A.Z.I.K.Z.T.Z.V.A.Z.V.A.V.Z.A.I.I.A.0.N.A.N.A.",
"D.U.I.I.I.I.A.B.I.R.E.A.P.R.R.A.Z.P.T.E.E.E.E.U.U.I.H.D.P.H.Y.I.H.U.V.H.D.V.V.H.E.U.I.P.T.B.0.B.E.E.U.I.I.R.U.Z.C.N.H.R.R.U.I.A.I.V.B.N.H.T.I.Z.A.T.A.Z.A.Z.Z.H.",
"I.E.V.P.P.A.N.D.U.E.Z.9.A.A.Z.N.w.I.D.U.@XE.H.H.E.T.N.A.Z.A.A.H.H.D.H.V.p.D.Z.H./.T.Z.Z.Z.p.w.E.I.E.A.A.R.H.A.0.q.Z.R.`.XXR.A.A.T.B.C.C.N.H.I.D.P.H.H.N.N.I.Z.A.",
"I.A.g.Z.Z.A.H.E.U.I.A.N.I.g.I.Y.A.D.A.U..XU.Z.A.D.D.D.D.A.D.A.A.I.P.I.T.I.U.I.`./.A.p.B.N.0.A.E.D.Z.g.Z.H.A.N.C.C.I.R.XX.XZ.k.A.A.A.A.K.D.I.D.Z.V.D.A.Z.D.U.D.I.",
"/.A.I.P.A.T.A.I.B.B.Z.D.P.D.E.I.9.N.P.U.}.I.H.V.V.V.Z.A.A.K.A.A.E.[.U.I.A.I.U.`.XXT.I.P.Z.D.I.I.p.g.Z.D.U.H.B.g.9.E.`.`.`.Z.B.B.A.A.N.K.D.H.A.H.Y.U.A.A.N.Z.A.U.",
"I.A.A.N.I.D.D.P.N.N.P.Z.A.P.P.A.N.B.P.U.T.I.E.H.D.B.N.Z.N.N.N.B.D.D.Z.N.A.E.U.D.I.A.A.C.P.A.D.D.A.D.I.I.I.Z.N.g.I.`.oX`.E.H.A.Z.T.A.C.A.T.D.H.R.Y.D.Z.N.Z.I.I.I.",
"N.N.9.N.A.Z.A.H.U.A.A.Z.A.C.g.B.B.A.K.P.I.D.D.T.A.V.N.Z.p.0.Z.Z.A.N.9.g.A.I.D.A.C.g.9.N.N.Z.A.U.Y./.Y.R.A.Z.D.Y.XX.XXX`.U.I.Z.I.A.B.B.T.R.I.R.U.U.A.g.C.Z.I.P.V.",
"B.B.N.V.U.R.Y.Y.P.Z.P.g.0.C.C.g.g.g.0.Z.A.D.Z.B.Z.Z.A.A.0.9.g.9.N.0.N.V.A.V.p.w.N.0.N.D.I.U..XXXU.U.Y.H.A.D.H.A.Y.U.D.Z.D.B.N.B.A.D.XXoXR.E.U.A.I.A.P.T.I.A.A.B.",
"E.Y.^.`.`.Y./.H.J.Y.I.k.Z.A.A.N.0.9.Z.K.T.D.Z.I.A.p.w.7.9.0.N.C.Z.U.I.A.A.D.N.N.A.P.I.Y.U.H.E.E..X.X}.D.D.U.I.B.T.I.D.D.A.N.A.I.E.I.T.A.S.E.I.E.E.}..XR.P.E.P.D.",
"H.J.Y.Y.H.H.D.I.U.D.D.Z.Z.D.A.Z.B.C.A.A.I.T.Z.I.C.w.8.7.0.Z.I.D.A.H.P.P.I.P.C.C.Z.N.Z.I.Z.B.B.H./.I.A.D.K.H.I.A.U.D.Z.Z.A.H.U.Y.I.B.p.A.I.K.}.E.E.Y.R.U.Y.P.Z.V.",
"A.Z.A.Z.B.N.D.E.D.V.p.Z.N.C.D.P.A.I.E.E.R.E.P.A.B.C.C.A.T.I.K.B.N.N.G.%.G.A.g.C.A.N.0.N.Z.p.Z.E.I.K.Z.K.A.Z.I.A.E.Y.U.T.E.U.H.I.K.N.Z.T.I.R.A.T.P.I.D.p.g.N.Z.I.",
"B.N.A.A.H.T.Y.Y.I.Z.N.w.N.B.A.I.H.H.`.Y.`.`.E.A.0.Z.H.T.I.A.Z.p.N.D.n.M V i.A.P.E./.I.D.A.Z.R.R.U.K.Z.g.N.Z.D.I.I.I.U.U.Y.I.I.I.Z.P.Y.P.C.D.P.P.D.Y.C.N.I.I.P.I.",
"0.N.H.R.I.R.H.A.A.N.0.N.q.N.D.I.Z.B.V.H.Y.I.Z.H.D.Z.A.I.D.Z.B.Z.H./.x.x k B O.S.Y.I.Z.Z.I.B.k.N.A.N.g.C.N.N.K.D.B.g.g.A.A.B.A.D.T.Y.P.Z.V.N.C.P.Y.D.D.R.[.}.K.N.",
"H.E.Y.J.R.H.Z.A.B.9.Z.Z.q.0.Z.Z.Z.H.I.R.T.I.Z.Z.N.N.A.R.A.g.g.N.U.U.#.x k k m { S.Z.g.N.N.N.p.k.k.0.K.A.w.g.B.A.g.N.V.A.Z.A.U.I.P.V.Z.K.K.C.V.Z.B.P.C.N.C.Z.Z.Z.",
"XXE.R.H.V.N.B.Z.N.N.A.w.g.A.R.E.T.E.`.R.R.I.Z.9.0.N.Z.Z.g.w.A.H.U.P.` k x k k x ` i.Z.B.k.B.A.D.Z.B.T.g.N.A.H.I.A.I.A.A.Z.K.P.A.Z.A.Z.K.N.g.Z.Z.V.C.g.P.Z.U.R.^.",
"A.D.B.Z.A.B.A.B.A.K.B.w.K./.XXY.R./.R.A.Z.A.N.9.g.B.Z.g.N.A.I.I.D.S.' x k k x k k C +.H.I.I.H.H.I.A.B.g.T.R..X/.E.U.I.B.K.I.Z.N.B.Z.Z.Z.K.V.P.D.P.Z.U.P.A.R.I.U.",
"I.A.N.C.B.B.B.A.Z.Z.N.A.I.@X@XD.V.I.A.N.A.Z.C.N.p.A.H.I.I.I.I.U.D.z.S k x k k x k k M *.S.I.I.I.U.A.C.D.R./.Y.D.A.I.D.B.I.Y.K.I.P.P.U./.}.D.P.Z.Z.U.Z.C.A.D.g.B.",
"B.9.w.g.N.p.k.0.9.0.A.I.H.E.Y.H.U.H.w.N.g.8.9.N.A.H.}.E.I.D.U.P.P.u.M k k x k k x k k x *.D.A.K.A.N.C.K.I.U.U.I.K.R.B.D.I.A.K.I./.^.^.U.Z.C.P.K.D.K.N.I.E.A.N.D.",
"g.N.k.N.g.0.0.p.K.I.E.D.R.Y.Y.H.R.Z.C.A.w.9.N.I.E./.E.R.E./.Y.A.A.f.x k x k x x k x k k N O.A.P.T.T.I.A.I.U.U.U.Y.U.I.U.A.Z.I.I.R.Y.U.C.Z.P.Y.A.S.I.^.U.I.A.U.I.",
"K.N.p.N.Z.H.B.H.E.J.I.H..XY.E.I.B.0.0.9.0.k.N.I..XXXY.T.E.E.P.p.S.[ l l l l l l l l l l k M #.d.D.}.D.A.[.R.U.E.U.D.D.I.A.B.A.T.I.^.A.B.U.U.P.B.T..XXXE.S.I.P.Z.",
"B.B.U.I.T.H.A.I.H.A.Z.T.I.D.I.g.0.q.5.q.7.0.A.I.U.E.U.U.A.w.y.O.D m l l l l l l l l l l k k j n ( z.P.I.D.T.E.I.Z.K.Z.A.N.N.D.A.A.Z.V.U.P.p.B.Z.U./.E.C.C.D.g.C.",
"U.K.U.I.Y.R.I.R.T.U.Y.T.I.A.B.Z.N.8.8.0.C.Z.T.E.H.Y.H.Z.a._ C l k k l l l l l l l l l l l l l g f N &.z.R.I.I.U.D.A.D.A.A.A.I.K.D.P.I.V.Z.V.P.C.E.E.I.Z.A.Z.N.A.",
"/./.U.I.Y.Y.H.U.D.I.I.I.Z.Z.Z.w.q.C.w.A.XXXXE.E.XXE.B.o.C l k l l l l l l l l l l l l l l l l l k k x Z =.D.U.A.D.R.H.B.U.Y.I.T.U.P.Z.N.g.C.V.P.A.I.A.9.N.Z.V.I.",
".XR.H.E.H.I.R.Y.I.A.Z.B.0.g.0.0.Z.A.B.A.XXE.A.E.E.J.#.x l l l l l l l l l l l l l l l l l l l l l l l k x { S.I.U.I.N.D./.E.A.I.I.V.g.N.V.V.A.Z.N.C.N.N.A.P.D.U.",
"`.U.I.I.H.T.A.H.Z.p.0.9.0.g.0.A.T.A.N.T.`.H.I.I.S.} x k l l l l l l l l l l l l l l l l k l l l l l l l k x ` l.D.Z.N.I.`.K.Z.Z.B.Z.g.D.T.A.P.N.D.H.A.P.N.D.U.E.",
"J.H.Y.K.T.Z.0.0.0.7.9.g.N.N.Z.A.R.P.A.T.A.K.Z.k.} x k l l l l l l l l l l l l k l l l l l l l l l l l l x k k b k.A.D.D.A.B.B.K.I.P.I.U.T.P.A.S. X/.T.A.D.Y.Y./.",
"V.H.K.K.Z.9.6.7.9.g.N.B.g.0.N.D.D.Z.I.K.k.A.D.{ x k x k l l l l l l l l l l k x l l l l l l l l l l l l k k k j ( k.D.B.B.D.B.E.Y.I.P.R./.U.U.XX<X.XH.I.P.P.P.I.",
"A.0.9.9.9.8.p.B.N.N.N.p.w.g.U.E.I.Z.A.A.E.Y.%.x k x k x k x k x l l l l l l l l l l l l l l k l l l l l l l l l h ) B.S.T.E.I.H.T.I.E..XI.D.Y.:X1X2XF.A.N.Z.0.N.",
"Z.9.q.p.0.p.H.A.D.V.N.Z.A.}.}.I.A.A.E..XOXn.M k g 1 r x k k x k l l l k l l l l l l l l l l x k l l l l l l l l k e +.`.OXR.I.U.S.U..XA.A.D.%X1X1X<X/.Z.N.p.N.0.",
"p.N.N.A.p.A.N.g.Z.Z.A.U.E.U.P.I.K.H.oX.XH.` k k :   $ k x k x k l l l l l l l l l l l l l l l k l l l l l l l k l f v G.E.D.H.H.V.B.p.9.0.P.<X1X1X1X%XD.N.N.A.g.",
"A.Z.B.A.I.A.A.I.A.A.A.D.D.Z.A.E./.`./.I.+.x x w O   X 7 k x k x l l l l l l l l l l l l l l l x l l l l l l l x l j q @.A.K.A.P.U.D.A.A.A.&X1X1X1X1X:XD.U.R.E.S.",
"A.A.A.A.P.P.I.A.D.A.I.A.Z.P.OXoXY.I.H.k.V l x 1 .     , x k k k l l l l l l l l l l l l l l l l l l l l l l k k k k w c S.}.Y.K.P.Z.A.S.(.<X1X1X1X1X1X|.U.I.P.Z.",
"A.N.Z.A.I.P.Z.g.g.0.g.A.Y.+X+XU.Z.B.0.o.x k x 1       : x x k x l l l l l l l l l l l l l l l l l l l l l l x l k k g 0 +.T.p.N.D.Z.Z.B.[ v.).;X<X:X#XQ.B.C.g.0.",
"C.N.Z.D.A.N.N.Z.N.0.I.Y.XX.XI.g.0.N.Z.} k k x 1       : k k x k l l l l l l l l l l l l l l l l l l l l l l l l k x j 6 ( V.N.A.I.U.^.Q.M k N D ] Z N A s.K.Z.C.",
"Z.Z.P.Z.N.B.B.A.I.E.E./.^.P.N.V.N.H.W.D k x k 1       : x x k k l l l l l l l l l l l l l l k x l l l l l l l l l k j q t l.}.R.D.I.^.%.x k k k k k l m i.P.P.P.",
"A.D.I.D.U.Y.^.U.E.I.T.I.I.A.U.B.I.Y.n.x k x x 1       > k k k x l l l l l l l l l l l l l l l k l l l l l l l l l x l q 8 i.I.N.A.I.G.Z k k x k k k k x i.A.B.Z.",
"V.I.I.R.H./.^.E.H.Z.I.B.Z.A.D.D.I.E.*.x x k x 7 X   . < k x x k l l l l l l l l l l l l l l k x l l l l l l l l k k l w 8 ..S.Z.P.F.} k k x k x x x k k X.Z.g.k.",
"D.Z.A.P.E.E.I.A.w.Z.H.Z.I.I.H.^..XR.[ k x k x g $   O f x k x x l l l l l l l l l l l l l l l l l l l l l l l l x l l w 8 ^ A.I.W.} x k k x k k k x x x x.A.0.B.",
"D.D.U.H.Y.E.I.B.B.Y./.A.5.Q Q ! ~ @.S k k k x k < $ , k k x k k l l l l l l l l l l l l l l l l l l l l l l l l k l l w 8 v x.[ N l l l x k x k x k j m x.A.H.T.",
"R.I.U././.U.D.A.P.|.D.3.+       . $ g k k x k x z w g k k x k k l l k k k x k l l l k x k x l l l l l l l l l l l l l w 8 0 x l k k x k x k x k k k k A k.Z.A.A.",
"D.I..XE.Y.A.g.N.D.P.D.W .         X q k k k k k k k k k l k x k k k k k k k x l x k k k x k l l l l l l l l l l l l l w 8 0 j l l l k x k x k x x k k _ N.g.B.H.",
"XX.XU.D.I.g.q.Z.E.E./.2..         @ #.] D N x k k k k k k k k m N Z D  .v.~.).#X).c.Z k k l l l l l l l l l l l l l j q 8 0 l l l l k x k x k k k k D l.A.U./.U.",
"XXE.P.B.Z.9.g.I.[.}.I.9.@       . I <X<X&X).~.M.:.;.-.-.-.:.M.~.#X&X:X<X1X1X1X1X1X1X_.M k l l l l l l l l l l l l l z 8 8 0 l l l l l k x k x k k C x.Z.I.@XY.U.",
"E.Z.0.w.0.N.U./.I.Z.N.0.,.@ . o ; =X1X1X1X1X1X1X1X1X<X<X<X1X1X1X1X1X1X1X1X1X1X1X1X1X<X| k l l l l l l l l l l l l l f 8 8 w l l k k x x k k k x S x.A.A.E.U.D.Y.",
"E.A.B.N.B.I.T.I.N.0.g.N.I.].r.'.,X1X1X1X1X1X1X1X1X1X1X1X1X1X1X1X1X1X1X1X1X1X1X1X1X1X1X:.k l l l l l l l l l l l l l w 8 8 r l l x k k k k x M { W..XI.V.A.K.D.U.",
"Z.C.w.w.I.A.B.N.g.0.Z.B.S.%X1X1X1X1X1X1X1X1X1X1X1X{.t.1X1X1X1X1X1X1X1X1X1X1X1X1X1X1X1Xv.k x l l l l l l l l l l l z 0 8 8 g l l x x m C ' #.x.C.A.A.K.0.Z.P.A.Z.",
"w.8.6.w.Z.I.Z.A.P.N.Z.P.P.Y.%X<X1X1X1X1X1X1X1X1X,X% % <X1X1X1X1X1X1X1X1X1X1X1X1X1X1X1X:.k k l l l l l l l l l l l w 8 8 y O.u.x.i.+.X.y.k.N.C.Z.Z.N.7.q.g.K.A.C.",
"w.w.B.I.T.I.R.Y.Z.Z.I.A.Z.I.Y.XX%X;X1X1X1X1X1X,X>.@ t.1X1X1X1X1X1X1X1X1X1X1X1X1X1X1X1X| k k x l l l l l l l l l z 0 8 8 ^ p.Z.K.Z.C.Z.g.q.0.Z.Z.B.g.k.Z.A.Z.g.8.",
"T.E./.`..XE.T.V.U.E.I.A.P.E.Y.Y.F.D.T.(.].t.>.& @ 1.1X1X1X1X1X1X1X1X1X1X1X1X1X1X1X1X&XZ k l k l l l l l l l l l w 8 8 8 o.N.g.Z.Z.g.w.5.9.A.V.Z.I.T.R.B.Z.K.A.Z.",
"E.U.E.U.I.K.N.Z.R.A.P.U.E.Y.Y.E.I.D.A.p.* o # ; ].,X1X1X1X1X1X1X1X1X1X1X1X1X1X1X1X1Xm.x k l l l k l l l l l k r 8 8 8 v k.C.A.A.w.9.5.9.I.I.I.A.Z.K.K.K.K.I.Z.P.",
"[.I.H.Z.B.g.Z.I.P.U.P.I.E./.}.|.Y./.U.D.D.-X=X,X1X1X1X1X1X1X1X1X1X1X1X1X1X1X1X1X1X;X] k l l l l x k l l x k f 0 8 8 9 X.A.A.Z.N.8.5.C.E.I.I.Z.C.N.C.A.K.T.U.D.U.",
"oX+XE.T.A.D.R.`.`.E.R.P.R./..X^.I.I.D.Z.g.&X1X1X1X1X1X1X1X1X1X1X1X1X1X1X1X1X1X1X1Xv.x k x k l l k x k x k h 8 8 8 8 / N.T.E.E.A.N.K.}.I.A.A.C.N.B.Z.U.R.H.D.I.`.",
"[.T.A.P.I.A.V.U.U.I.P.Y.T.U.E.P.Z.g.p.N.g.Z.>X1X1X1X1X1X1X1X1X1X1X1X1X1X1X1X1X1X!.N k k l l l l x k x j f 0 8 8 8 3 ~ N.I.A.Z.A.T..XE.I.K.N.C.g.B.Y.R.A.N.B.A.E.",
"A.B.N.B.N.k.D.E.I.I.Y.I.A.Z.V.Z.g.g.g.Z.g.2.h.-X,X1X1X1X1X1X1X1X1X1X1X1X1X1X1X!.N k x k l k l l k k z w 8 8 8 8 3 u J w.R.A.A.Z.H.E.I.I.A.g.w.N.I.T.A.Z.Z.A.I.U.",
"A.C.Z.B.Z.T././.I.U.^.P.A.Z.D.A.N.A.A.Z.8.U R h.{.-X,X1X1X1X1X1X1X1X1X1X1X<Xm.N k x k k l x l l z f 8 8 8 8 8 3 u - U 9.E.H.B.Z.N.D.N.B.9.9.A.E.`.T.K.R.I..X`.T.",
"A.T.H.T.}.E.^.U.Y.I.P.D.Z.A./.D.V.Z.V.Z.8.U a T h.'.'.{.-X,X1X1X1X1X1X<X#X&.x k l l x x l l g w 0 8 8 8 8 9 5 L U U U 5.I.H.N.w.C.A.N.q.N.I.@X/.U./.XXT.R.`.Y.Z.",
"T.U.k.B.A.I.I.E.I.Z.N.Z.g.Z.I.V.C.P.Z.Z.C.2.s s T e.'.'.'.{.{.-X,X>X X-.Z k j l l j g f w q 8 8 8 8 8 8 2 G Y U J Y Y q.T.A.B.C.Z.A.K.T.E.}..XY.I..XI.B.I.I.Z.A.",
"N.N.Z.N.D.A.A.A.g.q.0.N.9.g.A.V.D.Y.B.A.V.6.U s T R 3.h.'.L.h.s.X./ y w w w w w 0 0 8 8 8 8 8 8 8 9 4 p a I W Y Y W 3.N.Z.N.g.N.I.Y.@X.XT.U.U.D.D.K.B.D.R.Z.N.A.",
"N.Z.Z.C.Z.N.Z.p.p.N.Z.g.g.Z.E.P.I.S.P.P.B.V.g.Q U U U T E H ^ t 8 6 6 8 8 8 8 8 8 8 8 8 8 8 9 3 5 G K - U ,.,.W <.q.A.K.Z.K.A.K.Y..X`.E././.}.A.I.I.U.I.I.B.A.A.",
"Z.C.Z.I.A.D.A.B.Z.B.N.7.Z.T.Y.E.E.A.I.H.Z.Z.I.Z.8.<.J - J J u i G 5 5 3 2 2 2 2 2 2 2 4 H G F K I U J P W <.4.9.Z.A.Z.Z.C.C.D.I.`.XXY.I.`.H.A.C.A.T.[.U.K.I.Z.N.",
"9.w.Y.I.A.I.Z.K.Z.B.C.N.A.H.I.K.D.I.B.N.N.B.T.H.V.0.4.<.U - - J P U I J u K - - u K K J I U J P J J I <.5.g.K.Z.N.N.9.w.w.Z.U.Y./.E.U.U.D.0.w.w.B.I.K.0.9.B.0.N.",
"B.H.R.H.I.I.A.A.I.E..XE.[.U.K.E.T.H.B.0.B.B.I.A.V.Z.V.C.8.7.3.<.Q W I P J P P U U U J I Y Y Y ,.4.5.K.T..X/.R.A.p.0.9.g.A.I.}./.@X.XR.A.N.N.N.g.A.T.A.g.Z.N.w.C.",
"E.`.Y.R.T.H.H.H.I.E.U.E.I.I.E.T.A.H.Z.Z.H.I.A.I.E.U.I.N.w.B.Z.Z.D.N.8.3.5.6.3.8.w.9.7.7.g.C.Z.I.I.E.E..XE.I.A.N.g.N.9.N.E.XX}./.oXE.Z.N.9.0.0.N.N.A.C.8.N.Z.B.T.",
"`.U.A.H.U.E.I./.Y.E.R.K.N.Z.D.I.T.I.N.Z.U.A.Z.A.D.Z.B.p.N.H.T.I.A.K.A.D.I.I.D.Y.Y.R.B.I.U.E..XY.`.E.E.A.N.g.9.0.N.N.0.A.+X.X/.Y.Y.K.C.w.g.g.N.0.k.N.w.A.U.D.A.E.",
"XXH.D.D.A.R.T.I.K.A.N.C.B.H.D.H.Z.Z.w.I.I.B.K.C.N.Z.0.D.H.A.I.P.K.E.Y.U.B.D.I.R.Y.A.A.H.I.Y.U././.E.K.N.9.0.q.9.g.K.A./.`.I.U.Z.B.Z.0.N.N.g.A.p.Z.U.I.E.I.I.T.`.",
"/.I.D.A.H.A.Z.Z.A.g.p.N.H.Y.I.A.D.Z.A.I.A.Z.C.C.K.D.T.Y.A.T.I.T.R.R.U.A.A.H.U.R.E.I.R.I.`.D.A.A.A.C.w.w.w.w.g.B.H.I.E.E.U.D.B.N.K.K.K.A.Z.N.H.A.Y..X/.U.E.`.Y./.",
"D.D.k.Z.A.0.0.Z.N.g.Z.K.I.I.B.V.H.P.T.Z.B.Z.Z.R.T.I.I.U.Y.U.E.T.P.A.A.D.D.D.H.U.I.E.P.K.D.p.0.g.N.w.0.g.g.0.C.R.Y.E.[.I.A.A.Z.A.K.D.g.K.E.Y./.`.Y.Y.U.E.Y.I.T.E.",
"B.N.0.g.N.C.A.A.p.N.Z.B.g.0.U.U.H.Z.Z.B.I.I.A.U.U.I..X@XR.I.A.Z.K.D.H.B.K.D.V.V.D.C.p.g.N.N.B.B.9.w.w.0.w.A.[.XX`.U.I.A.Z.B.N.B.A.C.R./.U.E.E.T.D.H.R.A.B.N.g.N.",
"I.g.g.K.A.K.A.N.A.A.B.N.Z.U..XH.A.N.B.I.E.A.I.U.I.H.`.I.A.H.B.A.Y..XE.I.Z.N.Z.Z.I.N.0.N.N.0.g.7.C.K.N.B.A.XX*X`.R.H.I.I.I.N.0.C.B.D.E.K.D.D.A.A.R.`.U.Z.0.9.0.N.",
"K.N.A.Y.R.I.Z.B.B.g.Z.H.}./.I.B.Z.p.B.P.Z.A.I.T.A.I.A.p.w.w.B.A.U.U.I.H.A.H.T.B.N.p.Z.Z.N.0.7.q.N.w.A.E.XXoX.XT.Z.N.N.C.Z.N.N.N.0.Z.Z.N.C.w.N.P.R.K.N.0.0.N.C.C.",
"U.T.T.R.I.I.H.H.Z.H.I.R.Y.I.g.k.V.A.I.A.N.N.Z.A.R.I.Z.Z.B.H.A.E.R.A.A.A.E..X/.H.A.k.B.N.N.9.w.H.A.T.`..XXXR.C.C.B.C.A.N.w.w.0.B.R.I.D.K.I.A.K.E.K.w.9.g.K.I.I.I.",
"Y.Y.H.D.K.U.Y.U.I.R.E.H.A.T.R.U.I.A.B.N.A.U.T.I.Z.N.A.H.I.I.U.I.I.I././.U.R.I.A.I.I.B.B.Z.I.E.Y.Y.`.`.J.V.A.R.R.Z.Z.Z.N.B.A.I.E.U.A.A.D.U.H.[.E.A.B.A.A.I.E.E.T.",
"Y.K.N.I./.H.A.K.I.A.Z.B.I.`..XZ.k.B.p.A.A.C.w.N.Z.N.N.D.A.N.Z.R.H.D.H.V.p.0.w.N.N.N.g.B.T..XE.I.E.T.B.B.A.U.E.C.q.w.w.B.Z.Z.A.I.I.A.B.D.B.N.K.Z.0.A.T.H.A.I.Z.A.",
"A.B.V.I.A.A.A.K.A.C.I.H.H.V.B.9.N.I.T.I.Z.N.N.P.H.I.I.E.I.Z.H.H.N.B.p.g.9.N.N.N.k.0.g.Z.H.I.T.E.I.I.I.A.Z.Z.9.8.0.Z.A.T.I.I.U.I.I.K.Z./.H.K.K.I.N.T.U.D.A.T.I.D.",
"D.V.D.D.Z.A.A.K.I.I.T.A.A.B.9.I.I./.Y.I.K.I.E.I.A.I.H.I.Z.D.T.A.A.C.N.B.0.Z.Z.Z.g.N.A.K.Z.H.T.H.B.H.T.Z.Z.w.9.I.B.A.E..XR.Y.Y.Y.A.P.Z.U.I.R./.Y.I./.Y.U.H..XR.D."
};
