/* XPM */
static char *coin[] = {
/* columns rows colors chars-per-pixel */
"80 80 227 2 ",
"   c #0C0F0A",
".  c #0D1206",
"X  c #0D130A",
"o  c #141C06",
"O  c #101508",
"+  c #141B0C",
"@  c #0E1A1A",
"#  c #181A1A",
"$  c #172009",
"%  c #1B250A",
"&  c #1E2A0B",
"*  c #162212",
"=  c #212D0C",
"-  c #24330D",
";  c #28360F",
":  c #253B0F",
">  c #293B0F",
",  c #273810",
"<  c #2B3D10",
"1  c #303F11",
"2  c #0E1E25",
"3  c #101F25",
"4  c #0F2027",
"5  c #102127",
"6  c #122229",
"7  c #0F2231",
"8  c #102431",
"9  c #132A38",
"0  c #262827",
"q  c #2B3133",
"w  c #343A38",
"e  c #25400F",
"r  c #28400F",
"t  c #264310",
"y  c #2B4411",
"u  c #2C4B12",
"i  c #314512",
"p  c #334B13",
"a  c #394E14",
"s  c #2F5013",
"d  c #335314",
"f  c #3C5415",
"g  c #3A5917",
"h  c #3C5B16",
"j  c #415716",
"k  c #415B17",
"l  c #435D18",
"z  c #436317",
"x  c #456319",
"c  c #486718",
"v  c #49661A",
"b  c #4D6B1B",
"n  c #516E1D",
"m  c #4F701B",
"M  c #54741D",
"N  c #59761E",
"B  c #57791E",
"V  c #5A7B1E",
"C  c #617F1D",
"Z  c #546F20",
"A  c #557421",
"S  c #5A7620",
"D  c #577922",
"F  c #5B7E20",
"G  c #617E21",
"H  c #163446",
"J  c #193B57",
"K  c #1C4059",
"L  c #3B4745",
"P  c #354E58",
"I  c #1E4466",
"U  c #1E476D",
"Y  c #2C556F",
"T  c #214E73",
"R  c #24527B",
"E  c #275A7C",
"W  c #3C6270",
"Q  c #404F4D",
"!  c #435756",
"~  c #496868",
"^  c #527777",
"/  c #5E801F",
"(  c #64831E",
")  c #68871E",
"_  c #66881F",
"`  c #6A891F",
"'  c #5D8222",
"]  c #5F8725",
"[  c #618522",
"{  c #658B24",
"}  c #6A8C22",
"|  c #658C28",
" . c #679026",
".. c #699227",
"X. c #6C9528",
"o. c #6E992A",
"O. c #729428",
"+. c #709C2B",
"@. c #53807F",
"#. c #265D89",
"$. c #2F6C8D",
"%. c #2B6994",
"&. c #2E7595",
"*. c #2C70A7",
"=. c #2D77A8",
"-. c #3175A8",
";. c #3179B2",
":. c #357DBC",
">. c #48758F",
",. c #367FC2",
"<. c #36849D",
"1. c #3689A4",
"2. c #3A94AC",
"3. c #3984BC",
"4. c #3894B6",
"5. c #598586",
"6. c #458392",
"7. c #5C9598",
"8. c #629393",
"9. c #508BAC",
"0. c #4498AB",
"q. c #4A98BB",
"w. c #6592B5",
"e. c #49A7B6",
"r. c #55ABB8",
"t. c #50ADB9",
"y. c #53B8BD",
"u. c #59BCBE",
"i. c #66A8B3",
"p. c #52C0BF",
"a. c #3781C2",
"s. c #3988C5",
"d. c #3C8DCF",
"f. c #3997C3",
"g. c #3D8ED1",
"h. c #3E93D1",
"j. c #3FA6C2",
"k. c #479BC9",
"l. c #5C9DC2",
"z. c #4295D2",
"x. c #439BD3",
"c. c #4A9CD5",
"v. c #45AAC7",
"b. c #58A8C7",
"n. c #4AB6C9",
"m. c #57B8C6",
"M. c #46A1D4",
"N. c #49A5D5",
"B. c #49AAD6",
"V. c #4CABD6",
"C. c #56A6D7",
"Z. c #4DB5D7",
"A. c #50B2D7",
"S. c #5BBDD5",
"D. c #51B3D9",
"F. c #56BBDA",
"G. c #58BEDB",
"H. c #64BBCC",
"J. c #70B3CD",
"K. c #7AB3CB",
"L. c #60ADD3",
"P. c #62ADD9",
"I. c #69B7D7",
"U. c #52C3C3",
"Y. c #5DC2C2",
"T. c #56C6CB",
"R. c #56CACB",
"E. c #4FC0D2",
"W. c #56C7D7",
"Q. c #5BC3DC",
"!. c #5EC9DE",
"~. c #5CD3D5",
"^. c #62C3C4",
"/. c #69C5C8",
"(. c #74C9CE",
"). c #68C9D5",
"_. c #62CDDF",
"`. c #74C4D5",
"'. c #77C9D5",
"]. c #6BD8DC",
"[. c #78D7D6",
"{. c #72DADC",
"}. c #5CC9E1",
"|. c #5ED5E2",
" X c #69C4E7",
".X c #62CEE0",
"XX c #64D2E1",
"oX c #69D6E2",
"OX c #66DCE3",
"+X c #6CDCE5",
"@X c #6CD3E9",
"#X c #70DFE6",
"$X c #75D6EC",
"%X c #77D7EF",
"&X c #6CE1E4",
"*X c #6EE4E9",
"=X c #73E3E8",
"-X c #74E3E9",
";X c #75EAED",
":X c #79EBEE",
">X c #85BAD1",
",X c #86D4CF",
"<X c #87CBD8",
"1X c #83D7D7",
"2X c #98DADB",
"3X c #A5DEDC",
"4X c #9EE0DF",
"5X c #AEE1DD",
"6X c #87E6E6",
"7X c #9AE6E7",
"8X c #89E6F8",
"9X c #91ECF8",
"0X c #9BF3F5",
"qX c #AFE3E2",
"wX c #A5E6EB",
"eX c #B4E8E6",
"rX c #A5EAF1",
"tX c #A9F7F8",
"yX c #B1F6F8",
"uX c #B3FBFB",
"iX c #C2E9E8",
"pX c #D4EFED",
"aX c #D9F0EE",
"sX c #DDF2F1",
"dX c #E4F4F3",
"fX c #EDF8F7",
"gX c #F2F9F8",
/* pixels */
"F / F V D ] F F F F F F F ' F F V / V F F / F F F F F F / F F F F V F F F F F F ' F V ' V F ' F F F F ' ' F F F ' V F F F V ' F F F ] F F F F ' V F F ' F ' V F ",
"F ] ] ' ' ] ' F F F F F F F V F / / / F F F F F F F V ' V / ' V V ' F F V F F F V F F F F F D F F F V ' ] ' F ] ' F F F F F F V F V V V V ' F V F F F V F F F F ",
"F ' | ] F | ' ' F F ' F F F F ' V V / V V F F F M D F F V V B V m b D F M c M V V m b B V F z b D D M M ] ' ' ' M ' F ' F ' D F F F F F F V ' ' F F F F F F F V ",
"F F ' ] ' ] ] ] F F F F F F F V V V / c z M D m h b c M B b z m d d c M h s b M M h h M M z d h z m z h D F b h h b M F M M M M B V D S F F F V F F / F V ' F F ",
"F F ' F F F ' F F V F ' V D F b c M B h s k z z s g d h c h d d s d d z g s g z z s d l z d d p u d d s z c d d u j b c g h c d c V M V F V V / F F F F F ' V ' ",
"F F F F ' D F F F F F D M z m z s h h u s u u s s s s u p p p u u d u t u d u y u d s t u d z u u t d u u p s s u p d d s d d s f g g M B V / V F / V F F V ' V ",
"F ' V V F F F F ' V F c h d d d u d u u s d d u u h c d s u h c d V b u d b d u s b z u u M ( z s h c u u h h d u t u s s u s u u u d x c B V V F F V ' F F F F ",
"F V F ' F F F F F F b g u u s s u d d d u c m g d m ( / M d m { M ` _ d z ] z u d / m u c _ ` ` M V V s h V M h u u h z h M d u u y y i d b M B F F ' V F F F F ",
"F ' F F F F V M m m c u d s u d z d M b f m C ( C C C ( ` M M ( ( V V b M S m h c V N z M [ ` ` ` _ / z B / B z u z B V V ( z c h e u u u f b N B ' F F F F F F ",
"V V F F F F F z d d d u s s z c ( V V V m V B C C C j j f j j f h f j j j f f f f k j j j n V [ { / ( / / V B m b B / _ / ( ( ( h u u t t i z b M B F F F F F F ",
"' V F F F V V c s s s s s k _ _ ( V ( V V B V ( b j ; = % = = - = = - = = = = - ; = = = - i b F / { / / / / F V V V V B B ( ( ( B V g u t r u z M B ' F F F F F ",
"F F F F ' m c c p s d h d M ..( M V V V V B B m j ; = % o % & & = & & = & & % = & % & % % - i b V ] [ [ ] / F F V V B B B V V ( ( ( c u y t r p h m M F F F F F ",
"F F F F V m d d u u h ) ( ( ` / C N V N N M x j ; o $ $ + % & & & & & & & & % % $ $ = % % = - i k n [ [ F F F ' / / / / B B / B ( ` M u u u t y p c n D F F D F ",
"' V F F V M d d u d h ( ( V ( V N C N V M j 1 = = = = $ $ & = & & = & = & & % o $ $ % = & = = - ; i n N F D ' ] / / / / B B V B V ' V c s u u t y h c ' F F ' ' ",
"' V F F V B k u s m N ( ( V B B N N M M l < = = = $ = o % = % o o o o o o o o o o O o o o o o + + % 1 l m D / { / / / / V V ( V B V V B h d t t , p v ' ' { ' F ",
"F F F F V M d u u m ( ) ) ( V V N M b j 1 = o = = = = = & & O @ 3 6 8 8 8 7 7 7 6 8 8 8 6 8 8 6 2   o 1 z ' { { { { ( / / V V B B V V V B d u t < p l D ] ] F F ",
"V ' / / D B h s u z / V V V / B M b a ; = % = % % = % = = . 7 Y #.:.,.,.a.a.,.z.C.s.a.a.a.s.:.*.E J X % i M { | { { [ ] / F F N B V V V M c s r : i k b F F F F ",
"F V ' B B M z u u c ( / B V B M M j - = = = % = = = % o . 9 *.*.&.f.x.x.x.z.z.$X9XV.h.z.h.h.h.1.&.;.T   % a D | { { { { / N S N B V V V ( B d r : i g M D F ' F ",
"F F F b h h d u u z / V B B / / m i % % & = = = = = O   9 *.z.f.&.4.A.N.V.V.V.@X9XF.B.B.V.Z.v.<.1.h.s.T @ . j ] ..| { [ A n n M V B M / ` M u : > i l M V F F F ",
"' V ' D g s s s u u b B M B B M j - = % & % = & = o   q $.z.z.V.2.2.W.G.F.G.F.$X8X}.F.F.F.}.v.1.v.B.z.,.L 0 + c { { ' D Z n c b b B / / ( m t e : i l M V F F F ",
"F F F ] c s s g c b B B n M M k < & % & & = & = o X w Q W x.N.F.n.0.T.XX!.!.!.oX@X.X.XQ._.|.e.e.}.Z.N.9.L q 0 o k D S F F [ D F / / / / V h u u r y j M N V V F ",
"F F F F D g s g B V V V S M j < = = % % % & & o O q Q ~ ~ q.D.G.OXn.n.*XoXOXoXoXoXoXoXXX+X~.t.T.}.F.V.>.! P L 0 + k [ | | | { { { / / / ( ( z t > r f b M V F F ",
"F F F F D b g s c B B V V b i = % = % % % = O . q Q ! 5.@.0.G.!.+XW.y.].:X;X;X;X;X;X:X;X;XT.y.&X|.}.D.7.^ ~ ! w 0 % M ....{ { { / / / / ( ` z e : > f c V V F F ",
"F F F F A b h t d b B V V b < = & & = % = o O 0 w ~ ^ 8.i.Q._.XX=X&Xu.p.U.U.U.U.U.T.U.U.p.m.R.:XoX.X!.m.8.5.^ ~ L 0 - { ..| { { { / / / ( V d r : r f b B V F F ",
"F F F D z d d u s h b V F b 1 = & & & = & . 9 P L ~ 5.r.G._._.#X;XR.H.<X`.I.`.`.`.`.I.`.`.<Xy.&X=XoX.XQ.J.i.5.~ P P @ v { [ F [ [ [ ] / ` M h u < < f c B F F V ",
"' F F F M h d d z M B V F n < = & & = & . 9 -.z.6.6.i.S._..X#X:XR.^.I.q.k.z.z.z.z.z.c.x.q.b.).y.&X:XoX.XW.u.6.6.9.,.T * v F D D F ' ' [ ) ( z r , y p c M V F F ",
"F F F F M l s d M C V S S c < = & & % . 9 *.h.h.N.A.G._.].#X:XR.^.I.z.b.b.D.A.A.A.A.A.Z.b.x.C.`.Y.&X;X].).Q.Z.V.x.h.s.T * b | | [ [ { [ ) M h u u t y l b D F F ",
"F ' M h d d u s h M G M b l y & & = O 6 #.s.N.Z.A.G._._.#X:XR.^.I.z.N.G./.XX_._._.!.XX).H.D.z.C.(.y.&X;XoX.X}.F.D.B.h.;.J # D | [ { { [ [ / V h y : i k b B F F ",
"F F M d s d h m M V F S n c 1 = = & . K $.&.4.n.}.XX].+X:XR.H.I.z.N.F.XX).].+X+X{.&XOX(.oX}.A.z.C.`.m.&X=X].XX|.W.v.1.&.E @ k F { { { [ ' / z u : ; p f b S D F ",
"V ' F h s s b ` ( C V ' ' n i = = = O U =.1.1.2.n.W.*X:XR.^.I.z.N.F._.&X[.qXqXqXqXqXeX2X+XoXQ.D.x.C.(.m.&X;XOXm.e.1.<.=.*.2 j S S [ [ [ / z u e : : u f c B V F ",
"F F V m h u g ( ( V [ [ [ M y = = & O R h.B.n.v.e.t.U.U.^.I.z.N.F._.&X{.iXfXsXsXaXaXdXgX2X&XoX!.D.x.C./.u.T.m.e.e.v.Z.M.:.6 f A ' { { _ ' b z h d u u y l M B F ",
"F F D b g u u z ( ) ( [ [ M i = & = X R g.M.Z.}.].~.m./.`.k.N.G._.#X{.iXdX,X(.[.[.[.[.eXfX2X+XoX}.Z.k.b.[.y.R.|.|.Q.B.z.:.3 a S ] ..{ { ] ] ( ( b u y p g c M ' ",
"F F M h d u h N ) [ F F A A i = = = . R g.M.A.Q.XX*X].^.J.q.b._.+X{.iXdX,X{.tX<XK.K.<X8XeXfX2X+X].H.b.k.'.U.:X#X_.D.V.z.,.6 f n S { } | | / / m p > > p h b A D ",
"F ' F M z d z V ) [ ' F S b i = = % . R g.c.A.G.XX&X&XY.C.M.Q.).(.iXfX,X6XtXwXw.>.w.rXrX8XiXdX2X(._.A.c.'.T.;X]._.G.V.z.:.3 b | F / {  .{ ( M s : e r f b b ' S ",
"V ' / M z p u d b ) } } { A i = & % . T g.c.D.Q.XX*X&XY.P.M.G.+X[.dX3X{.tXuX2X>.>.wXuXyXtX6XfXwX&X_.A.c.'.R.:XoX_.F.V.z.:.6 M +...{ { { { ` M z d u u p l D F D ",
"V F V b p d s c ( _ [ { { A i = = %   #.x.D.G.}..X&X&X^.P.M.G.oX[.dXqX9XyXyXK.-.9.J.wXuXtX7XdX7X&X_.A.c.'.R.:XoX_.F.D.C.a.3 M X.X...{ { { ] _ ( V c d u u c S B ",
"F F F c d u d ( ` ( ] { { A i = = % . #.8X8X8X$XXX#X&X^.P.x.G.+X&XdXrX0XyXtXw.9.6.i.tXuXtX0XsX4X&X_.V.c.'.R.:XoX@X8X8X9Xb.6 M o.......{ { { _ ( ( b u r i j c B ",
"' V V D c d d g M V ( { { n 1 % % % . E  X$X$X$XXX-X&X^.P.x.G.OX{.sXeX0XyXyXrX<X9.wXuXuXtX6XdX5X&X_.A.c.'.R.:XoX@X%X$X$Xk.6 M o.X.....{ { ` } ( h r : > p j c M ",
"F F F V M c f t s d M { { M y & % o . R h.x.A.Q.XX=X+XY.P.c.G.oX{.dXeX0XtXuXuX>X<XuXuXyX0X{.dX3X#X_.A.c.'.R.:XoX}.D.V.x.:.6 A o.X.......{ _ ` ( h t : : a k n V ",
"F F F F B m l u s h m { { S y - = = . R g.c.A.Q..X&X&X^.P.M.Q.oX[.sXsX6X0XyXwX>XyXuXyXtX[.3XgX3X[._.D.c.'.R.:XoX.XG.V.z.:.3 v | ......{ { _ B h r : > p f b M V ",
"F F F F M h s s d B ] { { V f ; = = O R g.M.D.Q..X=XOX^.b.v.m./.[.1XdXpX6X0X2XwXuXyXtX[.3XfXqX{.).S.b.k.(.U.;XoX!.D.V.x.:.3 f B G | [ | { { V z t ; < p l b B F ",
"V ' F F ' b d s d h B { { ] M p ; = . R g.c.D.}.+XOXR./.K.k.A.!.oX&X1XdXpX1X=X6X6X#X[.2XgXqX].-X_.F.b.b.1Xm.].*XXXG.V.h.:.5 x C [ | | | { { _ F g y y p x M V F ",
"F F V ' D M h d z m V { {  .{ M a - O R h.V.F.Z.n.y.u.m.(.P.x.V.Q.oX*X[.dXaX3X3X3X3XeXgXqX].&X_.F.N.C.`.Y.m.y.y.n.F.Z.x.:.6 x [ ] | | | [ [ c f u : y p x M D V ",
"V ' ' b g d d b _ { / { {  . .{ n < O T s.4.1.0.e.U.].+Xm.(.P.z.V.Q.oX=X1XaXdXsXdXdXdX5X+X+X.XF.N.c.'.y.~.*XW.t.e.0.4.4.;.7 l D F F ' | [ N h y : ; < a x b B F ",
"F F F M g s s h ( ` ( { |  .....] g o I %.$.1.j.W.OX+X-X*XU.(.P.z.V.G.oX[.[.{.#X{.[.{.'.=X_.F.c.c.`.^.~.:X#X+XXXZ.4.&.$.#.2 c [ ] V F F ] / M d e : i f b M D V ",
"F F F B z u u s z ( { [ |  . ... .' & 9 %.3.v.Z.G.Q..XoX;X=XU.(.P.x.V._./.oX+XoXoX+XOX).).F.N.c.`.^.~.:X+XXX_.G.E.Z.f.*.U + S O.{ { ' ' ] b g u y : y l c B V ' ",
"F F / F m g u s c ( ( ] { {  .......b * J s.h.M.N.D.Q._.].-X=XT.(.P.x.A.m.}.F.F.G.G.Q.Q.b.B.x.'.^.~.:X#X.X!.W.D.V.x.g.%.2 f | X.....{ { V s u t : > p l M D F F ",
"' V V V c d u g V ( ` ] D V | ....X.| b o K s.h.k.0.r.!.!.oX;X-XU.(.C.q.k.x.x.c.x.x.x.M.q.b.`.Y.~.:X#XXX}.H.r.q.z.g.%.6 a o.O.......{ { / z u : - > d l b M F V ",
"F V ' ' b g s u c | ( ' F n F ......o...b + J >.! ~ 7.J._._.XX-X*Xp.(.K.L.P.P.P.P.P.P.P.L.<XY.~.;X#X_._./.7.5.~ W E 7 a O.o.o.......| { [ z u t : y f c A D F ' ",
"V ' ' | ' x d z ( ] [ G F V [ | ....o.o.o.p # L ! ^ 5.7.r.!._.XX=X&Xu.^.m.Y.Y.^.^.Y.Y.Y.y.^.R.:X#X_._.H.i.>.^ ! w 0 + | +.o.X.| | { [ [ ( M s r : y j M D F F F ",
"F F V ' m g d M ) ( M S M S { | ....X.o.o.[ = # L Q ~ ^ 7.m.Q..X=X].y.~.=X&X+X&X&X&X&X&X{.Y.Y.*X_.!.S.7.8.^ ! Q 0 + b O.o.X.[ [ [ S N S V M f t , i j M D F F F ",
"F F F b d d s g V C G M b b F { ......O.O.} G = # L ! ~ ~ q.F.Q.~.y.y.&X=X=X#X#X#X&X=X&X;XR.t.~._.W.S.$.^ ~ Q q + Z +.O.o...[ D A c n D V f u , ; y l b ' ] D F ",
"' V / M m g d m ` ( V S A b b S { ....X.O.} } F = # w L W k.V.G.E.e.n.+X.X.X.X.XXX.X.X_.XX|.e.n.}.D.B.6.P ! q + b +.o.o...o.{ D S A A S V h t : ; p v Z ] ' ] ' ",
"F F ' M z s s h n ` G S n Z A F { ....X...O.O.} G ; # w $.z.c.G.j.0.W.}.F.}.Q.@X%X.XQ.Q.Q.|.e.2.Z.V.x.a.P q + c +.o.o.X.....| ' D N D V ( V d e : p c D ] ' | ] ",
"F V ' M h s u h C ) F S F D F [ | { ....O.O.X...| [ < # J a.z.M.<.4.G.Z.A.A.V.$X8XF.A.A.A.Z.n.<.4.B.d.%.0 + b +.o.X.X.X.....| | ] D V / ( ` z t : a x D ' ' ] D ",
"V ' D B b g u z ) C V V F F [ | { | | ......X...O.+.| k % K a.;.&.4.B.M.c.N.x.$X9XA.x.c.M.M.M.=.&.s.%.2 < D +.+.+.X.X.X.....| | [ V B / ( B z u t y l M A ' ] D ",
"F F F B g s u z M N V V V / / _ _ { { ......X.+.X.o.+.+.S = J #.%.f.g.g.g.g.g. X8Xx.g.g.g.g.g.-.$.T 6 f o.+.o.o.X.X..... .| { { ( / ] B / c u t , y j b M F V ' ",
"F F F M g u s d d f M V B V / / ] { { { ......X.X.o.o.o.+.F * 9 H I I U I I I U T U I I I I U J H @ f o.+.o.o.o.X.X..... .| { { / / / / / / d : : < f c D V F F ",
"F F V B h u : u u k V B m / / / { { { { { ........o.o.o.+.+.F i t i < , , i y i i i < , , < < , < l o.o.o.o.o...X...[ { { { { ' ( / V V ( ` m r ; y f b M F F F ",
"F F V V M z p y d M B B B / / / / / [ { { { ........X.o.o.o.+.+.o.o.o.{ [ o.+.+.+.+.X.G G +...| ..+.o.o.X.o.o.....{ D ' { V ] / / / V B ( B f u t i h b M F F V ",
"F V F V B c f u d h B B / B / / F [ [ { { { { ....o...o.o.X.o.o.o.o.X.| ' X.+.+.+.+.o.[ [ ..+.| ..o.o...o.........| F D M b A D V V B V ( / s u y t f b B F F ' ",
"] V ' F B h s s u z / V B B B m B D / ] ] [ { | | ......X.X.| ..o.o.o.| ' | o.+.+.o.o.| F | o.o.o.o.o.........{ | { [ D b c M M V N ( ( ` ( h r : > f c M F F F ",
"V ' V F M l s u s z V V V V B M b M F V B ' { | { { D [ | D Z | X.X.X.| F | o.o.o.o.+.| ] | o...o.........| { { | { [ F b n A S V C V B B f d t t , a v M F F V ",
"F F F F B m d s u s c / V V B M n b V B D ' [ { { S A F A b v F | X.X.X.[ | | D | o.o.| [ | o.........| { ' [ { { { [ F A n N S V ( m d d u u , : < f v M F F F ",
"F F F F F b u u u u s c / B M M M n N N B / / _ _ / / ' m b Z S | ......| ' S c F ..O...{ { ...... .{ B m D D [ { / / / V D M V M C b y e : e : < < f b S F V ' ",
"F F V F F M h t r u u m ( V M N C M B N / / / / / / { ] M N F S [ ........[ n A S [ .... .{ .. . .{ ] b b A S D ] / / / V V ( M d l c u e : : e y a l b B F F F ",
"F F F F V B M f e e s M B ( V C V V B B B B / / / ] ] { S F [ G ' {  . .| { V F G [ | |  . . ...{ { / b n S S F V / V B B M m M s u u e t < y p f h b M B F F F ",
"F F F F ' D B c f t u s h ( V ( V V V N / B B / / / / / [ G [ [ [ _ { { { { G { [ [ } | { { { { { ] / m S F G G ( V / V V c s d u e - : : > i k c b M M F F F F ",
"F F ' F F F V M g u y t h m g M ` ( ` ( ( / V V / / / / [ G [ [ / { { _ } [ [ [ } } { { { { [ ] ( ` ` V S C ( n / ( B h g d u t u , - , < i f x b D V F F F V F ",
"F F V F V F F M f d y u u u u b N z ( V ( ` ) ( V M m c F V c N _ ( ( M V } [ } [ } ` { [ V M / ( M ` ` S G M u h [ b u u u u t : : , i p g z b M F ' V ' F F ' ",
"' V ' V F F F F M z u t : : u s u u g h V c M C z d d z V c u f ( ` c u f ( { [ l M ` [ V h g / M d g B c M l t t c z t t t t , ; : < p l c n V V F F V V F F F ",
"F F V F F F F F / b a a u t y : : t r s d u d f y u : h z u t u m b u y u M | m u p c ) n u d z z r y u u f d t : : u t : - , , ; y a j v M M V V F F ' F F F F ",
"F F F F F F ' ' ' ' c b f y y < : : t y t t u , : e : u t - : r u u : - : g D g : : g V d t , p s e : : t , t : - : y u , < i p p f l b M F F F F F F F F F F F ",
"F ' F F V ' D ] ] ' D A c h f a p y t , : : t , : : e y r > > r u , , , : u d t : : r d u t - < u : : : < ; > : r p f p i p f g c b n N M V F F ' V V D F ' F F ",
"F F F V ' B D ' ] D D D M b c z l f p p y < y i y p y y i i d u y 1 i s s u u , > > y u u : ; y y > > i p p p i a f l l h j x b M B V V V ' F F ' B F ' F F F F ",
"[ F F F V ' V / F D ' D V D M M M b c l j f f f k z f f j j l z l g g l x d y 1 i a f u , : i a u u p f l x l l l c M M b b b M D V F V F F F / V ' B ' F F F F ",
"V F F F F F / D F D F F F F D B B B M b c b b c b b b b c c n M D n b A A b g f f l c j f p f l l k k c n M M b M A B B B M B B V F V F F ' ' ] ' ' ] ] D F F F ",
"' V V ' B ' F F F F F F F F V F V V V D B B B S V V D M M M M S D D D D F F n x c m M n c x c n n b b b M V V V V D F V D F F F F F ' V F V F ' ] ' ] | ' ' F ' ",
"F B ' F ' F ' F ' F F F F ' D F V ' F F F F V F F F F V S V V V F D D D F F B M M V V M M b M B V B M B D F F F F V F ' F F V F ' F F F F F F F ] ] ] ] ] ' F F ",
"V ' F V V F V F F F F F F F ' F F F F F F F F F F F V ' V F V ' F F ' F F F D V B V V V B D B V V V V V F F F F F F F F V ' ' V V F V ' F F F F ' ' D D ' D F F "
};
