/* XPM */
static char *coin[] = {
/* columns rows colors chars-per-pixel */
"40 40 191 2 ",
"   c #171F05",
".  c #1A2307",
"X  c #1B2409",
"o  c #1E290A",
"O  c #1A251A",
"+  c #172217",
"@  c #212D0C",
"#  c #24320D",
"$  c #273E0F",
"%  c #293C0F",
"&  c #2A3E10",
"*  c #273D10",
"=  c #182A26",
"-  c #182D2E",
";  c #172926",
":  c #1B3439",
">  c #29362B",
",  c #293D37",
"<  c #274010",
"1  c #2B4311",
"2  c #2E4A12",
"3  c #304612",
"4  c #334C13",
"5  c #384B19",
"6  c #355314",
"7  c #3A5515",
"8  c #3C5B16",
"9  c #3F551A",
"0  c #354823",
"q  c #3B5526",
"w  c #2E4C39",
"e  c #32413C",
"r  c #415D17",
"t  c #435E19",
"y  c #416017",
"u  c #456319",
"i  c #49661A",
"p  c #476819",
"a  c #4C6C1B",
"s  c #506F1C",
"d  c #4F711C",
"f  c #54741D",
"g  c #57781E",
"h  c #5A7C1E",
"j  c #59771D",
"k  c #405E26",
"l  c #466524",
"z  c #4C6D24",
"x  c #4D6E2A",
"c  c #40612B",
"v  c #547420",
"b  c #577921",
"n  c #5B7E20",
"m  c #1E3D4C",
"M  c #1F404F",
"N  c #25484E",
"B  c #384847",
"V  c #364847",
"C  c #2E4A54",
"Z  c #234856",
"A  c #364D52",
"S  c #295362",
"D  c #28576F",
"F  c #23516F",
"G  c #2B5A72",
"H  c #275A7C",
"J  c #295D78",
"K  c #2C617E",
"L  c #366879",
"P  c #41595A",
"I  c #48676B",
"U  c #497077",
"Y  c #4D7378",
"T  c #51797C",
"R  c #5F801F",
"E  c #61821F",
"W  c #5D8122",
"Q  c #618522",
"!  c #658B25",
"~  c #688F26",
"^  c #679027",
"/  c #699127",
"(  c #6B9428",
")  c #6E992A",
"_  c #709C2A",
"`  c #2C6182",
"'  c #376580",
"]  c #2E6E99",
"[  c #2F6991",
"{  c #306991",
"}  c #2E7099",
"|  c #38779D",
" . c #3279A5",
".. c #537F84",
"X. c #477684",
"o. c #3882B8",
"O. c #3987B8",
"+. c #3C94B5",
"@. c #3F96BD",
"#. c #3685AC",
"$. c #45829D",
"%. c #4D8491",
"&. c #5B969F",
"*. c #589BA7",
"=. c #408DB4",
"-. c #419FBB",
";. c #4A92B1",
":. c #57A3B4",
">. c #5FB1BE",
",. c #6BA7BB",
"<. c #3E93C3",
"1. c #3F90C8",
"2. c #429CC3",
"3. c #4395CA",
"4. c #469AC6",
"5. c #469ED3",
"6. c #4AADC3",
"7. c #49A5CA",
"8. c #56ACCE",
"9. c #59AECD",
"0. c #54A9C4",
"q. c #4CB0C9",
"w. c #5CB3CC",
"e. c #53BBCA",
"r. c #55B8CC",
"t. c #46A1D3",
"y. c #4CABD5",
"u. c #4AA9D8",
"i. c #4CA5D6",
"p. c #54ADD3",
"a. c #56AED6",
"s. c #4EB2D4",
"d. c #53B1D5",
"f. c #59B2D1",
"g. c #5DBBD2",
"h. c #52B3D9",
"j. c #56BBDA",
"k. c #59BEDC",
"l. c #54B8D3",
"z. c #61BCCB",
"x. c #60B5CA",
"c. c #76B6CA",
"v. c #63BED1",
"b. c #67BFDD",
"n. c #58C2CD",
"m. c #5FC9CE",
"M. c #58C2D5",
"N. c #5DC9D4",
"B. c #5CC4DC",
"V. c #5ECBDC",
"C. c #57C2D2",
"Z. c #62C5CD",
"A. c #61CACF",
"S. c #63C5D2",
"D. c #64CCD4",
"F. c #68CFD7",
"G. c #60C5DA",
"H. c #62CADC",
"J. c #66D1D6",
"K. c #65D3DB",
"L. c #6AD3DB",
"P. c #6AD9DF",
"I. c #78D6DC",
"U. c #5ECBE0",
"Y. c #63C5E4",
"T. c #66CAE4",
"R. c #70CCE8",
"E. c #65D2E2",
"W. c #6AD4E2",
"Q. c #6BDAE3",
"!. c #6ED1EA",
"~. c #7BDAE2",
"^. c #70D4EA",
"/. c #82C6D2",
"(. c #85DADE",
"). c #8BDDE1",
"_. c #9BDCE5",
"`. c #A6DFE1",
"'. c #8EE1E3",
"]. c #96E0E3",
"[. c #9DE4E6",
"{. c #9BE6EA",
"}. c #A3E5E6",
"|. c #A8E9EA",
" X c #A7E4E9",
".X c #B3E7E6",
"XX c #B4EBEB",
"oX c #A5EFF2",
"OX c #AAF2F4",
"+X c #A7F3F5",
"@X c #B0F1F2",
/* pixels */
"W W W W n n n n R h W R g W R h g R g W h h h R W h W W W W R W R W h W h R b g ",
"W W W W W n n h h f d f d f f d p d p d d a d y a a g d d b f d g h g W g n W n ",
"W W n W W n d a y y 6 7 6 6 7 6 6 7 6 6 7 6 8 7 6 6 7 6 6 8 8 8 y d g R W g W n ",
"n n n n g p 6 6 6 6 7 r y a y p d p y 7 y r i j p y y 8 2 6 8 6 2 6 p g R R R n ",
"g R R f u 6 6 8 s s s j j s u u p y y 8 r r i Q R g g d p d R d 7 2 6 p g n n n ",
"R R R p 6 6 u R n h j j 7 # @ # # # # # # # & u W R R R R W R R g 7 < 6 a h n n ",
"W g f 6 6 a R R j j a 3 @ X X o o o . .   . o % 7 g R W R R g R R p 2 1 7 f W n ",
"W R g 6 8 R R g j a & @ @ o X + = - - - - - - = O 1 d W R R R g h g y 1 2 a W W ",
"g W d 6 8 h h h a % @ @ o X ; F } o.o.4.7.o.o. .H : 4 R ! Q h j j h f 2 1 u n W ",
"R f y 2 7 f j g 4 @ o @ o O ` <.+.s.h.Y.R.h.d.-.<.} > r Q W g f g h f 2 1 p j W ",
"W W y 6 a g f r # X o X + B $.d.e.N.E.Q.Q.E.N.e.M.;.A > 9 n W W R R j 6 1 u j h ",
"W W d 6 p j a % @ o X + V T :.H.K.m.J.L.L.L.A.D.E.0.%.P > a ~ ! E E h 6 1 r j h ",
"W f p 6 y g d % @ X = G X.:.H.Q.F.w.9.p.f.f.w.S.Q.H.>.%.' V f W W Q h 7 & 8 b n ",
"W d y 6 p W p $ o + H 3.d.H.Q.J.d.8.g.k.k.j.p.f.F.Q.K.l.t.} w n Q ! h r < 6 f n ",
"W p 6 p R R a < o :  .-.C.P.F.d.y.H.(.]._.(.L.h.p.D.P.N.6.#.Z p Q Q g 6 * 7 a n ",
"W p 6 p R R f < X m <.q.n.Z.w.p.H.]..X}.`..X}.W.d.w.Z.n.q.5.G 8 Q ! n a 4 4 p g ",
"R d 7 p E W f & X m 3.h.E.D.9.g.(..X[./.c.).XX_.H.p.S.Q.U.5.G i E ~ Q a 2 4 i j ",
"R f 7 8 n ! j 1 X M 5.U.Q.F.p.H.}.|.oX,.,.oX@X.XL.a.F.Q.Y.y.L b ~ ! ! j 8 4 y j ",
"R d 7 r j Q h %   N b.^.Q.L.p.B.}.@XOXc.c.+XOX|.W.p.S.Q.^.R.L b ( ~ ! E u 1 7 s ",
"g W a 6 8 Q g 1 X m 4.k.E.F.p.B.}.XX+X_.|.OX X.XI.a.S.Q.Y.i.G v ( ~ ! g 4 % 8 f ",
"W W d 6 y W W 8 @ m 3.j.K.Z.9.g.~.XX X].{.{..X).G.9.Z.K.B.t.G i ! ! ! d 3 3 i b ",
"R f u y g R / W 5 m O.7.n.D.v.p.B.~..X.X.XXX).H.a.g.D.n.6.<.D l W ! W 8 < 4 a b ",
"W g 8 6 h E ! ^ d e [ 2.N.W.P.v.p.j.I.~.~.I.G.h.g.J.Q.V.7. .N g ! W g 7 * 7 a n ",
"R g y 6 g W R ^ ^ l S O.4.z.W.W.v.8.d.d.h.d.8.z.L.Q.D.0.3.` k ~ / ! a 1 & 7 v n ",
"W W p 8 W W R W / / k C I *.b.W.L.z.g.g.g.n.g.J.Q.D.*.U C q ^ ^ ~ Q f 2 < t b n ",
"W d y y R g f W / ) ! 5 , I *.Y.D.m.P.Q.P.P.A.m.V.:.U V 0 Q ( Q b g a 4 1 i n n ",
"R g 8 8 h R f b ! ( ( Q r > | a.6.C.U.E.W.H.V.6.s.=.A 0 W ) ( Q g j f 4 1 a Q Q ",
"W d 8 8 h g W W ! ~ ( ( n k S  .+.y.u.Y.R.u.u.<.O.` q W ( ( ^ ! R h j 6 1 a n n ",
"R f 8 6 p g R R ! ~ ~ / ) / x N J { { | $.[ [ ` S q ( ( ( ( ^ ! Q R g 4 & u b n ",
"R g y 2 8 f g R Q ! ~ ^ / ) ) b l l l v x l l l z ( ( ( ( Q W W E h h 7 < y j n ",
"R R d 2 y g R g n W Q ^ / / ) / ) ^ ^ ) ) / ! ) ) ) ^ ^ ^ n v v h h h 6 1 t j n ",
"g W p 6 6 f g f f b n ! Q W b n / ^ ! ^ / ^ ! ) / ^ ! ! ! n v v h s r 1 * r j n ",
"R W d 6 2 y n f f g h E E W g j ! ( ! g Q ~ ! ( ~ n v n Q R j g a 7 < < 2 u b n ",
"W g R u 2 6 d R h R h R R W W W Q ~ Q W Q ~ ~ ~ Q j b n h g d y 2 < < 4 y a n n ",
"R W R d 6 2 6 p f h R R g g h h E E Q ! Q ! Q n E h j s f p 6 1 % % 4 u f n n n ",
"g g W W a 6 1 2 2 6 y u 6 7 y 6 a 7 p n u j p y r 8 r 5 2 2 $ & * 4 p g n W n n ",
"W W g W W p 8 2 1 1 < 1 $ 1 1 1 1 * 4 7 < 7 4 1 1 $ % % < 4 1 7 r a j n n n n n ",
"W g W W W W f p u 7 4 4 6 4 6 7 6 5 6 1 3 4 1 1 1 4 7 7 r i p a g j n n n W n n ",
"W W g g b W g f j g a f f f s f v f f u u i 8 t p p f g g j b j n h n W W W W W ",
"g R W W W b W R h n W n j h j j n n b g j j f g j g j R h n W h n n n W W W W W "
};
