/* XPM */
static char *effect_1[] = {
/* columns rows colors chars-per-pixel */
"70 40 70 1 ",
"  c #712D1F",
". c #5E1B2E",
"X c #5E0F36",
"o c #570F3E",
"O c #5A0F3B",
"+ c #4E153E",
"@ c #4E193E",
"# c #571437",
"$ c #5D1334",
"% c #571A36",
"& c #5B1A32",
"* c #54123C",
"= c #591139",
"- c #53193A",
"; c #660F2E",
": c #690F29",
"> c #6B1525",
", c #6C1C24",
"< c #65132C",
"1 c #691329",
"2 c #631B2B",
"3 c #691B28",
"4 c #620F32",
"5 c #611131",
"6 c #672127",
"7 c #6D2323",
"8 c #6F2A22",
"9 c #65212A",
"0 c #692128",
"q c #702522",
"w c #702C21",
"e c #6F3121",
"r c #713322",
"t c #713B23",
"y c #724326",
"u c #724827",
"i c #724628",
"p c #724C29",
"a c #73532D",
"s c #73582F",
"d c #725630",
"f c #735B34",
"g c #735F38",
"h c #746037",
"j c #73623B",
"k c #3E164D",
"l c #3E194E",
"z c #2D1B5D",
"x c #371753",
"c c #3D1355",
"v c #361955",
"b c #391952",
"n c #36145B",
"m c #3A1259",
"M c #321A59",
"N c #4F0F47",
"B c #460F4E",
"V c #4B0F4B",
"C c #530F43",
"Z c #471546",
"A c #4C1244",
"S c #461947",
"D c #4A1942",
"F c #44144B",
"G c #4A104B",
"H c #42194A",
"J c #521141",
"K c #460F50",
"L c #421052",
"P c #736640",
/* pixels */
"zzzMMvxbbckkkFkFFZZZZZ+AZN+AAAAAA+N+NNN+G+GVNGGGGBGGBBGBBBcBccccmmmmmn",
"zzMvvbxckHHFFZZZZN++++++++N+o++o++*+++C+***+N+NN+N+NVNNBNBVBVBKKLmLmmm",
"MvvxblllHHZZZA+++++++*****o*o###o=o***oo******++NNN+oBNGNNVBBBBBKLKmmm",
"vvbllHHSZZDD++++#+##O=*###=##=##=####=#=*=**ooooo+ooN+oNNNNVNNBBKKKLmK",
"bllHSSDDD@@@+**%#####$$$$$5$$$$$$$$$#$$$####=*==oo*****ooNNNNNBNVVKKKK",
"lHHSSDDD@@*#%%%%$$.&.&&..$...$$..$55$$$$5$$$$$==OO==ooo=oooNCCNNCVVVKV",
"SSDD@@--%%%%&#&......<.2.<..<..<..<.<.$.555$$$$$XXX=O==OoooooCCNCVVVVV",
"DD@@---%%%&&..2...222232>.>.<2>..:.<.:.<<.5555$5$$$$====OOoooooCCCCVVV",
"@@--%-&&.&&922222236323233333333>.>.2<<<<.<<<.;55555$XXX==XOOOooCCCCCC",
"--%%...&.92229996666007000000033>33,,2323>><<<:<<5<5555$XX#X==OOoOOCCC",
"%&%..&.99990009007677077777307306,,,33333><>>.<:<<<5<55555XXX==OOOOoCC",
"&..9&99999990700677777777777077776,6,,,333323<>.:<<<<<;5555$XXXXOOOOoo",
"...999969970707777q777777777qqq,7,7,7,,,3,333>3>:.::<<<<:5555XXXXXXOOO",
"9999997977777878qq87q7 q78qqqqqq7q7777,7,,,,,333>33><<<1.5:5555;XXXXXO",
"99999898887878887q87 q7ww788qqwq7qq7777777,6,,3,3>>>21<1::;;;544444X4O",
"999e9887888ww7wwwwww 8 7w  8wwqw88q877q7777,7,,,3333>>><:::;;;;;4444X4",
"89889888wwwwwwwww8w 8 8w      ww8888qq8qqqqqq,,,,,,3>1>11111:;;;;;4444",
"8e98eee8www8 wwww w8 w w      ww8wwwwq8qqqqqq,qq,,,3,>3>1111111;;;;444",
"8e98888ewrrrewrwr8rrweer  r  rww wqwwqw8qqqqqqqq77,,,,,>,111111;::::;;",
"88eeeeeewrrrrrrrrrrrrwrrrr rr rwr rwrwwww8qqqqqq7,77,,,,>1,11111::::;;",
"r88rrrrerrrrrrtrrrrrrrrrrrrrrrr w  rwwwwwwqwwqqq7q,,,,,,,>1>1111::::::",
"88rrrrrrrrrrrrrrrrtrtrrttrrrrrrr rr rwrwwwwwwqqq 7qq,q,,,,,>11>1>:::::",
"err8rrrrrttrtttrrtttrtrtrrtrtrrrrerrwwwwrwwwqwwq,q,,qq,,,>,,,>>>>:::::",
"8rrrrrttrtttrtttttttttttrttrttrrrrrrrrrrwwwwwwwq q qq,,q,,,,,>>>>>::::",
"rrrtttttttttttttttttttytttttttttrttrerrrr  wrwwwwqqqqqqqq,,,,,>>>>>>>>",
"rtrttttttttytyyytyyyyttyyyytttttrrttrerrrrrrwwwwwwwwqqqqq,,,q,,>>>>>>>",
"tttttttiyiyyyyyyyyyyyyyyyyyyyttttttttrrrrrrrrwwwwwqqqqqqqq,,,,>,>>>>>>",
"ttttitityyyyyuyuyuyyuuuuyyyyyyyyttttttrtrrrrrrwwwwqqqqqqq,q,qq,>,>>>>>",
"ttitiiiiiiiipppuuuupupuuuuuuuuuuyyyttttttrrrrwrww  wqwqqqq,q,,,,,>>>>>",
"titiiipppppppppapppaappapppupuuuyyytyttttttrrrrw  wwwqwqqqqqq,,,,>>>>>",
"iiiippppppaaaaaaaaaaaaaasappppppuuuuytytttrtrrrrwrww   qqqqq,q,,,,>>>>",
"iiipppdpdaaaaaaaaaasaaaasasasappuuuuuyyyttttrtrrrrwr  qqqqqqqqqq,>>>>>",
"iiipaaaaasssssdssadsfassasssaaaapppuuuuyyttteeeeeeee wwwwwqqq,q,q>>>>>",
"aiaaaaaaddfssffdfffffffsfffsfaaaaappuuuuyyttttteereewwwwww qqq,q,,,>>>",
"iaaaaffffffffggffffhfghhhffsffssspaapuuuyyyttttetrrrrwrwwqwwqq ,q,,>>>",
"paaaaffffhhfghghhhhhhhhhhhhffffsssaaauuuuytyytetrrt rrwwwwwqqqqq,q,,,>",
"adddfffffghhjjjjhhjjjjjjhhhhhfffsssaappauuyyyytttrrrr rw     q,q,q,,>>",
"adddffgfhjjjjjjjhhjjjjjjjjhhghgffsssappppuyytttttttrrrww  qqqqq,q,,>>1",
"dffgggggjgjjjjjjPjPjPjPjPjjjjhfffffssaaappuyyyttttrrrrrr   qqqqqq,,,,>",
"dddggjjgPPPPPPPPPPPPPPPPPPPjjjhagffssaaappuyyyyttttrerrr      q,,q,,,,"
};
