/* XPM */
static char *effect_2[] = {
/* columns rows colors chars-per-pixel */
"70 37 39 1 ",
"  c #442509",
". c #49270A",
"X c #4D2A0A",
"o c #512D0B",
"O c #55300C",
"+ c #5B340D",
"@ c #633C0E",
"# c #683F0F",
"$ c #673F10",
"% c #6B420F",
"& c #6C4310",
"* c #704711",
"= c #744B12",
"- c #7A4F13",
"; c #7C5114",
": c #815515",
"> c #865A16",
", c #895C17",
"< c #8A5D18",
"1 c #8E6017",
"2 c #8E6118",
"3 c #926419",
"4 c #96681B",
"5 c #9A6D1C",
"6 c #9D701D",
"7 c #A2761F",
"8 c #A6791F",
"9 c #A37620",
"0 c #A67A20",
"q c #A97D21",
"w c #AE8223",
"e c #B28525",
"r c #B58926",
"t c #B88C27",
"y c #B78B28",
"u c #BA8D28",
"i c #BE942B",
"p c #C0952B",
"a c #C49C2E",
/* pixels */
"airewqqq75532>;=*$@++oooooXXXXX...      XXXoXooo++@@%=-:<457qqqeeryupp",
"iytyeeq87541>:;=*&@@++OOooXX...         ..XXXooO++@@%=-;>1457qeerypyyp",
"pyyyeeq87543<:;=*#@@+OOooXXX....        .XXXoooO++@@%=-:><467qweryrppp",
"pyyyeeqq7542<:;-*#@@@OOoooXX...        ..XXXXooo++@#%=-:>3467qeerruryp",
"putreeqq6642<:;-*##@@OOOoXoXX..         .XXXoooO++@@%=-;>2467qwerprppp",
"puyyewq87642>:--*##@++OoooXX....       ..XXXoooO++@#%=-:>2467qwerpprpp",
"pyyyewqq7543<:;-*#@@+OOooXXXX..       ....XXXooO++@#%=-:>3469qwepqqpqp",
"putreeqq7641<;;=*#@@++OOXoXX....        .XXXXooO++@@&=-:><459qweqppppp",
"iytywwwq7543<:;-*##@+OOooXXXX..             XooO+++%&=;:>3450qeerrppqp",
"iyyyeww87642<:;-=#$@++OoooXXX..           ..XoOO++@%&=-:>1459qwertrppp",
"iiyyewq87643<:;=*#@+@OOOoXXX.. .        .X.XoooO++@@&=;;><477qqerrttpp",
"ityyrew07542<:;=*$$@+OOoooXXX...        .XXXXooO+++$&=;:>3457qeerrptqp",
"iyutrwwq8643,:;==#$@++OoXoXXX..         .XXXooo+++@$&=-;>2467qwertuptp",
"iyyteewq7642,:;-=#$@@+OooXXX...         ..XXXooO++@#&=-;><467qwertpttp",
"iyytewwq76421:;=*#@@+OOoooXXX...        ..XXXoOO++@$&=-:>2469qwerttpup",
"iytyewwq66421;;-*#$@+OOoXXXXX. .        ..XXoXoOO+@$&=-:>2459qeeetuutp",
"piyrewwq7643<:;-&&@@++OooXXX..         ..XXoXoo+++@$%=;:><4578eertuptp",
"ittteewq9643<:;=*&@+++OoooXXX...       ....Xoooo++@@%=-:>1468qwertuutp",
"iutteww89553<:;-*&@@++OoXXXX...        ..XXXXoo+++@@&=-:>1467qeerruuup",
"iytttwwq0643<:;-*&@@++OoooXXX..        ...XXXooo++@$%*-;>34578weruuuup",
"pytteewq9642<>;==%$+++OooXXX....       ..XXXXoo+++@@&=-:>2457qwertupup",
"putteew89652<:;;&&@@++OoooXXX..         .XXXXooo++@#&=-:>2467qeertuuup",
"ptttrww89643<:;==&@@++OooXXX...         .XXXooo+++@@&=-:>2468qweruutup",
"ptttewww9653<:;-&&@@+O+ooXXXX..       ....XXXooo++@@&=-:>24678werrupup",
"pttteewq7652<:;=*&@@++OoXXXXX. .        .X.XooO+++@@%=-:>2467qweruuuup",
"pttueeww76521:;-*&@++OOOOXXX...         .XXXoXooO+@%&=-:>2457qeeruuuup",
"iuttrewq0652<:;=&&@@++OOoXXXX..         X.XXXooO++@@&=-;>2467qweruuuup",
"pyuueew88653<>;;=&@@+OOoooXX.X..         XXXoooo++@@%=-:>2467qweruuuup",
"putteeww7653<:;=*&@@++OooXXXXX.         X.XXXooO++$$&=-:>2467qweeuuptp",
"itutrewq0653<:;=&%@@++OooXXXX.           XXXXooO+++$&=-;>1467qeetyuuup",
"ptuyeewq7653<:;-=%@++OOOoXXX.X X        X.XXoooO++@%%=;:>24688wetyuuup",
"putttewq86521:;;*&@@++OooXXXX           .XXXXooO++@@&=-;>2467qweetiutp",
"iyiyrewq05532:;=*%%++OOooXXX...         ..XXXooO++%%&=-:,1468qwerruutp",
"iyyureeq09522>;-*&@$++OOXXXXX...        .XXXXooO+++@&=-;,14688weruuiup",
"piyyrewq0552<:;-*&@+++OXOXXX...         ..XXoooO++@%&=;:>2467qweryuuup",
"iyyyyeeq07522:;=*&$$++OOOXXXX..         ..XXXooO+++%&=;;:2366wweyuuiup",
"aiytewqq97552>;-&%@++OXOXXXXX...         ..X    OO+%%&-;13560wwwweuuia"
};
