/* XPM */
static char *enemy[] = {
/* columns rows colors chars-per-pixel */
"80 80 197 2 ",
"   c #0D1705",
".  c #0F1806",
"X  c #0F1708",
"o  c #121B06",
"O  c #131A0B",
"+  c #181715",
"@  c #181717",
"#  c #1B1C15",
"$  c #1C1C19",
"%  c #211E1B",
"&  c #152108",
"*  c #1B250A",
"=  c #1E2A0B",
"-  c #1D2312",
";  c #1F2810",
":  c #1E231A",
">  c #1C2C1A",
",  c #1D331B",
"<  c #1E3A1C",
"1  c #212D0C",
"2  c #23330D",
"3  c #28370F",
"4  c #253B0F",
"5  c #293B0F",
"6  c #272516",
"7  c #222A13",
"8  c #22231C",
"9  c #222B1D",
"0  c #292E1A",
"q  c #342918",
"w  c #2B3D10",
"e  c #23311E",
"r  c #2C341B",
"t  c #2F381C",
"y  c #313C1C",
"u  c #252422",
"i  c #2A2623",
"p  c #222F21",
"a  c #2A2925",
"s  c #2E2E2D",
"d  c #332B26",
"f  c #342E2A",
"g  c #382E29",
"h  c #243321",
"j  c #2C3322",
"k  c #263B23",
"l  c #293D25",
"z  c #343324",
"x  c #3B3325",
"c  c #3B312B",
"v  c #302F30",
"b  c #343332",
"n  c #393634",
"m  c #383837",
"M  c #3D3C3B",
"N  c #4A3819",
"B  c #423B2A",
"V  c #433A35",
"C  c #453D39",
"Z  c #25400F",
"A  c #28400F",
"S  c #264310",
"D  c #2B4411",
"F  c #2C4B12",
"G  c #20411E",
"H  c #314512",
"J  c #344B13",
"K  c #384E14",
"L  c #34411C",
"P  c #38451D",
"I  c #3B4A1E",
"U  c #2F5013",
"Y  c #335314",
"T  c #3B5415",
"R  c #375815",
"E  c #3C5B16",
"W  c #3D541A",
"Q  c #3D5A19",
"!  c #2A4426",
"~  c #2B4B27",
"^  c #2C4629",
"/  c #2D4C29",
"(  c #374C26",
")  c #2E522A",
"_  c #3F5020",
"`  c #31542C",
"'  c #325B2E",
"]  c #345430",
"[  c #355C30",
"{  c #33612F",
"}  c #356331",
"|  c #386634",
" . c #376932",
".. c #396C35",
"X. c #3C6D38",
"o. c #3B7536",
"O. c #3C7837",
"+. c #3D7539",
"@. c #3E7A39",
"#. c #415B17",
"$. c #43571F",
"%. c #435D18",
"&. c #694C19",
"*. c #7B5719",
"=. c #436217",
"-. c #486717",
";. c #496817",
":. c #456319",
">. c #49661A",
",. c #47681A",
"<. c #4D6B1B",
"1. c #516E1D",
"2. c #4E701B",
"3. c #54741D",
"4. c #58761E",
"5. c #57791E",
"6. c #5A7C1E",
"7. c #607F1D",
"8. c #4B4B2F",
"9. c #405120",
"0. c #475B21",
"q. c #43413F",
"w. c #574933",
"e. c #575636",
"r. c #6B5B3B",
"t. c #775A3A",
"y. c #4C6422",
"u. c #536E22",
"i. c #557421",
"p. c #5A7620",
"a. c #577922",
"s. c #5B7E20",
"d. c #5C7C28",
"f. c #416F3C",
"g. c #40773B",
"h. c #417C3C",
"j. c #617E21",
"k. c #444342",
"l. c #494846",
"z. c #4C4A49",
"x. c #504F4E",
"c. c #595754",
"v. c #5E5D5C",
"b. c #705A4C",
"n. c #457940",
"m. c #766247",
"M. c #61605F",
"N. c #6A6968",
"B. c #996B1A",
"V. c #AC771B",
"C. c #95774A",
"Z. c #A47D57",
"A. c #5E801F",
"S. c #64841E",
"D. c #68871E",
"F. c #66881F",
"G. c #6A891F",
"H. c #5D8222",
"J. c #5F8725",
"K. c #43843E",
"L. c #44883F",
"P. c #618522",
"I. c #658B24",
"U. c #6A8D24",
"Y. c #628529",
"T. c #658C28",
"R. c #6A8E28",
"E. c #679026",
"W. c #6A9227",
"Q. c #6C9528",
"!. c #6E992A",
"~. c #709527",
"^. c #719528",
"/. c #719C2B",
"(. c #74A12D",
"). c #498443",
"_. c #458940",
"`. c #4A9245",
"'. c #4E9648",
"]. c #51944B",
"[. c #519B4C",
"{. c #54A24E",
"}. c #57A350",
"|. c #5BAD54",
" X c #5EB357",
".X c #61B95A",
"XX c #BC8119",
"oX c #D4931F",
"OX c #DE9921",
"+X c #EDA321",
"@X c #F8AB21",
"#X c #998250",
"$X c #AE9358",
"%X c #C8A964",
"&X c #D3B269",
"*X c #F1CA76",
"=X c #FED77D",
/* pixels */
"s.A.s.6.H.H.a.H.s.s.s.6.s.6.s.s.s.6.s.H.6.s.s.6.H.H.s.6.s.6.H.s.s.H.s.s.s.s.s.s.s.s.s.6.H.s.s.s.s.s.s.H.H.s.s.s.A.s.6.s.s.s.s.s.s.s.s.s.6.H.s.6.H.H.6.s.6.s.s.s.",
"s.J.J.H.H.J.H.s.s.s.H.6.s.H.s.s.H.6.s.s.s.s.s.s.s.6.s.s.s.H.s.6.s.6.s.s.s.6.s.s.s.s.s.s.H.6.s.s.s.s.6.H.J.s.s.J.H.s.s.s.H.6.s.s.6.H.6.H.s.6.s.6.s.6.s.s.H.5.H.6.",
"s.H.T.J.H.J.H.H.s.s.s.H.H.6.H.6.s.s.6.6.6.s.s.a.3.5.s.6.5.3.3.5.2.<.5.5.3.,.5.5.6.2.<.5.5.5.=.<.5.a.5.5.J.J.H.H.5.s.s.s.s.H.a.s.s.s.6.A.s.s.s.H.6.s.s.H.s.H.5.H.",
"s.s.H.J.H.J.J.H.s.s.s.6.s.s.H.5.s.s.6.;.,.3.3.3.Q :.T F 5 3 3 J J Y ,.3.Q R ;.3.3.E E 3.3.,.Y E Q <.=.R a.H.,.E E 2.3.s.3.2.6.2.3.s.s.6.H.6.s.s.H.s.s.6.s.6.H.6.",
"s.s.H.d.H.a.H.s.6.s.s.s.5.H.s.,.=.3.5.E Y E =.#.2 * o o o o . o & 4 R %.R Y R %.E Y Y E =.Y Y Y F Y U K -.,.R U F #.<.;.E Q ,.R :.3.3.6.s.s.6.6.s.6.H.6.s.s.5.H.",
"s.s.s.s.s.s.s.s.s.s.s.s.2.=.<.=.Y E E U U U Z * . .     . . . X o O > 5 F R F D F R Y D D Y =.F F F U F D J Y U F F T Y U Y R F E T $.3.5.6.A.6.5.H.s.s.s.s.H.A.",
"6.s.s.s.s.s.s.s.s.H.s.,.Q Y R R U U F F U D *   . o & . . X # $ : u u 8 7 $.R F U ;.=.F U 3.A.=.Y E -.F F E E U F A F F U F F F F F J :.;.3.6.6.H.s.6.6.H.s.s.a.",
"H.6.H.6.s.H.s.s.s.6.<.R F F U F F U R Y S 2 * o . & = * # $ a n M q.z.x.n 9 D S R A.2.F =.F.G.G.3.6.6.U E 6.3.E F F E =.E 1.R F F F D J Y <.5.6.5.H.H.s.5.s.s.A.",
"6.H.H.6.s.s.s.3.2.3.,.F U F U Y =.R 2.;.5 * * * * & - # u M k.k.M m k.x.M.k.: Y 2.P.S.;.5.P.G.G.G.F.A.=.5.A.5.=.F =.6.5.6.S.=.-.R D D F F R ;.4.5.H.s.6.s.s.s.s.",
"s.6.s.s.s.s.6.=.J Y R F U Y =.-.S.4.6.3.2 * * * * * # u m k.k.k.k.k.k.z.v.N.b y H.P.I.P.s.J.I.F.P.A.F.A.A.6.5.3.;.6.A.F.A.D.S.S.E F U S A H #.2.5.5.s.H.s.s.s.s.",
"s.H.s.s.s.6.5.,.U U F F U #.F.F.S.6.S.%.1 * * * * - : v M m b b M k.k.k.k.M.c.: H >.s.d.s.I.P.P.P.A.A.A.A.A.6.6.6.6.5.5.5.S.S.S.5.5.E S S S F =.2.a.s.s.s.6.s.s.",
"s.6.s.s.H.2.-.-.Y U R E Y 5.G.S.6.6.6.H * * * * - $ s v s s v s v M k.k.k.l.M.s # 1 5 W a.I.I.I.P.I.P.J.A.A.s.6.A.6.5.5.5.5.6.S.D.S.;.F D D A J E 2.5.5.s.H.s.s.",
"s.H.6.s.6.<.Y R F F E S.S.S.G.6.j.6.3.5 & * * * # u s : a v s v s s b k.k.z.v.M # # # - w i.I.I.P.j.P.P.s.s.s.H.A.A.6.A.5.6.6.5.D.G.3.F F D S S J >.1.5.s.s.s.s.",
"s.s.s.s.6.3.Y Y U Y E S.A.A.S.6.5.j.1.1 * * * * # a u u s v v s s s s b M z.N.l.8 l h 8 # 8 I i.P.4.P.s.a.a.H.J.A.A.A.A.6.6.5.6.6.A.6.;.U F F S F T <.H.s.s.H.s.",
"s.6.s.s.6.5.T U U 2.4.S.S.6.5.5.5.4.%.= * * * - $ s : s v s s s s b v s v M N.z.e K.K.O.} ^ 9 8 P >.1.1.2.H.A.I.A.A.A.A.A.6.7.5.5.6.6.3.=.R S S 4 J :.H.H.T.J.s.",
"s.H.s.6.A.2.K U U ;.D.D.D.S.6.6.4.4.J & * * * # u u u v s s u s u u s v s v k.v 9 g.L.L._._.n.[ : 6 $.i.5.J.I.I.I.I.S.A.A.6.6.5.5.6.6.5.3.R F S w J :.i.J.J.6.s.",
"s.s.a.A.H.5.E U F E A.A.6.6.A.5.3.;.2 o 1 * 1 O u u s s s s a v 8 $ % u : $ 6 N 8 | _._._.L._.'.).k 8 0.d.I.T.T.I.I.P.P.J.6.s.6.5.s.6.6.4.;.Y Z 4 F #.1.d.s.s.s.",
"6.H.A.A.3.3.=.F F ;.F.A.5.5.5.3.4.#.* o 1 1 1 % a u s s s s v v 8 k 9 % N *.oXOXN k K._._._._.L.[.[.l 8 i.W.W.U.E.I.I.P.A.5.p.4.5.6.5.6.S.4.U Z 4 H #.1.s.s.s.s.",
"s.H.s.,.E E Y F U =.A.5.5.5.5.A.6.K o * 1 * O % s s s s v v v s $ ` ! q B.XX@X@XV.: .._._.L.K.'.|..X[.h y P.W.W.E.E.I.J.p.y.1.u.3.5.5.5.G.3.F 4 3 H %.3.6.s.H.s.",
"s.6.H.a.R U U U F F 2.5.3.5.A.A.6.J 1 1 * 1 % % v s s v s v v u :  .` 6 B.V.OX+XB.% } _.L.L.L.{..X.X.Xn.: y.Q.Q.W.P.H.a.1.<.<.<.3.5.A.A.D.;.D Z 4 H %.3.5.s.6.s.",
"s.H.s.J.,.U U Q -.;.5.5.i.2.6.J.6.5 * * 1 1 @ i s s s s s s s % k o.[ : &.*.&.N 8 k @._.L._._.`.|..X.X|.l y R.Q.I.d.s.H.P.H.6.5.A.A.A.A.6.E U Z Z D #.>.4.6.s.s.",
"6.6.s.s.a.R U Q 5.A.A.5.5.5.A.A.P.#.= * * = $ $ % s s v u s u : | O...h : : : h ` @._.K.L.L._.L.`.}.}. Xf.8 d.^.P.d.J.E.U.T.I.I.F.J.A.A.S.S.=.F 5 D #.>.4.6.6.H.",
"s.H.6.s.a.y.R U ,.5.5.5.6.H.J.F.I.;.= = = # $ % s v v u % u : ) o.O.o...{ { { o.h.K._._.L.L._._._._._.[.].8 0.^.Q.E.W.W.W.I.I.P.A.A.A.A.S.G.=.Z 4 D T ;.4.6.H.s.",
"s.6.H.s.a.<.Q S Y ;.5.6.A.A.P.P.T.%.= = = - $ u a u u $ $ : ~ o.O.O.O.h.h.K.K.L.L._.L.K.@.O.K._._._._.`.}.h P Q.Q.Q.W.W.W.E.T.I.F.A.A.6.D.6.Y 4 4 5 T -.3.6.6.s.",
"s.H.6.5.,.Y J F F =.,.6.s.P.P.P.I.T = 1 1 = $ : 9 > h ! G { O.K.K.O.K.L.L.L.L.`._._._.K.h.K.K._._._._._.[.^ r R.^.R.Q.Q.I.H.H.H.P.P.P.F.F.3.E F 4 H T ;.3.s.s.6.",
"s.s.H.s.2.E Y R =.3.3.6.H.P.P.H.6.T = 1 = ; # ~ .. .o.+.o.o.K.L.L.K.L.L.L.L.L.L._._._._._._._._._._._._.[.] 0 j.Y.I.^.Q.Y.d.s.d.s.s.J.H.F.S.=.Z 4 5 J :.3.6.s.H.",
"s.s.6.a.3.=.J Y 3.7.s.p.i.s.P.#.5 5 1 1 2 = # ) O.o.o.o.O.o.h.L.L.L.L.L.`.L.L.L._._._._._._._._._._._._.].] 0 d.Y.U.^.Q.Q.R.I.P.I.P.J.F.F.5.E U F A D %.<.s.s.s.",
"s.H.2.=.Y U U F E 3.7.i.<.3.P.H = = 1 = = ; $ ' o.o.o.o.o.o.O.L.L.L.L.`.L.L.L.L._._._._._._._._._._._._.`.` 0 j.U.^.^./.Q.Q.T.P.P.I.P.P.F.6.4.E D 4 J $.<.3.6.s.",
"s.s.2.E U Y =.2.3.6.s.p.1.s.P.H = 1 1 = - - $ ' O.o.O.o.o.o.o.K._._._._.L.L.L.L.K.K.K.K.K.g.o.+.K._._.K._.^ r P.Q.!.!.!.!.W.s.d.P.T.I.I.A.A.=.F 4 4 H #.<.a.s.s.",
"H.s.a.=.U U ;.G.S.7.6.A.H.I.P.w = = 1 = $ $ $ ` O.o.o.o.o.o.o.h._.@.K._.L.L.L.`.K...[ [ ' } X.K._._.L.g.n.k l /./././.!.!.W.i.3.s.P.P.P.A.=.F A 4 A D T ;.5.5.s.",
"6.s.6.2.Q F E F.S.6.S.P.P.I.P.D 1 1 1 - : ~ p h { O.o.o.o.o.o.O.) p h / o.L.L.L._._.K...g.K._._._.L.L.g.| > _ (.(./.!./.!.W.i.i.A.P.I.I.A.;.=.#.Y F F D %.<.5.6.",
"s.s.5.,.R F F #.7.U.P.P.I.T.P.H = 1 1 - p ' ) ! e ' o.o.o.o.O.{ : , e > > / O.L._._._.' +.} g._._.@.` e : $ y.(.(./././.!.T.3.3.J.E.E.E.J.J.S.7.2.F D J Q <.3.6.",
"s.s.5.E U U E 3.I.S.s.6.d.I.I.T = 1 1 $ e k : ~ ) ! { o.o.o.o.) : k G G < > 9 ^ o.K...` _.} [ h.] p : , , $ d.(.(./.!./.!.Q.a.1.s.P.U.I.P.P.A.3.U 5 5 K Q <.i.a.",
"s.H.6.3.=.Y =.S.F.A.H.H.s.H.I.<.1 = 1 * 9 k k e e ' ) o.O.o.o.~ : , > , < < , > : k 9 p | h > , : , < < , 0 T.(.(.(.(.!./.!.E.I.s.P.T.I.P.F.2.U 4 5 D T ,.3.H.s.",
"s.6.6.3.=.K D Y <.G.U.U.I.I.W.I.J * = # : ! k ) > !  .o.o.o.o.) - > : r 9 - > < , > > 9 [ : > > , > : - : r /.(.(./././.!.!.!.Q.W.P.I.I.I.F.5.=.Y F D J %.i.H.5.",
"s.H.H.;.J U Y ;.7.F.I.P.I.T.W.W.6.3 * = $ ~ h k e k { o.o.o.o. .> $ m.%X#Xr.x 8 : > > h +.9 : : 8 d w.z $ 9./.(.(./.(././.!.!.Q.W.W.I.I.I.P.F.F.6.-.Y F F <.i.4.",
"6.6.s.,.Y J R A.G.F.P.P.I.E.E.Q.U.<.1 O # h / e ) ~ ) o.o.o.o.O...h C.=X*X*Xt.b.r.g $ } _.[ : r.$XC.t.g @ 0.(./.!.(.(./.!.!.!.!.Q.W.W.I.I.P.F.D.S.;.F 5 J E <.3.",
"s.H.s.5.,.Y F E 3.6.F.I.E.P.F.6.s.p.#.w 1 # ~ ) ! ) ) o.o.o.o.O._.[ B &X=X=X$XZ.%X8.~ _.@.) 9 C.=X*Xt.8 % y.^.^.(.(./.Q.W.!.!.Q.Q.W.W.E.I.F.G.7.E D 4 5 H T >.3.",
"6.s.s.5.3.,.T F F E 3.I.I.E.E.F.s.i.p.<.w y : )  .) { o.o.o.O.O._.K.^ B #X%X&X$Xw.k h._._.) k d m.t.l | 9 >.^./.(.(.Q.Y.Q.!.!.!.Q.W.E.E.I.I.G.S.=.A Z 5 K #.1.4.",
"H.s.s.s.5.2.E F F R 3.P.E.E.W.Q.W.R.Q.i.D d.Q - ) ) {  .o.o.o.O._._.K.' k z z j / h._.h._./ ` | ! ! f.h.% u././.(.(./.!.!.P.J.T.W.W.E.E.I.F.6.E Z 4 4 H #.,.3.6.",
"s.6.H.6.5.E U U R 3.J.I.E.E.E.Q.Q.!./.P.D J K r 8 : ! ! | O.o.O.K._._._.K.@.+.h.K.X.K.` ^ h +._._._.] p 9 Y.(.(.(.(.(.!.T.2.u.i.j.Y.U.U.I.I.6.-.D 4 5 J #.<.5.s.",
"s.s.s.6.s.<.E F U E 5.J.I.E.E.Q.Q.!././.p.W T i.r t 7 @ e  .o.O.K._._._._._.K.h.@.l X.o.[ | o...| | e.B t /.(.(.(.(.(.W.i.u.d.H.P.I.I.I.I.P.P.A.E D A J ,.3.a.s.",
"H.s.s.H.s.,.E R ;.2.P.I.I.E.E.Q.Q.Q.Q.Q.Q.U.W.!.y y w $ $ 9 / | ..K._._._.[ l 9 h r.8.! h 9 : 9 l / a 6 y.(.(.(.(.(.Q.d.p.i.s.H.P.I.E.E.I.A.;.Y F A A K :.1.5.s.",
"6.s.s.2.E Y R ;.F.P.H.P.I.E.E.Q.Q.Q.U.U.U.U.U.Q.y.8 @ $ 7 - # 9 ! ` } +.h./ } | > 8 9 h ^ ` | ).)./ 8 9./.(.(.(./.(.!.H.Y.j.s.d.d.s.J.P.I.3.E F 4 2 w K =.1.5.s.",
"s.s.s.2.R U U Q S.P.G.P.I.I.W.W.W.!.!.Q.Q.R.U.Q.P.0 7 1 2 2 - @ $ 8 h k ~ ! [ ..k k [ ..+.).h.] a 9 y./.(.(.(.(.(././.W.R.Q.P.Y.J.d.s.d.J.A.<.U 4 4 H T <.3.a.6.",
"s.s.s.s.:.F F F =.S.S.P.I.W.W.W.W.!.!.!././.(./.:.2 2 1 2 7 $ s l.s # : : : : : 9 p p h p h : : I Y.(.(.(.(.(.(.(./././.Q.!.Q.Q.E.P.H.H.H.;.=.U F 4 H #.;.5.s.s.",
"s.s.s.5.3.E F U <.D.P.P.P.I.I.W.W.!.!.!././.(.I.H 7 2 2 1 6 $ n c.M e ' / k e 9 : : : : 9 9 $ r U./.(./././.(.(.(./././././.Q.Q.W.E.I.I.A.U F Z 4 5 J #.<.a.s.s.",
"6.s.s.s.,.Y F R 6.S.G.P.5.H.I.W.W.!.!././././.1.2 1 1 1 7 - p 9 a 8 e O.K.@.+.o...[ ..@.@.) 9 9 p.^./.~.U.Q./.(.(./././.Q.Q.Q.Q.W.E.E.I.J.E F Z 2 5 K %.2.5.s.6.",
"H.H.H.H.y.=.U F ,.S.G.P.s.1.s.W.W.W.!.!.!.!.Q.W 1 1 1 1 - h ..o.| / e ' g.K.K.+.| ] ..o.) l p k I /././.^.Q.R././././.!.!.!.W.W.W.T.T.I.P.-.F A 4 D T <.2.s.s.H.",
"s.6.H.I.H.:.U =.F.P.P.s.s.4.H.W.W.W.!.!.!.!.U.K 1 1 * 1 - / @.K._.' h X.` ^ / l / +.| ] | ..9 ~ 0 d.Q./././.^.^.(././.!.!.!.W.W.U.I.P.P.F.3.U A 4 D #.<.5.s.s.s.",
"s.s.6.s.2.Y Y 3.F.S.p.p.1.a.I.T.W.W.Q.!.!.R.j.w * 1 1 - : ` +.L._.' h ..g.o.X.g.'.+.o.+.n./ $ e 8 $.Y.U.^./.(././.!./.!.!.Q.I.J.P.i.i.p.5.5.Y A 4 H #.1.a.s.s.s.",
"s.s.s.2.R Y F E 6.S.p.3.1.<.s.I.E.W.Q.Q.Q.U.P.K * 1 1 6 - 9 9 ) ' l $ 8 9 9 h a k p 9 u % n k.$ : 9.R.Y.Y.R./.(.!./.!.!.Q.W.H.a.i.<.1.p.4.T F A 4 H #.<.H.H.a.s.",
"s.s.6.5.<.R Y 2.G.7.s.4.1.<.<.p.I.W.W.Q.~.R.U.1.2 1 1 7 h ' ~ k h 9 % g d d g g d g g c V v.C a k y Q.^.!.Q.!./.!.!.!.Q.Q.Q.I.d.i.1.i.p.A.R S 4 2 H ,.3.J.H.J.J.",
"s.s.H.a.=.Y U E 3.G.j.p.p.u.3.d.I.E.W.W.~.~.U.U.-.w 1 - h +.o.+.+./ $ 8 i i d d f d d i i i i % $ P R././././././.!.!.!.Q.W.T.H.d.i.s.s.S.6.R 4 3 J y.a.J.H.T.H.",
"s.s.s.2.E Y F E 7.7.j.6.s.s.s.P.I.U.W.W.~.~.Q.W.U.s.1.W : ` o...X./ $ % % % % % @ % i % d V c.u $ y.^././././.!.!.!.!.W.W.W.E.I.s.s.5.A.S.D.=.A 5 K :.i.H.J.J.H.",
"H.6.s.6.<.R F :.D.7.5.5.6.6.J.I.I.I.W.U.U.Q.!.Q.U.^./.p.7 : ! / ^ 9 i c c g d f % u V u d C z.6 0.!.^.^./././.!.!.!.Q.W.W.E.T.I.I.s.5.6.S.6.=.F D D %.3.a.H.d.a.",
"H.6.s.a.E U U -.4.4.6.6.6.A.A.S.I.I.W.E.E.W.Q.Q.Q.!.!.3.2 - # : $ $ 8 9 8 i g i % i c u 9 p 8 >.^././././.!.!.!.Q.Q.Q.W.E.E.I.I.I.A.A.s.A.-.U Z A w #.1.5.s.s.6.",
"s.H.6.3.E F U F Y T 3.6.3.6.A.A.P.J.I.E.E.E.W.Q.!.Q.!.i.3 2 1 ; - $ 8 / ^ : % @ @ i V f h 9 ( P.~.(.!./.!.!.!.!.Q.Q.E.E.E.I.I.J.A.A.A.A.A.A.Y 4 4 5 K >.3.s.s.H.",
"6.s.s.3.E F D S F =.6.5.3.6.A.A.F.I.I.I.E.E.E.Q.Q.Q.!.E.d.3.u.:.8 + + % $ $ 6 $.8 % s u $ @ y P.~./.!.!.!.!.Q.Q.Q.E.J.I.I.I.P.J.A.A.6.6.S.G.;.A 4 H T ,.3.s.H.6.",
"H.s.s.5.3.=.J D Y 3.6.5.5.A.A.A.H.P.P.I.E.E.E.E.W.Q.Q.Q.!.!.!.T.9 @ + @ $ @ : i.0 @ @ $ $ @ 9 d.W./.!.!.!.Q.Q.Q.W.I.s.H.J.A.J.A.A.6.6.6.S.6.E F 5 D #.<.5.s.6.s.",
"6.s.s.6.5.-.Y F U =.5.5.A.5.5.A.H.J.P.P.I.I.E.W.W.Q.W.Q.Q.!.!.T._ y 0 9 8 0 L d.0.L t r r P y.I.W.!.!.Q.Q.W.W.W.W.I.s.a.3.<.3.s.6.6.6.6.S.A.Y D A A T 1.5.s.s.s.",
"s.s.6.H.5.%.Y F F =.6.6.5.5.5.5.3.6.6.P.H.J.I.I.E.E.W.W.Q.W.I.Q.Q.W.T.d.i.Y.Q.!.!.Q.Q.J.d.T.!.!.Q.!.!.W.W.W.W.W.T.I.J.i.<.<.u.i.4.4.S.S.D.A.=.Z 4 5 T ,.3.s.s.s.",
"s.s.s.s.5.E U F U =.6.6.5.6.6.3.<.1.H.s.5.H.P.E.I.I.s.J.T.s.u.P.Q.Q.!.E.H.I.Q.!.!.!.!.T.H.T.Q.Q.Q.W.W.W.W.T.E.I.T.I.I.s.<.1.1.4.7.7.6.6.6.R Y D 5 w K -.3.s.s.s.",
"s.6.H.s.6.<.Y U F U -.S.6.5.5.3.1.<.5.5.a.H.J.I.I.s.u.s.i.<.<.s.W.Q.Q.W.Y.I.I.d.T.!.!.W.J.T.Q.Q.W.W.W.I.I.H.J.I.I.P.P.j.3.u.4.5.6.S.;.Y Y F D A 4 5 T >.3.6.H.s.",
"s.s.s.s.6.-.F F F F Y ;.A.6.3.3.3.1.4.4.A.A.A.F.A.A.A.H.<.<.u.p.T.W.W.W.T.H.4.<.s.Q.Q.U.J.I.W.W.W.E.T.5.3.i.s.H.I.A.A.A.A.5.4.6.3.7.2.F Z 4 4 4 5 D T ;.4.6.6.s.",
"s.s.s.6.s.3.%.D Z F F ;.D.6.3.4.4.4.3.4.5.A.A.A.J.A.I.J.3.s.s.p.P.W.W.W.E.P.u.1.p.Y.W.W.E.E.E.E.E.E.J.<.<.u.i.s.A.A.A.A.6.6.6.3.Y #.;.F Z 4 4 4 D K #.1.5.6.H.6.",
"6.a.6.H.s.s.2.R Z Z U 3.3.6.6.7.6.6.5.5.6.6.A.A.A.A.J.F.s.d.P.j.H.I.E.E.E.I.6.s.4.P.T.W.E.E.I.E.I.E.6.<.1.p.p.p.6.A.5.6.6.2.3.3.Y D F Z S 3 D J T $.,.2.5.s.s.s.",
"H.s.s.s.s.s.3.<.Y F F Y E D.7.S.6.6.A.6.6.6.5.5.A.A.A.J.j.j.P.P.F.J.F.I.T.I.j.I.P.P.I.T.I.I.I.E.I.A.A.2.i.j.j.P.S.6.A.5.6.=.U R U Z 2 4 4 w J T ,.<.3.5.s.s.6.H.",
"s.H.s.s.s.s.5.3.E F S 5 E <.E 3.G.S.D.D.D.6.7.7.A.A.A.A.7.P.S.P.A.F.I.U.I.I.P.P.U.U.I.P.I.I.J.J.F.G.G.6.p.7.D.1.A.A.3.=.E Y D F F Z 3 3 w H T :.2.5.s.s.s.6.s.s.",
"6.6.s.s.s.s.s.3.T Y D F S F F <.3.=.S.6.S.S.D.S.5.2.2.-.s.6.-.4.S.F.F.2.6.G.P.F.D.G.U.P.F.6.2.H.A.3.D.G.4.j.1.H =.A.<.F F F F S 4 4 3 w J E %.<.5.5.s.s.6.H.s.s.",
"H.6.s.A.s.s.s.5.3.-.F S 4 S F J F U E E 6.;.3.7.=.Y R =.6.-.F Y D.G.;.F T S.F.F.=.4.D.F.A.E E A.5.Y E 3.=.6.#.F D -.=.S S S 4 4 2 4 5 K %.<.1.3.5.H.H.6.H.a.H.6.",
"s.s.s.s.s.s.s.s.6.<.K Y J S F 4 4 D Z U R F J R F F A T =.F D F 2.<.F Z F 3.G.3.F J ;.F.;.U F 2.=.A D F U R U A 4 4 F S 4 2 4 4 5 D K #.>.3.5.6.5.A.a.H.6.A.s.s.",
"s.s.s.s.6.H.H.H.H.a.y.,.W D D 4 4 4 A D Z S F 4 4 Z 5 F D 4 2 Z F F 4 2 4 E 4.Y 4 Z E 4.R A 4 Y U Z 4 4 D 4 A 4 2 5 F D w w H J J T %.1.2.s.s.s.s.6.s.s.6.H.6.6.",
"H.6.A.s.s.s.5.J.J.H.a.a.>.E T J H F A 5 4 4 A 5 4 4 A D 4 5 A Z F 4 4 3 4 F R D 2 4 A Y F 4 2 5 F 4 2 4 5 5 A 4 A H R H D J W T %.<.1.4.5.s.s.s.6.H.s.s.s.s.H.s.",
"H.6.s.s.s.s.a.H.H.a.H.a.3.3.,.,.%.T J H F 5 w H D J D D H H K J D 5 H K H D F 4 5 D A F A 4 3 D D 4 A H J J H H K #.:.%.$.Q %.<.3.5.6.6.6.s.s.6.A.a.a.s.s.s.s.s.",
"6.s.s.s.s.A.s.6.H.a.H.a.5.5.3.2.1.<.>.#.#.T T T #.%.T T T #.=.=.:.T #.{ -.R D D H K T U A 5 H K D J K T %.:.%.%.%.,.1.i.<.;.1.3.5.6.6.6.H.6.s.H.6.6.H.H.6.H.s.s.",
"H.s.6.H.s.6.6.H.a.a.s.s.s.5.a.5.5.5.3.3.<.<.<.<.<.3.<.<.:.;.1.1.i.,.2.2.i.<.T T T %.;.#.K K T %.#.#.%.,.1.3.3.1.1.3.5.5.5.4.5.s.s.s.H.6.s.s.H.J.H.H.H.J.a.H.s.s.",
"s.6.s.6.H.s.s.s.s.H.s.6.s.H.6.s.6.6.5.5.5.5.3.4.5.5.5.3.3.3.4.6.a.d.a.d.a.H.1.,.-.<.3.1.,.:.>.1.1.<.;.3.s.3.5.5.5.5.s.6.s.s.6.s.6.s.s.s.6.s.s.H.J.H.J.J.H.H.s.s.",
"s.s.s.H.6.s.s.s.H.6.s.H.s.s.6.H.s.s.s.s.s.s.5.s.s.s.6.s.5.s.5.6.s.a.a.s.d.s.3.3.3.5.4.4.3.1.3.5.6.3.3.5.s.5.s.s.s.s.s.H.s.6.s.s.H.s.H.s.H.s.s.s.J.J.J.J.J.H.s.s.",
"H.6.s.s.s.s.H.6.a.H.H.5.6.H.H.5.s.s.s.s.s.s.s.s.s.s.s.s.s.s.s.6.6.d.H.s.s.s.6.5.5.6.6.6.5.5.a.6.6.6.6.6.s.s.s.s.s.s.s.6.s.s.s.s.s.6.6.s.6.s.s.s.H.H.d.d.H.a.H.s."
};
