/* XPM */
static char *enemy[] = {
/* columns rows colors chars-per-pixel */
"40 40 161 2 ",
"   c #121C07",
".  c #151E09",
"X  c #191D12",
"o  c #1C1D19",
"O  c #152008",
"+  c #1B240C",
"@  c #1E2A0C",
"#  c #1D2312",
"$  c #1F2810",
"%  c #1E2119",
"&  c #1E321B",
"*  c #212D0D",
"=  c #23320D",
"-  c #273D0F",
";  c #283C0F",
":  c #202415",
">  c #222C15",
",  c #22231B",
"<  c #28241F",
"1  c #242B1C",
"2  c #2A2E1D",
"3  c #253112",
"4  c #273F10",
"5  c #2A3F10",
"6  c #24341E",
"7  c #29351C",
"8  c #25381D",
"9  c #2B3B1E",
"0  c #323D1E",
"q  c #272521",
"w  c #2B2622",
"e  c #252922",
"r  c #2A2A25",
"t  c #2D2C2C",
"y  c #302A25",
"u  c #302E2C",
"i  c #253420",
"p  c #2C3427",
"a  c #263C22",
"s  c #293D24",
"d  c #2E312A",
"f  c #313423",
"g  c #333F25",
"h  c #36322D",
"j  c #38382D",
"k  c #353432",
"l  c #393633",
"z  c #343930",
"x  c #3B3A39",
"c  c #4E3D1D",
"v  c #403F3E",
"b  c #28400F",
"n  c #274010",
"m  c #2C4311",
"M  c #2E4A12",
"N  c #2E431F",
"B  c #304414",
"V  c #334C13",
"C  c #394F14",
"Z  c #364A1A",
"A  c #3A4A1F",
"S  c #355314",
"D  c #395515",
"F  c #3C5B16",
"G  c #3E541A",
"H  c #3F6017",
"J  c #274124",
"K  c #2A4325",
"L  c #2C4628",
"P  c #2D4D29",
"I  c #364423",
"U  c #3A4624",
"Y  c #374C25",
"T  c #334028",
"R  c #324B2B",
"E  c #2E532B",
"W  c #3F5521",
"Q  c #32542D",
"!  c #3B552D",
"~  c #325C2E",
"^  c #3C582C",
"/  c #354830",
"(  c #3C5330",
")  c #345E30",
"_  c #395F31",
"`  c #34632F",
"'  c #356431",
"]  c #3A6734",
"[  c #376933",
"{  c #3A6B35",
"}  c #3F6D38",
"|  c #3B7436",
" . c #3D7539",
".. c #3E7B39",
"X. c #4B421C",
"o. c #405D17",
"O. c #435F18",
"+. c #62531F",
"@. c #7F5C1F",
"#. c #416017",
"$. c #456318",
"%. c #49661A",
"&. c #4C6C1B",
"*. c #506E1C",
"=. c #4F701C",
"-. c #53741D",
";. c #57781E",
":. c #5A7C1E",
">. c #504920",
",. c #425621",
"<. c #485027",
"1. c #445C23",
"2. c #485F21",
"3. c #41423D",
"4. c #524731",
"5. c #514C31",
"6. c #5C5436",
"7. c #605936",
"8. c #4B6423",
"9. c #516D22",
"0. c #557422",
"q. c #577920",
"w. c #5B7E20",
"e. c #4B6437",
"r. c #4A6938",
"t. c #5D663E",
"y. c #41723B",
"u. c #417D3C",
"i. c #434241",
"p. c #484645",
"a. c #4C4B4A",
"s. c #504F4E",
"d. c #787345",
"f. c #94671A",
"g. c #947B4F",
"h. c #5E801F",
"j. c #61821F",
"k. c #5D8222",
"l. c #43843E",
"z. c #44883F",
"x. c #618522",
"c. c #658B24",
"v. c #688F26",
"b. c #628628",
"n. c #648828",
"m. c #679026",
"M. c #6A9227",
"N. c #6C9528",
"B. c #6E992A",
"V. c #709729",
"C. c #719C2B",
"Z. c #74A12D",
"A. c #458940",
"S. c #488E43",
"D. c #4B9346",
"F. c #55A24F",
"G. c #5BAF55",
"H. c #CE8D1E",
"J. c #968550",
"K. c #9D8351",
"L. c #D7B46B",
/* pixels */
"k.k.k.k.w.q.k.w.h.h.h.h.k.:.w.w.w.:.w.:.h.:.h.:.:.k.k.k.k.k.k.h.q.k.:.:.k.:.k.k.",
"k.k.k.k.w.k.k.:.:.-.=.=.&.H D F o.=.&.=.&.&.=.#.&.&.;.=.&.;.-.=.:.h.h.k.k.:.;.k.",
"w.k.w.k.:.:.=.&.#.H F b @ O     $ m S S D D D D S S F S S H F F H &.:.:.:.k.:.:.",
"w.w.w.w.:.&.S S S S b +     X e d k g M #.F &.;.&.F F H M S F S M S &.;.q.h.k.:.",
"h.h.h.-.H S S H &.%.= + # o k v i.a.s./ *.w.w.c.h.;.;.=.$.;.h.&.F m M &.;.k.k.:.",
"k.h.;.&.S S $.h.:.%.* + # t k k x i.s./ Z O.w.x.k.h.h.h.k.h.h.h.:.S n S &.;.:.:.",
";.h.-.S S &.h.h.;.D + O % q t u t l p.a.r 7 Z 9.k.h.h.k.h.h.;.h.h.&.M m D -.w.k.",
";.k.-.S H h.h.h.-.m + # q t t t t t k v Q  .] Q Y &.k.k.k.h.h.;.:.;.$.m M &.k.k.",
"h.h.=.S H :.h.;.$.* @ + q t u t e 1 X.@.<.u.A.A. .Y w.v.n.x.w.;.;.:.-.V b %.:.k.",
"k.=.H S F -.-.h.#.@ @ % t t u t s T f.H.+.{ A.D.G.u.1.M.v.x.0.*.;.:.;.b b %.:.:.",
"k.k.H S &.;.:.k.$.* @ % r t r 2 ) Q X.>.! u.A.S.F.F.^ w.n.x.x.w.:.j.;.S b $.:.j.",
"k.k.=.S $.:.h.k.*.= $ o e e e P | | [ | u.A...A.S.D.] 9.M.M.v.x.j.j.:.S b #.;.:.",
"q.;.H S H h.k.k.$.* + 1 P Q ` ..u.l.z.S.A.A.u.A.A.A.} 8.M.M.n.x.x.j.:.D 5 D ;.w.",
"k.=.H S &.h.;.&.; * * J | | | l.z.z.z.z.A.A.A.A.A.A.} 1.v.V.M.x.x.x.h.o.m D -.:.",
"k.&.S =.h.h.k.$.* * o s | | | ..u.l.z.z.u. . .u.A.A._ 8.V.C.M.w.k.c.;.S 5 C *.:.",
"k.H S H h.h.k.$.* * 6 J ~ | | [ K J ~ ..A. .{ u...) s 0.C.C.M.q.x.c.;.&.S V $.;.",
"h.=.D &.j.h.x.-.= $ i a L [ ..~ & & & J E E Q P J & 7 x.C.C.N.k.x.c.j.=.M V %.:.",
"h.=.D H h.c.c.c.C + 6 a N ` | ` 6 6.6.f 1 i L 1 f p g N.Z.C.B.B.c.c.c.;.o.V #.;.",
"h.=.F F ;.j.c.c.-.5 & J P ` | | ' J.L.g.6.Q ' 5.K.4.A N.Z.B.B.B.M.M.c.j.$.b D &.",
"k.h.=.S F h.c.m.x.0.V N P ` | ..l.r.d.d.e.u.' ( t.( W N.Z.B.m.v.M.M.c.-.V ; o.-.",
":.k.&.S F k.m.M.V.c.%.G 9 i ~ | l.l. .{ { ] Q [ ] / 8.Z.Z.N.w.q.x.c.c.-.B M %.;.",
"k.-.H H ;.x.c.M.N.N.v.x.A # 1 J ~ y.{ Q g R L Q / U b.Z.Z.v.w.w.k.c.k.H b V &.q.",
"k.;.F S ;.j.c.M.N.N.N.M.G * $ < p a a s i K R R 1.k.Z.Z.Z.B.N.n.c.k.;.D - C &.w.",
"h.h.H S ;.x.x.v.N.C.C.b.5 = > p j L ) P K L K i w.Z.B.Z.C.C.B.B.M.c.&.M - D -.w.",
"k.k.$.H k.k.;.k.N.V.B.*.= * 8 { ) Q { ] ] { ~ a e.N.V.V.C.C.N.N.v.x.-.V - O.q.w.",
"h.-.H H h.;.;.k.M.N.M.%.* * 7 ) Q s R R ! R / r I n.V.C.C.V.M.b.;.;.*.M b %.w.w.",
"k.;.H H :.:.0.q.v.M.N.h.V 3 L ~ L < w y r y l u N v.V.C.B.N.M.x.;.;.=.M B *.k.x.",
";.-.H S :.:.k.k.c.M.N.N.x.%.9 Q L q w w < r h j O.V.C.V.B.N.M.v.j.:.:.D M %.w.k.",
"h.;.F S %.;.:.h.c.c.M.M.B.k.0 3 % 1 r < q u e ,.N.B.B.B.N.M.v.n.j.j.;.V m O.;.k.",
"h.;.H M F ;.:.h.x.c.c.M.N.M.k.9.1 o o 0 1 q , 1.N.B.B.N.m.x.k.k.:.:.:.D m O.;.w.",
"h.;.&.V F ;.:.;.w.k.c.c.M.M.M.n.9.1.o.9.9.8.1.k.B.N.m.M.c.w.-.q.;.j.:.S - O.;.w.",
"h.h.&.S S =.:.;.-.;.:.c.x.k.w.w.M.M.n.n.N.M.v.N.N.m.c.c.c.k.-.0.:.*.o.B ; o.;.k.",
"h.h.=.S M H q.;.;.-.:.j.h.h.;.q.c.M.c.-.x.M.c.M.M.k.-.w.h.h.:.;.&.F n - M $.;.w.",
";.h.k.H M S =.h.:.:.:.h.h.j.k.k.j.v.c.h.x.c.m.c.c.;.-.w.:.;.=.#.M b - V #.=.;.w.",
"k.;.k.=.F M S H -.:.h.h.;.;.:.;.j.j.x.x.c.c.j.h.j.:.:.*.=.&.S m - ; V #.-.w.q.k.",
"k.k.h.h.&.S M M M F #.$.D F F D *.D %.:.$.;.%.#.o.D o.C V M - ; - C &.-.w.q.k.w.",
";.h.k.k.q.&.H M b n n - - b b b m 4 M D - D V b M ; b ; B V B C o.&.;.k.:.:.w.w.",
"k.h.;.k.k.k.=.&.#.D C C S C C F C S S M b C b B b B D D o.%.%.&.-.:.:.:.w.k.w.w.",
";.;.h.k.q.q.q.=.;.;.-.&.-.&.&.-.0.0.-.#.%.%.o.O.%.&.;.-.-.:.;.:.:.:.k.k.k.k.k.k.",
"k.k.k.;.k.k.k.k.k.:.k.:.:.:.:.:.w.w.:.;.;.;.-.;.;.;.;.:.:.:.:.:.:.w.:.k.k.k.k.k."
};
