/* XPM */
static char *exit2[] = {
/* columns rows colors chars-per-pixel */
"40 40 141 2 ",
"   c #1C250C",
".  c #1E280C",
"X  c #202C0C",
"o  c #25330E",
"O  c #28370F",
"+  c #263D0F",
"@  c #293D0F",
"#  c #222C17",
"$  c #243110",
"%  c #273D10",
"&  c #2A3E10",
"*  c #242A29",
"=  c #293625",
"-  c #252B37",
";  c #283632",
":  c #27400F",
">  c #28400F",
",  c #274210",
"<  c #2B4411",
"1  c #2D4A12",
"2  c #314512",
"3  c #334C13",
"4  c #384F14",
"5  c #2F5013",
"6  c #345314",
"7  c #3A5415",
"8  c #3C5B16",
"9  c #3F5F18",
"0  c #3E4B36",
"q  c #334038",
"w  c #415D17",
"e  c #435D1A",
"r  c #426117",
"t  c #456319",
"y  c #49661A",
"u  c #4C6C1B",
"i  c #516F1D",
"p  c #4F701C",
"a  c #54741D",
"s  c #58771D",
"d  c #57791E",
"f  c #5B7C1E",
"g  c #607F1E",
"h  c #414F37",
"j  c #404E3B",
"k  c #45553A",
"l  c #4D553A",
"z  c #4B6620",
"x  c #547420",
"c  c #5A7720",
"v  c #577920",
"b  c #5B7E20",
"n  c #597629",
"m  c #536B30",
"M  c #252241",
"N  c #292241",
"B  c #26254B",
"V  c #28274D",
"C  c #28294E",
"Z  c #362443",
"A  c #392542",
"S  c #332B4E",
"D  c #382848",
"F  c #2B3440",
"G  c #2C344C",
"H  c #2E3A4E",
"J  c #292A53",
"K  c #2B2E5A",
"L  c #372E53",
"P  c #2E3753",
"I  c #2C3850",
"U  c #3C3255",
"Y  c #313B54",
"T  c #34315B",
"R  c #3D325D",
"E  c #323F5D",
"W  c #2D3467",
"Q  c #2F396E",
"!  c #353465",
"~  c #373769",
"^  c #303A6D",
"/  c #39386A",
"(  c #2F3971",
")  c #313D73",
"_  c #323E7A",
"`  c #442743",
"'  c #4A2844",
"]  c #462B4F",
"[  c #5B2B45",
"{  c #4C2F50",
"}  c #632C46",
"|  c #6D3C51",
" . c #723D51",
".. c #473561",
"X. c #4F3663",
"o. c #453C77",
"O. c #463E7B",
"+. c #3B474A",
"@. c #3E4D4D",
"#. c #3A4550",
"$. c #3D4C52",
"%. c #3F515C",
"&. c #314363",
"*. c #334176",
"=. c #384C76",
"-. c #34437B",
";. c #384E7B",
":. c #424F44",
">. c #495D41",
",. c #41524F",
"<. c #455A4E",
"1. c #415354",
"2. c #40535C",
"3. c #7F4252",
"4. c #4A614E",
"5. c #5D4469",
"6. c #484078",
"7. c #854555",
"8. c #5F801F",
"9. c #61811E",
"0. c #5E8222",
"q. c #618523",
"w. c #658B25",
"e. c #688C26",
"r. c #65872A",
"t. c #678D29",
"y. c #688F28",
"u. c #679026",
"i. c #699127",
"p. c #6C9429",
"a. c #6E992A",
"s. c #70972A",
"d. c #719C2B",
"f. c #74A02D",
"g. c #364681",
"h. c #374A84",
"j. c #3C5593",
"k. c #3E5898",
"l. c #5E5485",
"z. c #5B5CA0",
"x. c #6566A5",
/* pixels */
"0.0.0.0.b 0.b b 8.8.f 8.b 0.8.8.8.8.d 0.8.f f f 8.0.0.0.0.f 8.v 0.f b b b b f f ",
"0.0.0.0.b b b b f d p d u p p p 9 p t p u p p t u u 8.p p d a d f f b b 0.f 0.b ",
"b 0.b b 0.b p u t 9 6 7 5 6 8 6 6 6 5 6 7 6 7 7 5 5 6 6 5 9 8 8 9 u f f f 0.f b ",
"b b b b f u 6 5 5 6 7 9 9 u 9 y a t 9 6 8 7 y s y 9 9 9 1 6 8 5 1 6 u d 0.f b b ",
"d 8.8.p 9 6 5 9 u a u f g g g s a w 7 4 7 w y g 8.d f p t d 8.p 7 > 6 u d b b b ",
"0.8.f u 5 6 t 9.9.f d d g s e e 2 @ o o X o & 4 y f 8.f 0.f 8.8.f 6 > 6 u b b b ",
"f 0.a 6 6 u 8.8.f d c b s e 2 O X X .     . X X < w a 0.8.8.f f q.y 1 < 7 s b b ",
"v 8.d 6 8 8.9.f s s c g s 3 o X X X . . X X X X X O r 0.0.8.f f f d 9 < 1 u q.0.",
"0.0.p 6 8 8.8.d p p 0.0.y @ X X # * H W G &.H * # X 7 b e.q.b c d f a 1 > u b b ",
"d d 9 5 6 a a 8.8.b u.q.w X X ; =.*.-.j.Q j.*.*.=.; 4 b w.0.a i d 8.d > > y d q.",
"v 0.9 8 p d d 8.0.0.w.0.w # - =.k.) J K V K J *.k.-.q f r.q.q.b 8.8.d 3 > t f f ",
"0.0.p 5 t d 8.0.u.0.w.w.w = ;.-.W B M M M M M C W -.;.m y.i.y.w.9.8.8.6 > w d f ",
"v 8.t 5 t d 0.w.u.u.p.w.9 F h.*.D ` M M M M M M M _ g.:.r.i.w.0.8.8.f 6 + w d b ",
"0.p 9 6 p f f 0.u.p.a.w.8 G W J | } Z M M M M M M V W +.r.s.i.q.w.q.8.9 @ 7 a b ",
"d t 5 p f 8.8.w.p.a.a.u.e W k.U 3.} A - M M M M M K j.%.i.a.p.b q.w.d 7 + 6 u f ",
"0.p 6 t 8.8.w.u.p.a.a.u.e T *.T 5.{ Z M M M M M M J g.$.p.d.i.s 0.w.f u 6 2 y d ",
"0.p 6 y 9.8.0.u.e.e.p.e.t G ^ / x.O.Z M M M M M M J ^ ,.p.d.p.q.8.u.9.p > 3 y d ",
"8.d 6 9 9.w.w.u.e.q.q.q.e E j.! O.R Z M M M M M M K j.2.p.d.d.a.p.9.w.f 9 5 t s ",
"f a 6 r f 9.w.w.q.c y.e.e P Q L  .[ A N M M M M M V ) $.p.d.p.a.p.u.w.9.t > 7 u ",
"0.b u 6 8 8.u.u.q.y.d.i.e P *.U 7.} Z M M M M M M V *.1.a.p.i.t.p.p.9.a 1 > w a ",
"f 0.u 5 9 8.u.i.p.s.d.p.t &.j.R  .[ Z M M M M M - K j.2.a.a.n v w.t.w.a 1 2 y v ",
"0.d r 9 a w.u.u.p.i.i.w.z P _ ! l...Z M M M M M M J _ $.a.t.b b 0.w.0.9 < 3 y c ",
"b d 8 6 f 9.w.i.p.s.p.i.r.#.^ / z.o.Z M M M M M M V ) 1.p.d.p.t.0.0.v 7 % 4 i b ",
"0.0.9 5 f 9.9.i.p.s.d.d.p.2.h.T X.{ Z M M M M M M J h.2.s.d.d.p.u.w.u < % 7 x b ",
"f 0.u 8 f 0.f q.i.s.s.a.w.#.) S | ' N M M M M M M B ) @.p.d.p.i.t.q.s 1 > w v b ",
"0.d 9 9 8.d a q.i.s.i.9.n >.4.k l h 0 h 0 k k 0 0 j <.>.r.a.p.r.v c u 1 < y b b ",
"b d 8 8 g d a v e.i.i.w.w.s.f.f.y.r.t.p.f.f.a.r.r.s.s.p.a.a.i.0.s d i 1 < u q.0.",
"b d 8 6 f b b 0.w.i.p.p.p.s.d.d.s.d.d.d.f.f.t.w.y.s.s.s.a.p.i.t.8.f g 6 < u b 0.",
"8.d 6 6 y f f 8.w.u.i.p.a.a.a.d.d.d.d.d.f.a.y.r.a.a.a.a.p.p.u.w.9.8.d 3 > e d b ",
"0.d t 1 9 a d 8.0.w.w.p.p.a.a.a.d.s.p.d.a.t.y.y.p.a.a.p.u.0.0.0.8.f 8.6 < t d b ",
"f b u 5 8 d f f b 0.q.u.i.i.p.i.a.y.t.s.a.y.w.p.p.a.p.p.w.b a a f 9.f 6 > w d b ",
"f 0.u 5 6 a f a p b 0.q.q.0.b c i.i.r.t.p.y.w.p.i.u.w.w.q.b a s f u w 2 @ e d b ",
"f f p 6 < 9 f d a d f 8.8.8.a v w.i.q.s q.i.u.u.u.8.a b 0.8.d s u 6 : + < t c b ",
"b 0.f y 1 6 d f f f f 8.8.w.0.0.w.t.w.g q.w.w.u.w.a x f 0.f a r 1 : + 3 r p b b ",
"b b 0.p 7 1 6 r a 8.9.8.d d f d 9.9.q.w.q.w.0.8.9.f f i a r 6 < + @ 3 t a b b 0.",
"0.b 8.0.u 6 1 < 1 7 r r 6 7 w 6 a 6 t b y d t t 9 8 w 3 3 1 % % @ 3 y s b b b b ",
"f f 0.0.0.u 8 1 < > : : : > > > < % 1 7 + 7 1 < < + & + < 2 < 4 w u d b b b b b ",
"d 0.d 0.0.v p u t 8 3 3 7 3 7 7 3 7 7 < 2 3 @ 2 < 3 7 7 w y t u s d f 0.b b b b ",
"0.d 0.8.v 0.v d d s p p a a u a x x x r t y w e y y a s s d c d b b b 0.0.0.0.0.",
"f 0.8.v 0.v 0.8.b b b f c f f f v b b s s d a s d d f f b b b 0.b f b b 0.0.0.0."
};
