/* XPM */
static char *exit1[] = {
/* columns rows colors chars-per-pixel */
"40 40 167 2 ",
"   c #1B260B",
".  c #1E2A0B",
"X  c #1E2713",
"o  c #1F2A11",
"O  c #212E0C",
"+  c #24330D",
"@  c #263E0F",
"#  c #293C0F",
"$  c #212D11",
"%  c #2B3E10",
"&  c #232E21",
"*  c #263125",
"=  c #272F3E",
"-  c #252C34",
";  c #28333C",
":  c #27400F",
">  c #28400F",
",  c #274210",
"<  c #2B4411",
"1  c #2D4A12",
"2  c #314411",
"3  c #344D13",
"4  c #394E15",
"5  c #345314",
"6  c #3A5515",
"7  c #375815",
"8  c #3C5C16",
"9  c #3B5119",
"0  c #3E5D18",
"q  c #3F6018",
"w  c #415C17",
"e  c #445F18",
"r  c #426117",
"t  c #456319",
"y  c #49661A",
"u  c #4C6C1B",
"i  c #4C6517",
"p  c #506F1C",
"a  c #4F711D",
"s  c #54741D",
"d  c #58771F",
"f  c #57781E",
"g  c #5A7C1E",
"h  c #617F1F",
"j  c #4B5C35",
"k  c #557520",
"l  c #597620",
"z  c #577820",
"x  c #5B7E20",
"c  c #5C7828",
"v  c #4F6135",
"b  c #4B6139",
"n  c #526737",
"m  c #556837",
"M  c #506639",
"N  c #536A38",
"B  c #2B264B",
"V  c #2D284D",
"C  c #27264C",
"Z  c #342442",
"A  c #3B2744",
"S  c #332748",
"D  c #30294C",
"F  c #2A3146",
"G  c #2B3348",
"H  c #2D384C",
"J  c #2C3B44",
"K  c #2D2A53",
"L  c #2E2E5C",
"P  c #342E54",
"I  c #322D59",
"U  c #3D2C58",
"Y  c #2E3956",
"T  c #2E385A",
"R  c #333058",
"E  c #303F5F",
"W  c #2C3060",
"Q  c #2E366B",
"!  c #2F386C",
"~  c #323264",
"^  c #36356A",
"/  c #303A6E",
"(  c #2F3870",
")  c #313C73",
"_  c #3F3873",
"`  c #422642",
"'  c #432844",
"]  c #4C2B45",
"[  c #482D4D",
"{  c #462C4B",
"}  c #542D46",
"|  c #5A2E47",
" . c #542F48",
".. c #5F2F48",
"X. c #5C3149",
"o. c #452C56",
"O. c #452E59",
"+. c #492E59",
"@. c #573450",
"#. c #5C3550",
"$. c #602F48",
"%. c #64334A",
"&. c #6C394E",
"*. c #713B4F",
"=. c #613751",
"-. c #643953",
";. c #743D51",
":. c #783F52",
">. c #4B3E6F",
",. c #41366E",
"<. c #443B73",
"1. c #4A3F75",
"2. c #3C494D",
"3. c #374346",
"4. c #334057",
"5. c #3C4954",
"6. c #394451",
"7. c #3F5057",
"8. c #3F5058",
"9. c #3E4F62",
"0. c #3E5062",
"q. c #334276",
"w. c #364B75",
"e. c #34447B",
"r. c #36487F",
"t. c #415354",
"y. c #7E4153",
"u. c #4A6142",
"i. c #516B43",
"p. c #4B4175",
"a. c #514374",
"s. c #594D78",
"d. c #824354",
"f. c #5F801F",
"g. c #61821E",
"h. c #5E8222",
"j. c #618523",
"k. c #658B25",
"l. c #698E26",
"z. c #668C29",
"x. c #688F28",
"c. c #63872D",
"v. c #679026",
"b. c #699127",
"n. c #6C9429",
"m. c #6E992B",
"M. c #719C2B",
"N. c #74A12D",
"B. c #364A81",
"V. c #384F82",
"C. c #394E8A",
"Z. c #3B5485",
"A. c #3B5688",
"S. c #3B5493",
"D. c #524F8C",
"F. c #555493",
"G. c #5A5791",
"H. c #5A5798",
"J. c #716C9C",
"K. c #79749F",
"L. c #5C5BA1",
"P. c #6365AC",
"I. c #6969AB",
"U. c #7773AA",
"Y. c #837DAE",
"T. c #9894BD",
"R. c #8786B8",
/* pixels */
"h.h.h.h.x x x x f.f.g f.g h.f.f.x g g h.g g g g x h.h.h.f.h.g x x h.g g x h.g h.",
"h.h.h.h.x x h.x g f a f a a s u t a y a u p s t u u g a a f f f f h.g h.g g h.g ",
"x x h.x f.g a u r 8 5 8 5 5 7 5 5 3 1 5 5 5 6 5 1 5 7 5 5 0 7 7 q u g f.h.g h.x ",
"g h.x x g y 5 5 1 5 8 8 8 y 5 3 3 @ @ + > 1 w s u 0 0 q 1 5 8 5 1 5 y f g h.g x ",
"f f.f.s q 7 1 q i s u f s i 4 % + O O . + # 4 p g f g a y f f.a 5 1 3 y f x x x ",
"h.f.f y 5 5 q f.h g f s w + O . . .   . .   + 2 i g f.g g g g f.g 7 : 5 u x x x ",
"f.h.s 7 5 a f.f.h d s i % O   . . .         . O > u g h.f.f.g g f.u 1 < 5 s h.x ",
"h.f s 5 8 f.f.f.d s p 4 O O . . O O X X X . O O + 5 s k.h.f.g g g l q < 1 u h.h.",
"f f f 5 q f.f s s a a 3 O . O & - 4.w.R w.! - & + w h.v.k.k.x s g g a 1 > y x x ",
"h.f q 5 7 s f f.g f.f 3 O   ; A.e.( C.Q Z.) q.Z.J 4 h.b.k.h.s s f f.s 1 > y g x ",
"h.z q 5 a f g f.h.h.s 4 $ ; e.S.( K K C K V / S.e.3.h.n.k.h.h.h.f.f.s 3 > i g f.",
"h.h.a 5 t f f.h.k.j.k 4 & Z.r.L C ] | Z } } C W e.D.M b.n.n.b.j.g.f.f.5 > r s g ",
"f f.q 5 q f h.h.k.b.h.4 = e./ S ` &.d.A y.;.' A ) ) 2.j.k.n.j.h.j.g.g 6 @ w s h.",
"h.a q 5 a g f k.v.n.h.9 F ! V %.} *.d.A y.;.} %.D / 6.c.x.m.n.j.j.j.f.0 > 5 s g ",
"f q 5 a g f.f.k.n.n.j.9 Y S.R *. .%.y.A ;.&.} ;.P S.9.c.m.m.n.x h.k.s 5 > 5 u g ",
"f.a 5 t f.f.k.v.n.n.h.9 G ( W p.p.a.a.q.a.s.s.p.I ) 5.m.M.M.n.k j.k.f.u 7 2 y f ",
"f.a 7 y g.f.j.b.l.x.x 4 H q.^ L.P.P.P.P.I.R.T.I.^ q.t.m.M.M.m.c g.k.g.a > 3 y f ",
"f.s 5 8 g.k.k.b.z.h k 4 Y S.~ ,.<.<.<._ <.1.p.<.~ S.t.n.N.M.M.m.l.k.k.f r 3 y f ",
"x s 8 q f g.k.k.h l x 4 F ! V X.] | $.Z $.| ' ..S Q 5.n.N.m.m.m.n.v.k.g.t > 6 u ",
"h.g u 5 8 f.k.v.j.x.j.9 H B.P y.X.*.d.A d.;.X.d.P r.t.x.N.m.z.z.b.v.k.f 1 # w s ",
"g x a 5 0 f.v.b.m.m.j.e 4.S.I X.[ @.-.S -.#.[ %.L S.9.m.N.m.c x j.b.j.s 1 1 i x ",
"h.f t 8 s k.v.b.n.n.k.c 5.! ~ D.F.F.F.F.H.J.U.G.~ ( 5.m.N.z.h.c h.k.h.q < 1 y l ",
"x f 7 7 f g.k.b.m.n.n.n.t.e.^ F.L.L.L.H.L.U.Y.H.^ e.7.m.N.m.n.k.h.h.z 7 @ 4 u x ",
"h.x q 5 d g.j.l.n.M.M.m.7.B.K o.U O.O.I +.+.U +.K e.8.m.N.m.m.n.b.k.u < % 6 s x ",
"g h.u 7 f.h.g j.n.m.m.z.t.^ V } ` } %.Z |  .A | V ! 6.z.N.M.m.n.k.k.s 1 > t z x ",
"h.f q q f.f s j.v.n.b.x j i.N m v j j j m m M b j u.j c.M.m.n.h.z g s < < t x h.",
"g f 7 7 g g k z l.v.n.l.k.M.M.N.m.k.l.n.N.N.m.k.k.n.m.M.m.n.n.j.s l s 1 < u j.h.",
"f.k q 7 h g x h.k.v.n.n.n.M.M.M.M.M.M.M.N.N.z.k.n.m.M.m.m.n.n.k.f.g g 5 < u c h.",
"f.f 7 5 y f g g.k.v.b.b.m.m.m.m.M.M.M.N.N.m.z.k.M.m.m.m.n.n.k.k.g.f.g 3 < w f x ",
"g g q 1 8 s g f.h.k.v.v.n.m.m.m.m.n.n.M.m.z.z.b.m.m.n.n.x.h.j.h.g g g 6 < t f x ",
"h.g u 1 8 f g g f.h.h.v.v.n.n.n.m.b.k.m.m.b.j.n.n.n.m.n.k.x s s g g.g 5 < w f x ",
"h.g u 5 5 s g s a g h.k.h.h.z z n.n.j.x.n.n.x.n.n.v.j.k.j.h.k s g u 0 < % w f x ",
"g h.a 5 < q g f s f g g.f.f.s s k.b.j.s j.l.v.v.v.f.s x h.f.g s u 8 @ @ 1 t f x ",
"x x g t 1 7 s g f.g g g f.k.h.j.k.l.k.j.j.k.k.k.k.f s x f.g a q 1 : @ 3 q a x x ",
"x x f.f 7 < 5 t s g g.g.f s g g g.g.j.k.k.k.g.f.g.h x u s y 5 < : @ 3 e f z f f.",
"x g h.g a 5 , , 1 6 r t 5 6 0 5 p 5 y g e g y r 0 7 w 3 1 1 @ # @ 3 i s f f.h.h.",
"g h.h.h.h.u 7 5 < > : : @ > > > < # 1 6 @ 6 < < < @ % @ % 1 < 4 w u g g x x f.z ",
"f.z f h.h.z a a t 6 3 3 5 4 4 8 5 5 6 < < 3 < 2 < 3 6 6 w y t u d g g h.x x h.f.",
"h.f.f f h.z h.z g s s u s s u s a k k t t i w t t i s s k g s g g x x h.h.h.h.c ",
"f h.h.f.z h.f.f x x x g g g g g x h.c s s g s d g l x x x h.h.g x x x x h.h.h.h."
};
