/* XPM */
static char *exit[] = {
/* columns rows colors chars-per-pixel */
"80 80 199 2 ",
"   c #1B250A",
".  c #162809",
"X  c #1E2A0B",
"o  c #1E2614",
"O  c #212D0C",
"+  c #24340D",
"@  c #28360E",
"#  c #253C0F",
"$  c #293B0F",
"%  c #202914",
"&  c #222B1A",
"*  c #2C3E10",
"=  c #293814",
"-  c #303E10",
";  c #262E25",
":  c #252B2C",
">  c #262B32",
",  c #272C37",
"<  c #2B3233",
"1  c #323B36",
"2  c #31363D",
"3  c #34393E",
"4  c #25400F",
"5  c #2C410F",
"6  c #33440F",
"7  c #264310",
"8  c #2B4411",
"9  c #2C4B12",
"0  c #314512",
"q  c #344B13",
"w  c #394E13",
"e  c #2F5113",
"r  c #335314",
"t  c #3B5415",
"y  c #375816",
"u  c #3C5B16",
"i  c #3D5A19",
"p  c #3D4C34",
"a  c #425817",
"s  c #415B17",
"d  c #435D19",
"f  c #436317",
"g  c #496617",
"h  c #456319",
"j  c #49661A",
"k  c #486819",
"l  c #4D6B1B",
"z  c #516E1D",
"x  c #4E701C",
"c  c #54741D",
"v  c #59761D",
"b  c #57791E",
"n  c #5A7C1E",
"m  c #607F1D",
"M  c #465735",
"N  c #495B34",
"B  c #45563C",
"V  c #557421",
"C  c #5A7620",
"Z  c #577922",
"A  c #5B7E20",
"S  c #5D7D29",
"D  c #4E653A",
"F  c #536C32",
"G  c #617E21",
"H  c #617F2B",
"J  c #262243",
"K  c #2C2341",
"L  c #27264C",
"P  c #2A254C",
"I  c #272949",
"U  c #282A49",
"Y  c #322341",
"T  c #3A2644",
"R  c #36274D",
"E  c #343B44",
"W  c #343C4B",
"Q  c #282751",
"!  c #272851",
"~  c #292954",
"^  c #2B2C5B",
"/  c #332956",
"(  c #322A59",
")  c #3A2B59",
"_  c #2B3153",
"`  c #2C325E",
"'  c #2B2E62",
"]  c #352D65",
"[  c #382E67",
"{  c #2D3363",
"}  c #2F3964",
"|  c #2E356A",
" . c #2F396A",
".. c #39326B",
"X. c #303C6E",
"o. c #2F3871",
"O. c #3E3774",
"+. c #313B74",
"@. c #323E7A",
"#. c #442642",
"$. c #4B2742",
"%. c #432A47",
"&. c #4C2C47",
"*. c #552943",
"=. c #542A45",
"-. c #5A2943",
";. c #55314C",
":. c #5D324B",
">. c #482E51",
",. c #4D3254",
"<. c #5F3750",
"1. c #642B44",
"2. c #682E46",
"3. c #623149",
"4. c #6C344B",
"5. c #73354B",
"6. c #79374C",
"7. c #74394E",
"8. c #7C394E",
"9. c #693C52",
"0. c #7C3D51",
"q. c #423D7A",
"w. c #3B4743",
"e. c #3E4A42",
"r. c #34446F",
"t. c #354777",
"y. c #34437D",
"u. c #415041",
"i. c #45407F",
"p. c #803B4F",
"a. c #823E51",
"s. c #894556",
"d. c #8E4959",
"f. c #934D5B",
"g. c #97515E",
"h. c #98525E",
"j. c #5E801F",
"k. c #64831E",
"l. c #68871E",
"z. c #6A891F",
"x. c #5D8222",
"c. c #5F8823",
"v. c #5F8229",
"b. c #628523",
"n. c #658B24",
"m. c #6A8D24",
"M. c #62842A",
"N. c #658B29",
"B. c #6A8F28",
"V. c #679026",
"C. c #6A9227",
"Z. c #6C9529",
"A. c #6E992A",
"S. c #709227",
"D. c #719528",
"F. c #719C2C",
"G. c #6D9530",
"H. c #74A12D",
"J. c #443C86",
"K. c #364683",
"L. c #364982",
"P. c #384C85",
"I. c #394D8C",
"U. c #3A528C",
"Y. c #3C5493",
"T. c #3E5C92",
"R. c #3F5B9A",
"E. c #4A4685",
"W. c #49428D",
"Q. c #534C88",
"!. c #565085",
"~. c #4F4D92",
"^. c #514C94",
"/. c #405E9E",
"(. c #5A5597",
"). c #655D9D",
"_. c #41649D",
"`. c #6A649C",
"'. c #70699C",
"]. c #5C5AA3",
"[. c #4366A4",
"{. c #446AA5",
"}. c #456DA9",
"|. c #4771AC",
" X c #4874B1",
".X c #4A78B4",
"XX c #6365AC",
"oX c #6568AD",
"OX c #676AB0",
"+X c #696CB1",
"@X c #7576B3",
"#X c #7A7BB6",
"$X c #7E80B9",
"%X c #8988BA",
"&X c #9692BC",
"*X c #9C9AC1",
"=X c #A19EC2",
"-X c #AAA6C6",
";X c #B0ACC9",
/* pixels */
"A x.n A x.x.x.x.b x.n x.n b x.n n j.n x.n A x.A A A n x.x.n A n x.n A A A A A A j.j.n j.A x.A A A n x.x.x.A A A A n A A A A A A A A A A A A A x.n A A j.A x.n A ",
"A c.b.A x.c.x.Z x.b x.b A x.A A j.n x.n A A A A A A A n n j.n x.A A A A n A x.n n n n j.A n A x.A A n x.c.A x.c.x.A A A x.n A A n x.x.n j.A A A A A A A n x.A A ",
"A x.V.c.x.c.x.x.b x.b x.A A x.b j.j.j.b b x.b A b A Z j.n n b n x l b A x k c n b x x b n b f k b A b c c.v.x.x.b A A A A x.Z n A A A A A n x.n n A A n x.b b x.",
"A A c.v.x.v.c.x.x.n x.n A j.A A n b n x f V b x i x k x b x u x y r j x f r k c x u u c c k r i u l f y Z x.k u u x b b b x A x c b A A A A n x.A x.n x.A n x.A ",
"n A A x.Z v.x.A x.A n A b Z x.k g c c u e u f g e r r u g f r w r 9 r u r e y d u r r f f r r r 9 r r e g j y e 9 u l l y u k y j c c A A A j.n A A A A x.b x.n ",
"A A A x.A A A A n n x.Z c f x f e u f 9 e 9 6 9 e e 9 9 q 9 e 9 9 r 8 # 8 9 8 # 5 e 9 5 9 r f q 9 9 e 9 9 q r e 9 q r r e r r 9 t t u c n n A j.n x.A A n x.b x.",
"A A A n A A A A A A A j u e r y e e 9 9 e r r 9 9 u f y 9 7 r u 7 a r + # t # # 4 u r 4 9 l m d e u g 9 9 u u e 9 7 4 r e 9 r 9 9 9 w h k c n n A x.n n A A n A ",
"x.n n x.A A A A A A x y 9 e e 9 9 e y e 9 g c u y l j.c g 8 w a 0 w 6 X + 8 + . O t w # w v m n z n n e u n v y 9 9 u f u l y 9 9 9 8 9 r l v c A n A x.A A x.n ",
"n x.n A A x.A c x c j 9 r e 9 r f r c x r c j.k.m v v l g w 6 6 6 @ + O O O O   X $ 6 @ w g v k.l.k.n f b j.b f 9 g b n n l.u g y 9 9 7 9 u g n b A A A A A A A ",
"A n x.n A A A f r r r 9 e e f k k.v v j.x n n m m v a a 6 $ + + O O O O O O O O X O + @ $ q a z b n l.j.j.n b c l b j.k.j.l.k.k.u 9 9 7 8 0 a x b A A n A A n x.",
"A A A x.A A n f 9 e e 9 e u l.l.l.n k.n n b b c g a 6 - O O X X O     O   O O     O O X O $ 6 t j c n j.j.j.n n b b b j.b j.k.k.c b y 9 4 4 9 f x b A x.A A A A ",
"x.A A A A x g g r e y u r b z.k.n b n b n b c g a - @ O   O X X O X O   O     %     X     + @ 6 q j b x.j.j.A n j.b b b b n j.k.k.z.g 9 8 9 4 q u x b b n x.A A ",
"n n x.A n l r y 9 9 u k.k.k.z.n n G b b v v c a a @ O         X   O   O X           O     O O @ - t z C A A Z x.j.j.j.j.b j.b b k.z.c 9 9 7 8 7 q h c b A A A A ",
"A A A A n c r r e r u k.k.j.j.n b G n b v c l a @ O       X X X X O O X O                 O O O + - d z c n x.c.j.j.j.j.b b j.b n j.n g e 9 9 7 8 i l x.A A x.A ",
"A n n A n b u e e x v k.k.n n b b C C v b l d a @ O     X X X O X X O X X           O O O O O O % @ 0 a l Z j.c.j.j.j.j.j.b n n b n n b f r 7 7 # q h x.x.c.c.A ",
"A x.A A n c r 9 e g l.l.l.k.n n v c z c b k a 6 O O O O X X O X O O O O %   % %   % % O O O O O + + - t x j.V.n.n.c.j.j.j.n m n b n b n c y 9 7 * q d Z v.c.A x.",
"A n j.x.b b u e 9 u j.b j.n n n c c l l A l i * O X X O O X X O o o : U _ _ U J _ _ _ > & & O O O @ q d z x.C.n.n.n.c.x.x.j.C n b k.c n b g r 4 # 9 a l Z x.A A ",
"n x.x.Z c b f 9 e g l.j.b b b c v x l c A V a * + X   O O O o > U I | {. X|. .{ {. X}. .P P , % O @ q d V N.N.C.B.n.n.n.x.c Z c b n b n k.v e 4 # 6 s c Z A A A ",
"x.A x.k i f e 9 9 f j.j.b n b j.n b z n x.z t * + X   X X : ` T.Y.^ { Y.R.R.{ { Y.R.Y.| ~ P./.} > + 0 j A B.C.B.B.V.n.c.C z z z c b c j.z.b 9 # # q d c b x.A n ",
"n A x.b r e e e 9 9 x n c b j.j.j.j.j.b.x.c t * + X X o : t.|.{.{.X.^ +.K.K.{ ^ K.P.@.^ } [.[.|.P.2 = d A B.C.Z.V.c.x.Z z l l z c j.b j.l.g 9 # # 0 d z n A A x.",
"A A A c.k e e i k k b b V x j.j.c.x.A x.x.z t * O O & J +.[.R.Y.U.| Q ~ { ' P P ' ' ' Q | I.Y./.[.t.U a S B.D.Z.C.n Z x.H x.n A j.j.j.j.n u e 7 # 8 a z c n x.n ",
"A A A x.Z y e y b j.b b b b x.j.b.b.A Z Z V a * + O , ' { y.I.I.@.~ J J J J J J J J J J Q o.I.I.K.' { W Z C.D.Z.v.S b.V.n.n.B.b.c.j.j.j.k.k.f 9 # 5 w l v n n A ",
"x.A A Z Z l y e k b n b n x.c.c.b.n.n.S V z a 8 + ; } }.t.^ o.o.~ J K *.-.$.K J #.-.*.Y J ! o.o.^ r.{.r.N Z.B.D.Z.C.C.C.V.V.n.b.j.c.j.j.k.z.f 4 # $ t l c A A A ",
"A A x.Z V l u 8 e k b n j.j.k.b.n.n.n.N.v.V d - + , U.R.{.t.! L J J #.5.8.2.Y K 1.0.6.$.J J P ! X.{./.Y.w.M.B.Z.A.Z.C.C.C.n.n.n.l.j.j.j.k.n e 4 # 5 t l b A A A ",
"A A A n j r e 9 e f k n x.c.b.n.n.V.C.C.n.Z a 0 ; ~ P.Y.Y.+.J K #.Y =.f.f.0.Y K 5.g.d.-., $.K J  .Y.Y.I.{ N b.B.Z.m.Z.Z.n.x.S x.b.b.c.b.z.c u 9 $ 8 t k c A n x.",
"A A A A x u r r f c c n j.c.b.b.n.V.C.C.n.Z i * : ^ ' +.o.~ K &.1.Y =.f.g.0.Y K 7.g.g.:.Y 1.*.J Q o.@.' ^ p H b.M.n.D.Z.N.n Z A A x.x.j.k.k.f 4 # * q j c n A n ",
"A A A n c f q r c m A C Z A n.n.n.C.C.C.N.Z d 0 ; ! ~ ~ L J #.5.2.Y =.f.h.0.Y K 7.g.g.3.Y 1.5.$.J P ^ Q ~ M M.n.b.B.D.Z.Z.C.B.M.n.b.b.b.z.c u e 9 7 0 d l Z A A ",
"A A c f r r 9 9 u c m V l c b.n.C.C.Z.Z.N.S d = > o.P.+.L K 1.s.8.Y =.f.h.0.Y K 7.g.f.:.Y 5.d.2.K L  .P.+.e.c.M.m.S.F.D.Z.Z.n.b.b.n.n.b.k.j.b u 7 # 0 u l n A n ",
"A A x y e r u c c n G c z A n.V.C.C.C.A.N.x.d 0 > y. X{.| K 7.g.a.Y =.d.h.0.Y K 7.g.f.:., 7.g.8.Y { [. XI.w.n.B.Z.A.A.A.F.Z.A A b.n.n.b.c.j.f 9 # # 0 i l b A x.",
"x.A A f e e l z.k.n n x.b.n.n.C.C.C.A.C.C.Z d 0 < +.Y.Y.| K :.d.4., %.s.f.4.K K 3.f.s.*.Y 3.d.4.K ^ Y.Y.@.e.A.A.H.F.F.F.Z.m.Z V A b.b.b.j.f 9 4 # $ 0 t j V V n ",
"A A b x u 9 y k.l.n k.j.b.n.V.V.C.Z.A.A.N.x.i 0 > +.I.I.{ J R >.R Q R >.,.R P P R ,.>.P P R >.R J ' P.I.@.e.A.H.F.F.A.A.A.C.V z c.b.n.n.j.k f u r 9 9 8 f c b n ",
"A A b k y 9 9 h k.m.b.b.b.n.V.C.C.A.A.Z.C.Z h 8 > ' | { ~ ( ~.~.^.^.~.~.~.^.^.^.^.^.).`.'.`.(.^.[ Q ' | { e.A.H.F.H.F.A.A.C.z V b.V.n.n.b.c.k.j.x q 7 q s k c Z ",
"A A b u r r u n z.b.A n x.b.V.C.Z.Z.Z.S.B.Z d - ; Q Q Q , q.OX+X+X+X+X+X+X+X+X+X+X#X*X*X;X-X$XoXq.J ! Q ! D F.H.H.F.F.F.F.C.Z z b n.n.n.b.b.j.x r # 5 q u l c Z ",
"A x.n l f r u n k.k.x.x.Z c.V.C.m.m.m.m.M.C d - > y.{./.' ..].OXOXoXoXoXOXOXOXOXoX@X#X&X=X=X#X].q.~ /.{.K.u.F.H.H.F.F.F.A.A.Z.b.x.j.n.n.x.z.x e # 4 5 t j V x.A ",
"A A n n g r 9 r l z.C.z.n.n.C.C.m.b.b.G n z a * > t.[./.| ( J.J.W.W.W.W.W.J.W.W.J.W.^.W.^.^.W.J.] { /.[.K.w.F.H.H.F.F.F.F.A.A.Z.V.n.z.V.B.k.b k r 9 5 r d V A A ",
"n A n l q 9 e k j.z.b.n.n.V.C.C.Z.b.G G c z a - > o.Y.I.' P / ) / / ~ ) >./ ^ / / ) ) ( ( / ) / J ^ I.Y.@.u.F.F.H.F.H.F.F.A.A.Z.Z.V.V.c.n.x.z.k.n k r 9 9 j Z b ",
"x.n A k r e y j.z.k.c.b.n.V.V.V.B.n.V z Z c a * > | K.@.{ , $.1.*.K T 1.1.=.J J $.1.1.#.K $.1.$.K ^ y.K.o.e.F.F.F.H.F.F.A.A.A.Z.Z.C.V.V.n.k.k.k.k.g 9 4 0 i l c ",
"n x.A b j r 9 u x n k.n.n.z.c.x.C C z S C.A d 0 : ^ ' ^ P K 2.p.2.Y $.a.s.4.Y K 2.s.a.-.Y 2.a.4.Y L ^ ^ ^ B C.D.F.H.F.Z.C.A.A.A.Z.C.V.V.n.B.z.j.u 4 # $ 0 a j c ",
"x.A A Z c j t 7 9 u b n.n.V.V.c.S z Z m.Z.S d 0 ; ^ } { U K 7.h.0.Y =.f.h.8.Y Y 5.h.f.3.Y 5.g.0.Y P { } ^ M m.F.H.H.Z.M.Z.A.A.Z.Z.V.V.n.n.z.z.k.u 9 # $ w d c b ",
"n A A n b l f 9 e y x n.n.V.Z.C.C.B.C.A.C.S d 0 < L..X|. .K 7.h.a.Y =.f.g.0.Y K 7.g.f.:.K 6.h.0., ] {..XU.w.D.H.H.H.A.A.A.c.c.B.C.C.V.V.n.n.b u 7 # $ 6 t k c n ",
"A n n A b i e e y b x.c.V.V.C.Z.A.A.F.A.n.Z j w < @.Y.Y.| J 4.f.6.Y &.f.g.7.K K 4.g.f.=.K 4.f.7.Y ' I.R.K.e.F.H.H.H.H.F.N.V l V A b.B.n.n.n.j.f 8 # * q f x b A ",
"n x.x.n A l u e e y b c.n.V.C.C.C.A.A.A.m.x.l h 1 +.Y.Y.' J T :.T J K ;.9.T K J T <.;.Y J T :.#.J ' Y.Y.@.e.G.H.H.F.F.C.V l S S M.n.m.n.n.b.z.j.u 7 8 q h x b n ",
"x.A A x.b x u r f c j.n.n.V.C.Z.A.A.Z.C.m.b.S A p o.I.P.' / q.E.i.i.J.q.i.i.J.J.q.E.Q.Q.!.!.E.q.~ ^ K.I.+.e.F.H.H.F.F.A V V c.x.c.N.B.n.n.n g u 9 4 * q h c V x.",
"n A A x y r r l l.l.j.B.n.V.V.Z.C.C.m.z.m.b.b.N.B ^ { { Q ..XXOXOX+XOX+X+X+XoXOXOX@X%X*X-X-X#XXXq.P ' ' ' u.F.H.H.H.A.M.b.b.C S S A x.N.n.v u 4 # + * t d l b n ",
"A n A x y e r u k.l.k.b.n.V.C.C.C.A.A.Z.m.m.m.Z.F _ ^ ^ P ..].OX+X+X+X+X+X+XOX+XOX@X%X*X-X-X#XXXq.L ~ ^ ^ D H.H.H.H.F.C.B.Z.b.M.x.A A A c.j.x r # # 0 t k c A A ",
"A x.A A f 9 9 9 u k.n.x.n.V.V.V.Z.Z.A.F.F.F.F.F.B y.|.{.} ] W.^.^.^.^.^.^.^.^.^.^.(.(.).XX).(.J.[ ^ _.|.P.u.F.H.H.F.F.F.D.A.Z.C.n.n.v.x.A l f 9 7 4 8 d l b A A ",
"A x.A n c y 9 e c l.b.b.b.n.B.V.C.A.A.A.F.F.H.F.B +./.Y.} P ] [ [ ] ] [ [ [ [ [ ] [ [ ] [ ] [ [ P ` Y./.y.e.F.H.F.F.F.A.F.A.Z.Z.C.C.V.b.x.e 7 7 # $ q d l V Z A ",
"A n A b j r e y c z.z.A j.j.B.C.C.A.A.A.F.F.F.F.D ` | { P J #.-.$.K Y *.-.#.J J T -.-.T K #.-.#., L { | ^ B F.H.H.F.F.F.A.A.Z.Z.C.V.V.n.c.u 9 7 + $ w d x b j.j.",
"A n c.x.l i e 9 k k.l.b.v V A C.C.Z.Z.A.F.F.F.F.D _ } { L K 1.8.2.Y $.5.a.2.Y K 1.a.8.$.K 1.8.4.Y J ' { ^ M B.F.F.F.F.A.A.A.C.C.n.V.n.n.b.f 9 7 # 5 t k x n x.A ",
"n x.A n.x.h y f k.b.b.A x.c x.m.C.C.Z.F.A.Z.m.S 3  .R.U.~ J %.9.&.J Y 9.7.$.J J %.9.9.T J &.9.&.J Q I./.o.E H D.F.F.F.A.A.Z.A.C.B.n.n.x.k.c e 7 # 8 d z b x.A A ",
"A A A A l r r c l.k.C C z Z n.n.C.C.C.A.Z.Z.n.M 2 W W W E E 3 E 3 2 2 2 E 3 2 2 3 3 E 2 2 3 E E 2 E W W W E M G.F.F.F.A.A.C.b.c.b.Z C C A v t # # 0 a l b b A A ",
"A A A x y r e u b b.n C l l x.n.C.C.C.D.C.z.m.G S M.G.Z.Z.G.G.D.Z.M.S S S S H m.G.G.G.G.G.A.N.M.v.v.S S S M.G.A.F.F.A.A.A.C.S A V l z C v y 9 7 # 8 a z x.x.Z x.",
"A x.x.x x u r x z.k.n C z l l S b.C.C.A.S.m.m.n.A B.F.F.H.H.H.H.H.B.M.b.b.M.m.F.F.H.H.H.H.A.c.A A b.Z.D.Z.Z.F.F.F.A.A.F.C.C.n.A Z z V C k.r 9 # + q j x v.c.c.c.",
"A n j.Z f e e u z z.G C C z z Z n.C.C.C.Z.S.Z.z.M.B.F.F.F.H.H.H.F.B.B.D.D.D.S.D.H.H.H.H.Z.C.N.M.M.m.S.F.F.F.F.A.A.A.Z.Z.C.C.n.c.Z Z A C k.b e 4 @ q j Z v.x.c.x.",
"A n A x i e 9 u n z.A n A b S n.n.V.C.C.S.D.C.C.n.Z.F.F.F.F.H.H.F.S.D.H.D.D.F.H.H.H.H.H.N.v.m.b.B.C.D.F.F.F.F.F.A.A.Z.Z.Z.C.C.n.x.A n j.k.l.f 7 $ q j Z v.x.c.x.",
"A x.A b l u 9 f l.n n n n j.b.b.n.n.m.C.C.Z.A.C.m.F.F.F.F.H.F.F.D.F.F.H.F.F.H.H.H.H.H.H.B.v.M.B.D.F.D.D.F.F.F.A.A.A.Z.Z.N.C.n.n.b.n n n l.c u 9 4 q s V A S v.Z ",
"A A n b u e r u v v n n n j.j.j.n.n.n.V.V.C.A.A.A.A.A.A.A.H.H.F.F.H.H.H.F.F.H.H.H.H.H.F.A.M.v.B.D.F.H.A.F.A.A.A.A.C.Z.V.V.V.n.n.b.j.x.n j.k 9 9 4 * s l b A x.n ",
"A A A b u e e 9 q u c n n n j.j.j.n.n.B.V.V.C.A.A.A.A.A.A.A.F.F.F.F.F.F.F.H.H.F.F.H.A.N.C.B.x.N.D.H.A.A.A.A.A.A.A.A.C.V.V.n.n.n.x.j.j.n j.j.r + # $ t j c n A x.",
"x.n j.c u 9 4 9 9 u n b c j.j.j.n.n.n.n.V.V.V.C.C.A.Z.A.A.A.A.A.F.F.F.B.C.F.F.H.F.H.Z.v.N.Z.N.n.Z.F.F.A.A.A.Z.Z.C.B.x.n.n.n.x.c.k.j.n n z.z.x 9 # 0 t j c A A n ",
"n A n b z f q 4 r c n n b j.j.j.j.x.b.n.n.V.V.C.C.C.Z.A.A.A.A.A.F.F.A.b.M.A.F.F.F.F.Z.c.v.Z.Z.v.C.F.A.A.Z.A.Z.Z.C.n.Z x.c.j.c.j.j.n n b k.v u 8 # 0 i l b A A A ",
"x.x.n A b g t e r u c n j.b j.j.x.c.n.b.n.n.V.V.C.C.A.C.Z.F.A.A.A.A.A.b.x.C.A.F.H.A.A.v.x.C.A.V.C.A.A.Z.Z.C.Z.C.V.n.A Z c l c Z n n b n l.n r 7 4 7 a l b A A A ",
"n A A A b u e e e f j.n b b b x c n j.b.x.c.n.B.B.C.C.C.Z.C.n.Z.Z.A.A.N.M.B.A.A.A.A.A.N.x.V.A.A.C.A.A.C.Z.Z.V.V.n.B.M.Z l l z V n v k.l.l.n f 7 # $ w j c A A A ",
"x.A A n b s 9 9 e f n n b n b c l c x.b Z x.n.n.n.B.j.c.C.Z k n.Z.A.A.C.x.N.A.A.Z.A.A.N.x.m.A.C.A.C.C.C.V.n.V.n.n.n.b.A l z c C n m m n v u r 7 $ $ t j c A A A ",
"n A n x.n x e e 9 e g j.n b b b l l b Z c x.b.n.n.A k A V l l A B.Z.Z.C.v.x.N.x.C.A.A.C.x.N.A.C.C.C.C.n.n.x.c.n.n.b.b.x.V z C v n k.g r r 9 9 7 7 $ w k b n A n ",
"A A A A n l 9 9 9 9 e g j.v c c v z v c j.j.j.l.j.j.x.c.l z z C V.C.C.C.B.c.c l S Z.Z.Z.n.n.V.C.C.V.V.V x Z Z x.b.j.j.c.n b n n c m x 9 4 # 4 # $ 8 t l c n n x.",
"A A A A A x u 8 7 9 9 l z.n c v v v c b b j.j.j.j.j.c.n.c v C C x.V.V.C.C.x.C z c b.C.m.V.V.C.V.V.n.c.l l V v A j.j.j.j.n n n x r a g 9 4 # # # 8 q d z v A x.n ",
"A A A n A A c u 7 # q c b n n m n b b b b j.j.j.j.c.n.c.C v b.H c.V.V.V.n.n.n n C b.m.C.V.V.n.n.n.n.j.l c C C C j.j.j.b n c x c r 9 8 4 4 = 8 q y a l x b A A A ",
"A A A A A A c k r 9 9 r u k.n l.n j.j.n n b b j.j.j.j.j.b.n B.b.j.l.j.V.n.n.M.b.b.b.n.n.n.n.n.B.c.n.j.l C A A b.k.n n n b k e y 9 5 + # # # q t j l c b A A A A ",
"n x.n A A A b c t 9 7 7 u x y c z.k.l.l.k.j.n n j.j.j.j.l.b.l.b.j.j.V.V.m.n.b.b.B.m.l.n.n.b.c.c.k.z.z.n C m k.z n j.c u u r 9 7 8 4 + @ $ 0 t g x b A b x.j.j.Z ",
"A n x.A A A A c y r 8 9 9 9 9 l v f k.n k.l.l.k.b x b k n n g v l.k.l.c c m.b.l.l.z.C.c.j.j.c j.j.c l.z.C G l q f k.x 9 9 9 9 7 # # # 5 t t d l c b A x.b Z j.j.",
"A A x.n A n A b c g 9 7 # # 9 e 9 9 u u n g c m f r y u n g 9 r z.z.f 9 u l.b.z.f v l.k.j.y y j.b r u b j b s 9 7 j f 7 7 7 7 # + # $ q s l z c b x.b x.x.b b x.",
"n x.A A A x.A A n z r q 9 7 8 # # 8 4 e r 9 e u 9 9 4 u f 9 # 9 g l 9 9 8 c z.c 9 q g k.l e e x f 7 7 q 9 r r # # # 9 7 # + # = $ 8 w s l c b n Z j.x.b j.x.x.b ",
"A j.A A n x.x.c.x.Z k l t 8 8 * # $ 4 8 4 8 9 # # 4 # 9 7 + # 4 9 9 # + # i b r # 4 u v y 4 # q e 4 # # 8 # 7 # + # 8 8 = * 0 0 q a d l c b A A A A n A j.Z j.x.",
"A A A A A A b x.x.v.Z V j i t w q 8 4 $ # # 4 @ # # # 9 5 $ $ 4 9 # # + # 9 y 8 + $ 7 r 9 # + 7 9 4 # # # $ # # * q t q 8 q t i j l z c b A A A n x.A A j.Z x.b ",
"A A n x.A A V x.x.x.v.Z c x l f s t q q 8 7 8 0 5 q 5 5 0 6 w 9 8 * 9 9 q 8 9 # $ $ 5 9 4 # $ 5 7 # $ 6 q q w 0 w t h d a d h l c c b n n A n A A A Z A x.j.x.b ",
"A n x.n n x.j.A Z Z x.Z b Z c x c l h s a a t t s s u t t a f f h t i f h y 8 8 6 t t 9 7 5 0 w 9 q w t d j u s d l l V l k l c A n A A x.A A x.n A j.x.b x.b x.",
"x.n A A A A x.n x.Z x.b x.b b b b c c z l l k l l z l k j j c z V l l F V l i t t d j u r w t d a s a j l c l c c c b b b c c A A A A A A A A c.c.A x.c.x.x.Z j.",
"A A n x.n x.A A x.Z b x.n x.x.b n A A b b b Z c b Z A c c c c b Z Z Z Z A A z h g l c z j s j z c l l c b Z Z n Z A A n A A A n A A n x.A j.A c.c.x.v.c.x.x.j.j.",
"A n x.A A n A A Z b x.n x.A n x.A A A n A n A n n A A n b A A A A S Z A S A c c c b b b c c c c c c b c n A A A n A A x.A A A x.A n x.A A A A A c.v.v.x.c.x.b Z ",
"n x.A n n x.x.n j.x.b x.n A x.n x.A A A A A A A n x.A A A n A A A x.Z A A A A c A n A n Z b b n n n A A A A A n A A A n A A A n A A n A A A A n x.S x.v.x.Z x.j."
};
