/* XPM */
static char *exit1[] = {
/* columns rows colors chars-per-pixel */
"80 80 214 2 ",
"   c #1C260C",
".  c #1E2A0B",
"X  c #1E2912",
"o  c #202D0C",
"O  c #24330D",
"+  c #263C0F",
"@  c #293C0F",
"#  c #212D14",
"$  c #222D1C",
"%  c #2B3E10",
"&  c #273518",
"*  c #232D26",
"=  c #273427",
"-  c #2A363C",
";  c #2E393D",
":  c #283536",
">  c #252E34",
",  c #45343F",
"<  c #28400F",
"1  c #27400F",
"2  c #2B4411",
"3  c #2E4A12",
"4  c #274010",
"5  c #314512",
"6  c #324C13",
"7  c #364A19",
"8  c #355314",
"9  c #3A5615",
"0  c #375815",
"q  c #3C5B16",
"w  c #3F5F18",
"e  c #3F6017",
"r  c #354722",
"t  c #364824",
"y  c #364928",
"u  c #3D5325",
"i  c #415C17",
"p  c #425E18",
"a  c #405614",
"s  c #416117",
"d  c #486317",
"f  c #446319",
"g  c #496619",
"h  c #47681A",
"j  c #4C6B1B",
"k  c #506E1B",
"l  c #4F701C",
"z  c #54741D",
"x  c #58771E",
"c  c #57781E",
"v  c #5A7C1E",
"b  c #607F1F",
"n  c #4C523A",
"m  c #46573B",
"M  c #53573B",
"N  c #465334",
"B  c #567521",
"V  c #577820",
"C  c #5B7D20",
"Z  c #59782B",
"A  c #536B33",
"S  c #536D39",
"D  c #5A7534",
"F  c #5C7B33",
"G  c #597738",
"H  c #4F6632",
"J  c #607F21",
"K  c #2C264B",
"L  c #352749",
"P  c #35294D",
"I  c #3C2B4D",
"U  c #3A2646",
"Y  c #2B334C",
"T  c #2C3943",
"R  c #303E43",
"E  c #39374A",
"W  c #2C2B55",
"Q  c #2D2E5B",
"!  c #342B52",
"~  c #3D2C52",
"^  c #332E5A",
"/  c #2E325D",
"(  c #2E3C5B",
")  c #2C3553",
"_  c #32315D",
"`  c #3B315B",
"'  c #313D5A",
"]  c #3A3E5B",
"[  c #2E3364",
"{  c #2F376B",
"}  c #2F396A",
"|  c #2E3866",
" . c #323463",
".. c #313B64",
"X. c #333669",
"o. c #313B6C",
"O. c #3C3A6A",
"+. c #3B3568",
"@. c #323D72",
"#. c #3D3C73",
"$. c #333F79",
"%. c #2F3A70",
"&. c #432944",
"*. c #492C47",
"=. c #432C4B",
"-. c #4B2C4A",
";. c #432748",
":. c #532D46",
">. c #592F47",
",. c #532E4A",
"<. c #5B2F4C",
"1. c #4A3742",
"2. c #533943",
"3. c #5C324A",
"4. c #5B3446",
"5. c #442B52",
"6. c #4C2E52",
"7. c #443152",
"8. c #48365D",
"9. c #543151",
"0. c #593452",
"q. c #58395A",
"w. c #63344B",
"e. c #69364C",
"r. c #6C394E",
"t. c #723B4F",
"y. c #653A53",
"u. c #6A3C54",
"i. c #743D50",
"p. c #7A3F51",
"a. c #703F59",
"s. c #453565",
"d. c #493767",
"f. c #4C3A6A",
"g. c #483969",
"h. c #543E6B",
"j. c #583D61",
"k. c #423C76",
"l. c #35425C",
"z. c #3A465C",
"x. c #3C4C5E",
"c. c #3C4853",
"v. c #364546",
"b. c #334463",
"n. c #3C4C61",
"m. c #33426D",
"M. c #394869",
"N. c #3E5067",
"B. c #354473",
"V. c #364974",
"C. c #35447B",
"Z. c #364A7C",
"A. c #39497C",
"S. c #38507F",
"D. c #495D4A",
"F. c #455646",
"G. c #485A51",
"H. c #414F53",
"J. c #7D4153",
"K. c #4B624A",
"L. c #4B6143",
"P. c #4A6051",
"I. c #526545",
"U. c #58426A",
"Y. c #49457A",
"T. c #514C75",
"R. c #624163",
"E. c #804253",
"W. c #5F801F",
"Q. c #60811F",
"!. c #5E8121",
"~. c #5F8029",
"^. c #5F8133",
"/. c #618522",
"(. c #658B25",
"). c #688F26",
"_. c #62842A",
"`. c #668B2A",
"'. c #688F2A",
"]. c #679026",
"[. c #699127",
"{. c #6B9429",
"}. c #6E992B",
"|. c #719C2B",
" X c #628534",
".X c #638835",
"XX c #6A9130",
"oX c #74A02C",
"OX c #364680",
"+X c #374982",
"@X c #394D83",
"#X c #3A518B",
"$X c #3B5183",
"%X c #4B4582",
"&X c #4B4B86",
"*X c #534B83",
"=X c #524E8C",
"-X c #584D84",
";X c #5B5388",
":X c #565292",
">X c #575799",
",X c #5B5A9D",
"<X c #595697",
"1X c #645989",
"2X c #645E9A",
"3X c #6A608B",
"4X c #6A6397",
"5X c #726999",
"6X c #5C5CA0",
"7X c #6866A2",
"8X c #7975AA",
"9X c #706EA8",
"0X c #817DAD",
"qX c #8782AE",
/* pixels */
"!.!.!.!.!.!.!.!.!.!.!.c !.!.!.c W.W.W.W.W.c W.W.W.W.W.W.W.W.Q.W.W.v v v v W.W.!.W.v v v v v v v W.W.W.!.!.!.!.!.!.W.!.!.W.W.W.!.!.C !.!.v v c W.W.!.!.!.W.l !.!.",
"!.!.!.!.!.!.!.!.!.!.!.c !.c !.!.W.W.W.c W.c W.W.c c W.W.W.v v v c c c z c c v v c c c c v v c c c v c !.!.!.!.!.v W.!.!.c c c c v !.!.!.v v c W.c W.!.!.W.!.!.!.",
"!.!.!.!.!.!.!.!.!.!.!.!.!.!.!.z W.W.W.c z c c c W.z l l c c z l j j z z l l l c z l z z z z j j l l l z W.v B B l B c W.W.c c !.v v !.!.W.c !.!.W.c c W.!.!.!.W.",
"!.!.!.!.!.!.!.!.!.V c !.!.!.!.z z z l l h h l l e h h h j j g f s s h h f s h h h f h h j g s s s e h h l l h h h j l l j l l j l l v v c W.!.!.!.!.z !.!.!.l W.",
"!.!.!.!.!.!.!.V W.W.W.W.l !.l h j d f e q q s e e e 0 q e e 0 0 0 8 9 9 8 8 0 q q q q q p a 9 9 0 8 0 w w w w 0 0 e e e e e e e f j l z c v W.W.W.!.W.!.W.!.l !.",
"C !.v !.!.!.!.W.W.W.c z e h h e q q q 0 0 0 q 0 0 8 0 0 0 8 8 8 8 6 6 3 2 3 3 3 6 6 6 8 9 9 q 9 8 8 8 8 0 8 8 8 8 8 0 0 0 0 0 0 0 0 s j z v v W.!.!.z !.!.!.!.!.",
"C v !.!.C !.C !.c c l h e e e 0 6 8 8 0 0 0 q q 0 e e e 0 8 6 6 6 6 2 1 1 + + + < 2 3 6 9 f d j s e w q q w 0 0 6 3 0 0 0 0 8 8 8 8 0 q g z z v z !.!.!.z !.l !.",
"c C !.!.C v c c c l e e 8 3 8 8 6 8 0 q e s s d e e h f 0 6 6 6 5 2 + + + + O O + < 2 6 9 p k z z l h s s h h w 0 0 0 e e e e 8 6 3 6 8 w f l c z W.!.!.!.!.!.W.",
"c c v Q.Q.v c z h e e 0 3 3 0 e a d d j j j j k k k k p 9 6 2 4 % % O o O o o o O + @ < 7 i k z c z l l l l l h e h j z z z j s 0 6 6 6 6 e h l l !.!.!.c !.!.!.",
"C v Q.Q.W.v z j e e 0 8 3 0 e h k k x x k k c x k k i a 7 5 % + O o o o o o o . o O O @ % a i k z c c W.W.W.z l j j c v W.v v l s 0 6 6 3 6 q f l z z z !.!.z c ",
"C !.Q.v v z j g e 8 8 8 0 e l W.b x x x c c c k d i 5 @ @ O o o o o o .       o o o o o O % 6 a h l z W.W.W.c c V c c v v v v v c h q 6 3 3 6 e h z !.!.!.z !.!.",
"!././.v c z h e 0 8 0 e e j v !.b b b x c c k j i 7 @ o o o . .   . .                 o o O @ 5 9 d l c W.W.W.W.C C v v v v W.W.W.c f 8 3 1 3 0 e h l !.!.!.c !.",
"b Q.!.C c l e 0 8 0 e j c W.W.W.b b x x x x k i a % O o .   . . . . . .                 . o O O < 9 d c v W.!.!.W.W.W.W.v v v W.W.c l w 3 1 2 3 0 e l W.!.!.!.c ",
"W.!.!.C c j e 8 8 e l v W.W.W.W.b b x x k k d a % O O o . . . . o . . .                 . o o O + 3 9 j l W.!.!.W.W.W.W.W.v v v v v z h e 6 3 3 3 e h l !.!.!.!.",
"/.!.v c c h q 8 0 e l W.W.W.W.W.b x x z k k i a O O o o . . . . o o o o               o . o o o O + 8 s l c !.!.W.!.W.W.v v v v v v B l e 0 3 2 3 0 h z c !.W.W.",
"C C c c c l q 8 0 h c W.W.W.v v x z z z z d a 5 O o o o . o . X # # & * = * * * * * * $ # # o o O + 6 q l !.].].!.!.W.W.W.v c v v C C l h e 6 1 3 6 e l !.!.W.W.",
"c c c c c j w 8 q h c W.v c c x z z z l l h 9 2 O o . . o o o $ * > T R ' ' Y Y ( ( ( Y > * $ o O @ 8 d c !.(.(.(./.(.!.!.C z c v v v z z s 8 < < 6 s j z W.W.W.",
"C c c z z j q 8 0 h c v c c c z x z z z z j q 5 + . . . # = : - - Y ' m.V.A...X.V.Z.m.} ) T - : & % 7 d V /.].].].(.].!.!.C z z v v v c c g 0 2 < 6 p j c W.W.W.",
"!.C c z j s 0 8 0 e z c c c v v c v v v c k 9 2 O .   X * T b.V.m.} o.@.A.@Xo.o.Z.@XC.} } b.M.b.R : 7 p c /.].].(.(./.!.V z z z z v Q.v c g 8 < < 3 p j c v W.v ",
"!.!.C z h q 8 8 q s j z c v W.W.W.v W.W.C j a 5 O . X * : ( S.#X+X@.{ %.$.B.{ { B.V.%.%.%.C.#X@Xb.R y p B /.].].]./.!.!.C z c c v v W.v c g 0 3 < 3 p j c v v W.",
"!.!.V l s e 8 0 s l z c v v W.!.C !./.!.c k a 5 + # * - ( C.#X#XC.{ [ Q [ Q W W / / / / } C.#X#XC.b.v.u Z (.].{.(.(.!.!.C !.!.C v W.Q.W.c j 0 3 < 6 i k c v Q.v ",
"!.!.!.B h e 0 0 h l z v v W.W.!././.!.C c j i 5 O $ T ( B.OX+XOX%.[ ! P P P K K K ! L P [ } OX+XOXB.n.v.A ~.].{.{.`././.!./.!.!.Q.Q.W.v v k 9 3 < 5 a j c v v Q.",
"!.!.!.V l h 0 0 s j z c v W.!././.`./.J Z j a 7 & : l.Z.+XC.o.| W W I ;.*.*.U U &.*.*.I P Q | @.C.C.%XT.I.Z `.{.{.].{.].].(././.Q.Q.b Q.b z w 3 < 3 a j k c v v ",
"!.!.!.C l h q 0 w h z v W.!.!.!./.(././.C k 9 7 = - V.$X+X@./ W K L *.3.3.4.&.U :.w.3.:.L K W  .@.A.&XT.G.S ~.[.].{.{.{.].(.(.!.Q.Q.Q.b b z p 6 < 3 9 j k c v v ",
"V C !.V h e 0 8 w h l V !.!.!.!./.(.(.(./.B a 7 > Y m.A.C.o.! L L &.3.r.p.r.*.&.4.J.r.0.*.U U ! o.$.C.M.c.m Z /.(.].{.].(././././././.Q.W.z p 6 < < 9 f l z v W.",
"V !.v c h w 8 0 w h l C C !.!./.`.].{.]./.x p r : Y o.@.o._ I U &.:.w.t.E.t.*.*.J.J.J.w.:.*.&.I  .o.@.o.z.F.F /.(.].{.{.(././.!././.Q.W.W.z s 8 6 < 9 s j c !.W.",
"!.C c l s w 8 0 s l c v v C /.(.(.].{.]./.B p t : ) | { / P -.:.:.>.e.p.E.i.*.*.r.J.J.r.4.:.:.,.~ ^ } ..z.F.G `.`.).{.{.{.(././././././.W.c h 8 < < 6 w j c v v ",
"!.C l h e q w e l c v v c W./.].].].{.{.(.B p t ; ) o.o._ I 3.w.>.>.w.t.J.i.*.*.e.J.J.r.>.4.w.3.I Q o.B.l.F.G `.{.{.}.}.{.{.`.!././././.W.z s 8 6 < 6 w j z v v ",
"B z h e 0 0 s l z C W.W.v W./.].{.{.{.).(.x p y R ..Z.OX .~ w.e.4.>.4.r.J.r.*.*.r.J.t.e.>.>.e.y.=. .Z.@XM.G.G XX{.}.}.}.{.(./.!.!.!.(./.v l q 6 < < 8 0 j z z v ",
"v z h e 0 0 h B c W.W.W./.!./.].].{.{.{.(.x p t R ..OXOX..` q.y.0.9.0.y.J.q.7.7.0.R.u.0.0.q.y.y.7.X.A.@XN.G.G {.}.}.}.}.{.{.!.C !./././.v l s 8 6 3 6 0 s k c v ",
"W.c l h 0 0 e j c W.W.!./.(.].].{.{.{.{./.C p t ; ( o.@. .+.d.h.h.f.h.U.U.U.M.s.U.U.U.U.U.U.h.f.` _ @.B.b.D. X}.}.|.|.|.}.(.C V !./.(.Q.W.c j i q 6 3 6 p k x c ",
"W.v c h w 0 e j v W.W.W./.].].].{.{.{.]./.z p t ; ) { o.[ X.Y.*X*X*X*X*X*X&X&X&X*X;X1X3X3X1X-XY.+. .o.o.z.D. X|.|.|.|.|.{.(.Z C W.(.(.(.Q.v z g q 6 5 9 p j z c ",
"W.W.c h q 0 f j v Q.Q.Q.Q.(.].].).).{.'./.z i r ; ( o.@.X.#.=X,X6X6X6X6X6X6X6X6X2X7X8XqXqX0X9X:X#.X.@.m.x.K..X|.|.|.|.|.|.).C Z /.Q.)./.Q.b z h 6 < 3 9 s k z c ",
"W.v z j e 0 e j v Q.Q.Q./.(.).].).).(./.C z a r T ( B.C.%.#.&X,X,X6X6X6X6X6X6X6X,X7X9X8X0X0X7X:X#.o.C.V.N.K..X|.|.|.|.|.|.{._./.Q.Q.(.(.Q.Q.z j 8 3 6 9 s k z x ",
"W.v c j q 8 e h v Q./.(.(.(.[.].'.)./.J C j i t R ..+X+X%.+.k.Y.%X%X%X%X%X%X%X%X%X*X-X;X1X;X*XY.O.O.+X$XH.K. X|.oX|.|.|.|.}.{.'.).(.(.(.)./.v l i 9 6 9 s j z v ",
"W.W.c j q 0 0 d v Q./.(.(.(.[.(.(._.b v Z k a r R ..OXOXX.` ` s.s.s.d.d.d.s.s.+.s.f.f.f.d.g.s.s. .X.OXS.x.D. X|.oXoX|.|.|.|.|.}.{.].(.(.).Q.W.z j i 6 6 a g k z ",
"W.v c j e q q f z v Q.Q.(.(.].(./.J b x C z a r ; ) o.o./ ! 6.9.6.-.6.9.0.6.=.I 6.0.<.6.5.=.9.6.I ^ o.m.z.D._.{.|.oX|.}.}.}.}.}.{.].].(.(.(.Q.c j a 6 5 8 i j k ",
"W.v c l f e e e j z Q.Q./.(.(.(.Q.b J J !.z i r : ) X.o.W I 3.w.>.:.4.w.w.<.&.;.>.w.w.>.:.:.w.<.U ! X...z.D. X}.oX|.|.}.{.}.}.{.{.{.{.].(././.c g 0 5 < 8 i g k ",
"!.W.v z j f q 0 e j v Q.(.].].(././._.(./.B p r ; ( m.B._ 7.y.t.w.3.w.i.p.w.*.*.e.p.i.e.>.w.t.r.5._ @.V.x.K. X{.|.oX}.{.{.`.'.'.].{.].].(.(.!.l q 3 < 5 9 p k z ",
"!.W.v v z g 0 8 0 f v Q.Q.].].].(.(.).)./.C f r v.( Z.C. .5.r.t.w.3.w.t.J.e.*.*.u.p.i.e.>.w.i.u.7. .C.A.n.K.F }.|.oX|.{.`._.`.`.(.].].].(./.C j 0 < < 6 a d l c ",
"v W.W.c l h e 8 9 s c /.(.].].[.{.{.}.'.(.v d N v.b.+X+X .5.<.w.,.,.3.y.e.0.;.I 3.u.e.3.9.<.w.3.~ X.+X$XN.P..X}.oXoX|.{._.J ~.!.`.(.].]./.!.C h 8 3 < 6 a k x C ",
"W.c !.V l h 0 0 w j v /.(.].].{.{.}.}.{.(.J k p v.b.@XOXX.` 8.q.8.8.q.j.R.j.8.8.j.R.R.U.j.j.y.j.` o.OX+XV.P..X|.oXoX}.`.C Z Z C !./.(.]./.!.l h 8 3 3 6 p k x C ",
"!.!.c z l e e e g z Q.(.[.].[.[.{.}.{.{.(./.Z H F.b.@.@.X.+.Y.T.*X*X*X*X-X*X%X%X-X;X1X3X2X1X;XY.O.{ @.B.n.D..X|.oX|.}.`./.Z C Z !./.(.`./.V l w 6 < 3 8 p k z V ",
"!.!.c l h e 0 e z c /.).(.[.[.{.{.{.{.{.'././.D D.z...o. .#.%X:X>X>X>X>X,X<X<X>X,X2X5X8X8X8X2X=X#.X.o.o.l.D. X|.oX|.{.`././._.J !.!./.(.!.C h 0 3 2 5 6 p k z V ",
"!.C C l e 0 0 e k v Q./.(.[.[.{.{.}.{.{.{.{.).F K.x.M.@.X.#.&X>X,X6X6X6X6X6X6X>X6X6X9X8X0X8X7X=X#.X.$.@.n.D. X|.|.oX}.{.{.).(./.!.!.!.!.C B e 8 2 < 6 9 h j V C ",
"C !.C l e 0 0 e k v b Q.Q.Q.[.{.{.}.{.{.{.}.}..XK.x.B.C.X.O.Y.*X=X:X:X:X:X=X=X=X:X<X2X5X5X2X1X%X+.X.B.B.n.P..X|.oX|.|.}.{.{.'.(./././.!.V j q 6 < 2 6 a h z C C ",
"!.!.!.l e 0 8 w k v Q.Q.Q.).[.[.{.}.}.|.|.}.|..XK.n.A.$.X.^ s.s.s.g.g.f.d.k.s.s.d.f.h.h.h.f.f.d.^  .@.C.n.K. X|.oXoX|.}.}.{.{.].].(.`.!.z h 8 2 % % 8 i j z C C ",
"!.!.!.C h e 8 w k b Q.Q.Q.(.[.Q.[.}.}.|.|.|.}. XD.x.A.@.Q ! 5.5.~ 5.5.5.6.5.! ! 6.6.6.5.5.5.5.5.! Q o.B.n.D. X|.oXoX|.{.|.}.}.{.{.].(.!.z f 6 2 % 5 9 p j c v C ",
"c !.!.c l e e e z !.!.W.W.!.!.(.{.{.}.}.|.{.{.^.K.x.m.X.Q P -.-.;.:.:.>.<.:.U U -.3.,.-.U U ,.-.P Q { X.l.F.^.{.|.oX|.}.}.}.{.{.).).(./.c j 8 2 + 2 9 g z V C C ",
"W.v !.V l e e e V !.!.!.c c !.(.].{.}.}.}.{.`.Z L.H.H.] E =.1.2., , , , w.>.; , 2.4.2.2.1.1.2.2.E E ' l.c.m F ].}.oXoX}.}.}.{.`.(./././.x j 8 2 2 3 q j z V C !.",
"!.!.W.l h e e h c !.v c c C !.!.).].{.{.{.[.Q.Z H F.G.D.L.M M M n n n n n n n n M M M M m F.n m n F.F.F.F.M D `.}.oX}.}.}.{./.!.v C v v z j 6 2 2 6 i j V !.!.!.",
"!.!.c l e e e e c W.v c l C !.!.(.[.{.{.].[./.C A A S G D D D D D A A H A H A D D F D D D D S A H H S S A D _.XX}.}.}.}.{.{./.!.x c v v x j 8 2 2 6 q j V !.!.~.",
"W.c V l e 0 0 e l v v c B c B !.(.).].{.{.].(././._.'.XXXXXX}.}.`.`.J J J _._..XXX}.XXXXXX`._.~.C J _..X'.'.{.}.|.{.{.|.{.]./.!.c z v c c j 8 2 2 6 p l C !.!.!.",
"c W.V l e 0 0 e z v W.v v B B !./.).].].{.{.{.].).).|.|.|.|.oX|.|.}.{.XX{.{.}.}.|.oXoXoX}.{.`.(.'.'.{.{.|.|.|.|.}.|.{.{.{.{.(.!.v z c c z j 0 3 2 6 p B C /./.!.",
"W.W.z l e e 0 e c W.W.c c !.!.!.(.(.].].{.{.{.{.{.{.|.|.|.|.|.|.|.|.}.}.|.|.|.|.oXoXoXoX{.].(.(.'.{.}.}.|.|.|.}.}.}.{.{.{.{.`./.W.v v v v l q 6 2 6 f l Z J !.!.",
"W.W.V l h e 0 e l v v c W.!.!.!.(.).].].].{.[.}.{.}.}.|.|.|.|.|.|.|.|.|.|.|.|.oXoXoXoX|.{.`.(.(.{.}.}.}.|.}.}.}.}.{.{.{.{.].(.(.Q.W.v v v z q 6 2 6 p l B Z !.!.",
"W.W.c l e 0 0 0 h z z v v v W.Q.(.].].].].[.[.{.}.}.}.}.|.}.}.}.|.|.|.|.|.|.|.oXoXoX|.}.{.`.(.'.}.}.}.}.}.}.}.}.{.{.{.{.(.(.(.(.Q.W.W.W.W.l q 6 2 6 9 g l V C !.",
"W.W.W.l e 0 8 0 w g z c v v Q.Q.!.(.].].[.].[.[.{.}.}.}.}.}.}.}.|.}.|.|.}.|.|.oXoX|.}.{.`.`.(.].}.|.}.}.}.{.}.}.{.{.{.'.(.(.(./.W.W.W.W.W.l a 3 2 6 9 f z c v C ",
"c W.c z e 0 8 6 0 f z v v v Q.Q.!.(.!.].].].].[.{.}.}.}.}.}.}.}.}.}.{.{.{.}.|.|.|.{.{.'.`.`.(.].}.}.}.}.}.{.{.{.{.(.(././././.!.W.W.v v v l s 8 5 6 q j l C v !.",
"W.c W.c h e 8 3 0 s j z v v v W.!.!.(.(.(.].].].'.{.{.}.}.}.}.}.}.}.{.{.{.{.|.|.}.{.'.`.`.(.{.{.{.}.}.}.{.{.{.{.{.(.!.!.!.!.C C v v v W.W.l s 6 2 6 q h l v C v ",
"W.W.W.z l f 8 3 0 f z c v v v v W.!.!.!.!./.].].{.].{.{.}.{.}.}.}.}.{.).).).{.}.|.{.].)./.(.{.{.{.{.}.{.}.}.{.{.{./.!.C C B c c v v W.Q.C z p 6 2 6 0 d z c C C ",
"W.W.W.z l f 8 3 8 e l v v v v v v C !.!.!.!.(.].(.(.).{.).`.(.'.{.}.{.).).).{.}.|.{.{.).(.(.{.{.{.{.{.{.{.{.{.].(./.!.C z z z z c v v v z j q 3 2 6 9 d l v v !.",
"!.!.W.z l h 0 8 8 e l z v v z c c c v !.!./.(.(././././.J C J J ).}.{.).(.(.).{.{.{.{.].).).].{.{.{.{.].`.(.(.`././.!.C C z z z v v z j j w 6 3 % 2 9 d l C v !.",
"!.!.W.!.l d 0 6 6 0 d z c z c z l l c !.!.!./././.!.!.C V B B J (.).}.)./._.J (.).{.{.{.'.).{.{.{.].]././.!./././././.C V z z x c z j f q 6 3 4 % 7 9 d l c v v ",
"!.z !.l l e e 8 3 3 w h ~.!.l z l l c W.v W.W.Q.W.W.W.W.c l c v (.).].).(.W.C C /.(.).).].].].{.].]./.W.v v C !./.!.!.v v c z z z j s q 3 < 4 1 2 3 w h B V C !.",
"!.!.!.!.!.e e 8 3 3 0 h l z !.z W.z c c v v W.Q.W.W.Q.W.W.c c v /.).[.).(.!.c c /./.(.).(.[.].].].(.W.v c z v !.!.!.v Q.v c z j h w q 8 < 4 4 3 3 0 f j z V v C ",
"z !.!.!.W.z e e 3 3 8 e l W.!.W.W.z W.z v v v v W.Q.Q.(.!.W.W.W.).).).[.(././.!././.(.(.).(.(.(.(./.W.c z z v C Q.W.v c c l j e 8 8 3 < < < < 8 0 e h l c C v v ",
"!.W.z !.W.z l e 8 8 3 e e l l c W.W.W.W.v W.W.v W.W.Q.Q.!.!.!.!.Q.).Q.[.(.(././././.(.(.Q.(.(.(.(.Q.W.c c c c v Q.v c z j h w 8 3 2 4 + < 2 6 9 s h l l C C C !.",
"!.!.!.!.W.W.l e e 8 3 3 0 e h h l c v W.W.W.Q.W.v v v v W.W.W.!.Q.Q.Q.Q.(./.(.(.(.(.(.(./.Q.Q.Q.Q.Q.Q.v C c z z z z z g w 9 6 6 < < + < 2 6 9 d l l c c c c W.W.",
"!.!.l W.W.!.W.z e 0 3 3 3 8 0 e e j l z c v v z z j j l l z l z v v v v C !././././././.v v v v v v x z c l h h h h f q 8 6 2 < < < < 5 9 9 p j l v C C V c !.W.",
"l !.z W.!.!.W.z l e 0 3 3 1 3 3 0 0 e s j j j j e w q e h e e e z j h f j z C c k k C C z j j g g f f f d p q 9 8 8 8 6 2 < @ @ 1 < 5 6 a d k k c c c W.!.!.!.!.",
"!.!.!.W.!.W.!.!.B l e 8 3 3 3 3 3 3 3 8 8 q 9 q 8 3 6 8 8 0 6 0 p p 6 6 9 f k j i i j k d p q 9 9 0 8 6 9 9 6 2 3 2 3 2 2 + < @ < 3 9 a g k z x c c !.W.!.!.!.!.",
"z W.!.!.!.!.!.!.!.l e e 0 8 3 3 3 < 5 < 3 3 6 < < < 2 2 2 2 2 2 3 6 3 2 6 9 p q 6 6 i a 6 6 5 6 6 6 2 2 5 2 < @ < < 5 2 2 2 5 7 9 a s j z c c c W.!.W.W.W.!.c !.",
"W.!.l !.!.!.!.!.!.!.z l e e 0 0 8 6 < < < < < < 4 2 % 2 2 2 5 2 2 3 4 2 3 6 6 6 2 2 6 6 2 2 2 2 < < < < 2 5 2 2 5 6 6 8 6 6 9 i s g k z c c W.W.W.c !.V !.c V V ",
"!.!.!.l z !.!.!.!.!.!.l l h l e p q 9 6 3 6 5 3 3 6 6 6 6 6 8 8 6 3 3 6 7 6 6 2 % 2 6 6 5 2 5 % 2 2 6 6 6 6 6 8 9 9 p p q p s j k z z v v W.C !.!.c c !.!.!.W.W.",
"W.W.!.W.!.z !.W.!.!.!.z z z z l j g s i a 9 9 0 w q q a a a s s q q w w w q 6 6 6 6 6 9 6 6 6 6 6 6 6 9 a p p p p d j j j j j z z v v v c v !.!.!.!.!.!.!.!.!.!.",
"W.W.W.z z !.!.z !.!.z !.!.l z z z z l k j j g f j j k j g g j j j j j l k g f a q i p i 9 9 a i a p a d k k j k k z z z z z z c v v C v !.v !.!.!.!.!.!.!.!.V Z ",
"!.!.!.W.W.z z W.!.!.~.l !.!.!.V v v v z c z z z z c c z z z z z z z V V Z B j g g j k j g g j j j j k k k x c x B C C v c z v v v v v v C !.!.!.!.!.!.!.!.!.~.~.",
"l W.!.!.!.!.W.z l !.!.!.!.!.V V v v v v v v v z v v v c c c c C c C C Z C B z k k z z z z k z z z x z x x v C v C C C !.!.C v v v v W.!.v !.C !.!.!.!.!.!.!.!.~.",
"l !.!.!.!.!.!.W.!.B !.!.!.!.c c v W.v v v v v v v v v v v v v v v C /.J J Z z z z c x v z z V c v v x V b v C C C C !.!./.!.v v v v C C !.v v !.!.!.!.!.!.~.!.!."
};
