/* XPM */
static char *floor[] = {
/* columns rows colors chars-per-pixel */
"100 100 68 1 ",
"  c #24370D",
". c #263B0F",
"X c #283D0F",
"o c #263B10",
"O c #2A3E10",
"+ c #26400F",
"@ c #28400F",
"# c #274210",
"$ c #2B4411",
"% c #2D4C12",
"& c #314612",
"* c #334C13",
"= c #384F14",
"- c #2F5013",
"; c #335314",
": c #3A5415",
"> c #375815",
", c #3C5B16",
"< c #365518",
"1 c #395618",
"2 c #3C5B19",
"3 c #3F6017",
"4 c #3E6018",
"5 c #415D17",
"6 c #435E18",
"7 c #436217",
"8 c #486717",
"9 c #4B6A17",
"0 c #446319",
"q c #49661A",
"w c #476819",
"e c #4C6B1A",
"r c #516E1D",
"t c #4F701B",
"y c #54741D",
"u c #59761E",
"i c #57791E",
"p c #5A7C1F",
"a c #607F1E",
"s c #567520",
"d c #597620",
"f c #577921",
"g c #5B7E20",
"h c #607E21",
"j c #5E801F",
"k c #63841E",
"l c #67881F",
"z c #69891F",
"x c #5D8222",
"c c #5F8823",
"v c #5E8528",
"b c #628523",
"n c #658B25",
"m c #6A8D25",
"M c #658C28",
"N c #6A8F28",
"B c #679026",
"V c #6A9127",
"C c #679028",
"Z c #6C9429",
"A c #6E992A",
"S c #709327",
"D c #719529",
"F c #729C2B",
"G c #76A32E",
"H c #78A62F",
"J c #77A630",
"K c #78A630",
/* pixels */
"gxxpfxxppjpggxixpxxijijxijixggpxppgxpipjxppggxgxxpcpppggpxgggggxxxpjxpxppgpxxpxcxpjxgpxxpxpxjiixijxy",
"gxxjxxccggxxgpxppxpxpjjixxjigggxxppxjxxpxgggpppxppppxpxpjpggggppxcxppcxxpjppggpipppxggppxppjpxjxxfjx",
"jxnnxxccxggxjpgggggjjjpjxxjjggppgxpjpxpifiigpiypppppiippxitygggpgvvgxxxxxpxpgggggpgpxgpxxppxgpjjjfxx",
"pxxnccxvxxfgxppxppxpjijpytifgitiiiipittiw7eiyt7wiiie0eiiiw3weiytsxvgiytiipxpggfggggpipxpggpppxjfjjxi",
"xpxxvxvvxxxiipxpjjjpippy84tiy9,wewtye70w2;2wt7>,wty217ytw,;,24743yfy0,78tyfyttytufpgxgjxpxxpgjppxfij",
"xgpxxfxvxxpjppgpjjiw9tiy4;,7w7;;>>7e7>;,;-;27>;>277>-,77,;;;%;;>;7w7>;%>0ew,2002qyyyiixppppxxxppxjyx",
"ppggxfgfxfxfpxitttt7>785----;;%%%%%;;*--%%%%%%-;%*;--%*-->,%%%-;%*;;-;%%:,:;>>>;,65wypppppxgpgxgiixx",
"pxggggfxjjjpxgtw,,7,--;*%---%%%;>;;%%;>>;47>$%,,%%%>,;$%,ew>%;>>%%;;;;%%%;-%--%%;;;,ttyppppgpixxjxxj",
"xjjjjipxxixppt4>;-;-%--%%->,,%*,w87,;;0e7ip9;;ew;%-8e,%;tja96790%-4w3;%@%;;%:;-%%%$*,7eipppjppppjxxx",
"xxifjxgxxxxxyw<-%%-%%->,;%3et6,qplpp,7pkpkzi,0py4->ip0;0jzllyuje-4tpt>-%;77780;-%$$%%;0yipppxgpgsiij",
"ixgjxixiiittt4----%;,>7t8,wijppaklnzpijlklkpyyggt3epxiesxnnmllki4tpjy4->epyiky77>%%%%-:7eiipxxppixxi",
"xipxxppgy4,,2<%-->,7utiii9yppjaaakhlllknlkjkbbbbjpxjkbgxxnzlkkkjipjpi97epjkjkapu,%%$@@&:wyipgppxxxij",
"iixxjpxji7;-;%%%;9iiljjppiiippuappdahbnjkjxnlnbbnnnxbnbbxxkkbjjkjjjjiiyippjpkllke7,%@@%%,eypppxpxxxi",
"jxxjppiiy0-%---%7pzzkpjjppipppupppuuupxcjknnnnbhxnbxbbgxcnbblbxjjjjjppjiipipppkkjje;#@##%6wyppxpixix",
"xjixjpy907;;;,4,9kzlipppipppaphduurruxnnBBnnnMxghbbxxbgxnnnnbbcccxjjjjjppiipippklzp7-@##@*,0yiigfifx",
"ixjippy7;;%%;8jpallpppiiiipjpahudsrrybnMBBnBBBnggdufgcgcnMMnnbbbxjjpjjjpjkpipypplzp8%-%+@@*6eyfgxixj",
"jxxjiiy4;-%-;8kkakkppppuiiigxjbhgyeepnnBBBBBBnbggfysgbxnMBBMbggbxgfggxjjjjjpupiipkjt3;%@##$20rggxxxf",
"jiijxijw;;-,0ykkppaiippuppigxbbbhfyijBnBBBBBBMxxgfryxnbNBVBMbfyyyygggcjjjjjppppppppit,;%#OO*,yxxxxxj",
"xjixjiiw;-;7pkklkpiiuuuuypffxbnnnbxbBBVVBBZZBBxxxbdhMVCZVZVVngsrtyjjcnjjjjjpupapiippi9,%##O$2egbccxx",
"ixxijji4-%-7ykzlkpppuuyrypfgbnnnnnnBBZBZBZZZBBbxMVnNZAZZZZZZVngfiijnMMncnkjjppapipippy7;%$#&:qfxvxxi",
"cpigjxiw>-%>tjpjppipiyy9epbnnnMnbbNVBZZZZZZZmVnnMZZAAAAAZAZZDVVMxjvMBnnncxxxxpduippppu9>%#o$=qyfxxxx",
"gpxxxiie,%-,ykppiyipytttyxbnnnBCMbNZZZZZZAAZmmmVZAAAAAAAAAAZDZZZnnBBBBMMnnnxgfduippppau7%Oo$=0rffxij",
"pxjiyww4;%%3ykppypppuytrjnnnMMCMbvMVZAZAAAAZVmVFFFAAAAAAAAAAAZZZBZBVVBBMnnngssyyyiiiklx0$. $=6ypjiix",
"ggcfw,,;-%%>9ppiipppppuujnMnBBCCbxMMBAAAAAFAVzVZFFAFFAFAAAAFAZVZFZZVZBVMncxyrrrryppiplp5$ o$=qypixjx",
"gpjxy><---;-3tiyippkkppxbnMBBCZZNbgMZZAAAFFAVzVFFFFFFFFFFFFFAzZAAZZZZVNMbgfsrreytppipkt>@..$:0rujxii",
"gpigvw<--28wtpiytpjjbjggnnBBZZZZNMfbNFFDFFFAAmVZGFGAFFAFGFFFVVAAAAAADZNcggxpggfgpjjjpp7;%+.+*qruijjx",
"pxxjxs2--2tipiiiipjjbxxggcnMCZZAZNvgMFFDFFFFAmVFFFAGGFGFAFFZnVAFAAADDVNxgcMnbbbxnjjjjlp9>%@.&5ruijji",
"xxxixfw2;;eppipppjjnnbnbggnBCZAAAZCMNZDDFFFFFmVZFGFGGGGFGFZmVAFFFAAFDVVbnMBMMmnxnjjjplzi,@@@*5eriixx",
"ixxfjst0<-4tipipjjxnnnMncgnCZZAAFDDDNSDSDFFGFZZAGGFGGGGFGDSmVFFFFFAVVZZVCVVVBBnnnjjjpklt;X.X&5euijxx",
"jpjxxtt7;#-4tiijxxjxnnMBCMCCZAAAFFFDSSSNBAFHGAAFGGAGFFGFFSmVDFFFFFZmNFZZVVVCBnnnkkkjkkj9%+.X&5eyiijf",
"iixxyt,;-%-,7ypjxxnnnBBBZZZZAAAAAFFFSNNNnBZGGGFGGGGFFHGGDDVDFGGFFDNnnNDNVZZMvvxxcnxxkzp9:%XO&5eyijxj",
"xjxpft4-;;,wtypjcxnnnBBBZZZAAAAAAFFFSbNhxnZGGGFGGGGDFHGGGFFFGGGGFVMhbMnMVAZMxgggcjjjklkt:@..&:qrixij",
"xpjppy0,;>epauupjcnnBBBZZAZAAAAZAFJFDNbbbbVFGJFFFGJDDFJGGFJGGFJJAAVbnnbMDDDNMbbgbbbbbkkr;%@+@;qeipxp",
"pxpiyw6;%;quagfyijnnBBBZZAAAAABZZAFFFZMnmmZGGGGFDFFDSDJGJJFGFJKFGAZBMbbNNDDVZCMMbbbbblpe4;%@@*6esfpx",
"gxie7;--*;2edgyryxnBBBBZZAAAAFZBNZZDZZVFFFGKJFGFDDDNMDJKGFFJJJFFHGFAnbmVDDDZZCMbbMMbnlkpt;@.@&5eyiix",
"xxiw,;%;0euupuurycBBBZZZAAAAAGGZCZDNmnmFHGGHGJJFDNNnMVFFDZFJJKFJGGFVMMZZZZFZZbffMMbMbxky3@..&=5eyjxi",
"gxft,;-,rlkppggfxnnBBZZZAZAAFGFGFZzmmzZGHGGGGHHGDNNvxMDCNDJKFJJFGGGAAFSFFFAAZbdsxbnbbxy,%. +@*58tfgx",
"ppgiw,%,ezzppkbbnnBBZZZZAAAAGFGFFFVSmmmFFGHGHHHHFNbxbNNMNFJFJJJJGGGAFGGFFFAAZbsspxbbbjt,;;%@$$*0tiix",
"ppgye,--5pkkkkbbnMBZZZZZAAAGFFGFGGFDFVVDFHHHHHHHGDbNAFZNDJJJJJFFGGFFGGGFAAFAVbssxncnncitee,;%$&,etip",
"xxxt0:-%;8kkkbbbnBBBZZAAAAFAFGFGGGGGFFDHHHHGGHHHGFDFJJJFJJJJFFFFGGGGGGFFJAAACvrsxnBnnccjkae:$@*5weyp",
"xpiy,>%;0ulkxpggxnVZVVZDDDFFFGFGGGGGKGGKGGGHGHHHHGGGKHKGJJGFDSDDFFGGGFFFFFAAZvytubmMnbbkpy>#XO=5eesf",
"pxgyw7>>8alkbxpfxnBBBmmmSSDDFFGFGGGGGGGKGHHHHHHGHKKHGHKGJJGFSSSmSSFFGGGFFFAFACcxfknnnblpe>$.X&=8efgg",
"ixpiy0;*,9ukllbxnnZVNnnbnnmmVDFGGGGHGKHKGHHHHHHHHHKGHHHGJJFFFDVDFSSFGGGGFFFFFAZCblbnnnlpe;$$@&=8rfbf",
"jppiy7;%->tklnnnnBZBDbbkbanmmVDDGGGGGGGKKHHHHHHHGHHHHHHKJJJJHGFDFFSGGGGGGFFFAAAZBnnnnnnkpe3>%%;:effp",
"pxxy0;;->eplnnnnNVVVDnhhgubmmmmVSGGGFFFGHGGHHGFDDGHHHHGHHGHHGHHHHGGGGGFFAFGAAAAZZBBBBMbkkkp95-%-6ryu",
"xxpiw>-;7kzlkbnnmBNMmmgsubmSSmmmSFFFSVmmDFHGGDSSDFHKHHHHGHHHHGGGGGGGGFFFFFFAAAAAZZBBBMnllkkt>@@*2qry",
"ppgpy0>%>0ppkbnnnnbbhdfyuVDDDDVFFFFSSmbhmFGFDSSSDGKKHHHHHHGHHHHHGGGFAAAGGFABZAAZZZBBBnBmlje:@.X&=6ey",
"xpggse7>%*60yxlnnnbbguufnFGGGDAFGGFFDVbbkVFDDSzSDGHKGHHGHHHHHHGGGGSSZZGGAZBZAAAAZZBBBnnzzk7%X.X&:qru",
"xppjiie7;$%;wpnnBBBnjjxxZAGGGFGGHGFGDSmbknSSSSDFHHHHHHHGHKGGFFFFFDDDDDGGFZCZZCZZZBBBBnnlky:%X.@=59uu",
"ppxggiew,%->wpnnBBBZZBBZAGGAFFGGGKKFDDmmnzmSzSFFGDGGGKKGHKGFDVDDFFDFFGFJFAAAnxcnBBBMBnlkt>$O .=,qruf",
"gxgxxyw>-->epcnnBZZZZZFFAFGAGGAGKGFFDDFFVVSSDFFFDNVFHHHHHHFDnNDGFFFFGKGFFAACftsfbnMnnnxjy7* .&=6qyup",
"xpppggt4;%-2tjnBBBBZZZAAAFGAFGGGHGFFGGGDSDFFHHGFDDnVFFHKHHFmbVFKJJGGGFGGJJCgssfgbbnnmnnnkp,$XO=6eypg",
"pppjxiy4;->3tjcnBBBVZAAZAAFAFGGGGFGGHGFDDDGHHHGFDmnbNDKKKKFMbmFGJJJGGGGGGZvsrsgMbMMMMnnjy9>%O&*0ryig",
"gxxpftw4,49ipcnnBBBZZAZVZZZZZGFGGFGGGGFGHHGHHHHFSSVbnDFJFJGDmNDFGJJGGGFGFMgfffgvbbMbCnje,%@.OO=6eypg",
"ppxit4>->tklkccnnBBZZZBVVmmmVZFGGGHGGHHHGHHGHHHFFGFmnDGJFFGFFFDFGJGGGFGFFZvMbhgdgggbnnje>@.  &=6rygg",
"pxxie>;-;7jzlbnnBBBZZZAAVVVVVDGGGGGGHHGGHHGHHHGGGHFVSFJFFDSFJJJFGGGFGGFGGAZNVNbgxgggjxji8-@.O&5qrypg",
"jxxpy7;%-;9jkbnnVBBZZZZAFZFAFFFGHGGGGHGGGHGHGHHHJJFFDFKFFSSSFJJGKJJJFFGFFFZDZZVMMncxxxfe,%#+@*5qyigg",
"ggpxie:%%;7plkbknBBBZZAAFDAFFGFGGGGGGGGGHFFFGHHHJKKDDKKGFSSSDGJGFFFJKFGFFFAAAAAVBMnncxw>-$#@$*5eygpg",
"ppxppt,;%;ejlkxjnnBBZZAAAAAFFGGGGGGGGGGGGDSDGGHHJJKDFKKJGFFSNFFFDDFFJFGFFFAAAAAZBBBBnx4%$. X$:6efgpg",
"pxxpie,-->yknnxjpnMBZZZAAAGFFFFFFFFGHGGHGSmDGHHGFJKFKKKJKKGDSSFFDNZZFFGFFFFAAAZZVBBMncw;%O  &:6rygxg",
"pgxxge7>%;qamnkpysbVVZZAAAFFFFDDVmDFGKKKFDSDFJKGFFKKFKKJGGGGFFFFFZVNZGFFFFAAAZZZVNMMnbe:%#.+*50tpggg",
"xpgcnpe>;,pbkxkppfbVBZZAAAAADVmmmmDFFFGKFDSSFJGFDDGKKGKKKGGKFFDSFFDDZAFFFFAAAZZVVmnbbby3%$..*0eiggpg",
"gppxni0;>ybzhhdgygnMVVZZAZZNnbnmVSFJGFFKFDSVFKFDSSFKKKKKGGKKFNbNDFFFFAAGAAAAZVnMnbgggjp0%OoO=qtfppxp",
"xgppie>->yakadurygnMVVVVAFVnbbzmVFGGJGGJFDmNFFFDSDGKKGGGGGKFSbhNNVZGFAFGAAAZZMhvgsrsfgy7%O &=6eixggg",
"xxgfe2;--7ukpuyrqsbnnBZZZZVmzbbmAFFAJJJJGBnnmNNNSSFJJJFKGFDZNMMMMNNDFFFAAAAAZBxfserspu6;$  O:6rhvxfx",
"pppifw2;>9kkaudrrqrhnVVZASmmnbkbZFFJFGJFGZBjbbbnSDGGFKJKKZvhgMNDDDZAFGGAAAZZZBcfssrspp7-%. $5esxxcxx",
"ppxxfe>-;8ulkausrrrhnnVZZSSVmnbbZFFGGFGFGZBmVmmmNFGGGGFFDvvgbMMDFFDFFFAAAZZZZBcxffsdpki3#..$1edvccvx",
"pxxpt4;--5ykkpufdsfbnBBBZSSDVmnVAFFFFGGJFSZZDSVVDFJGJGFNMMvMMMNSFKKDFAAAAZZZZBBvgfddjkky;.X&2rfgvvvx",
"xggit4<--7pappppggbbnnVBVZDZDVVDAFFFFGGGSSZFGSSFFFGJGFFNbbMMNmDZDAAAAAAAAZZZZZnnbdupkkly5@.&2qdfvvxi",
"xpppit,;;9kkpippghbnnnnnVVVZZVZDAAFAFFAFGFFFFFSSFGFFFJFSMghNNFFADAAAAAAAZZZBBnnnMbpppkjw;%X$=qsfxxix",
"gpggy4;-;7ypipppggbbbnMVVVVZZDFAAAAAAAAAFFFFGFFGJFJFFFFDMbbNZFFFAAAAAAAAZVZBBnvMMggppkr,%XoO=6efxxxx",
"pxxxt2--%;:,tpppgpaknnMnBMVVVZAAAAAAAFGGFFGGFGGFFFJFFFCZNvcNFFFFFAAAAZAZZBBBBnbnbbkgpji7*.oo&5eyijii",
"gxxiy6;@%%%;8ppiipjjbnnMMBBVBZAAAAAAGFGFFFJAAAGAGFFFFZMMCMvMAFAFFAAAAZZZBBnBNnncjjjpjjkt;X.X*:eyixij",
"gxgpy0:*@%%6tpiypjjjjknnMBBBBZZZZZAZFFAAAGAZMCZJJFFFACvvCCbMZAAAAAAAZZZBcccnnbbcjjppjlli,@X&=5eyijjx",
"gpppiyq,%@;8ppiipjjjxjxbnnBBBBBZZZZZZAAAFFAZnvZAFAFFACvvCDCMCAAAAAAAZZVVcfjxggghjjpppkjt>%+@*5euixij",
"ppjxpie,*%%79ipiiijjxxxbnnnnnBBBZZZZZAAAAAAZMvCAFAFFACcvCAZNZZAACAZCVZBMbgpiyrfdpppppkkw;+. &5ryixxx",
"xppxiiw,;-%,tjpjpiippfgbcxcnnBBZZZZZZVCZAAZZMxvZAAAAAZnxMZAZVZZZACZVVCnnnxsrerssiypaklkt>O .*5ryxjfi",
"xppxxi7>-%-,tjpppiiyysphxxxnnBnBMMnBMvbMZZAZMgbZAAAZAAnvMZAZZAZZZZVMMMnnnxseersspppkkki7;$.X&5eriijx",
"xpxppiw>-%->wpppppiterijpfxxnnnnxfxbgsscCAACMcvCZCZZAACvMCZZZZZVCNMnnnnnbxgyeruuaapytt,-%@XXO5eyjxix",
"xppxipt3-%%%>eppppiyyetiifxjcnnjssgseergCZZZCMMMbxMZAZCvMMZZCCCBMMxxcnnnnxxsssuupay7-;-$+XXX&:ryiixj",
"ppxgpge2%-%%->eppyyyy9uuuupkjljjpjxterrdnVVVVBngyrfmZZVcnnBBZBBcddfdxbbkxxjppyufyay8%@++. XO=5rrsxxi",
"pgggpgy7;@@%%;ejjiyypuuuuipkjkjjjncyyffdbmVVBMngrrfbBZVBBBBBBBncsqrsfgxxjjjppppy7897%@...+@&=5ruiixi",
"xggpppit6*@@%;ypkpipppuuuppajjjjnnbpfghhbnVVBNngsdpxnBVVBBBBBBnieerdffpjjjppyiyt;-=*@@ X+&==58rpjxxi",
"gfgppxpit:@@%>wtpkpjpppiipppjjjnxbbbgbbhbnMMBmnkghxknMnBnBBBnMkyrrddphjpjjppywwe;%@XXXXO$;,6qeypjfji",
"pgxpxggpy8;*%%%2pppkppjppipiipjjjjjpabbbkknnnnnbhMnbbnnnnnnnbnkprsghakkkjiiie1;;%#...XO&*27tyyipfjjx",
"pxxppgxppt:-%##,977ilkkzklkijpjjjjjabbblljknznnnbbmnnnnnnnccllzkfdhhaypppt0,1-%%%@. XXO&,wtsippijxix",
"ixxpjppjpr:;%$%*;*>yptukkkklljpiiyyppyypkkllpjnnhnmmmlklcppjkjkzaahue>8jp7;-%%%$+. .X&=55eyigjpxfjxj",
"xgppxxpppy85;#%$@%-,7:7e9apikkt4700pu0,8klpt7wjzzauanlljt8ejpe8iaruy,%;tt,%%##O   .@&=58eyyigxpgjjfp",
"pppjiixxgiye,%%O.$%$$%%;,977ey5-;;0y7;%;pkr1%;yblu5qyakp,;3it>%,q5wq:%.;2:$#oooo .X&;6weyfpggpxpxppx",
"pxxpjxxiggxi6;=*##$o.$$$->%%->%%@@>7;@@-qw,$O$qga9%%:yar;%>e7;%@*&;;%X  $%#   ooXX=:6wyiupgpgxppijxi",
"xxixxxixxxvxt771$$$O..X@@@@%%X.++@%&+  @*-$ooo*ru1Oo*8y,%.@=%@+..####O  O$$oO$&&=556erixgggxgppxgxjx",
"pjxxiixjgvvxpyr0,;=&$$$X@.++@. . X%@.X.@%@o o %12$ o@*,;@ .&%+   $ OO O$**%$$*::56eryyixggpggggppigx",
"jijxiixigcgvgffeq75::*&$OoOO@XXXXX@@OO$$$$O$O$$%&X X.$%$. .@@X XO$&OOO&*:5:*::60qrruipppxpxxgfpxjggj",
"xjiixxjgfxfvggfiyyewq6::=*&O%&*=&&&*=::;%$*=<1*%$XOO&%%@ X&@&X@&*=:=**=50qq5608ruuuuixpxxppgpgxpxxxi",
"xxxixixpggxfgvfffsyyyreq66555555555:66006222205;$&&=5;%@@&*=*&*=5500666erryereryppapppjppxiixxxgxipx",
"iijixxjfxggffggpggyiyuyreeq96999rq06qerssrqerrr0::5560,;==:665566eyrryrsyffuyypffgggxxppxccjjxxxpjpi",
"jijxjjfjjxjxijxxxijjixiyyyyyttfsiyteyyuufssffsfs075qere6566eew88ryfuyppufpgppppggxppgxgpxxcxxvvxgpgp",
"xxxijijxxifjjixiixxijijjfjjiiixgpffyypuufffffggfyeeyysyreerryyyryufuppppfggpgpgpxpgxppgppccvvvvcxxpx",
"xxiiixjxxixxxijxjxjjxxxxjxjxijxxppfpppppggggggggiyyifpuyyyypuyippppppgggjxpgxpgjxpjxppgfgxxvvvcvxxgg",
"xjixxjfyixixixixixixixiijiixjxiixxxpppxpggxxgggggiipppupiffpppppgbgggxggppxxppggppppxxxpggvxffxxxpxp"
};
