/* XPM */
static char *floor[] = {
/* columns rows colors chars-per-pixel */
"80 80 66 1 ",
"  c #23360D",
". c #253B0F",
"X c #293B0F",
"o c #263910",
"O c #2B3E10",
"+ c #25400F",
"@ c #28400F",
"# c #264310",
"$ c #2A4411",
"% c #2C4B12",
"& c #314512",
"* c #334C13",
"= c #384E14",
"- c #2F5013",
"; c #335314",
": c #3B5415",
"> c #375815",
", c #3C5B16",
"< c #385719",
"1 c #3D5A19",
"2 c #415B17",
"3 c #435E18",
"4 c #436317",
"5 c #486717",
"6 c #496817",
"7 c #456319",
"8 c #49661A",
"9 c #47681A",
"0 c #4D6B1B",
"q c #516E1D",
"w c #4E701B",
"e c #54741D",
"r c #59761E",
"t c #57791E",
"y c #5A7C1E",
"u c #607F1D",
"i c #546F20",
"p c #557420",
"a c #5A7620",
"s c #577922",
"d c #5B7E20",
"f c #607D21",
"g c #5E801F",
"h c #64841E",
"j c #68871E",
"k c #66881F",
"l c #6A8A1F",
"z c #5E8222",
"x c #5F8823",
"c c #5E8528",
"v c #628523",
"b c #658B25",
"n c #6A8D25",
"m c #658C28",
"M c #6B8E28",
"N c #679026",
"B c #6B9227",
"V c #6C9529",
"C c #6E992A",
"Z c #709327",
"A c #719529",
"S c #729D2B",
"D c #76A32E",
"F c #78A62F",
"G c #77A630",
"H c #78A630",
/* pixels */
"dzydgzyggszyzyztgyzydddddzydzyydzyddddzyzydddddddddzzyzyzydyzddzzyzddzyzyzydztzt",
"dxvdcxzszgtztzyzygyzzyddddddddzydddydyddygdddgdsddyzxydxzdddyddtydyddyzyddddgsyz",
"dzNxzxzztzgyztztgygytddstddygttyw0tte9ttyw0tyd40tdttmcdztddgdzszddddddddyddgdgzd",
"ddzczcczzttzyzddyyy64ttw,w0wt640<;9e4;6ee<,ew9;,194,ss0,40estwtwrdyddgddzdddyzty",
"dddzsczdydddyzd95et2-244-;;,02->--<4;;<34-;44;;;%;;;48>-%206>16<8eeayzyyyzzydztz",
"dddddsddzddtw4w4-,2%-%%*%-%%%*--%;%@%;%$%;-@%;4%%%;%%*-;%%:;-;;%,:,etydyzttzztzd",
"ddddddddydd9,;;<%-%%->;%%,4>;%,5;y0%;w;%-64%%eg4;,6%%,,;%@%-%--%%%*86pyyyztdygzd",
"zydgddzdzdw<%%-%%->;%4e,<wkye;0jtlh>4z4%>gw%4jjlqyy%>yt>%%,4,0<%%$$%;0tyddzydstg",
"ddddddde0e5%--%;2>e0>wghuujnlygklkgttvt4wzg0yvnnlkg4tgy4%4ytyh45>%%%%:6rtdzyyszy",
"dyzdydd4;;<%-;45hyyywyyyuuuakkkvhggkvvvvxhvvzzkhvghggyyw0tghgjhh>%%#@&3wtdtdzzyd",
"yzzyddy9%-%%%4kkhyhyyttyrydardzxgxbbmfvmvvbzzxvzkzggggyyytyyyghjyt>##@%4wdyzyzzy",
"zydddw56;->,;tlhyyytyyuyfaaeqtxbNbbbmffvvdvdzbbbvvxxzgdggtyeytyhjj5%@%@&,0ttzttz",
"yzydy0;;%%2hhhlydyrttyggfapq0dbbNbNNNzdaaavdcmNbvvvvzddzggggttttjle%-###*8qadsdd",
"ddddye;;%;,hhyhyydryttzgvfa0wxbNNNNNbzdsqpvzbBNmvrddssdzggggytytygy6;%%#$,6zdzzd",
"dyddyy,-;0yhhytttratdpzvvbvazNNNNNVBbdzdqdMmBNBNvpqqezgxggggytgyttyt4;#oo*9zzbcd",
"dzydyw;%-0hjjhyyrepwyszbbbbbNBBBNVVNNzcBbBCVVVVVBvpetgNbbxhggyuytytye>%$#*3scxyd",
"zysgzt,-%,gygytyte00dvbbmbvMBBVVBVVnBvbCVCCCCVCBCBBxdmNbbbxzzdattfyyr6-@.&2eszzd",
"ddgzee4%-5hgtettew0rvbbbBmcmVVVVCCCnnVCCCCCCCCCCCBCmNNNNNbbbzaattttyhr-@.&2wsddd",
"dzd9,,-%%4ggttgtytqzbbbNmmdmNVCCCCCBnVSSCSCSCCCCCBBCVBBBNbbxaiqqeytglt% X&2eydyz",
"dyzt>;----6tetgghyzvbNNNVMmdmVCCCSSBlVSSSSSCSSSSCnCCVVVBBbzsi00qwgtth6%..&2etddy",
"dyyc9--,66gtqeyxvdsxbNBVVVmsvVSASSCCnBSSDCDCSSSSnBCCCCAVmdszdzadggggy>-#.@3qryyz",
"dzdds<-<egttdtggvvzsxbNVVCVmfMSASSSCnBSSCDSDSSSBbCSSCCAZmdxNmbbvbgggjh4%@@=0rydy",
"dzdds0<-9tttyzgbbbbzsbVVCCCAMMAAASDSBBSDDDDDSDZnBSSSCCZVVmBBNNbvxggyhl4.X@28rydz",
"dyzdp01#;6ttgzgxbbmNmNVCCCSSAAZMBCDDCCDDCDCDSSMMASSSSBnCVVBBNNNbkhgghy;+.@=0rtdd",
"ydzt5;-%-,6ygzvbbNNVVVCCCCSSSMMnbBSGSSGDDAGDDAZASGSSVmvMAMVVmcdvxvzglt,%X$:8eddd",
"zydde,;;4tryzzbbbNNVVVCCCCCDSMvvfbSGGSSDGADDDDSDGSGSVvfbvmAVmsdszzzvhh4@.X*8wydy",
"dddte2;;eudardbbNNBVCCCCBVCDSSbvvbSSGSASDAADDDDDSGGSSMmmvMAABMmmvvvhkt>-%#&3wsdz",
"dzw4;-%%<efe0exNNNVVCCCCVNBCACBCSSGGSGAAAMMDDDAGGSSGSSmzMMAAVVmvvbbvkgy>$.&,0tyd",
"zdw,--2eryyaqdbNBBVCCCCDDBBZnbkSFDFDHFAMmvmSSVCGGGSGDCNmVCCCVVssbbbvxg4# X&20tdy",
"dds4--6lhygzzbbNBBVCCCCDSDClnlBSDDDDHFSMmdvAmMGGSGGSDDCDCDSCCBapdvvvg4%+.#$:9raz",
"dydw1%,hjyhgvbNBVVVCCCDCDSDCABnASFDFGHHZzmCMmAGDGGSGDCSDDCCSCBppzvvbz954;%%$3wtd",
"ddt9<%%4hjvvvbNBVVCCCSCDSDDDDSADFFFDGHHSVSGGSGGGSSSGDDDDCDSCCmppvNNbxxgh0*@*10wy",
"zyr,;-,tkvdddxNBBBZASSSSSDDDDGDGDDFDFDFFDHFFDHFSZZZADDDSSSSCCBtwabbbvvge-.X*30ps",
"yzae4;2ukhzdsxNNMnbnBAASDSDDDDDDDFFDFFDFHDDHDFHSZnBBZADDDSSCSCVxdhbbvkw-.X&:9qzd",
"dyyt4*%;wjlbbbBBMvvvhbnBADDDDDGGFFFFFFFFHFFFHFDDDSASZZDDDDSSSCCVNbvbbkt4;%@;3pzt",
"yzy6-;-5ujbbbMBVAvffrbnnMASDDDSDFDFFDDADDFFDFDHFDFFFDDDDSSSSSCCVVNNNbvkky6;%%0pr",
"zdd9;-<hlhzbbNNbBbppvZZMnBSSAMnmADDDAZZSHHFFFDFFFDDDDDDSSSSSCCCCVNNNbvhhh6@@*20e",
"yddt8;%<eyvbbkvzareaSSSAASSSAAvfkDSZZlZDHHDHFFDFFFFDFSZZSDSVNCCVVVNNbBlh2@.X&:8e",
"zydte9:@->tkbNNbdppVSSFSSFFSGAnvgNZZZZSFFDFFDFFFDDSDAZZAGSVmVCCCVNNNbklh,%.X=3qr",
"ydddt04%->evNNNBBNBCSSSSFSFFAAnMbnBlZSDSDDFHDFHSZBASAASDSGCCCxzNBNNNbky>@..&20et",
"dzdze,-->exNbNVVVCSCSDSDCGGSSASSVBZADSAMBDDFFFFBvVSDSSSGDSCSme0sfmmbbvy5$.X=40td",
"dydyyw,%-,txNNNVVCCCSSCDDDDSDDDAZADFFSSZvMSFFFDbvAGGGGGSDDGBpqdcvmvMbbkh,$@*7etd",
"dzyzs9,;4wgbbNNNVCBCVCCDDGSDDFSSDDDFFFAlmvnDFFDMvMSDGGSGSDCsppdcvmmmby6;%@O*7qtd",
"dddw,>;wkkxvbNNVVVnnnnnVCDDDDDFFDFDFFDSDSvMDFSDDSAADGSGSDSCcmfdsddzmbt,$  O=7qtd",
"ydzw<--,hlhbbNNBVVCBBBBADDDDDFDDFFDFFDDFSMAHSAZSGGDDDDSGSDSVMVvfzdddzzw;@.&:9etd",
"zddt4%%-4hvvbNNBVVCDASSDCDDDDDDDDDDDFFFDDZSHDAnZSGDDDGDSDSSCACCMNbczzw,%#@$20tdd",
"ydzye:%-6jhvgNNNVVCCCCSDDDDDDDDDDAADDFFFDAHHHSSZMDDASSGSSSSCCCCVNNNbz-%@XX*30syd",
"yzyy9;%<tjbzggNNVVCCCDCSSDSSDDDDDlZDFDDFDSHHDHFAZZSZMVCDDSSSCCVVNNNbz,%. X=30tzd",
"ddzz04%%9kbhdqdBNVCCCSSSAZnZSGGGSZZSGGSSGDGGDDDGSSSSVMMSSSSCCCVVBmbbv5%%.@27eddd",
"ddzbz4;4kvdfftzMNVVCCCMbbnnZGCSGSZnSGSZZDGDGGDDGSVMSDAACSSSCCVVNBbvzhe-@.@2qtddd",
"dyyzw;;tkhfaepbbBBBCCMvvlBBDGGSGSZMSGSZZDGGDDDGGAfvMASDCSSCCVVvcvppadt;@.&2qtydd",
"zzsw<;%<ruae00zbNBBVVnnvvBSSCGGGDlbbMMnADDDDDDSCMmmmmVCSSCCCCVzsi0iar<%. &30zcsd",
"yyys0>;wlhyai00abBBCZnnvdbSSGSGSDMvvvvMADDDDGScfdmAAAVCDSCCVVVmssipdy>%. &8pczxz",
"yzzs4--,elfapipdbNNVZZZbvnSSSDSDSBnAMMMSDDDDMMccvmMDDSSSCCVVVBmzssadhy-.X*7sczmz",
"dzyw1;%,uudtdadvbNBBZAVBMCSSSSDGAZADAAASDDDSmcmmMMAASSSCCCVVVVNbzatghl5@X*8sdccd",
"ztdtw>%4jutydzzmbbbBBBCBVACSCDCSSSSSSASDSDDSMffMMSAACCCCCCVVNNbbvdtuhy,%@&3escdd",
"dydt<--4eryyyygkxbNNNBVACCCCCCCCSSSSSSGSDSSSCmcMCSSCCCCCVVBBNNxbbggdg5%@.O20tdzd",
"dzde,-%%*,tytyggbbbNNNBVCCCCCCDGSSGSGSSSDSSmVmdmSSSSCCCVCVBNNNbxvggygy>..X:8edyy",
"dzdr,*@%%2ytetgggbbbNNNVVVCCCDCCSSSmVSGSSSVccVcmCCCCCCCVVNxbbbbxggyykl6@.&:8edyz",
"dyyte4*@;tyttgggxgvbNNNNNVVVVCCCSSCvcCSCSSVccAAcBCCCCCVVNNszzdzzgyyyhy,%@&10tddd",
"ydzyt6;%-4eytttgzzxvbbbNNVBVVVCCCCCmcVSCSCCvcVCBBCCVVBBBNbzat0psyyyyhg;#.X:0tddd",
"zyddt2;-%4gygtttragxzxbNNBVNVVmVVCVmdmCCCCCmdNCVBCVVVVNNbbxp00iprruklg4# $:0eddd",
"ddddt,-%-4yytyte0egdszbbbbzzmdivVVCmdmCCCCCmcmVVVVBBBmbbbbvd00eauuuyy>;#XX=8eddd",
"zyzyy0;%-%6gyyteq0ttszxbbd0zp00sVVVmmmmdmCCBcmVVNVNbbzxbbbvzpirryu5->%#@@X=0tydd",
"ydztd9%%%%-6gteeeqratggkxggzwqqabBBBNxp0aBVBxbNNBNNsppsxvgxgytrytuw%+.+ OO:0eazy",
"ddddye1$@%%6hgeeuerrygggggbxpadavNBNmxiiabBBNNNNNNx08iaazgggyyyq;25%+..@&*2qtddd",
"dsyydte:X@-ethyuyyrtyygggvxbddvfvbNNBbaddvmNNNNNNby0qaadyggtyewe-%@@#oO*:20wdddy",
"dddzddt6;%%-,hyhygytyytyggggffvvzkxNbbfbbvbbbbbbvbg0adfvhgyty4;>%+..oO*:9wwtdddd",
"yzdyddye:%$#,0>elhjjjyuyggggfvvvkgNlbbvvnvbbbbxxhjlyafjqyge4,<%%%X XO&:9wsydtztz",
"dddzddde:;$%%%%0t2hyhhjhywe5dy5rhhheynhbjnlkkteghtjjrf0%4k6%%#%# .oO=:30etzyzyzy",
"dyydddztw5%%.+%-%%>,y6eu4->4y5%;jj5%>hkh3rhhg>>ge-,r4r3%#94%#+oo .O*28qrtztzyztz",
"yzzyddddgw*=&+$o.%@->$-,%%@>4%@%w0%@%elq%*0hw%-w4%@-%>;@ .%#  ooX$=26rttdyzydyzt",
"zddzzyzzcz99:$$O.X@$##%o.+.%@. +%%ooo<t<..,r>#.*%+..#.#. X$$oO&&=230wddddzydddgz",
"ydzttztxczsp8,:=&$@X .#X..X%@XX@%oooo%<# .@;%. O%. .OXo.X*:*$*:230qrtdddddsddysg",
"dyydzyszscssew043:*&$$$O&&@@&&=%$O***$%oXX$%# X$@X@&**&&=:731240errtzyzyzdyddzzy",
"zztztzydzszsssewe0832:::222::2743<117<$$&::%@$&=&&=:3733300p000etddyydyzttzzddyz",
"tgddztzydsddydtttte000000w0676qes00pwi,:2362==:342370eweeptstetsddddzyzxzgzxzydy",
"dddgyzyzddyzddzddyyattersyatqrrrsssssdq73qqq8780e66wsattyayddyydddddddyzxzcczzdd",
"dzytdgztdzyddddydyzddydyzyyatytysdsdddreetyrewwtretryydyddzddddgzyzyysyzccczxzdd",
"ztdzgstzddddzyyzdzydyzddddzddyzyddcddddttyytttsdyyddzddzddydzyddydyzzdddczsczddd"
};
