/* XPM */
static char *floor[] = {
/* columns rows colors chars-per-pixel */
"40 40 44 1 ",
"  c #273D0F",
". c #283E0F",
"X c #293E10",
"o c #27400F",
"O c #2B4310",
"+ c #2E4912",
"@ c #304612",
"# c #324C13",
"$ c #355414",
"% c #395515",
"& c #3C5C16",
"* c #3F6018",
"= c #415D17",
"- c #435F18",
"; c #416017",
": c #456419",
"> c #48661A",
", c #4C6C1B",
"< c #4F701C",
"1 c #54741D",
"2 c #58771E",
"3 c #57781E",
"4 c #5A7B1F",
"5 c #567620",
"6 c #577A21",
"7 c #5B7E20",
"8 c #5E801F",
"9 c #61821F",
"0 c #5E8222",
"q c #618522",
"w c #658B25",
"e c #698D26",
"r c #668E28",
"t c #688F28",
"y c #679026",
"u c #6A9127",
"i c #679028",
"p c #6C9429",
"a c #6E992A",
"s c #709427",
"d c #709629",
"f c #729C2B",
"g c #76A22E",
"h c #78A62F",
/* pixels */
"0000077088888688308644884000080004040408",
"0000604441<1<<1<:<:<<<<*,,3<<31<38406868",
"707703<,;*%%$$&$$$$$$$&$$$&$$*$*;<440688",
"04704,$$$$%&*,*:1:****>3:***+*$$+$>34860",
"3081*$$*,<<44q9q8808830w803<*18<%+$>4774",
"888>$$*87444423q0y00000w808388883$o$,477",
"001$$,884247723wpy0800yi000888388,+O$100",
"811$*888227qqqwipyy00iii0380088376;O+,00",
"00,$*803<<0wwriaairpaaadaw0yy004441+O>70",
"0<*$$<<888wyiqidfaefaffdpaayy06<341@o>44",
"00*$<080000aawwafapffgffpaapw000983#O-38",
"00,$*380wwwpadppdffffgftaaappiww994$o:24",
"01*$*880yyaaaaawrfggfgffgfewipw0qq4%.%38",
"0<*$,83wypaaaaaypggddfgggfartaiqqq9&o%14",
"0,$<888yppafaaypghgdwtpghgfadfp7qq2$O%,4",
"0*$*880ypaafgfaaghhfpafgggggffi5qw4,$@>1",
"8<$>990yepsfghhhhhhhhhhfddfhfffq9wq<+@>4",
"0<&&8wwuwq9usfgfhhgghhhghffffffswww3&#:2",
"8<&*49ww94essffwdfsdhhhhhhffffaapye9:O%,",
"40,$&8wyqtgfggsetsdfhhhffffffaeruew1#O=1",
"00<$*8ypaddgggffdffddghftfggga77www1@@>6",
"43*&19wypppaggggghgfedgfdgggfi770w0&O@,6",
"03&$4wwuaaaagghggghgfffdgggffaprw06%X#<6",
"08*$39qtiafdfgghffhgfhhfffffgfapiw,@X%57",
"30,*3080ppdpusfgdfgdghhgdddfffattq3@o:67",
"03**8330tspwwfggdtddghgfrtpffppq33<@X>77",
"83$$43<6wppwwffgdrrpggaqwdfffpp033<@O,q0",
"01**4700wtpusffgffffgfrqtdfapppr944%@,77",
"03$$,349wrtaaaffffgfgarraaaappirq74#X-37",
"84*+&3380rwuppaffppfarrraaaai000744%O:37",
"40,#&344700rrppparraairpppier755394%X-37",
"04,$$143160rq766ppqriirppirqr7<54<=OX=37",
"38<$+*4333499833eew2qewuy437q433,%. +:27",
"046:+$<843449q0qwew7qeeew434031;+..#;177",
"0401$+$*34883333q7qqww74742<1:$O..@:1460",
"6804<$+++%;:$%=%,%>7>2>::&=###XX.#>36706",
"80300,$#O..O OO.+X#%o%@XO ..O#O#=,370470",
"0303063:>=##$#%%#%%O@#O@@#%%=>>,24474070",
"8800060321<<1<,1111::>=->>11224444700007",
"0330608074747444676332322244477740700000"
};
