/* XPM */
static char *gold_door[] = {
/* columns rows colors chars-per-pixel */
"80 80 201 2 ",
"   c #010100",
".  c #0D0A02",
"X  c #120E03",
"o  c #1B1604",
"O  c #2A2206",
"+  c #3B281F",
"@  c #44370A",
"#  c #4C361F",
"$  c #4A341F",
"%  c #573B1D",
"&  c #432E22",
"*  c #473123",
"=  c #4B3424",
"-  c #4E3821",
";  c #4E3628",
":  c #553B25",
">  c #503728",
",  c #533A29",
"<  c #5A3E2D",
"1  c #5A3D20",
"2  c #5B431F",
"3  c #6C4D1B",
"4  c #66481F",
"5  c #704C14",
"6  c #695510",
"7  c #6C531E",
"8  c #6E5911",
"9  c #77581C",
"0  c #796213",
"q  c #5B4127",
"w  c #5D402F",
"e  c #5F4130",
"r  c #61452A",
"t  c #6D4C2D",
"y  c #674928",
"u  c #714D2E",
"i  c #74532D",
"p  c #7B552A",
"a  c #7D5C2C",
"s  c #755824",
"d  c #644532",
"f  c #674831",
"g  c #6A4A31",
"h  c #704F30",
"j  c #725230",
"k  c #895C15",
"l  c #815814",
"z  c #8C6D1E",
"x  c #846B15",
"c  c #986712",
"v  c #97671E",
"b  c #97791A",
"n  c #8F7416",
"m  c #B57A0F",
"M  c #B97D0E",
"N  c #A26E19",
"B  c #AA7313",
"V  c #A6701C",
"C  c #A87216",
"Z  c #B77C16",
"A  c #AB740F",
"S  c #8A5E26",
"D  c #815F2C",
"F  c #8B6A26",
"G  c #85642B",
"H  c #88652E",
"J  c #8B692A",
"K  c #8E6125",
"L  c #936423",
"P  c #976823",
"I  c #947325",
"U  c #9D7B23",
"Y  c #94712B",
"T  c #9B772A",
"R  c #A17F22",
"E  c #A27827",
"W  c #BF810E",
"Q  c #A5841E",
"!  c #AB891E",
"~  c #A9861E",
"^  c #B5891B",
"/  c #B6921E",
"(  c #B9951C",
")  c #BE991F",
"_  c #A48122",
"`  c #AA8429",
"'  c #AA8526",
"]  c #B58D29",
"[  c #B28C27",
"{  c #BC9525",
"}  c #BD9921",
"|  c #BB9929",
" . c #BD9E33",
".. c #BDA13E",
"X. c #CB8A0F",
"o. c #C7870F",
"O. c #D28E0F",
"+. c #C58512",
"@. c #CE8C10",
"#. c #C78812",
"$. c #D18E10",
"%. c #C49E1E",
"&. c #C5941A",
"*. c #D29111",
"=. c #C6A01E",
"-. c #CAA31F",
";. c #D2AA1F",
":. c #DDA81C",
">. c #E2B11F",
",. c #C29B23",
"<. c #C89F27",
"1. c #C09B29",
"2. c #CEA525",
"3. c #CAA629",
"4. c #D5AC21",
"5. c #D9AF24",
"6. c #D5AF2C",
"7. c #D1A726",
"8. c #DBB122",
"9. c #D8B22D",
"0. c #C3A538",
"q. c #D1AF39",
"w. c #DCB83A",
"e. c #E1B623",
"r. c #E6BA24",
"t. c #E8BC24",
"y. c #E4BB2B",
"u. c #E1B728",
"i. c #E3BC33",
"p. c #E1BC3A",
"a. c #BEA651",
"s. c #BBAF79",
"d. c #C9AB44",
"f. c #DBBB4B",
"g. c #C2AB57",
"h. c #C6B05B",
"j. c #D7BC57",
"k. c #E1BE41",
"l. c #E0BF49",
"z. c #CCB96C",
"x. c #C8B56D",
"c. c #D4BE6B",
"v. c #D0BA64",
"b. c #C3B373",
"n. c #CDBA73",
"m. c #CABA7C",
"M. c #D0BE78",
"N. c #DDC15C",
"B. c #E3C456",
"V. c #E4C147",
"C. c #DBC36A",
"Z. c #D4C174",
"A. c #D5C37C",
"S. c #DAC67B",
"D. c #E1C86C",
"F. c #BBB79B",
"G. c #BEBA9C",
"H. c #B7B39A",
"J. c #BEBBA0",
"K. c #C8BD89",
"L. c #C1BB96",
"P. c #C1BD9E",
"I. c #C2BEA2",
"U. c #CFC184",
"Y. c #CBC08D",
"T. c #DACA88",
"R. c #CAC29B",
"E. c #CAC195",
"W. c #D5CB9C",
"Q. c #D3C896",
"!. c #DED093",
"~. c #E1CF87",
"^. c #E2D18C",
"/. c #E1D294",
"(. c #E0D49E",
"). c #C6C1A4",
"_. c #C9C5A6",
"`. c #CDC8A7",
"'. c #C6C2A9",
"]. c #CAC6A9",
"[. c #CEC9AC",
"{. c #D1CDAE",
"}. c #D5CDA2",
"|. c #D6D1AF",
" X c #DAD3AD",
".X c #CFCBB0",
"XX c #D2CEB1",
"oX c #D6D1B3",
"OX c #D9D5B5",
"+X c #DED9B6",
"@X c #DAD6B9",
"#X c #DED9BB",
"$X c #D7D3B8",
"%X c #E1DDBD",
"&X c #E3DBB2",
"*X c #E5E0BF",
"=X c #DEDBC0",
"-X c #E2DEC0",
";X c #E6E2C3",
":X c #E8E4C6",
">X c #E9E5C8",
/* pixels */
"oX@X@X@X+X+X%X+X+X{.oX_.L.).oXoXoX#X+X].OX+XoX[.XX].oX@XOX[..X).].[.#XXX].[.).I.].[.{.{.oX@X#XoXOX].[.).'.[.;X#XoX*X+X[.;X*XoX].).[.#X%X%X#X;X+X;X+X>X%XoX+X@X{.",
"oXOX@X@X|.OX%X%X+X|.[.].).{.{.`.OXoX[.{.OX@X[.[.).{.{.$XoX[.].{.[.XXXX].)..X).I.XXoX{.oXoX@XOXoX{.).].[.XX-XoX].[.#X{.OX*X$XI.).[.@XOX%X:X+X@X#X+X;X+X{.XXoX.XXX",
"{.[.[.XX@XOX+XoX].{.[.).).).].{.%X$XXX{.).).XX`.OXOXXX$XoX[.].XX.X'.XXoX$XoX].oXoX`.].[.$XOX$X{.J.P._.{.[.[..XXX#X=XoX|.[.).P.[.-X#X%X*X#X#XoX@XXX{.@X[.OX-X].XX",
"XX[.].{.|.OXOX{.XXOXoX].XXOX:X;X-X[.+XoX[.|.%X+X#X@XoX[.oXoX+XXX$X$X@X@XOX[.OX@X$X}.OXoXoXOXOX[.].{.-XoX[.XXoXoX#X#X:XXX).XX+XOX+X|.$X+X#X;X:XoX@XOXoXXX#X{.OXOX",
"{.].XXOX+X:X@XoX@X#XXX'.@X;X;X%X$XXXoXoX%XOX#X-X+X#X@XoXOX+XoX].$X@XoXOXoXoX$X+X{.[.oX+X+X+XXX].XX;X$X[.=X#X+X#X@X@XoX[.=X#X$X|.oXOXOXoX+X+X|.].-X@X{.OXXX[.XXoX",
"R.].#X+X-X#X{.[.XX[.[.@X+XOX#X_.'.XX[.oXOXOX;XOXoX|.oXoXXXXX[.[.|.}.W.U.m.A.Z.S.z.M.^./.(.Q.).).XX.X$XoXoXoX@X].[.[.[.oXoX].oX[.`.`.].`.].`.].[.oXoX[.G.).[.).[.",
"XX$XoXOXoXoX[.).oX@X#X[.XX@X@X.X[.XX$X@X#X#X+X@XoXoXXXXX{.}./.C.f.k.w.y.y.r.y.r.r.r.y.y.i.i.w.f.D.!. X{.$X+XOX].'.).XX+XOX$XoX.XoX[.].)..X$XoX].{.OX[.[.[.[.].{.",
"oX#X].XXXX].).XXoX%X].F.[.].].).J.oX{.oX>X%X|.XX+X@XE.A.N.k.y.t.r.r.r.r.r.r.r.r.r.r.r.r.r.r.r.r.y.y.k.B.T.W.{.J.H.].+X%X:X@X[.[.oX].).'.).oXoX{.XX{.|.I.I.oX].[.",
"oX[.I.].].[.XX+X+XoX]._.XXI.oX@X[.[.{.oX:XOX].}.T.N.w.t.r.r.r.r.r.r.r.r.r.r.r.r.r.r.r.r.r.r.r.r.r.r.r.r.r.p.j.m._.{.+X:X:X].).].[.[.[..XXXXX[.].].|.[.].XXOX[.oX",
"%X[.oX{..XoXXXoX_.).].XXXXXX%XoXG.).{.OX-X}.A.V.t.r.r.r.r.r.r.r.r.r.r.r.r.r.r.r.r.r.r.r.r.r.r.r.r.r.r.r.r.r.r.y.f.T.&X:X%X]._._.[.[.).[.XX|.[.oX+XoX[.[.).].[.OX",
"oX[..X).XXXXXXXX_.).XX_.{.XXXX[.)._.{. X^.f.y.r.t.t.r.r.r.r.r.r.r.r.r.r.r.r.r.r.r.r.r.r.r.r.r.r.e.r.r.r.r.r.r.r.r.r.B.^.+X|.`.].$X[.'.[.oX{.oX+X+X{.[.).].oXoXoX",
").).F.I.[.].[.oXOX[.[._.[.I.I._.].[.Q.N.y.r.t.r.t.t.r.r.r.r.r.r.r.r.r.r.r.r.r.r.r.r.r.r.r.r.r.r.r.r.r.r.r.r.r.r.r.r.>.y.N.W.[.oX|.).).@X@XoX+X$X$X[.J.).[.oXoX`.",
"_.).).`.@X@XOX&XXX].{.I.J.'._.I.F.Z.i.r.r.r.r.r.r.r.r.r.r.r.r.r.r.r.t.r.t.r.r.r.r.r.t.t.t.t.r.r.r.r.r.r.r.r.r.r.r.r.r.r.r.9.n._.[.oX:X>X@X@X$X[.$X].XX$XoX[.[.).",
"%X+X%X*X%X&X%X{.oX+XOXI.].[..XK.f.y.r.r.r.r.r.r.r.r.r.r.r.t.r.r.r.8.8.8.8.4.4.2.4.4.8.8.8.r.r.r.r.r.r.r.r.r.r.r.r.r.r.r.r.r.8.j.}..XOX[.{.+XOX+X+X;X:X$XXX#XoX[.",
" X|.OX+X{.|.{.XX X{.{._.`.{.U.p.r.r.r.r.r.r.r.r.t.t.r.r.e.8.;.3.) [ U I G G s s a a G J U ' | 4.8.r.r.r.r.r.r.r.r.r.r.r.r.r.r.r.w.m.I.[.|.XX=X-X@X+XOXOX+XoX].].",
"{._.[.]._._.{.+X{.{.I._._.Z.y.t.r.r.r.r.r.r.r.r.r.t.8.4.-./ U F i g f r d d > > e d d d d f g a Y [ 4.e.r.r.r.r.r.r.r.r.r.r.r.r.r.6.n.oXoX@X].$XoX|.oXG.P.).].oX",
").).].[.oX$X+X+XoX`.).G.c.y.r.r.r.r.r.r.r.r.r.e.8.2.) _ G i f d d d d d d d , , d d d d d d d d d f i Y { 5.r.r.r.y.r.r.r.r.r.r.r.r.9.n._.[.|..X{.@X'.).oXoXoXoX",
"G.).oX+XoXOXoX[.[.).G.C.y.e.r.r.r.r.r.r.r.r.8.;.( I a d d e d d d d d d d d , , d d d d d d d d d d d d f H ] 5.t.r.r.r.r.r.r.r.r.r.r.5.x.R.).{.+X|.[.$X=X-X.X).",
"oX%X+X X+X{._.[.).F.c.y.r.r.r.r.r.r.r.r.8.4.) U a f d d d d d d d d d d d d , , d d d d d d d d d d d d d d d G { u.r.r.r.r.r.r.r.r.r.r.6.s.].].].XX].).).].'.].",
":X+XOX{.[.I.].].).n.y.r.r.r.r.r.r.r.r.8.-.! G t d d d d d d d d d d d d d d , > e d d d d d d d d d d d d d d d g T 7.r.r.r.r.r.r.r.r.r.r.6.m.].[.'.P.XX].$X+X%X",
"[.[.].].{.].{._.T.y.r.r.r.r.r.r.r.e.5.) _ i d d d d d d d d d d d d d d d d , , d d d d d d d d d d d d d d d d d d a 1.r.r.r.r.r.r.r.r.r.e.0.K..X[.+X[..X+XoXOX",
"oX{.I._.).).).Q.f.r.r.r.r.r.r.r.r.4.( I g d d d d d d d d d d d d d d d d d , > d d d d d d d d d d d d d d d d d d d j ` u.t.r.r.r.r.r.r.r.>.d.R.oX].)..X[.).'.",
"].F.P.).).P.P.N.r.r.r.r.r.r.r.r.;./ F f d d d d d d d d d f d d d d d d d d , > d d d d d d d d d d d d d d d d d d d d g E e.r.r.r.r.r.r.r.r.5.h.[.).oX@X`.).[.",
"I.I.I.).J.I.z.y.r.r.r.r.r.r.e.2./ G d d d d d d d d d d d d d d d d d d d d , > e d d d d d d d d d d d d d d d d d d d d g T 5.r.r.r.r.r.r.r.r.7.U.#X+X$X`.+XoX",
"XX).P.).].W.p.r.r.r.r.r.r.r.;./ G d d d d d d d d d d d d d d d d d d d d d , , d d d d d d d d d d d d d d d d d d d d d d d T u.r.r.r.r.r.r.r.8.d.&X%X[.OXXX].",
"].).OX|.oXD.r.r.r.r.r.r.r.4.( F d d d d d d d d d d d d d d d d d d d d d d , > d d d d d d d d d d d d d d d d d d d d d d d g ` r.r.r.r.r.r.r.r.4.v.).].[.I.'.",
"oXXXOXoX!.y.r.r.r.r.r.r.8.) I g d d d d d f d d d d d d d d d d d d d d d d , , e d d d d d d d d d d d d d d d d d d d d d d d g ] r.r.r.r.r.r.r.e.3.L.[._.'.[.",
"%X%X@X|.B.r.r.r.r.r.r.e.=._ h d d d d d d d d d d d d d d d d f d d d d d d , > d d d d d d d d d d d d d d d d d d d d d d d d d j 3.r.r.r.r.r.r.t.4.a.I.].[.oX",
";XOXXX!.i.r.r.r.r.r.r.-./ p d d d d d d d d d d d d d d d d d d d d d d d d , > d d d d d d d d d d d d d d d d d d d d d d d d d d J 8.r.r.r.r.r.r.e.3.K.oX.XOX",
"*XoX XB.r.r.r.r.r.r.5.( F d d d d d d d d d d d d d d d d d d d d d d d d d , , d d d d d d d d d d d d d d d d d d d d d d d d d d f ` r.r.r.r.r.r.r.2.g.{.oX+X",
" XOX(.i.r.r.r.r.r.e.=.Q g d d d d d d d d d d d f d d d d d d d d d d d d d , > d d d d d d d d d g d d d d d d d d d d d d d d d d d i 2.r.r.r.r.r.r.8.0.W.+X%X",
"`.{.C.y.r.r.r.r.r.4./ D f d d d d d d d d d d d d d d d d d d d d d d d d d , > d d d d d d d d d g d d d d d d d d d d d d d d d d d d Y e.r.r.r.r.r.r.2.m.XXoX",
"`.L.f.e.r.r.r.t.e.%.E d d d d d d d d d d d d d d d d d d d d d d d d d d d , , d d d d d d d d d d d d d d d d d d d d d d d d d d d d u 1.t.r.r.r.r.t.;.d.G.I.",
"].K.y.r.r.r.r.t.4.{ D d d d d d d d d d d d d d d d d d d d d d d d d d d d , , e d d d d d d d d d d d d d d d d d d d f d d d d d d d d Y u.t.r.r.r.r.e.1.L.G.",
"G.v.t.t.r.r.r.e.%.R g d d d d d d d d d d d d d d d d d d d d d d d d d d d , , d d d d d d d d d d d d d d d d d d d d d d d d d d d d d u <.t.r.r.r.r.e.=.n.P.",
"].V.e.r.r.r.r.8.( G d d d d d d d d d d d d d d d d d d d d d d d d d d d d , , d d d d d d d d d d d d d d d d d d d d d d d d d d d d d d T y.r.r.r.r.r.2.h.{.",
"Q.w.r.r.r.r.r.;.! u d d d d d d d d d d d d d d d d d d d d d d d d d d d d , , d d d d d d d d d d d d d d d d d d d d d d d d d d d d d d D 6.t.r.r.r.r.4.0.L.",
"T.y.r.r.r.r.e.=.I f d d d d d d d d d d d d d d d d d d d d d d d d d d d d , ; e d d d d d d d d d d d d d d d d d d d d d d d d d d d d d d | t.y.r.r.r.u.1.s.",
"C.r.r.r.r.r.8.( a d d d d d d d d d d d d d d d d d d d d d d d d d d d d d , < e d e d d d d d d d d d d d d d d d d d d f d d d d d d d d d Y r.r.r.r.r.r.,.b.",
"j.r.r.r.r.r.4.^ t d d d d d d d d d d d d d d d d d d d d d d d d d d u K V V V V V S u d d d d d d d d d d d d d d d d d d d d d d d d d d d D >.r.r.r.r.e.%.x.",
"V.e.r.r.r.r.-.U f d d d d d d d d d d d d d d d d d d d d d d d d h P +.@.O.O.O.O.O.X.M L f d d d d d d d d d d d d d d d d d d d d d d d d d j 2.r.r.r.r.r.-.g.",
"p.t.r.r.r.r.) F e d d d d d d d d d d d d d d d d d d d d d d d p Z $.$.X.o.o.o.@.O.$.$.$.N u d d d d d d d d d d d d d d d d d d d d d d d d d ] t.r.r.r.r.;...",
"y.r.r.r.t.8.) 0 e d d d d d d d d d d d d d d d d d d d d d d p Z $.@.W A k 5 5 l N +.O.@.@.N f d d d d d d d d d d d d d d d d d d d d d d d d _ t.r.r.r.r.;. .",
"y.t.r.r.t.5.{ s e d d d d d d d d d g d d d d d d d d d d d u Z O.@.m k % & + & ; 1 3 B O.O.@.L f d d d d d d d d d f d d d d d d d d d d d d d Y u.r.r.r.r.5.1.",
"r.r.r.r.t.5.! y e d d d d d d d d d d d d d d d d d d d d d L $.$.M l * * , ; , e e e t Z @.$.M u d d d d d d d d d d d d d d d d d d d d d d d J 5.t.t.r.r.5.| ",
"r.r.r.r.t.4.! q d d d d d d d g d d d d d d d d d d d d d g Z $.o.c $ * w d , , d d d d S +.$.@.k e d d d d d d d d d d d d d f d d d d d d d d D 6.t.t.t.t.;.( ",
"r.r.r.r.r.5.! q d d d d d d d d d d d d d d d d d d d d d p +.$.M 3 & < d d , > e d d d d V O.$.c , d d d d f d d d d d d d d d d d d d d d d d p 7.t.r.t.t.5.( ",
"r.r.r.r.r.4.Q q d d d d d d d d d d d d d d d d d d d d d S @.@.m % ; d d d , , d d d d e S O.$.C 1 e d d d d d d d d d d d d d d d d d d d d d h 7.t.r.t.t.;.( ",
"r.r.r.r.t.4.Q q e d d d d d f d d d d d d d d d d d d d d L $.$.m % < d d d > > e d d d d K O.X.C % < d d d d d d d d d d d d d d d d d d g d d f 3.y.t.r.t.5.( ",
"r.r.r.r.t.4.Q , e d d d d d d d d d d d d d d d d d d d d P $.$.o.y d h h j r r h j h j h P *.*.C % < d d d d d d d d d d d d d d d d d d d d d g 7.t.t.r.t.5.( ",
"r.r.r.r.r.4.Q : e d d d d d d d d d d d d d d d d d d d d E :.>.e.4.5.5.5.5.5.5.6.5.5.5.5.8.e.>.&.4 < f d d d d d d d d d d d d d d g d d d d d g 2.t.r.t.t.:.( ",
"r.r.r.r.t.5.Q , e d d d d d d d d d d d d d d d d d d d j 2.r.r.r.r.t.r.t.r.r.r.r.t.r.t.r.r.r.r.r.V e d d d d d d d d d d d d d d d d d d d d d g 2.t.r.t.t.5.( ",
"r.r.r.r.r.4.Q , d d d d d d d d d d d d d d d d d d d d H u.r.r.r.r.r.r.r.r.r.r.r.r.r.r.r.r.r.r.t.,.q d d d d d d d d d d d d d d d d d d d d d g 2.t.r.r.t.5.( ",
"r.r.r.r.t.4.Q q e d d d d d d d d d d d d d d d d d d d H y.r.r.r.r.r.r.r.y.r.r.r.r.r.r.r.r.r.r.r.&.: < d d d d d d d d d d d d d d d d d d d d g 2.t.r.r.r.5.( ",
"r.r.r.r.r.4.Q , d d d d d d d d d d d d d d d d d d d d H r.r.r.r.r.r.r.r.r.r.r.r.r.r.r.r.r.r.r.r.} # < d d d d d d f d d d d d d d d d d d d d g 7.t.r.r.r.5.( ",
"r.r.r.r.t.4.Q , e d d d d d d d g d d d d d d d d d d d H u.r.r.r.r.r.r.r.r.r.r.r.r.r.r.r.r.r.r.r.} # < d d d d d d d d d d d d d d d d d d d d g 3.t.y.r.t.5.( ",
"r.r.r.r.r.4.Q , e f d d d d d d d d d d d d d d d d d d H r.r.r.r.r.r.r.r.r.r.t.r.r.r.r.r.r.r.r.r.) = < d d d d d d d d d d f d d d d d d d d d g 2.t.r.r.t.8.( ",
"r.r.r.r.r.5.Q : e d d d d d d d d d d d d d d d d d d e H r.r.r.r.r.r.r.r.r.) ! =.e.r.r.r.r.r.r.r.} - < g d d d d d d d d d d d d d d d d d d d g 2.t.r.r.t.8.( ",
"r.r.r.r.t.5.Q , e d d d d d d d d d d d d d d d d d d d H r.r.r.r.r.r.r.8.0 o X O Q r.r.r.r.r.r.r.} - < d d d d d d d d d d d d d d d d d d d d g 2.t.r.r.r.8.( ",
"r.r.r.r.r.4.Q , d d d d d d d d d d d d d d d d d d d e G u.r.r.r.r.r.r.Q .       O =.r.r.r.r.r.r.( - < d d d d d d d d d d d d d d d d d d d d g 2.t.r.r.t.;.( ",
"r.r.r.r.t.4.Q q d d d d d d d d g d d d d d d d d d d e G u.r.r.r.r.r.r.0         X ~ t.r.r.r.r.e./ - < d d d d d d g d d d d d d d d d d d d d g 2.t.r.r.r.8.( ",
"r.r.r.r.t.4.Q , e d d d f d d d d d d d d d d d d d d d h 3.t.r.r.r.r.t.n         o / t.r.r.r.r.5.z = w d d d d d d d d d d d d d d d d d d d d g 2.t.r.r.t.5.( ",
"r.r.r.r.t.4._ q e d d d d d d d d d d d d d d d d d d d e ` t.r.r.r.r.r.;.@       6 u.r.r.r.r.r.=.7 & d d d d d d d d d d d d d d d d d d d d d g 2.t.r.t.t.8.( ",
"r.r.r.r.t.4.Q , e f d d d d d d d d d d d d d d d d d d d G 8.r.r.r.r.r.e.2.@   6 5.r.r.r.r.r.8.Q # > d d d d d d d d d d d d d d d d d d d d d g 2.t.r.t.t.;.( ",
"r.r.r.r.r.4.Q q d d d d d d d d d d d d d d d d d d d d d f ` t.r.r.r.r.r.r.8 . b t.r.r.t.t.8.%.7 * w d d d d d d d d d d d d d d d d d d d d d g 2.y.r.r.t.5.( ",
"r.r.r.r.r.4.Q , e d d d d d d d d d d f d d d d d d d d d d j | t.t.r.r.r.r.( x 2.t.r.r.t.8.2.z $ ; d d d d d d d d d d d d d f d d d d d d d d g 2.t.t.r.t.5.( ",
"r.r.r.r.t.4.Q , e d d d d d d d d d d d d f d d d d d d d d d a } e.r.r.r.r.t.t.t.t.r.r.8.-.n - * w d d d d d d d d d d d d d d d d d d d d d d g 2.t.r.r.r.5.( ",
"r.r.r.r.r.4.Q : d d d d d d d d d d d d d d d d d d d d d d d d h _ 4.e.t.r.r.r.r.t.8.;.( s = * w d d d d d d d d d d d d d d d d d d d d d d d g 2.t.r.r.r.8.( ",
"r.r.r.r.t.4.Q q e d d d d d d d d d d d d d d d d d d d d d d d d d s _ } 4.8.4.4.-.! z 2 * = e d d d d d d d d f d d d d d d d d d d d d g d d g 2.r.r.r.t.8.( ",
"r.r.r.r.t.4.Q , d d d d d d d d d d d d d d d d d d d d d d d d d d d w y 9 7 y 7 7 - * * , d d d d d d d d d d d d d d d d d d d d d d d d d d g 7.t.r.r.t.;.( ",
"r.r.r.r.t.4.Q , e d d d d d d d d d d d d d d d d d d d d d d d d d d d w w * & = ; , w e d d d d d d d d d d d d d d d d d d d d d d d d d d d g 2.t.r.r.t.5.( ",
"r.r.r.r.t.4.Q , d d d d d d d f d d d d d d d d d d d d d d d d d d d d d d > < d d d d d d d d d d f d d d d d d d d d d d d d d d d d d d d d g 2.t.r.r.r.5.( ",
"r.r.r.r.t.4.Q - e d d d d d d d d d d d d d d d d d d d d d d d d d d d d d > > d d d d d d d d d d d d d d d d d d d d d d d d d d d d d f d d g 3.y.t.r.r.8.( ",
"r.r.r.r.r.4.Q q e d d d d d d d d d d d d g d d d d d d d d d d d d d d d d > < d d f d d d d d d d d d d d d d d d d d d f d d d d d d d d d d g 6.t.t.r.t.8.( ",
"r.r.r.r.r.5.Q , d d d d d d d d d d d d d d d d d d d d d d d d d d d d d d , > d d d d d d d d d f d d d d d d d d d d d d d d d d d d d d d d d 2.t.r.r.r.8.( ",
"r.r.r.r.r.5.Q , e d d d d d d d d d d d d d d d d d d d d d d d d d d d d d , > d d d d d d d d d d d d d d d d d d d d d d d d d d d d d d d d g 2.t.r.r.r.5.( ",
"y.r.r.r.t.4.Q : e d f d d d d d d d d d d d d d d d d d d d d d d d d d d d , > d d d d f d d d d d d d d d d d d d d d d d d d d d d d d d d d g 7.t.r.r.r.4.( ",
"V.r.r.r.t.4.Q , d d d d d d d d d d d d d d d d d d d d d d d d d d d d d d , > d d d d d d d d d d d d d d d d d d d d d d d d d d d d d d d d g 2.t.r.t.e.,.0.",
"A.w.r.t.t.4.Q : e d d d d d d d d d d d d d d d d d d d d d d d d d d d d d < > d d d d d d d d d d d d d d d d d d d d d d d d d d d d d d d d g 7.y.r.8.-.| K.",
"`.Z.q.-.-.-.Q q e d d d d d d d d d d d d d d d d d d d d d d d d d d d d d > > e d d d d d d d d d d d d d d f d d d d d d d d d d f d d d d d d { ;.-.,.0.U.}."
};
