/* XPM */
static char *hole[] = {
/* columns rows colors chars-per-pixel */
"80 80 90 1 ",
"  c #373431",
". c #393633",
"X c #3C3936",
"o c #3F3C38",
"O c #423F3C",
"+ c #45423D",
"@ c #49463E",
"# c #4C493F",
"$ c #494540",
"% c #4F4D41",
"& c #504E42",
"* c #555246",
"= c #55524A",
"- c #59564B",
"; c #5C5A4C",
": c #5E5C51",
"> c #615E52",
", c #656254",
"< c #686656",
"1 c #666358",
"2 c #6A665A",
"3 c #6E6B5D",
"4 c #716F5E",
"5 c #73705F",
"6 c #747160",
"7 c #797665",
"8 c #7B7867",
"9 c #7D7A6A",
"0 c #817E6D",
"q c #84816D",
"w c #868371",
"e c #898673",
"r c #8E8A75",
"t c #8E8B78",
"y c #918E79",
"u c #95927C",
"i c #98947F",
"p c #959280",
"a c #9A9681",
"s c #9E9A84",
"d c #A19E86",
"f c #A29F8A",
"g c #A3A087",
"h c #A5A28A",
"j c #AAA68D",
"k c #ACA88E",
"l c #B0AC8E",
"z c #AAA790",
"x c #ADAA91",
"c c #B1AD93",
"v c #B2AF98",
"b c #B6B296",
"n c #BAB597",
"m c #B7B399",
"M c #BAB69B",
"N c #BEB99D",
"B c #BFBBA1",
"V c #C1BD9E",
"C c #C2BEA2",
"Z c #C3BFA8",
"A c #C5C09F",
"S c #C6C1A4",
"D c #C9C5A6",
"F c #CDC8A7",
"G c #C7C3A8",
"H c #CAC6A9",
"J c #CEC9AC",
"K c #D1CDAE",
"L c #D5D0AF",
"P c #D8D3AE",
"I c #CFCBB0",
"U c #D2CEB1",
"Y c #D6D1B3",
"T c #D9D5B5",
"R c #DDD9B6",
"E c #D7D3B8",
"W c #DAD6B9",
"Q c #DED9BB",
"! c #E0DBB7",
"~ c #E1DDBD",
"^ c #E5E0BE",
"/ c #DFDBC0",
"( c #E2DEC1",
") c #E5E1C2",
"_ c #E9E4C4",
"` c #EDE9C7",
"' c #E7E3C8",
"] c #EAE6C9",
"[ c #EDE9CA",
"{ c #F4F0D1",
/* pixels */
"YWWWRR~TRKLDVCYLTRWFWRLJYFYWYJISDI/UHHSCDIJLLQQYTDISSJ_~Y((F)(YHDJQ(~Q)Q^R]!YQTU",
"YTWWLT^!!YJHSKKFTYFKTWJHSJIWYJJJHYUHSISSYYJYYWTLUSDJK/YHJQJT^TCSJWY~)RR!Q(QLUYKI",
"KJJUWYRYJKJGSSDYQEKKSSYJTTKTYIDIIHUYEYHYLFDJTTEKNVSYIJJUW/TLUCVJ(Q~^~WYTYUEKT(HY",
"UJFKPTTKKTYFUW))(KQLJLQQ/WYJLTRYYETWTJTQPLTUYTTIHK(YIUYYQQ(LSYRTRLER~('ETTKUQKTT",
"KHUTR_WYWQUHR))~EYYY!T((W~TYTQYDTRYTULPRJFTTRRUHU)TI//Q!RWLJ~/TULTTYTRUH(WKTKKUU",
"SHQQ(QKJUJJWTWQDGUJYTT(TPJYTUKJDLJJDSFSISD((/JSSUIUYULTHHIHTUHYJFJFHJJJJYUJNCJSJ",
"KTYYYYJGURQJUTWUHUEW(Q!TTTKKYLQLLTFULFFUQEYUYSNDQQRJYTTJSSURTEUIYFDSKEYFKTJJJDJK",
"YQFUKJSKT~HMJFHZBYKT'QLLQTSJDKJULJLFCJFL(THHDCCWLQIIQLJNmHR('TJKEDGHSUYKULUSSYHJ",
"UFCDGKU!TYJGUCYRIIJT)TDJKKKKJJJJTUYELTY^!JVDSNIQJHVFTFSDHYT__HCJJJJUKUKDFKJJUTKY",
"~KYKIYUUSGFKUK~YNSJR(YLJJFHKFIIIQ/TYIYT^'TYUHKYUSCHJTLSCNW^_(DSDJJZILUJURTJHSDJT",
"TJIZUKKUDSUGKUUJSDKTEYQUJSCHSSSSLJHSJWTKYIIDUKKKJUTUYHSST)`^QKJFYJGJYKURRKHSHUYY",
"SZNCJFKYTJKGJSCGSJUULKKTJJSDVVHHJSMCILUJDCMCSDJT!QQWJHJQ_^_!TYJTUSDTQYRTTJCGJYYF",
"SGSFRWT!UFKSNGGCBCBGJKHSFDKJBMCNSNSFJFVVSNSKYT^_TTRLJLLJQTKHKSSFKK_]WQTJYHUWUKJD",
"!!~^!!~KP!YSFJJCBNDUTUHYJCCcMNSSHTYJJKSSJIYRRLQ/))(KJTTSTUKIKCJYWYTJJQYWQ(_EUQUJ",
"PKTRYPUYPKKDDKJHSSIHTYJYGSmvBSYKJYYUYUSGJSJYDSSLQEJKKJYFTKJHJUTRUHVJYK~~QQTTWYDH",
"KFKDDCK!KFVGGGUUJY/QTQYHSSSIEYUDCSYUKIZGIVNVHCJQYKDIIIUKTQRTRTLYISHTYWJWUUUVCSFY",
"SSJJKTRQYDSCCDKUUK~!((~KVDUWUKFCAKQYDSHIQ(PKKFRRTUGCSHKYLYETRPYYJUTKDJUKKQSSYYYY",
"VSLTYRUFKGVCnSUUFDKKRTGKKDKUIDSHK(~JBCJKTYHHLFVAJSCGSSYISCVIJSJLTWUJHSSKTYJW/(JG",
"L!RTQUHJGnFGnNFJJKURRUFGSSIWJCBSQYDVDJQPKHCSSCVACVUINCHHSSHKHJTYIJJKIGJHDUDSGHHH",
"_QRKFSDHCZINCKTRT~~RWUGNNSDHCCJLQKFKJQ)EDDJDSDFKDSYCSJLYJYJFSIUIHJHISCJJJGCUDTWQ",
"KKDDKGKFJUGNU~`RR~TUJJZNVSFVFFPPJK~KKQYVHUYJPPPPTJDCYW_QWTTSIYHSSHJHJJYJIJTUJWYT",
"UKSGSSDJHGZKT'(KFTFCJHGCAFLTPP!PDDBMCSbcNCBNAAALWJDLW(QKITKSY!UYUYTQ(KUJJYHDJKSS",
"DnVSSVVVNVHTUWQKTUCCCbNZPP!PViiu84<,,>--*;;><<5qtugNJLTTLTHIYJUU~!!YJGKJJJAYQJSK",
"ZCVSCVMVUURKE!!PRGGJCVCGAiq<,;*#####&##&#&###%###&*;<0hMIETTJHYUWQYHHUQJJT!RYJTY",
"USVSJUGL!TYK)RQYZVCNnir5,####&#&&&&&&&#&%%%%&%%%&&&##&&;5tlHFHJTTRFDTYUSY)_~JYUH",
"DSTPTUKKKKFTYKUCVbd04;#######**#&##&#&&&%%%%%%%%#&#&&#&###*5tlJJIHJTYVSJT~QSDKCS",
"EURUREYTTWREYKFDh5-&#####;;#*##*&&&&&&#&%%%%%%%%&&&&&&&&##&##>qzJKYJDHKHQ~YHJDGJ",
"~~TTR!UTKTUUDJne*&####;#######*#&##&##&&%%&%%%%&#&#&&#&#&&#*&##;rCHSCHJKIUJNSDJY",
"(RKRUTT!UKSSVa<#&&##*####;#*##*#%%%&&#&&%%%%&%%%&&&%&&#&*##*&#*#%<sVJFKDSHCSJYKT",
"~YYUKTKUGCVcq*#*#&#**#-###*##*#*%%%%&&%%%%%%%%%%&#%%&#&&#*###&*#%%*eJJKSILIUSKYQ",
"PTRUTJNVNvc4&&##&&###*######**##%%&%%%&#&%%%%%%%%&%%&&*##*#**###%%%&8SKJQ~THKTQ~",
"FLUIHMccNM7&&#*##&*####*#;#*##*#%%#&%%&&%%%%%%%%%%%%#&##*##*##*#%%%%%qIWYTKTYUKY",
"HBMMMmVDSe&%%%%%%%%%%%%%%%%%%%&&%%#####&%%%%%%%%%%%%%%%%%%%%%%%%%%%%%*uDFKKJDGVC",
"HNnVNCLJl;%%%%%%%%%%%%%%%%%%%%%$##@@#++@+++@@+@@@%%%%%%%%%%%%%%%%&%%&#;jRRYJCVSV",
"VCDJVIAV8#%%%&%&%%%%%%%%%$@@O+OOooOOOOOOOOOOOOOOOOO++@%%%%%%%%%%%%%%%%#0KYJJSSKC",
"JHSFYJJN>#%%%%%%%%%%%%#@++OOOOOO++OOOOOOOOOOOOOOOOOOOOO+@%%%%%%%%%%%%%%>CJDJTRRF",
"JIJFUUYs*&&#&%%%%%%#@+OOOOOOO+OOOOOOOOOOOOOOOOOOOOOOOOOOOOO@#%%%%%%%%%%*dE^^YPUD",
"JSHJYLJe###&%%%%%@+OOOOOOOOOOOOOOOOOOOOOOOOOOOOOOOOOOOOOOOOOO+@%%%%%%%%%uQ^YHGCN",
"GSHKJSSu##*#%%&$+OOOOOOOOOOOOOOOOOOOOOOOOOOOOO+OOOOOOOOOOOOOOOO+#%%%%%%%yKHZGIHG",
"HDUJSDFg*#*#%%+OOOOOOOOOOOOOOOOOOOOOOOOOOOOOOOOOOOOOOOOOOOOOOOOOO+%%%%%&iHSDSYUU",
"JKYKEQ!M;%%%@+OOOOOOOOOOOOOOOOOOOOOOOOOOOOOOOOOOOOOOOOOOOOOOOOOOOO$$%%%-zKQKSFDJ",
"HYYRL!QT6%%++OOOOOOOOOOOOOOOOOOOOOOOOOOOOOOOOOOOOOOOOOOOOOOOOOOOOOOO@%%4SYUGCFSV",
"JFKUR(TFp*@OOOOOOOOOOOOOOOOOOOOOOOOOOOOOOOOOOOOOOOOOOOOOOOOOOOOOOOOOO@*gHHFSKFVS",
"JLELRQYSC0OOOOOOOOOOOOOOOOOOOOOOOO+OO+O+OOOOOOO+OOOOOOOOOOOOOOOOOOOOOO0GHUJSKJKE",
"TTT(!TJIES:OOOOOOOOOOOOOOOOOOOOOooooXXXX.oXXooooOOOOOOOOOOOOOOOOOOOOO:mSYKJKHDJK",
"KY(QQJVSKKc;oOOOOOOOOOOOOOOX.o...................XXXooOOOOOOOOOOOOOo=jHDJJHVSZSY",
"_(RKYCnHQ/(v,OOOOOOOOOOoX......................... ...XXoOOO+OOOOOO>xYJSYLJHJE!T",
"_(USHMCT//UHm9@OOOOooo....................................XXOOOOO$9CTKHJJJYJU_QT",
"TJNBNSW(YHSNSJs,Oo..........................................XXo+,fE~JJJJJYUKTRUR",
"QISCSLELSNCSJ)RC0%X ......................................   .%eH)_WIYTJ!(YFJKKT",
"HSBNYKHSCBHSITYKWJt,o.  ................................   o:pZE(YFJJLUHJKKMHKKH",
"BmcSHYHJUSHIUWTQ^~QHv9*O  ..... ......................  +*8zH~EWUGVCSSDHDZbnZJJZ",
"mBSYTETTHDUJDYQ(!TIIUJCsw<+o.   .... ....... ..    .o+,9iMBSJSHJHGDVbNHHDCSHHJZm",
"E(!^)~EJTQYKLRWRUFJHISSIIHNf03<:$oX.       . Xo@><38hNCNCNCSUZVHDCCxNIFHUTTDGUHH",
"~TQTYISDQJUYQQRQTIJSISFJCHHIYKWHzgiurusuiuafaiugHEIHHIHSSBNCJZJJBMcMLUYJHUJIUYHU",
"/YKJSCHTUTYYQ!)^!QWUJHCSSBHYJUUKUFMMVHELTISNSNHFDGBCHGSJSJJFJJHSMkZQYYJSGGIIYTIR",
"]]QTIKW((QWUW!)!TYKHCnBHHITUSFJAJFCFT~!TSVCFUIYUJZNNCSIEYYHHTQWISI(YIHGGSJEQKKL)",
"~EIUYJFRRYUREERYHCNCBVKIYWYHHSSUPUYTKUHHSJKLKSbDSCBBMAPUCNmSUIHJT)~UUSSCDTRJSDIW",
"JSSDSVLQYYTTIDHJVCCHSU(YWTIUFSIHIIBnnVIHFIHNblbSSBJHMJJSMMCJTIJFUQYYJBBZYTJGHKYT",
"IHJDDT!QYE!UJFJISJIDJILWYYYJSSYHJASSVKEFNBNNMSJFAHYZHJUJNHTTTLSHAKGSNMJQ~EUWY^)E",
"JTJT(/RTQTUUGJQUJDJDDJSSIKIHHHIJSF!IIRJBCJJHIKTIIDASHHQLYPTFTUSVDJSnZY_~T~_ET^TD",
"TESDKYYQYDSDCFYFDLHDJTFSHTTTTTUTIPHCUJACJYHFJELULDVDZJQTJTJSYJSHHJUY~)(RT)UHYEJI",
"AZJSKHFIVMBSMVJFJRSJHSHJWQPHSSHSHJGYTFSJJNAJEYUIHSSCCL(W~QCSHSCSUQ__YWWJKKDUTDSJ",
"SHDGHSDVCADCVHQYLJTPSFUUKYTHHKUHHU!TKSTJVSHJISJEYYIDE``^!UIIHIJUQ))W/!(JYYTYYDJK",
"ISDUKYJDHDSnHEW~WJPUFFYYWWDSFKHSU!~YDKHGJJFHYYPYUTJJ_`_]TIDHGGIL^_QY^UHGJW/WJUHS",
"MV/YJKHKFGGZJKYIUUSSSSEKFSNGDCZGJYUZCFVBCFUIYUJUJFI^^^!JSCMBBHE!~~ERIVBVHUJNBSBC",
"SLTYYYJFY!)W(RUQRUFCDDUJFDFDZGJDKTHGHHJEYELJUEUYYY]))^RIVNMCJE~~()RJSASCJWHCHSVH",
"!^TQTYKLEWWRUYQYJYSFLPUU~EUGVGDFUKFVHYIR^^TPQRRTY!Q)~UJCCSMS~)^Q`~HCMNNSSJGMZJSY",
"^TJLTQT~RREUSHIYYYSHRJGIKHGVSUYYIUFILUJT!ESURQ(Q~~QICCMNCGVJ[)~RRUGBCCSVCSCJTKJ(",
"`LKJJWYYUJSGGPKPHHCUYSIHCGVUKUYUUWREDKERRJJLL!RQ~WUCMNbMCJI!^TYJDGVSZCFCFTYQUYE!",
"QTLILIHHJCCAUQPHKHIUIHSGUUTRKTTYTWTJKLTWWYQY^UFIKGBVVBCGUTQQTIGAUIIJSGUKR)!T~~R~",
"LJVFHNMJZCFUYUFFUUYJDJHWYYYYRWWTUKHKKIKTYWUUIVMCZBBBCVGRQW~YIFDKUJCUQQ!^RRTQQTTQ",
"DSNCCDJIVCFDCVYTKJJSUYITRU)'WLUFKKKDUIJJKGCCCCFGMBBNCH~_(WUJJDCGHGT^TQ~YKURJSSZS",
"YBCUIUJSJFHSGR)UFSDP!KUEEL^YIIGJ!)!YHSHDUSVSSCCbHJCSK_{(TUYEUSVHDIQUIKIFR(EHBMNS",
"USJQTYJSDCDU^QLFFCDUHJYEFLJBCVSUTTYUJLYDGVHDSVcnCCIQ_])EHCSDGZSCVHGCGVGIWUCNNCGH",
"TEYWYYULFUYR/YCCFJKISGHKREHHGJKREJIJQ)!TKADSCNCKJT^_)WHHGHJSVBVDRUIUUKK/UVMCUYUU",
"RQLYKTREERQKJETTYJFCJTEUHGIKUPYYPY^!TWUJULFSHUQ!Q^^TFFEEHHJZSJYQEIJKTL~WJGJKYQQW",
"WKSY(LFIIIJDY^(FCDCJJDBSDACIKSHRULLFVVCGSSCDW^WTWYDDJT/GmVNHJJIUEHSUDSIHVJTUJYDJ",
"JSFYJIHIIFUUPFSVCYTTHSSUUYU^UFUYDGVCMCSSCVCJUYE~YUYJJHmMVJHWLYTYUIFQLJUYCEEKJYEK",
"JFJLDJJUUURJISNUE!TPULQEJYUYFKYUHHCGVDDFSCHUJUYPFYTHHNMUSKQ~TR!RJUFRYW(WY~RTK)RK"
};
