/* XPM */
static char *dummy[]={
"25 25 13 1",
". c None",
"b c None",
"k c #000000",
"j c #001236",
"i c #1b4baa",
"d c #304dbc",
"f c #550013",
"# c #5b442b",
"h c #793025",
"c c #aa7550",
"g c #b03320",
"a c #cf8e5f",
"e c #ffffff",
".........................",
"..........#####..........",
".........#######.........",
".........######a.........",
".........#####aa.........",
"........baaaaaac.........",
"........baaaaadc.........",
"........baaaaacc.........",
"........beaaaffc.........",
"........b..aacc..........",
"...........ghh...........",
"...........ghh...........",
"...........ghg...........",
"...........gcg...........",
"...........gcg...........",
"...........ccc...........",
"...........ccc...........",
"...........ici...........",
"...........iii...........",
"...........iii...........",
"...........iii...........",
"...........iii...........",
"...........jjj...........",
"...........kkk...........",
"...........kkk..........."};
