/* XPM */
static char *player[] = {
/* columns rows colors chars-per-pixel */
"40 40 167 2 ",
"   c #101A07",
".  c #141B0A",
"X  c #181D0F",
"o  c #1B1E13",
"O  c #1E1D19",
"+  c #211F1B",
"@  c #162008",
"#  c #1B250B",
"$  c #1E2A0B",
"%  c #1E2312",
"&  c #202D0C",
"*  c #23320D",
"=  c #273D0F",
"-  c #293C0F",
";  c #212713",
":  c #212913",
">  c #24221D",
",  c #292A1E",
"<  c #253013",
"1  c #273C10",
"2  c #2B3D10",
"3  c #2D341C",
"4  c #2B3818",
"5  c #363F1F",
"6  c #272321",
"7  c #2A2523",
"8  c #2D2A26",
"9  c #2F2A28",
"0  c #332D2B",
"q  c #2E3122",
"w  c #313125",
"e  c #363E21",
"r  c #36312D",
"t  c #38302F",
"y  c #373828",
"u  c #3C3433",
"i  c #3F3836",
"p  c #3C3A39",
"a  c #403735",
"s  c #413A36",
"d  c #433C3A",
"f  c #483F3E",
"g  c #27400F",
"h  c #28400F",
"j  c #2B4311",
"k  c #2E4A12",
"l  c #314611",
"z  c #324C13",
"x  c #36411E",
"c  c #3B4A1D",
"v  c #355314",
"b  c #395515",
"n  c #375815",
"m  c #3C5B16",
"M  c #3E531B",
"N  c #3A4421",
"B  c #3F5020",
"V  c #405D17",
"C  c #40521E",
"Z  c #425E18",
"A  c #406017",
"S  c #456319",
"D  c #49661A",
"F  c #4C6C1B",
"G  c #506E1C",
"H  c #4F701C",
"J  c #54741D",
"K  c #57781E",
"L  c #5A7C1E",
"P  c #445721",
"I  c #45403D",
"U  c #49433E",
"Y  c #484437",
"T  c #51433C",
"R  c #644E3D",
"E  c #4B6323",
"W  c #506923",
"Q  c #557321",
"!  c #587720",
"~  c #577921",
"^  c #5B7E20",
"/  c #607F2D",
"(  c #474746",
")  c #4D4343",
"_  c #4D4844",
"`  c #4F4A48",
"'  c #514646",
"]  c #524845",
"[  c #5E4C40",
"{  c #544B49",
"}  c #5B4E4C",
"|  c #5B504E",
" . c #5D5553",
".. c #5F5957",
"X. c #614E41",
"o. c #625043",
"O. c #6F5847",
"+. c #695649",
"@. c #6F594B",
"#. c #605453",
"$. c #615852",
"%. c #655A58",
"&. c #6B5D5B",
"*. c #626E44",
"=. c #79604C",
"-. c #6B615D",
";. c #5E6367",
":. c #6D6563",
">. c #6A6866",
",. c #6C6C6C",
"<. c #716663",
"1. c #786B66",
"2. c #7B6F6A",
"3. c #726D6A",
"4. c #7B786E",
"5. c #7D7471",
"6. c #7E7877",
"7. c #79797A",
"8. c #917154",
"9. c #81726D",
"0. c #857772",
"q. c #897B76",
"w. c #8C7D78",
"e. c #837D7B",
"r. c #5F801F",
"t. c #60811E",
"y. c #5D8222",
"u. c #618522",
"i. c #658B24",
"p. c #688F26",
"a. c #699227",
"s. c #6B9528",
"d. c #6E992A",
"f. c #719C2B",
"g. c #6F8144",
"h. c #778253",
"j. c #87817F",
"k. c #92827D",
"l. c #8B8482",
"z. c #8A8888",
"x. c #948681",
"c. c #9B8B85",
"v. c #9F8E88",
"b. c #948A89",
"n. c #959087",
"m. c #98908E",
"M. c #9C9593",
"N. c #A5938D",
"B. c #A09794",
"V. c #A89790",
"C. c #AD9B94",
"Z. c #A39A97",
"A. c #B09D97",
"S. c #B5A29C",
"D. c #B8A49E",
"F. c #ADA5A2",
"G. c #A4A6A8",
"H. c #BCA9A2",
"J. c #ABB5BB",
"K. c #C1ACA5",
"L. c #C4AFA9",
"P. c #C6B1AA",
"I. c #CFBAB3",
"U. c #D3BDB6",
"Y. c #D4BFB8",
"T. c #CBC1BD",
"R. c #E7DDDA",
/* pixels */
"y.y.y.y.y.^ L ^ L L t.L L K G F D D G K L ^ ^ L ^ y.y.y.y.y.L ^ r.L y.y.L y.y.^ ",
"y.y.y.y.y.^ y.L L J G D v h * & & # & l b S F S F F ~ Q H J J J L L L L L L L ^ ",
"y.y.^ ^ r.L H F S b & #           .   . X : j l z v n n v A m n A H L L y.y.L L ",
"L ^ ^ ^ ^ D n k * .       . . X o + 8 r u u u w 4 z m m k n m v k v S K L L y.L ",
"r.K r.H A n k & . # . # # + + 8 a f ' ' ] ] } | U w c D D J r.H n k z F L ^ ^ L ",
"r.r.r.F v k * # # # & @ o 7 t d ' ] ' ' ' ' ' #.&.#.s x H L L r.J n h v F L ^ ^ ",
"y.K H n v g # # # # @ + 8 a a a ' ' ' ' ] ' ) { &.&.&.U x J L L r.F k j n J y.^ ",
"y.y.J v k * $ # # @ + 8 t t a f ' ' ' ' ' ' ) ' &.&.-.%.s c K L L K A k j F y.y.",
"K y.H n h $ # # # X 8 0 8 a a f ' ' ' ' ' ' ' I { #.#.} } r D ! K L J z h D ^ ^ ",
"r.J m k v - # # # > 0 7 0 a t a ' ' ' ' ' ' ' ) ' ] ' ' } ) e G L r.J h h D L r.",
"y.y.A n F V $ # # > 7 8 a a a a s ) ) ) ' ' ' ' ' ' ' ' { } r G t.t.J z h S L L ",
"K y.H n S v $ # & + + t t a t a u u i f ) ' ' ' ' ' ' ' ' | s D t.t.^ v h S K L ",
"y.K S n m h $ $ & X > a t a a t u u a u t t t 9 0 s ) ' ' { f C y.u.L n 2 b K L ",
"r.H m v S = @ $ & ; 8 a a a a t a u 0 9 s ' } { i t d ' ' { ) N y.i.L V j b J ^ ",
"r.A v F D * # $ & + t a t t a a t 9 d <.w.c.c.c.w.<.s u ) { ) e ^ u.K b 2 v G L ",
"y.F n S F $ $ $ ; + t t t t a t 7 u -.x.N.V.C.A.C.V.q.s t ' ' e ^ i.L F v k S K ",
"r.F n D F & $ $ % 7 u u u u 0 7 f M.j.:.q.F.K.P.K.C.1...9 p f N y.i.i.H k z D L ",
"r.J n V J - $ $ # 7 u u i u 0 {  .z.l.z.5.3.&.2.-.<.7.z.p 8 u P i.i.t.K V z S J ",
"L J m V K V & $ # 6 t u u 0 { l. . .v.e.,.>.%.1. .>.,.( 9 6 7 Q s.a.i.y.S h n G ",
"L L F v b J b & # + 0 t u 9 &.v.w.:.T.R.J.;.0.H.&.M.G.p 7 7 3 y.a.i.i.K z h V J ",
"r.y.H v V y.u.Z - ; 7 t u 8 u 0.N.b.9.l.7.5.K.L.x.5.:.I 7 6 M ^ i.p.i.J j l S ^ ",
"r.J S A J t.i.i.G 4 ; 7 t u 9 s 0.K.V.0.x.L.U.H.C.H.x.i > P ^ y.y.i.y.m j z D ~ ",
"y.J n n L u.i.a.i.2 & # > 9 0 9 u 2.C.L.U.U.I.A.V.k.' q W s.s.i.y.y.~ n 2 v F ^ ",
"r.L A v K u.u.p.Q * & & $ d ` 9 + 6 u  .2.0.9.-.{ i C u.f.f.d.s.a.i.F j 2 b Q ^ ",
"r.y.D m r.y.L y.S & & & < n.F.p 9 6 6 7 8 7 7 t ` 5.u.d.f.f.d.a.i.u.K z 2 Z ~ ^ ",
"y.J A A r.J J y.M - & # y F.l.i d 9 0 d ) t 0 ) { Z.g.d.f.f.s.y.! K F k j S ^ y.",
"K K m m L L Q ^ F Z * $ Y M._ s f 0 0 f ' u 7 U ( b.h.s.f.d.s.y.K L J h j D y.y.",
"y.J m m L L ^ y.i.L - # Y _ w i i 0 T o.} U Y +.o.] *.s.s.s.a.p.t.L L n z F ^ y.",
"r.K n v D K L r.i.i.Z - : ; $.q.<.a [ @.@.=.8.O.] 0 E d.s.s.a.i.t.r.L z j Z ^ ^ ",
"r.K A k m J L r.y.i.y.K l & U x.w.s u ) ) T R X.I r ~ d.p.y.y.y.L L L n j Z K L ",
"r.r.F k A K L L L y.i.i.C * : w 0 6 0 ) I 9 8 6 q e y.s.i.^ Q Q L L L v 2 V K ^ ",
"y.r.F v v H L J J L r.t.J Z b M , O 6 0 8 O > 6 N Q y.y.i.y.Q Q L J m j 2 V K ^ ",
"K y.H v k m r.J J L L r.r.y.L K c , 7 , x 3 3 q M ~ Q ^ y.r.L K F n g = k S L ^ ",
"K r.y.A k n H L r.L L r.r.r.y.y.^ K G Q / ~ Q L ^ ! ! ^ L L H A k h - z A H ^ ^ ",
"K r.r.J n k n D H L r.r.K J L K t.t.u.u.t.t.i.r.t.^ ~ G J S v k - - z S H L ^ ^ ",
"r.y.K y.F v h k k n A S v n V v J b D L D K D S Z m Z z z z 1 2 - z D K ^ ^ ^ ^ ",
"y.K y.y.~ F n k j h h h h h h - k 1 z b - b z j h - - - h z j z V F K L ^ ^ ^ ^ ",
"y.r.y.K y.~ J D D b v z v v b b v v v j l z h l z z b b Z D Z F L L L y.^ ^ y.^ ",
"K K r.y.y.y.K J K J G G J G G J W Q J Z S D V Z S D J J K L L L L L y.y.y.y.y.y.",
"y.y.K y.y.K r.y.^ L ^ ^ L L L L ^ ^ ^ K K L J K L K L L L L ^ ^ L ^ L ^ y.y.y.y."
};
