/* XPM */
static char *player2[] = {
/* columns rows colors chars-per-pixel */
"80 80 168 2 ",
"   c #000001",
".  c #01060A",
"X  c #01080F",
"o  c #010810",
"O  c #020E19",
"+  c #02101C",
"@  c #041A2E",
"#  c #031322",
"$  c #051D33",
"%  c #05233D",
"&  c #2B2B2B",
"*  c #21262C",
"=  c #313131",
"-  c #072B4B",
";  c #083155",
":  c #093963",
">  c #0A3D6B",
",  c #233D71",
"<  c #38444E",
"1  c #0A4274",
"2  c #0B467A",
"3  c #234279",
"4  c #414141",
"5  c #4C4C4C",
"6  c #565656",
"7  c #626262",
"8  c #7A7A7A",
"9  c #0C4D87",
"0  c #144589",
"q  c #1A498A",
"w  c #0B528F",
"e  c #174E95",
"r  c #0D5595",
"t  c #0E5B9E",
"y  c #14539E",
"u  c #1F5397",
"i  c #0C5CA2",
"p  c #0D5FA8",
"a  c #1557A3",
"s  c #155CAC",
"d  c #1C5DA9",
"f  c #155FB0",
"g  c #0F60A7",
"h  c #0E60A8",
"j  c #1061A8",
"k  c #0E66B4",
"l  c #0E6CBD",
"z  c #1264B4",
"x  c #1069B7",
"c  c #126BBA",
"v  c #3B67A2",
"b  c #446FA6",
"n  c #0F6EC1",
"m  c #156CC3",
"M  c #186FC7",
"N  c #0F70C5",
"B  c #1170C3",
"V  c #1375CC",
"C  c #1D7BCD",
"Z  c #1778CE",
"A  c #1476D1",
"S  c #1479D3",
"D  c #157CDB",
"F  c #257FCE",
"G  c #6889B5",
"H  c #7C92B4",
"J  c #1580DF",
"K  c #2780CD",
"L  c #2B82CD",
"P  c #3486CD",
"I  c #3C89CD",
"U  c #2380D2",
"Y  c #388DD9",
"T  c #1582E3",
"R  c #1786EA",
"E  c #1689ED",
"W  c #1A89EA",
"Q  c #178DF5",
"!  c #178FF9",
"~  c #188FF9",
"^  c #1792FE",
"/  c #1893FF",
"(  c #3B96E5",
")  c #2195FC",
"_  c #2298FF",
"`  c #3A9EF7",
"'  c #3AA3FF",
"]  c #468FCF",
"[  c #4A90CE",
"{  c #5997CD",
"}  c #6699CA",
"|  c #7EA8CD",
" . c #70A1CD",
".. c #78A9D3",
"X. c #479EEE",
"o. c #4CACFF",
"O. c #50ADFF",
"+. c #55B0FF",
"@. c #74AFE2",
"#. c #64B3F9",
"$. c #7FC3FF",
"%. c #888888",
"&. c #9D9D9D",
"*. c #878CA3",
"=. c #8B90A7",
"-. c #8D93AA",
";. c #9296AB",
":. c #9A9EB1",
">. c #9EA6BB",
",. c #A3A4A4",
"<. c #ACACAC",
"1. c #A6A9BA",
"2. c #B0B0B0",
"3. c #BBBBBB",
"4. c #88ADCD",
"5. c #8EB0CE",
"6. c #91B0CC",
"7. c #96B8D6",
"8. c #A5AEC3",
"9. c #A5BACD",
"0. c #ACB7C7",
"q. c #B1B4C3",
"w. c #BBBECB",
"e. c #8ABEEC",
"r. c #B6C2CD",
"t. c #BAC5CE",
"y. c #ACC3D6",
"u. c #B4C6DA",
"i. c #84C6FF",
"p. c #95CAF9",
"a. c #9ED2FF",
"s. c #BBCDE4",
"d. c #BBD5EC",
"f. c #A4D3FD",
"g. c #ABD7FD",
"h. c #ACD9FF",
"j. c #BBD9F6",
"k. c #C3C3C3",
"l. c #C4C9CD",
"z. c #CCCDCD",
"x. c #D0CFCE",
"c. c #CECED7",
"v. c #C5C9D1",
"b. c #CED1D3",
"n. c #C5D0DA",
"m. c #D3D3D3",
"M. c #D3D6DB",
"N. c #DDDCDB",
"B. c #C3D5E6",
"V. c #D7D8E0",
"C. c #CAE3F9",
"Z. c #D8EBFD",
"A. c #E3E3E3",
"S. c #E9E7E6",
"D. c #E4E5EA",
"F. c #ECECEC",
"G. c #E7E8ED",
"H. c #ECEDF1",
"J. c #E4ECF3",
"K. c #E4F2FF",
"L. c #EAF5FF",
"P. c #F4F4F4",
"I. c #F8F8F7",
"U. c #F7F7F9",
"Y. c #F8F7F8",
"T. c #F6FBFF",
"R. c #FFFFFF",
"E. c None",
/* pixels */
"E.E.E.E.E.E.E.E.E.E.E.E.E.E.E.E.E.E.E.E.E.E.E.E.E.E.E.E.E.E.E.E.E.E.E.E.E.E.E.E.E.E.E.E.E.E.E.E.E.E.E.E.E.E.E.E.E.E.E.E.E.E.E.E.E.E.E.E.E.E.E.E.E.E.E.E.E.E.E.E.",
"E.E.E.E.E.E.E.E.E.E.E.E.E.E.E.E.E.E.E.E.E.E.E.E.E.E.E.E.E.E.E.E.E.E.E.E.E.E.E.E.E.E.E.E.E.E.E.E.E.E.E.E.E.E.E.E.E.E.E.E.E.E.E.E.E.E.E.E.E.E.E.E.E.E.E.E.E.E.E.E.",
"E.E.E.E.E.E.E.E.E.E.E.E.E.E.E.E.E.E.E.E.E.E.E.E.E.E.E.E.E.E.E.E.E.E.E.E.E.E.E.E.E.E.E.E.E.E.E.E.E.E.E.E.E.E.E.E.E.E.E.E.E.E.E.E.E.E.E.E.E.E.E.E.E.E.E.E.E.E.E.E.",
"E.E.E.E.E.E.E.E.E.E.E.E.E.E.E.E.E.E.E.E.E.E.E.E.E.E.E.E.E.E.E.E.E.E.E.E.E.E.E.E.E.E.E.E.E.E.E.E.E.E.E.E.E.E.E.E.E.E.E.E.E.E.E.E.E.E.E.E.E.E.E.E.E.E.E.E.E.E.E.E.",
"E.E.E.E.E.E.E.E.E.E.E.E.E.E.E.E.E.E.E.E.E.E.E.E.E.E.E.E.E.E.E.E.E.E.E.E.E.E.E.E.E.E.E.E.E.E.E.E.E.E.E.E.E.E.E.E.E.E.E.E.E.E.E.E.E.E.E.E.E.E.E.E.E.E.E.E.E.E.E.E.",
"E.E.E.E.E.E.E.E.E.E.E.E.E.E.E.E.E.E.E.E.E.E.E.E.E.E.E.E.E.E.E.E.E.E.E.E.E.E.E.E.E.E.E.E.E.E.E.E.E.E.E.E.E.E.E.E.E.E.E.E.E.E.E.E.E.E.E.E.E.E.E.E.E.E.E.E.E.E.E.E.",
"E.E.E.E.E.E.E.E.E.E.E.E.E.E.E.E.E.E.E.E.E.E.E.E.E.E.E.E.E.E.E.E.E.E.E.E.E.E.E.E.E.E.E.E.E.E.E.E.E.E.E.E.E.E.E.E.E.E.E.E.E.E.E.E.E.E.E.E.E.E.E.E.E.E.E.E.E.E.E.E.",
"E.E.E.E.E.E.E.E.E.E.E.E.E.E.E.E.E.E.E.E.E.E.E.E.E.E.E.E.E.E.E.E.E.E.E.E.E.E.E.E.E.E.E.E.E.E.E.E.E.E.E.E.E.E.E.E.E.E.E.E.E.E.E.E.E.E.E.E.E.E.E.E.E.E.E.E.E.E.E.E.",
"E.E.E.E.E.E.E.E.E.E.E.E.E.E.E.E.E.E.E.E.E.E.E.E.E.E.E.E.E.E.E.E.E.E.E.E.E.E.E.E.E.E.E.E.E.E.E.E.E.E.E.E.E.E.E.E.E.E.E.E.E.E.E.E.E.E.E.E.E.E.E.E.E.E.E.E.E.E.E.E.",
"E.E.E.E.E.E.E.E.E.E.E.E.E.E.E.E.E.E.E.E.E.E.E.E.E.E.E.E.E.E.E.E.E.E.E.E.E.E.E.E.E.E.E.E.E.E.E.E.E.E.E.E.E.E.E.E.E.E.E.E.E.E.E.E.E.E.E.E.E.E.E.E.E.E.E.E.E.E.E.E.",
"E.E.E.E.E.E.E.E.E.E.E.E.E.E.E.E.E.E.E.E.E.E.E.E.E.E.E.E.E.E.E.E.E.E.E.E.E.E.E.E.E.E.E.E.E.E.E.E.E.E.E.E.E.E.E.E.E.E.E.E.E.E.E.E.E.E.E.E.E.E.E.E.E.E.E.E.E.E.E.E.",
"E.E.E.E.E.E.E.E.E.E.E.E.E.E.E.E.E.E.E.E.E.E.E.E.E.E.E.E.E.E.E.E.E.E.E.E.E.E.E.E.E.E.E.E.E.E.E.E.E.E.E.E.E.E.E.E.E.E.E.E.E.E.E.E.E.E.E.E.E.E.E.E.E.E.E.E.E.E.E.E.",
"E.E.E.E.E.E.E.E.E.E.E.E.E.E.E.E.E.E.E.E.E.E.E.E.E.E.E.E.E.E.E.E.E.E.E.E.E.E.E.E.E.E.E.E.E.E.E.E.E.E.E.E.E.E.E.E.E.E.E.E.E.E.E.E.E.E.E.E.E.E.E.E.E.E.E.E.E.E.E.E.",
"E.E.E.E.E.E.E.E.E.E.E.E.E.E.E.E.E.E.E.E.E.E.E.E.E.E.E.E.E.E.E.E.E.E.E.E.E.E.E.E.E.E.E.E.E.E.E.E.E.E.E.E.E.E.E.E.E.E.E.E.E.E.E.E.E.E.E.E.E.E.E.E.E.E.E.E.E.E.E.E.",
"E.E.E.E.E.E.E.E.E.E.E.E.E.E.E.E.E.E.E.E.E.E.E.E.E.E.E.E.E.E.E.E.E.E.E.E.E.E.E.E.E.E.E.E.E.E.E.E.E.E.E.E.E.E.E.E.E.E.E.E.E.E.E.E.E.E.E.E.E.E.E.E.E.E.E.E.E.E.E.E.",
"E.E.E.E.E.E.E.E.E.E.E.E.E.E.E.E.E.E.E.E.E.E.E.E.E.E.E.E.E.E.E.E.E.E.E.E.E.E.E.E.E.E.E.E.E.E.E.E.E.E.E.E.E.E.E.E.E.E.E.E.E.E.E.E.E.E.E.E.E.E.E.E.E.E.E.E.E.E.E.E.",
"E.E.E.E.E.E.E.E.E.E.E.E.E.E.E.E.E.E.E.E.E.E.E.E.E.E.E.E.E.E.E.E.E.E.E.E.E.E.E.E.E.E.E.E.E.E.E.E.E.E.E.E.E.E.E.E.E.E.E.E.E.E.E.E.E.E.E.E.E.E.E.E.E.E.E.E.E.E.E.E.",
"E.E.E.E.E.E.E.E.E.E.E.E.E.E.E.E.E.E.E.E.E.E.E.E.E.E.E.E.E.E.E.E.E.E.E.E.E.E.E.E.E.E.E.E.E.E.E.E.E.E.E.E.E.E.E.E.E.E.E.E.E.E.E.E.E.E.E.E.E.E.E.E.E.E.E.E.E.E.E.E.",
"E.E.E.E.E.E.E.E.E.E.E.E.E.E.E.E.E.E.E.E.E.E.E.E.E.E.E.E.E.E.E.E.E.E.E.E.E.E.E.E.E.E.E.E.E.E.E.E.E.E.E.E.E.E.E.E.E.E.E.E.E.E.E.E.E.E.E.E.E.E.E.E.E.E.E.E.E.E.E.E.",
"E.E.E.E.E.E.E.E.E.E.E.E.E.E.E.E.E.E.E.E.E.E.E.E.E.E.E.E.E.E.E.E.E.E.E.E.E.E.E.E.E.E.E.E.E.E.E.E.E.E.E.E.E.E.E.E.E.E.E.E.E.E.E.E.E.E.E.E.E.E.E.E.E.E.E.E.E.E.E.E.",
"E.E.E.E.E.E.E.E.E.E.E.E.E.E.E.E.E.E.E.E.E./ / / E.E.E.E.E.E.E.E.E.E.E.E.E.E.E.E.E.E.E.E.E.E.E.E.E.E.E.E.E.E.E.E.E./ / / E.E.E.E.E.E.E.E.E.E.E.E.E.E.E.E.E.E.E.E.",
"E.E.E.E.E.E.E.E.E.E.E.E.E.E.E.E.E.E.E.E.E./ / / / / E.E.E.E.E.E.E.E.E.E.E.E.E.E.E.E.E.E.E.E.E.E.E.E.E.E.E.E.E./ / / / / E.E.E.E.E.E.E.E.E.E.E.E.E.E.E.E.E.E.E.E.",
"E.E.E.E.E.E.E.E.E.E.E.E.E.E.E.E.E.E.E.E.E./ / / / / / / E.E.E.E.E.E.E.E.E.E.E.E.E.E.E.E.E.E.E.E.E.E.E.E.E.E./ / / / / / E.E.E.E.E.E.E.E.E.E.E.E.E.E.E.E.E.E.E.E.",
"E.E.E.E.E.E.E.E.E.E.E.E.E.E.E.E.E.E.E.E.E./ / / / / / / / E.E.E.E.E.E.E.E.E.E.E.E.E.E.E.E.E.E.E.E.E.E.E./ / / / / / / / E.E.E.E.E.E.E.E.E.E.E.E.E.E.E.E.E.E.E.E.",
"E.E.E.E.E.E.E.E.E.E.E.E.E.E.E.E.E.E.E.E.E./ / / / / / / / / / E.E.E.E./ / / / / / / / / / / E.E.E.E.E./ / / / / / / / / E.E.E.E.E.E.E.E.E.E.E.E.E.E.E.E.E.E.E.E.",
"E.E.E.E.E.E.E.E.E.E.E.E.E.E.E.E.E.E.E.E.E./ / / / / / / / / / ! / / / / / / / / / / / ! / / / / / / / / / / / / / / / / E.E.E.E.E.E.E.E.E.E.E.E.E.E.E.E.E.E.E.E.",
"E.E.E.E.E.E.E.E.E.E.E.E.E.E.E.E.E.E.E.E.E./ / / / / / / / / / / / / / / / / / / / / / / / / / / / / / / / / / / / / / / E.E.E.E.E.E.E.E.E.E.E.E.E.E.E.E.E.E.E.E.",
"E.E.E.E.E.E.E.E.E.E.E.E.E.E.E.E.E.E.E.E.E./ / / / / / / / / / / / / / / / / / / / / / / / / / / / / / / / / / / / / / / E.E.E.E.E.E.E.E.E.E.E.E.E.E.E.E.E.E.E.E.",
"E.E.E.E.E.E.E.E.E.E.E.E.E.E.E.E.E.E.E.E.E.E./ / / / / / / / / / / / / / / / / / / / / / / / / / / / / / / / / / / / / / E.E.E.E.E.E.E.E.E.E.E.E.E.E.E.E.E.E.E.E.",
"E.E.E.E.E.E.E.E.E.E.E.E.E.E.E.E.E.E.E.E.E.E./ / / / / / / / / / / / / / / / / / / / / / / / / / / / / / / / / / / / / E.E.E.E.E.E.E.E.E.E.E.E.E.E.E.E.E.E.E.E.E.",
"E.E.E.E.E.E.E.E.E.E.E.E.E.E.E.E.E.E.E.E.E.E./ / / / / / / / / / / / / / / / / / / / / / / / / / / / / / / / / / / / / E.E.E.E.E.E.E.E.E.E./ / / / E.E.E.E.E.E.E.",
"E.E.E.E.E.E.E.E.E.E.E.E.E.E.E.E.E.E.E.E.E.E./ / / / / / / / / / / / / / / / / / / / / / / / / / / / / / / / / / / / / E.E.E.E.E.E.E.E.E./ / / / / / E.E.E.E.E.E.",
"E.E.E.E.E.E.E.E.E.E.E.E.E.E.E.E.E.E.E.E.E.E.E./ / / / / / / / / / / / / / / / / / / / / / / / / / / / / / / / / / / ^ E.E.E.E.E.E.E.E./ / / / / / / E.E.E.E.E.E.",
"E.E.E.E.E.E.E.E.E.E.E.E.E.E.E.E.E.E.E.E.E.E./ / / / / / / / / / / ! V V ^ / / / / / / / ^ J B E / / / / / / / / / / T E.E.E.E.E.E.E.E./ / / / / / / / E.E.E.E.E.",
"E.E.E.E.E.E.E.E.E.E.E.E.E.E.E.E.E.E.E.E.E.E./ / / / / / / / / / / V O O V / / / / / / / W % . t / / / / / / / / / / J E.E.E.E.E.E.E.E./ / / / / / / / E.E.E.E.E.",
"E.E.E.E.E.E.E.E.E.E.E.E.E.E.E.E.E.E.E.E.E./ / / / / / / / / / / / 2     1 ^ / / / / / / g .   - E / / / / / / / / / R V E.E.E.E.E.E.E./ / / / / / / / E.E.E.E.E.",
"E.E.E.E.E.E.E.E.E.E.E.E.E.E.E.E.E.E.E.E.E./ / / / / / / / / / / ~ %     % ~ / / / / / / >     O J ^ / / / / / / / / ! S E.E.E.E.E.E.E./ / / / / / / / E.E.E.E.E.",
"E.E.E.E.E.E.E.E.E.E.E.E.E.E.E.E.E.E.E.E./ / / / / / / / / / / / Q @     @ ~ / / / / / / :     . Z / / / / / / / / / ^ J V E.E.E.E.E.E./ / / / / / / / E.E.E.E.E.",
"E.E.E.E.E.E.E.E.E.E.E.E.E.E.E.E.E.E.E.E./ / / / / / / / / / / / Q @     @ Q / / / / / / :     . Z / / / / / / / / / / T V E.E.E.E.E.E./ / / / / / / E.E.E.E.E.E.",
"E.E.E.E.E.E.E.E.E.E.E.E.E.E.E.E.E.E.E.E./ / / / / / / / / / / / ~ @     @ Q / / / / / / :     . S / / / / / / / / / / E S V E.E.E.E.E./ / / / / / / E.E.E.E.E.E.",
"E.E.E.E.E.E.E.E.E.E.E.E.E.E.E.E.E.E.E./ / / / / / / / / / / / / Q %     % E / / / / / / >     . S / / / / / / / / / / Q Z V E.E.E.E.E./ / / / / / / E.E.E.E.E.E.",
"E.E.E.E.E.E.E.E.E.E.E.E.E.E.E.E.E.E.E./ / / / / / ~ / / / / / / ~ ;     ; ^ / / / / / / 9     @ T / / / / / / / / / / Q V V E.E.E.E.E./ / / / / / / E.E.E.E.E.E.",
"E.E.E.E.E.E.E.E.E.E.E.E.E.E.E.E.E.E.E./ / / / / / R E ~ / / / / / i .   t / / / / / / / V +   > ~ / / / / / E D ! ^ / ~ S V E.E.E.E./ / / / / / / E.E.E.E.E.E.E.",
"E.E.E.E.E.E.E.E.E.E.E.E.E.E.E.E.E.E.E./ / / / / ~ D a f M D ^ / / T : : T J c c l x x U Q 9 - V / / ~ R Z z a M ^ ^ / ~ S S E.E.E.E./ / / / / / / E.E.E.E.E.E.E.",
"E.E.E.E.E.E.E.E.E.E.E.E.E.E.E.E.E.E.E./ / / / / / / ~ D m f s m T Q T T T -           # B Q J E R M s s m D Q / / / / Q S V E.E.E./ / / / / / / E.E.E.E.E.E.E.E.",
"E.E.E.E.E.E.E.E.E.E.E.E.E.E.E.E.E.E.E./ / / / ~ D D D D D A M a 0 e s D V               t T z y 0 y m A D D D D J Q / Q S V J / / / / / / / / E.E.E.E.E.E.E.E.E.",
"E.E.E.E.E.E.E.E.E.E.E.E.E.E.E.E.E.E.E./ / / / ` } H H -.H G b u q 3 , d V o             g M 3 3 q e v G H H H H G o./ E V V T / / / / / / / E.E.E.E.E.E.E.E.E.E.",
"E.E.E.E.E.E.E.E.E.E.E.E.E.E.E.E.E.E.E./ / / ' C.T.T.H.M.q.;.=.-.>.u.j.g.e.<           * | f.j.s.8.-.=.=.1.b.F.I.T.J.+.R V V W / / / / / / E.E.E.E.E.E.E.E.E.E.E.",
"E.E.E.E.E.E.E.E.E.E.E.E.E.E.E.E.E.E.E./ / / i.R.R.v.*.;.q.M.G.T.R.R.R.R.R.k.4 X     & ,.Y.R.R.R.R.R.F.V.w.:.*.q.P.R.g.D V V E / / / / / E.E.E.E.E.E.E.E.E.E.E.E.",
"E.E.E.E.E.E.E.E.E.E.E.E.E.E.E.E.E.E.E./ / / g.R.R.D.H.R.R.R.R.R.R.R.R.R.R.I.x.%.8 %.3.P.R.R.R.R.R.R.R.R.R.R.P.D.U.R.C.U V Z Q / / / E.E.E.E.E.E.E.E.E.E.E.E.E.E.",
"E.E.E.E.E.E.E.E.E.E.E.E.E.E.E.E.E.E.E./ / _ h.R.R.R.R.R.R.R.R.R.R.R.R.A.k.R.Y.F.A.G.P.R.m.z.R.R.R.R.R.R.R.R.R.R.R.R.B.F V D ^ / E.E.E.E.E.E.E.E.E.E.E.E.E.E.E.E.",
"E.E.E.E.E.E.E.E.E.E.E.E.E.E.E.E.E.E.E.E./ / f.R.R.R.R.R.R.R.R.R.R.R.R.2.= m.R.R.R.R.R.P.5 8 R.R.R.R.R.R.R.R.R.R.R.I.y.F V S E.E.E.E.E.E.E.E.E.E.E.E.E.E.E.E.E.E.",
"E.E.E.E.E.E.E.E.E.E.E.E.E.E.E.E.E.E.E.E./ ^ i.R.R.R.R.R.R.R.R.R.R.R.R.N.4 = <.N.P.A.3.6 & 3.R.R.R.R.R.R.R.R.R.R.R.F.5.V V E.E.E.E.E.E.E.E.E.E.E.E.E.E.E.E.E.E.E.",
"E.E.E.E.E.E.E.E.E.E.E.E.E.E.E.E.E.E.E.E./ / o.L.R.R.R.R.R.R.R.R.R.R.R.R.N.7 = = & = & 5 3.R.R.R.R.R.R.R.R.R.R.R.P.b.{ V V E.E.E.E.E.E.E.E.E.E.E.E.E.E.E.E.E.E.E.",
"E.E.E.E.E.E.E.E.E.E.E.E.E.E.E.E.E.E.E.E.E./ / h.R.R.R.R.R.R.R.R.R.R.R.R.R.Y.m.2.&.<.k.P.R.R.R.R.R.R.R.R.R.R.R.Y.N.9.K V E.E.E.E.E.E.E.E.E.E.E.E.E.E.E.E.E.E.E.E.",
"E.E.E.E.E.E.E.E.E.E.E.E.E.E.E.E.E.E.E.E.E./ / O.K.R.R.R.R.R.R.R.R.R.R.R.R.R.R.R.R.R.R.R.R.R.R.R.R.R.R.R.R.R.Y.N.l.{ V V E.E.E.E.E.E.E.E.E.E.E.E.E.E.E.E.E.E.E.E.",
"E.E.E.E.E.E.E.E.E.E.E.E.E.E.E.E.E.E.E.E.E.E.! / $.T.R.R.R.R.R.R.R.R.R.R.R.R.R.R.R.R.R.R.R.R.R.R.R.R.R.R.R.U.N.z.| Z V E.E.E.E.E.E.E.E.E.E.E.E.E.E.E.E.E.E.E.E.E.",
"E.E.E.E.E.E.E.E.E.E.E.E.E.E.E.E.E.E.E.E.E.E.E.T _ p.T.R.R.R.R.R.R.R.R.R.R.R.R.R.R.R.R.R.R.R.R.R.R.R.R.R.P.N.z.5.K N r E.E.E.E.E.E.E.E.E.E.E.E.E.E.E.E.E.E.E.E.E.",
"E.E.E.E.E.E.E.E.E.E.E.E.E.E.E.E.E.E.E.E.E.E.E.2 J ) i.L.R.R.R.R.R.R.R.R.R.R.R.R.R.R.R.R.R.R.R.R.R.R.R.G.m.l.| K V r E.E.E.E.E.E.E.E.E.E.E.E.E.E.E.E.E.E.E.E.E.E.",
"E.E.E.E.E.E.E.E.E.E.E.E.E.E.E.E.E.E.E.E.E.E.E.E.2 V W #.Z.R.R.R.R.R.R.R.R.R.R.R.R.R.R.R.R.R.R.R.R.F.N.b.r.} Z V r E.E.E.E.E.E.E.E.E.E.E.E.E.E.E.E.E.E.E.E.E.E.E.",
"E.E.E.E.E.E.E.E.E.E.E.E.E.E.E.E.E.E.E.E.E.E.E.E.E.E.x S ( p.Z.R.R.R.R.R.R.R.R.R.R.R.R.R.R.R.P.G.N.x.t.4.I V c 2 E.E.E.E.E.E.E.E.E.E.E.E.E.E.E.E.E.E.E.E.E.E.E.E.",
"E.E.E.E.E.E.E.E.E.E.E.E.E.E.E.E.E.E.E.E.E.E.E.E.E.E.E.r B S Y ..d.J.I.I.I.R.R.I.Y.I.P.F.A.N.m.l.9.} P Z V g E.E.E.E.E.E.E.E.E.E.E.E.E.E.E.E.E.E.E.E.E.E.E.E.E.E.",
"E.E.E.E.E.E.E.E.E.E.E.E.E.E.E.E.E.E.E.E.E.E.E.E.E.E.E.E.E.t l V C ]  .7.u.n.M.M.M.b.z.t.9.6. .[ F V N g > E.E.E.E.E.E.E.E.E.E.E.E.E.E.E.E.E.E.E.E.E.E.E.E.E.E.E.",
"E.E.E.E.E.E.E.E.E.E.E.E.E.E.E.E.E.E.E.E.E.E.E.E.E.E.E.E.E.E.E.9 z c V Z K L P P P P P L F F V n k r E.E.E.E.E.E.E.E.E.E.E.E.E.E.E.E.E.E.E.E.E.E.E.E.E.E.E.E.E.E.",
"E.E.E.E.E.E.E.E.E.E.E.E.E.E.E.E.E.E.E.E.E.E.E.E.E.E.E.E.E.E.E.E.E.E.> 9 i k l l l l l k p w 1 E.E.E.E.E.E.E.E.E.E.E.E.E.E.E.E.E.E.E.E.E.E.E.E.E.E.E.E.E.E.E.E.E.",
"E.E.E.E.E.E.E.E.E.E.E.E.E.E.E.E.E.E.E.E.E.E.E.E.E.E.E.E.E.E.E.E.E.E.E.E.E.E.E.E.E.E.E.E.E.E.E.E.E.E.E.E.E.E.E.E.E.E.E.E.E.E.E.E.E.E.E.E.E.E.E.E.E.E.E.E.E.E.E.E.",
"E.E.E.E.E.E.E.E.E.E.E.E.E.E.E.E.E.E.E.E.E.E.E.E.E.E.E.E.E.E.E.E.E.E.E.E.E.E.E.E.E.E.E.E.E.E.E.E.E.E.E.E.E.E.E.E.E.E.E.E.E.E.E.E.E.E.E.E.E.E.E.E.E.E.E.E.E.E.E.E.",
"E.E.E.E.E.E.E.E.E.E.E.E.E.E.E.E.E.E.E.E.E.E.E.E.E.E.E.E.E.E.E.E.E.E.E.E.E.E.E.E.E.E.E.E.E.E.E.E.E.E.E.E.E.E.E.E.E.E.E.E.E.E.E.E.E.E.E.E.E.E.E.E.E.E.E.E.E.E.E.E.",
"E.E.E.E.E.E.E.E.E.E.E.E.E.E.E.E.E.E.E.E.E.E.E.E.E.E.E.E.E.E.E.E.E.E.E.E.E.E.E.E.E.E.E.E.E.E.E.E.E.E.E.E.E.E.E.E.E.E.E.E.E.E.E.E.E.E.E.E.E.E.E.E.E.E.E.E.E.E.E.E.",
"E.E.E.E.E.E.E.E.E.E.E.E.E.E.E.E.E.E.E.E.E.E.E.E.E.E.E.E.E.E.E.E.E.E.E.E.E.E.E.E.E.E.E.E.E.E.E.E.E.E.E.E.E.E.E.E.E.E.E.E.E.E.E.E.E.E.E.E.E.E.E.E.E.E.E.E.E.E.E.E.",
"E.E.E.E.E.E.E.E.E.E.E.E.E.E.E.E.E.E.E.E.E.E.E.E.E.E.E.E.E.E.E.E.E.E.E.E.E.E.E.E.E.E.E.E.E.E.E.E.E.E.E.E.E.E.E.E.E.E.E.E.E.E.E.E.E.E.E.E.E.E.E.E.E.E.E.E.E.E.E.E.",
"E.E.E.E.E.E.E.E.E.E.E.E.E.E.E.E.E.E.E.E.E.E.E.E.E.E.E.E.E.E.E.E.E.E.E.E.E.E.E.E.E.E.E.E.E.E.E.E.E.E.E.E.E.E.E.E.E.E.E.E.E.E.E.E.E.E.E.E.E.E.E.E.E.E.E.E.E.E.E.E.",
"E.E.E.E.E.E.E.E.E.E.E.E.E.E.E.E.E.E.E.E.E.E.E.E.E.E.E.E.E.E.E.E.E.E.E.E.E.E.E.E.E.E.E.E.E.E.E.E.E.E.E.E.E.E.E.E.E.E.E.E.E.E.E.E.E.E.E.E.E.E.E.E.E.E.E.E.E.E.E.E.",
"E.E.E.E.E.E.E.E.E.E.E.E.E.E.E.E.E.E.E.E.E.E.E.E.E.E.E.E.E.E.E.E.E.E.E.E.E.E.E.E.E.E.E.E.E.E.E.E.E.E.E.E.E.E.E.E.E.E.E.E.E.E.E.E.E.E.E.E.E.E.E.E.E.E.E.E.E.E.E.E.",
"E.E.E.E.E.E.E.E.E.E.E.E.E.E.E.E.E.E.E.E.E.E.E.E.E.E.E.E.E.E.E.E.E.E.E.E.E.E.E.E.E.E.E.E.E.E.E.E.E.E.E.E.E.E.E.E.E.E.E.E.E.E.E.E.E.E.E.E.E.E.E.E.E.E.E.E.E.E.E.E.",
"E.E.E.E.E.E.E.E.E.E.E.E.E.E.E.E.E.E.E.E.E.E.E.E.E.E.E.E.E.E.E.E.E.E.E.E.E.E.E.E.E.E.E.E.E.E.E.E.E.E.E.E.E.E.E.E.E.E.E.E.E.E.E.E.E.E.E.E.E.E.E.E.E.E.E.E.E.E.E.E.",
"E.E.E.E.E.E.E.E.E.E.E.E.E.E.E.E.E.E.E.E.E.E.E.E.E.E.E.E.E.E.E.E.E.E.E.E.E.E.E.E.E.E.E.E.E.E.E.E.E.E.E.E.E.E.E.E.E.E.E.E.E.E.E.E.E.E.E.E.E.E.E.E.E.E.E.E.E.E.E.E.",
"E.E.E.E.E.E.E.E.E.E.E.E.E.E.E.E.E.E.E.E.E.E.E.E.E.E.E.E.E.E.E.E.E.E.E.E.E.E.E.E.E.E.E.E.E.E.E.E.E.E.E.E.E.E.E.E.E.E.E.E.E.E.E.E.E.E.E.E.E.E.E.E.E.E.E.E.E.E.E.E.",
"E.E.E.E.E.E.E.E.E.E.E.E.E.E.E.E.E.E.E.E.E.E.E.E.E.E.E.E.E.E.E.E.E.E.E.E.E.E.E.E.E.E.E.E.E.E.E.E.E.E.E.E.E.E.E.E.E.E.E.E.E.E.E.E.E.E.E.E.E.E.E.E.E.E.E.E.E.E.E.E.",
"E.E.E.E.E.E.E.E.E.E.E.E.E.E.E.E.E.E.E.E.E.E.E.E.E.E.E.E.E.E.E.E.E.E.E.E.E.E.E.E.E.E.E.E.E.E.E.E.E.E.E.E.E.E.E.E.E.E.E.E.E.E.E.E.E.E.E.E.E.E.E.E.E.E.E.E.E.E.E.E."
};
