/* XPM */
static char *dummy[]={
"25 25 11 1",
". c None",
"i c #000000",
"h c #001236",
"f c #1b4baa",
"g c #2a63d5",
"# c #5b442b",
"d c #793025",
"a c #aa7550",
"e c #b03320",
"b c #cf8e5f",
"c c #ffffff",
".........................",
"..........#####..........",
".........#######.........",
".........#######.........",
".........#######.........",
".........a#####b.........",
".........aabbbbb.........",
".........aabbbbb.........",
".........cabbbbc.........",
"...........abb...........",
"....aa..ddddeeeee...bb...",
"...aaaaaddddeeeeebbbbbb..",
"....aa..ddddeeeee...bb...",
"..........ddeee..........",
"..........ddeee..........",
"..........ddeee..........",
"..........fffff..........",
"..........fgggg..........",
"..........fgfgg..........",
"..........ffcgg..........",
"..........ffcgg..........",
"..........ffcgg..........",
"..........hh.hh..........",
"..........ii.ii..........",
".........iii.iii........."};
