/* XPM */
static char *player[] = {
/* columns rows colors chars-per-pixel */
"34 60 223 2 ",
"   c #1D0B0C",
".  c #170A09",
"X  c #210F0F",
"o  c #251111",
"O  c #2C1414",
"+  c #2D1916",
"@  c #291718",
"#  c #2C1919",
"$  c #311616",
"%  c #321917",
"&  c #351B1A",
"*  c #3C1D1D",
"=  c #361817",
"-  c #35201F",
";  c #3C201B",
":  c #2D1F20",
">  c #362223",
",  c #3B2422",
"<  c #3C2D2D",
"1  c #3A2828",
"2  c #3D3132",
"3  c #401E1E",
"4  c #4E1A1A",
"5  c #551D1D",
"6  c #631E1F",
"7  c #42221E",
"8  c #4B2A1C",
"9  c #56341C",
"0  c #4E3117",
"q  c #411F20",
"w  c #442222",
"e  c #4B2525",
"r  c #452C23",
"t  c #4C2924",
"y  c #432C2B",
"u  c #4C2A29",
"i  c #502626",
"p  c #5A2525",
"a  c #532B24",
"s  c #502728",
"d  c #532A2A",
"f  c #5B2E2D",
"g  c #4B332B",
"h  c #493329",
"j  c #5A3224",
"k  c #56362D",
"l  c #433331",
"z  c #4A3332",
"x  c #4C3835",
"c  c #463A3A",
"v  c #4A3B3B",
"b  c #4B3738",
"n  c #5D3334",
"m  c #533B32",
"M  c #5C3B32",
"N  c #5A3E3E",
"B  c #523838",
"V  c #782C2C",
"C  c #633232",
"Z  c #6A3535",
"A  c #6E3938",
"S  c #673A36",
"D  c #723A3A",
"F  c #7A3939",
"G  c #643D20",
"H  c #66431C",
"J  c #6B4B18",
"K  c #735315",
"L  c #7C5D14",
"P  c #724E1B",
"I  c #55443E",
"U  c #654837",
"Y  c #774F3B",
"T  c #755F3E",
"R  c #524444",
"E  c #5A4344",
"W  c #5B4C4A",
"Q  c #594941",
"!  c #5A524E",
"~  c #5B5252",
"^  c #5D5A5B",
"/  c #544F55",
"(  c #69484B",
")  c #764844",
"_  c #62544D",
"`  c #675041",
"'  c #775948",
"]  c #6C4B54",
"[  c #7C4B5A",
"{  c #645455",
"}  c #685A58",
"|  c #79595A",
" . c #7B6348",
".. c #756654",
"X. c #6D6464",
"o. c #696665",
"O. c #756D6D",
"+. c #766A68",
"@. c #696B73",
"#. c #736D75",
"$. c #7E7C7B",
"%. c #777272",
"&. c #843A3A",
"*. c #973434",
"=. c #A53737",
"-. c #9E731D",
";. c #A47A1A",
":. c #8E4F3D",
">. c #97692A",
",. c #97623E",
"<. c #8F6924",
"1. c #A96B38",
"2. c #8E4544",
"3. c #965A47",
"4. c #894F58",
"5. c #845458",
"6. c #985557",
"7. c #924E50",
"8. c #A7484A",
"9. c #B44A4A",
"0. c #B94444",
"q. c #A25D5D",
"w. c #A85757",
"e. c #B95857",
"r. c #B25154",
"t. c #88674A",
"y. c #856B56",
"u. c #8A7253",
"i. c #8D7853",
"p. c #927F59",
"a. c #AC7B43",
"s. c #BD6857",
"d. c #B6634A",
"f. c #874C61",
"g. c #995666",
"h. c #924D66",
"j. c #A95868",
"k. c #B75465",
"l. c #836768",
"z. c #9C6667",
"x. c #967E67",
"c. c #817C7B",
"v. c #897B7B",
"b. c #9A797A",
"n. c #8A6E6E",
"m. c #A86A67",
"M. c #B46364",
"N. c #B96568",
"B. c #AA736D",
"V. c #B67C66",
"C. c #A67879",
"Z. c #B37676",
"A. c #B96976",
"S. c #C25C54",
"D. c #C95358",
"F. c #DB5B5A",
"G. c #D75756",
"H. c #E85A5A",
"J. c #F35C5D",
"K. c #C66557",
"L. c #D6625C",
"P. c #CF5560",
"I. c #C56866",
"U. c #D96867",
"Y. c #C56874",
"T. c #C17B79",
"R. c #D67777",
"E. c #C67169",
"W. c #E76666",
"Q. c #F56263",
"!. c #E47169",
"~. c #A98317",
"^. c #9B8559",
"/. c #8C8169",
"(. c #9C886A",
"). c #958679",
"_. c #8A847A",
"`. c #AA9368",
"'. c #B59667",
"]. c #BC8B7A",
"[. c #AB977A",
"{. c #B59779",
"}. c #AF876C",
"|. c #B8A171",
" X c #CB8D73",
".X c #CB8370",
"XX c #C78E70",
"oX c #C8A97A",
"OX c #D1B77E",
"+X c #737685",
"@X c #B47283",
"#X c #D27D85",
"$X c #8D8C8D",
"%X c #888386",
"&X c #9B8483",
"*X c #978B86",
"=X c #999589",
"-X c #989291",
";X c #A98985",
":X c #B78786",
">X c #A9988B",
",X c #B38595",
"<X c #A29898",
"1X c #B69995",
"2X c #B09790",
"3X c #B8A687",
"4X c #AAA499",
"5X c #AAA5A4",
"6X c #B1A8A8",
"7X c #CC8182",
"8X c #C28A87",
"9X c #DA9C98",
"0X c #C89295",
"qX c #CBA888",
"wX c #C6B289",
"eX c #C6B598",
"rX c #D4B7AB",
"tX c #C5A9B2",
"yX c #D8C193",
"uX c #D4CCBA",
"iX c #D5C8AE",
"pX c #D7C9C1",
"aX c None",
/* pixels */
"aXaXaXaXaXaXaXaXaXaXaXaXaXaXaXaXaXaXaXaXaXaXaXaXaXaXaXaXaXaXaXaXaXaX",
"aXaXaXaXaXaXaXaXaXaXaXaXaXaXaXaXaXaXaXaXaXaXaXaXaXaXaXaXaXaXaXaXaXaX",
"aXaXaXaXaXaXaXaXaXaXaXaXaXaXaXaXaXaXaXaX* * aXaX+ + aXaXaXaXaXaXaXaX",
"aXaXaXaXaXaXaXaXaXaXaXaXaXaXaXaXaXaXaXaX* 3 aXaX& & aXaXaXaXaXaXaXaX",
"aXaXaXaX+ + aXaX* q q q & + aXaXo O O & * 3 e s w w aXaXaXaXaXaXaXaX",
"aXaXaXaX+ + aXaXq q e e ; & aXaXo O $ & 3 q e t e e aXaXaXaXaXaXaXaX",
"aXaXaXaXO & w u e e s t w ; aXaX@ + & * 3 e e e e w w w aXaXaXaXaXaX",
"aXaXaXaXO & w t a j j j t e aXaX* ; 7 e i s i s d d s t aXaXaXaXaXaX",
"aXaXo O & * * t 9 H P H a i a d d d d f C C Z C C C C d e q aXaXaXaX",
"aXaXo O % * * t H K K J j i s d d d f f Z A D D D D Z C s t aXaXaXaX",
"aXaXaXaXO & * 0 J <.P G a i i i i i i s C Z D D D D D Z C f aXaXaXaX",
"aXaXaXaXO $ = 0 J K G j i i e e e e e e d C Z A A A A Z C C aXaXaXaX",
"aXaXaXaXX o $ ; 0 0 a a e e e e e w e e e s f C C C f f d d d d aXaX",
"aXaXaXaXX o o $ ; 7 7 e e e e e e e e e w e s s s d s s t s s f aXaX",
"aXaXaXaXaXaX  o = 7 7 e e e 4 e e e w e e e e w e e e e e t f f aXaX",
"aXaXaXaXaXaX. o = 7 7 8 e e u s i i i t e e e e e t e e e i f f aXaX",
"aXaXaXaXaXaXaXaX* q w e e s f C f f f f f d s s f f d s t d C C s w ",
"aXaXaXaXaXaXaXaX* 3 ; 7 w t C C Z Z Z C f d u d f C C M U U Z d e w ",
"aXaXaXaXaXaX* * * * * & 3 e f C Z D D C k u u d C S ) t.u. .C e q * ",
"aXaXaXaXaXaX* * * & $ = * 3 e f C C C C d u t d C ) y./.(.u.k * & & ",
"aXaXaXaXe w * & $ # - & $ = ; e e s e t u u u d M ' /.[.(.t.g & O O ",
"aXaXaXaXe e 7 7 h g I g ; $ & ; w s u z x x k I ' (.[.3X(...g + o o ",
"aXaXaXaXs e , H T i.i.T r $ = 7 r x _ { W I ` y.[.wX3X3X)...z + o . ",
"aXaXaXaXe w r U ^.|.'.t.h = 8 M ` { O.@.^ } ..`.wXyXwX>X_.} l + X . ",
"aXaX% & * w u ' |.OX'.t.8 - U u.(.).%X+X@.O./.}.oXqX3X>X$.^ < @ aXaX",
"aXaX% & & * y U `.oX'.t.r r t.`.3X4X$X+X@.+.}.'. X X{.).O./ 1 o aXaX",
"aXaXaXaX$ = % k u.`.^.t.r g t.'.wX3X*X%.l.j.I.!.!.!.E.m.| I :   aXaX",
"aXaXaXaX$ O O y  .i.^.T r g 3.V. XXXB.q.w.e.H.Q.Q.Q.F.w.Y k &   aXaX",
"aXaXaXaXaXaXaXaXaXaXaXaX= p :.e.K.K.e.S.G.F.H.J.J.J.F.9.F p aXaXaXaX",
"aXaXaXaXaXaXaXaXaXaXaXaX= p 2.w.s.K.K.L.L.H.G.G.H.H.H.0.V 5 aXaXaXaX",
"aXaXaXaXaXaXaXaXaXaXaXaX5 C z.[.8X X X.XT.M.8.=.aXaXaXaXaXaXaXaXaXaX",
"aXaXaXaXaXaXaXaXaXaXaXaXA ) C.4XeXeXqXqX8XB.7.&.aXaXaXaXaXaXaXaXaXaX",
"aXaXaXaXaXaXaXaXaXaX1XC.6.7.B.0XrXpXpXrX9XR.e.z.v.$XaXaXaXaXaXaXaXaX",
"aXaXaXaXaXaXaXaXaXaX>X>XC.m.N.7XrXpXuXrX9X#XE.m.).-XaXaXaXaXaXaXaXaX",
"aXaXaXaXaXaXaXaX! +.[.>X>X@XN.Y.0XtX6XtX#XY.N.B.;X>XaXaXaXaXaXaXaXaX",
"aXaXaXaXaXaXaXaXR _ O.)._.b.j.j.@X,X5X,XA.k.j.m.(./.aXaXaXaXaXaXaXaX",
"aXaXaXaXaXaXaXaX1 z I _ } [ f.g.z.z.z.z.6.6.7.' ' W g > aXaXaXaXaXaX",
"aXaXaXaXaXaXaXaX- - y z N ( f.f.6.3.3.3.,.,.) U I h , > aXaXaXaXaXaX",
"aXaXaXaXaXaXaXaX- - > y E ] [ f.3.>.-.;.;.<.U m r , > > aXaXaXaXaXaX",
"aXaXaXaXaXaXaXaX- , y B ] 4.h.g.3.>.;.~.~.>.Y S x l 1 1 aXaXaXaXaXaX",
"aXaXaXaXaXaXaXaXaXaXW { 5.g.j.k.e.d.a.a.1.d.3.4.} / c 2 aXaXaXaXaXaX",
"aXaXaXaXaXaXaXaXaXaX~ { [ 6.k.P.G.I.V.V.s.d.e.q.5.^ c < aXaXaXaXaXaX",
"aXaXaXaXaXaXaXaXaXaXy z n &.8.D.W.R.:X:XU.W.G.r.) v > : aXaXaXaXaXaX",
"aXaXaXaXaXaXaXaXaXaXR E ( ) 2.8.E.7X:X:XR.U.U.e.5.E c c aXaXaXaXaXaX",
"aXaXaXaXaXaXaXaXaXaX$X*X-X%.W ( z.;X&X&X8X.X.XZ.b.v.O.+.aXaXaXaXaXaX",
"aXaXaXaXaXaXaXaXaXaX6X5X<X@Xv b l.*X&X&X@X:X@X@X;X<X-X-XaXaXaXaXaXaX",
"aXaXaXaXaXaXaXaXaXaX4X-Xc.^ 2 > aXaXaXaXN.N.S.N.C.&X<X5XaXaXaXaXaXaX",
"aXaXaXaXaXaXaXaXaXaXc.+._ x 7 = aXaXaXaX9.9.9.w.5.+.%X$XaXaXaXaXaXaX",
"aXaXaXaXaXaXaXaXaXaXc z u e 5 5 aXaXaXaX=.=.=.F n b v v aXaXaXaXaXaX",
"aXaXaXaXaXaXaXaXaXaX# & * 4 5 6 aXaXaXaX=.*.V p w : @ @ aXaXaXaXaXaX",
"aXaXaXaXaXaXaXaXaXaX& & = 3 aXaXaXaXaXaXaXaXe q > & @ @ aXaXaXaXaXaX",
"aXaXaXaXaXaXaXaXaXaXy z z z aXaXaXaXaXaXaXaXb b c c < 1 aXaXaXaXaXaX",
"aXaXaXaXaXaXaXaXaXaX} } X.X.aXaXaXaXaXaXaXaXX.O.O.X.~ R aXaXaXaXaXaX",
"aXaXaXaXaXaXaXaXaXaX+.#.%.%.aXaXaXaXaXaXaXaX$.$.$.O.{ W aXaXaXaXaXaX",
"aXaXaXaXaXaXaXaXy B { X.X.} aXaXaXaXaXaXaXaXaXaXX.{ N z aXaXaXaXaXaX",
"aXaXaXaXaXaXaXaXu z E ~ R R aXaXaXaXaXaXaXaXaXaXE N d t aXaXaXaXaXaX",
"aXaXaXaXd f Z C s s u y y , aXaXaXaXaXaXaXaXaXaXu e e u f n Z C s w ",
"aXaXaXaXi s f f s e * * & & aXaXaXaXaXaXaXaXaXaX* * q r u d n f e w ",
"aXaXaXaX, q w w * * * = & $ aXaXaXaXaXaXaXaXo O & * 3 q q e s s w * ",
"aXaXaXaX* * * * & & * * & & aXaXaXaXaXaXaXaXo O & * * * * q q q * * "
};
