/* XPM */
static char *player_front[] = {
/* columns rows colors chars-per-pixel */
"40 40 178 2 ",
"   c black",
".  c #000205",
"X  c #000A21",
"o  c #000B22",
"O  c #5E0A19",
"+  c #66141E",
"@  c #523E27",
"#  c #762F25",
"$  c #782E23",
"%  c #7C2E23",
"&  c #782F24",
"*  c #773025",
"=  c #7F3023",
"-  c #783024",
";  c #793025",
":  c #7E3025",
">  c #7B3529",
",  c #554028",
"<  c #584229",
"1  c #5A442B",
"2  c #5C442B",
"3  c #5C452C",
"4  c #61482E",
"5  c #644A2F",
"6  c #664B30",
"7  c #684C30",
"8  c #6B4D32",
"9  c #6C4F33",
"0  c #725336",
"q  c #735336",
"w  c #795737",
"e  c #7E5A3B",
"r  c #7F5B3B",
"t  c #56782F",
"y  c #666833",
"u  c #062259",
"i  c #08245B",
"p  c #0B2966",
"a  c #0D2B68",
"s  c #102A60",
"d  c #14316C",
"f  c #4F3B5E",
"g  c #533B5D",
"h  c #663C5B",
"j  c #6F3D5A",
"k  c #703D5A",
"l  c #5A4B4E",
"z  c #4E4B68",
"x  c #76637B",
"c  c #9E2F1F",
"v  c #AF301E",
"b  c #B2331E",
"n  c #B3331E",
"m  c #863D2D",
"M  c #9F3222",
"N  c #843730",
"B  c #A13220",
"V  c #B03320",
"C  c #B23320",
"Z  c #B33A25",
"A  c #B33B26",
"S  c #8E4D37",
"D  c #964D3D",
"F  c #805B3C",
"G  c #855E3E",
"H  c #92543B",
"J  c #98503E",
"K  c #A7432D",
"L  c #B7452C",
"P  c #B9462D",
"I  c #BD5A3B",
"U  c #965B40",
"Y  c #A35F46",
"T  c #A75D46",
"R  c #8B6240",
"E  c #926744",
"W  c #926645",
"Q  c #986A46",
"!  c #9F6E4B",
"~  c #AD6048",
"^  c #AB6548",
"/  c #A46A49",
"(  c #B66F4D",
")  c #A7704A",
"_  c #A4714D",
"`  c #A8724B",
"'  c #A9744E",
"]  c #AA754F",
"[  c #AB754F",
"{  c #AA7550",
"}  c #AC7752",
"|  c #AE7851",
" . c #AF7D5B",
".. c #B07953",
"X. c #B57D54",
"o. c #BE7850",
"O. c #BB7F53",
"+. c #A47765",
"@. c #A67A7B",
"#. c #A37D7A",
"$. c #C06241",
"%. c #C5704A",
"&. c #CB7E54",
"*. c #5FB039",
"=. c #929F4A",
"-. c #A98A4E",
";. c #AB9C4F",
":. c #BB8155",
">. c #BB8156",
",. c #BD8154",
"<. c #BE8357",
"1. c #BE995A",
"2. c #ADA155",
"3. c #B88D6E",
"4. c #CC8055",
"5. c #C28559",
"6. c #C7895B",
"7. c #CF8B5B",
"8. c #C98A5C",
"9. c #CA8B5C",
"0. c #CE8C5E",
"q. c #CF8E5F",
"w. c #D18E5F",
"e. c #C7995C",
"r. c #C48B6B",
"t. c #D09161",
"y. c #D49161",
"u. c #D89463",
"i. c #D29569",
"p. c #C0987D",
"a. c #D9A37C",
"s. c #12419D",
"d. c #1445A7",
"f. c #1E4AA6",
"g. c #1547AB",
"h. c #1B4BAA",
"j. c #1E4BA8",
"k. c #194BAC",
"l. c #1A4DB1",
"z. c #1D53B9",
"x. c #214DAA",
"c. c #2C55A8",
"v. c #2557BB",
"b. c #2155BD",
"n. c #2D5DBF",
"m. c #305BB1",
"M. c #315DB5",
"N. c #5059A6",
"B. c #2057C5",
"V. c #265CC7",
"C. c #225CCB",
"Z. c #235DCC",
"A. c #245CCC",
"S. c #245CCD",
"D. c #245ED4",
"F. c #2960CF",
"G. c #3969CB",
"H. c #2761D5",
"J. c #2961D2",
"K. c #2A63D5",
"L. c #2561D9",
"P. c #2B66DA",
"I. c #356AD5",
"U. c #3E71D9",
"Y. c #3F74DD",
"T. c #7B98D1",
"R. c #7D9CD9",
"E. c #C7A38B",
"W. c #DCAC89",
"Q. c #DFB495",
"!. c #BCC9E2",
"~. c #E9DBD1",
"^. c #F4E3D6",
"/. c #C1CDE6",
"(. c #C1D0F0",
"). c #C6D6F5",
"_. c #FCFAF9",
"`. c None",
/* pixels */
"`.`.`.`.`.`.`.`.`.`.`.`.`.`.`.`.`.`.`.`.`.`.`.`.`.`.`.`.`.`.`.`.`.`.`.`.`.`.`.`.",
"`.`.`.`.`.`.`.`.`.`.`.`.`.`.`.`.`.`.`.`.`.`.`.`.`.`.`.`.`.`.`.`.`.`.`.`.`.`.`.`.",
"`.`.`.`.`.`.`.`.`.`.`.`.`.`.`.`.2 3 1 2 3 3 1 1 `.`.`.`.`.`.`.`.`.`.`.`.`.`.`.`.",
"`.`.`.`.`.`.`.`.`.`.`.`.`.`.`.2 1 < < < , < 1 3 1 `.`.`.`.`.`.`.`.`.`.`.`.`.`.`.",
"`.`.`.`.`.`.`.`.`.`.`.`.`.`.1 1 < 8 e e F e 8 , 1 3 `.`.`.`.`.`.`.`.`.`.`.`.`.`.",
"`.`.`.`.`.`.`.`.`.`.`.`.`.`.1 1 2 R 5.6.6.5.R 3 1 1 `.`.`.`.`.`.`.`.`.`.`.`.`.`.",
"`.`.`.`.`.`.`.`.`.`.`.`.`.`., 4 F | y.y.y.y.:.E 5 @ `.`.`.`.`.`.`.`.`.`.`.`.`.`.",
"`.`.`.`.`.`.`.`.`.`.`.`.`.`.6 0 W ] :.9.8.:.:.| e 9 `.`.`.`.`.`.`.`.`.`.`.`.`.`.",
"`.`.`.`.`.`.`.`.`.`.`.`.`.`.! W q 5 w X.X.w 8 e | <.`.`.`.`.`.`.`.`.`.`.`.`.`.`.",
"`.`.`.`.`.`.`.`.`.`.`.`.`.`..._ G l z +.-.t y Q 6.u.`.`.`.`.`.`.`.`.`.`.`.`.`.`.",
"`.`.`.`.`.`.`.`.`.`.`.`.`.`.{ ] ] x N.@.;.*.=.q.q.q.`.`.`.`.`.`.`.`.`.`.`.`.`.`.",
"`.`.`.`.`.`.`.`.`.`.`.`.`.`.) ` [ +.#.r.e.2.1.q.7.7.`.`.`.`.`.`.`.`.`.`.`.`.`.`.",
"`.`.`.`.`.`.`.`.`.`.`.`.`.`.E.p. .,.w.( T ~ &.i.W.Q.`.`.`.`.`.`.`.`.`.`.`.`.`.`.",
"`.`.`.`.`.`.`.`.`.`.`.`.`.`._.~.3.O.&.N O + J a.^._.`.`.`.`.`.`.`.`.`.`.`.`.`.`.",
"`.`.`.`.`.`.`.`.`.`.`.`.`.`.`.`.`.>.X.T D J ^ `.`.`.`.`.`.`.`.`.`.`.`.`.`.`.`.`.",
"`.`.`.`.`.`.`.`.`.`.`.`.`.`.`.`.`.H / o.4.&.%.`.`.`.`.`.`.`.`.`.`.`.`.`.`.`.`.`.",
"`.`.`.`.`.`.`.{ { `.`.`.`.; & & - > m K P L A V v v n `.`.`.`.`.q.q.q.`.`.`.`.`.",
"`.`.`.`.`.`.{ { { { `.`.H - & ; - * % M v v v V V V Z ~ `.`.`.w.q.q.q.q.`.`.`.`.",
"`.`.`.`.`.{ { { { { ] } W N ; ; - * % M C V V V V v A %.y.w.w.w.q.q.q.q.q.`.`.`.",
"`.`.`.`.`.`.{ { { { `.`.D % - - - * : M C V V V V V V I `.`.`.`.q.q.q.q.`.`.`.`.",
"`.`.`.`.`.`.`.{ { `.`.`.`.- - - - ; : M C C V V V C C `.`.`.`.`.w.q.q.`.`.`.`.`.",
"`.`.`.`.`.`.`.`.`.`.`.`.`.`.`.`.; ; : M C C V V `.`.`.`.`.`.`.`.`.`.`.`.`.`.`.`.",
"`.`.`.`.`.`.`.`.`.`.`.`.`.`.`.`.; * : M C C V V `.`.`.`.`.`.`.`.`.`.`.`.`.`.`.`.",
"`.`.`.`.`.`.`.`.`.`.`.`.`.`.`.`.; - : B C b b b `.`.`.`.`.`.`.`.`.`.`.`.`.`.`.`.",
"`.`.`.`.`.`.`.`.`.`.`.`.`.`.`.`.- - = B b b b b `.`.`.`.`.`.`.`.`.`.`.`.`.`.`.`.",
"`.`.`.`.`.`.`.`.`.`.`.`.`.`.`.`.g f g h k j j j `.`.`.`.`.`.`.`.`.`.`.`.`.`.`.`.",
"`.`.`.`.`.`.`.`.`.`.`.`.`.`.`.`.f.j.x.x.x.x.x.x.`.`.`.`.`.`.`.`.`.`.`.`.`.`.`.`.",
"`.`.`.`.`.`.`.`.`.`.`.`.`.`.`.`.k.z.C.A.C.C.C.C.`.`.`.`.`.`.`.`.`.`.`.`.`.`.`.`.",
"`.`.`.`.`.`.`.`.`.`.`.`.`.`.`.`.h.b.K.A.A.K.K.P.`.`.`.`.`.`.`.`.`.`.`.`.`.`.`.`.",
"`.`.`.`.`.`.`.`.`.`.`.`.`.`.`.`.h.b.J.v.v.J.K.K.`.`.`.`.`.`.`.`.`.`.`.`.`.`.`.`.",
"`.`.`.`.`.`.`.`.`.`.`.`.`.`.`.`.h.l.n.T.R.I.H.K.`.`.`.`.`.`.`.`.`.`.`.`.`.`.`.`.",
"`.`.`.`.`.`.`.`.`.`.`.`.`.`.`.`.h.d.m./.).U.D.K.`.`.`.`.`.`.`.`.`.`.`.`.`.`.`.`.",
"`.`.`.`.`.`.`.`.`.`.`.`.`.`.`.`.k.g.m./.).U.D.K.`.`.`.`.`.`.`.`.`.`.`.`.`.`.`.`.",
"`.`.`.`.`.`.`.`.`.`.`.`.`.`.`.`.k.g.m./.).Y.L.P.`.`.`.`.`.`.`.`.`.`.`.`.`.`.`.`.",
"`.`.`.`.`.`.`.`.`.`.`.`.`.`.`.`.f.s.c.!.(.G.B.V.`.`.`.`.`.`.`.`.`.`.`.`.`.`.`.`.",
"`.`.`.`.`.`.`.`.`.`.`.`.`.`.`.`.i u s `.`.d p a `.`.`.`.`.`.`.`.`.`.`.`.`.`.`.`.",
"`.`.`.`.`.`.`.`.`.`.`.`.`.`.`.`.X X X `.`.X X X `.`.`.`.`.`.`.`.`.`.`.`.`.`.`.`.",
"`.`.`.`.`.`.`.`.`.`.`.`.`.`.`.`.. . . `.`.. . . `.`.`.`.`.`.`.`.`.`.`.`.`.`.`.`.",
"`.`.`.`.`.`.`.`.`.`.`.`.`.`.`.        `.`.        `.`.`.`.`.`.`.`.`.`.`.`.`.`.`.",
"`.`.`.`.`.`.`.`.`.`.`.`.`.`.          `.`.          `.`.`.`.`.`.`.`.`.`.`.`.`.`."
};
