/* XPM */
static char *dummy[]={
"25 25 16 1",
". c None",
"i c None",
"k c None",
"n c #000000",
"m c #001236",
"j c #1b4baa",
"l c #2a63d5",
"c c #304dbc",
"d c #42bc30",
"f c #550013",
"# c #5b442b",
"g c #793025",
"b c #aa7550",
"h c #b03320",
"a c #cf8e5f",
"e c #ffffff",
".........................",
"..........#####..........",
".........#######.........",
".........##aaa##.........",
".........#baaaa#.........",
".........b##a##a.........",
".........bbcadaa.........",
".........bbaaaaa.........",
".........ebaffae.........",
"...........baa...........",
"....bb..gggghhhhh...aa...",
"...bbbbbgggghhhhhaaaaaa..",
"....bb..gggghhhhh...aa...",
"..........gghhh..........",
"..........gghhh..........",
"..........gghhh..........",
".........ijjjjjk.........",
".........ijllllk.........",
"..........jljll..........",
"..........jjell..........",
"..........jjell..........",
"..........jjell..........",
"..........mm.mm..........",
"..........nn.nn..........",
".........nnn.nnn........."};
