/* XPM */
static char *player[] = {
/* columns rows colors chars-per-pixel */
"80 80 201 2 ",
"   c #0E1706",
".  c #0F1806",
"X  c #0F1508",
"o  c #121B07",
"O  c #151C0A",
"+  c #191F0D",
"@  c #181716",
"#  c #161811",
"$  c #1A1A16",
"%  c #1D1B19",
"&  c #211E1C",
"*  c #132007",
"=  c #172208",
"-  c #1B240A",
";  c #1E2A0B",
":  c #1D2212",
">  c #1F2018",
",  c #212D0C",
"<  c #24340D",
"1  c #28360E",
"2  c #253B0F",
"3  c #293B0F",
"4  c #242C16",
"5  c #23211D",
"6  c #252A19",
"7  c #263B12",
"8  c #2B3E10",
"9  c #2B321B",
"0  c #323D1C",
"q  c #262321",
"w  c #2A2624",
"e  c #2C2927",
"r  c #2E2A29",
"t  c #342C24",
"y  c #332D2C",
"u  c #392E2D",
"i  c #2C302A",
"p  c #34312E",
"a  c #39302D",
"s  c #363230",
"d  c #3D3434",
"f  c #3C3836",
"g  c #3D3B39",
"h  c #4B392D",
"j  c #403735",
"k  c #403837",
"l  c #4A3D35",
"z  c #443B3B",
"x  c #483F3F",
"c  c #25400F",
"v  c #2A420F",
"b  c #35460F",
"n  c #264310",
"m  c #2A4411",
"M  c #2C4B12",
"N  c #314512",
"B  c #344B13",
"V  c #394E14",
"C  c #36441C",
"Z  c #3B4C1D",
"A  c #2F5113",
"S  c #335314",
"D  c #3B5415",
"F  c #375816",
"G  c #3C5B16",
"H  c #3D5A19",
"J  c #415B17",
"K  c #445B15",
"L  c #41541D",
"P  c #435E18",
"I  c #495E1E",
"U  c #436217",
"Y  c #486717",
"T  c #486817",
"R  c #456319",
"E  c #49661A",
"W  c #47681A",
"Q  c #4D6B1B",
"!  c #516E1D",
"~  c #4E701B",
"^  c #54741D",
"/  c #58761D",
"(  c #57791E",
")  c #5A7B1E",
"_  c #607F1D",
"`  c #475D22",
"'  c #45413D",
"]  c #48413E",
"[  c #57463C",
"{  c #4C5534",
"}  c #69513E",
"|  c #4C6522",
" . c #4E6922",
".. c #526E22",
"X. c #557421",
"o. c #5A7621",
"O. c #577922",
"+. c #5B7E20",
"@. c #617E21",
"#. c #3D3F40",
"$. c #4D4342",
"%. c #4A4745",
"&. c #4D4A45",
"*. c #514646",
"=. c #524A46",
"-. c #5B4B43",
";. c #554B4A",
":. c #5A4D4C",
">. c #55514F",
",. c #5D5549",
"<. c #5A514D",
"1. c #4E4F52",
"2. c #5D5452",
"3. c #595857",
"4. c #634E43",
"5. c #655347",
"6. c #765A45",
"7. c #625554",
"8. c #645A55",
"9. c #655B5A",
"0. c #6C5D5D",
"q. c #65615F",
"w. c #6D625D",
"e. c #6C6863",
"r. c #716864",
"t. c #746964",
"y. c #7B6E69",
"u. c #7C726E",
"i. c #7B7674",
"p. c #86684E",
"a. c #967559",
"s. c #9C795A",
"d. c #A17E5E",
"f. c #81746E",
"g. c #837975",
"h. c #867974",
"j. c #8A7B76",
"k. c #8D7F79",
"l. c #5E801F",
"z. c #64841E",
"x. c #68871E",
"c. c #6A891E",
"v. c #5D8222",
"b. c #5F8725",
"n. c #618522",
"m. c #648B24",
"M. c #698C22",
"N. c #618329",
"B. c #648B28",
"V. c #679026",
"C. c #699227",
"Z. c #6C9528",
"A. c #6E992A",
"S. c #719C2B",
"D. c #74A02D",
"F. c #8A827F",
"G. c #93837E",
"H. c #AB8561",
"J. c #B99068",
"K. c #768690",
"L. c #938B87",
"P. c #9D8C86",
"I. c #9F8E88",
"U. c #96918F",
"Y. c #9C9693",
"T. c #A08F89",
"R. c #A3928C",
"E. c #A8968F",
"W. c #A59995",
"Q. c #AC9A93",
"!. c #B19E97",
"~. c #A7A19F",
"^. c #B5A29B",
"/. c #B9A59E",
"(. c #8E9BA3",
"). c #82A6BC",
"_. c #ABA5A2",
"`. c #B2AAA7",
"'. c #BDA9A2",
"]. c #B4ADAA",
"[. c #BBB1AE",
"{. c #A6B2BA",
"}. c #BDB5B2",
"|. c #C1ACA5",
" X c #C6B0A9",
".X c #CAB4AD",
"XX c #CFB8B0",
"oX c #C6BBB8",
"OX c #D4BDB5",
"+X c #CCC1BE",
"@X c #AAD3ED",
"#X c #CAC6C6",
"$X c #D7CDCA",
"%X c #DCD0CD",
"&X c #DDD5D3",
"*X c #E1D4CF",
"=X c #E7DCD8",
"-X c #EAE2DF",
";X c #F9EBE6",
":X c #FEF2ED",
">X c #E0E8F0",
/* pixels */
"+.l.+.+.+.v.+.+.+.+.+.+.v.) v.) v.) v.+.+.v.+.+.+.) +.+.) ) l.) v.) ) l.+.+.+.+.+.) +.+.+.+.+.+.+.+.+.v.v.) +.) +.+.+.+.+.+.+.l.+.+.v.+.+.+.+.+.v.+.+.+.v.) +.+.",
"+.b.m.) v.b.+.+.+.v.+.+.) +.v.+.( v.) +.+.) +.+.+.v.v.) / ! T E P R R Y ! / +.) v.+.+.+.+.+.+.) +.+.) v.b.+.v.b.v.+.) v.+.+.O.+.) +.) +.v.+.+.+.) +.v.) ) v.+.+.",
"+.v.B.b.v.B.v.v.+.+.+.+.+.+.) +.v.) l.) ( v.+.O.^ T D B 3 < , , - - - , , < B P ! Q Q O.) ( W Q ( O.( ( B.b.v.v.( +.) ) v.+.+.+.v.+.+.+.) ) v.) v.+.) v.+.) v.+.",
"+.+.v.b.v.b.b.b.+.+.+.+.+.+.+.+.( O.l.Q U ^ W S < ; O - - o o o o . O - o . = - < 3 S Q / W S F P Q U F O.O.Q G U Q ( O.^ ~ ( ^ ^ +.) ) +.+.) v.) +.+.) +.+.) +.",
"+.+.v.+.v.O.v.O.+.+.+.+.) +.+.W T ^ ^ G v 1 , o   . o o o o   o     . o o X o + O . = 8 D S S B M S S B W W F A M J Q Q F H W S Y / ^ O.+.+.l.l.+.+.) +.+.+.+.+.",
"+.+.+.+.v.O.+.+.+.+.+.( ^ U ~ U A G D , *               o   o     o   X X O # # # # # O : 7 F M M M S M M B A A M M D S A S S S D D H / ( +.) ) +.+.v.+.+.+.) v.",
"+.v.+.+.+.+.+.+.v.) +.W H S S F M 2 *   o o o     o = o     o O o $ $ $ % % % & q q 5 % % % & 4 7 F T M m G G A M c M A A M A M M M B R W ^ ) ) v.) v.+.v.+.+.+.",
"+.+.) +.+.+.+.v.+.+.! S S M A n - o o     o o o o O - - - o O $ $ $ & e s z $.;.:.:.:.:.*.f r & $ 6 Z M G ) ( G M M G G G ^ S M M m M M S Q ( / ) +.) +.) +.) +.",
"+.+.+.+.+.+.l.! ! ^ Y B A A n = o o = = o = - , , + + & % % @ & r d $.$.*.;.*.;.*.;.;.:.7.0.0.:.k 5 $ 5 J / ) H M Y ) ) ) x.G T F M n M M D Q / O.+.v.+.+.+.+.+.",
"+.l.+.+.+.+.+.U S S S M A n ; * - - - - = - - - - , + % % q u x *.*.*.*.*.*.*.*.*.*.*.*.*.7.0.0.0.7.k q % 0 ! ^ T ( ) z.l.x.z.x.G M A n c b K ! ( ) ) +.+.+.+.) ",
"+.+.v.) +.) ) W M A A M c - ; ; - - - - - - - - + + @ & r j x x *.*.*.*.*.*.*.*.*.*.*.*.*.*.;.0.w.0.0.<.y % 9 E ) ) ( ) ) l.z.x.( ^ S M v c M U ! ( +.+.+.+.+.+.",
") +.+.+.+.^ Y T S A S S = = , - - - - - - - - - $ & w u u j d d $.*.*.*.*.*.*.*.*.*.*.*.*.*.*.7.0.0.0.0.9.z % 6 Y ) ) ( ( ( ( z.x.x.Y M M v c M G ~ ( ) +.+.+.+.",
"v.( v.O.l.T S F b M D 8 ; - , - - - - = - - $ % & w d j d d d z *.*.*.*.*.*.*.*.*.*.*.*.*.$.*.;.0.0.0.0.0.0.*.& 6 E l.) ( ( ) ) x.c.^ M M M n m B E ^ ( +.+.O.+.",
") v.v.) ) ^ S A A S 3 , - - - - - - - - - # % & t j d d d d d $.*.*.*.*.*.*.*.*.*.*.*.*.$.j $.;.0.0.0.0.0.0.0.*.% 4 ^ ) ) ) ) ( ) l.) T A M M n M D Q v.+.v.b.+.",
"v.+.) v.l.^ G A A Y < , - - - - - - - - : $ & u d d u j u d d *.*.*.*.*.*.*.*.*.*.*.*.*.$.z $.*.0.0.r.0.0.0.0.0.x % 0 / l.) _ ( ( ) ) ( U S n n 2 B R +.v.b.b.+.",
") +.+.) l.~ S M A b , , , , - - - - + + $ & d d u w u d j j x *.*.*.*.*.*.*.*.*.*.*.*.*.*.*.*.*.7.0.0.0.0.0.0.0.0.s + D l.l.) / ( ) ) ) ^ S M n 8 B P O.b.b.+.+.",
"+.) ( v.( ( G A M 2 - - - - - - - - + $ & y j u q r d d d d x *.*.*.*.*.*.*.*.*.*.*.*.*.*.*.z z ;.7.0.0.0.0.0.:.0.7.w 5 ! o.o.) ( ) ) ) / T A v 2 N J ^ O.v.+.+.",
") v.v.l.( ( U M M v , - - - = - - = $ @ e d u q & d d j d d z *.*.*.*.*.*.*.*.*.*.*.*.*.*.*.z d x *.;.:.:.:.*.*.;.0.x @ Z o.o./ ( ) ) ) z.( A v 2 m J Q O.+.+.+.",
"+.+.+.W G G S M A S < = - - - - - - $ q d d w % y d d d d j #.x *.*.*.*.*.*.*.*.*.*.*.*.*.*.*.z x *.*.*.*.*.*.*.*.7.7.r 5 I ! ..^ ( ( l.x.^ M 2 3 N P ^ +.+.v.+.",
"v.) v.O.F A A A M A V < = - - - - - $ t d y % q u j d d d d u d $.*.*.*.*.*.*.*.*.*.*.*.*.*.*.*.*.*.*.*.*.*.*.*.*.:.0.*.$ 0 Q ! ~ l.( l.x.T M 2 2 m P ^ ) ) ) +.",
") +.+.b.W A A H Y T ) K - - - - ; $ $ y d q @ y d d #.d d d d d j x *.*.*.*.$.*.*.*.*.*.*.*.*.*.*.*.*.*.*.*.*.*.*.*.7.2.q 4 / ) l.l.l.l.l.G A n 2 m K ! / ) +.+.",
"+.+.+.v.O.F A F ( ) ) V - - - - ; - % w y % w d d d u j j d d d j j z $.*.z z *.*.*.*.*.*.*.*.*.*.*.*.*.*.*.*.*.*.*.;.0.d 5 Q m.m.l.l.l.z.l.U M 2 N L E / ) +.+.",
"v.) +.) O. .F A T ) ~ v - ; - ; ; ; % % % % y d d d d d d d d j d d j j j j x *.*.*.*.*.*.*.*.*.*.*.*.*.*.*.*.*.*.*.;.0.&.% ` m.l.l.l.l.z.c.U v 1 v S Q ^ ) v.l.",
"+.+.+.+.X.Q H m S ~ T < - - ; - ; ; ; % @ q d u u d j d d d d d d d j u j j z z x *.*.*.*.*.*.;.*.*.*.*.*.*.*.*.*.*.*.7.2.& 0 n.m.l.l.l.z.( A c 2 v D E ( ) ) +.",
"+.v.) ) Y S S M A G B ; - ; ; ; ; ; ; - % r d r y d d d j d d d j d d d j d d d j k z z $.z z z z #.x $.$.*.*.*.*.*.*.:.9.r 5 o.n.n.b.n.c.^ G M 2 8 D Y ^ +.+.) ",
"+.+.+.+.~ G S S U ^ N - - , - ; ; ; , : % u d d d d j d d d d d d d d d d d j d s y e q & & % % % q r u k $.*.*.*.*.*.;.0.u & ..+.+.v.n.z.z.U v 2 8 B E ^ ) +.+.",
"+.+.+.( ^ U A S / / 3 - - - ; ; ; ; ; % q d d d d d d d d d d d d d j d d d y w & $ % & w w q & % q y x *.*.*.*.*.*.*.*.7.z $  .m.n.m.n.c.^ G M M n M K Q O.+.+.",
"+.+.^ U D A M M G Y 1 - o = ; ; ; ; ; % r d d d d d d u d d d d d d d d y w @ & a ;.w.u.h.j.j.y.:.y % q u $.*.*.*.*.*.*.7.$.% I n.m.m.n.z.l.( G m 2 N J Q ( +.+.",
"v.+.! F A A G ^ / Y , - O - ; ; , , : % p d d d d d y y d d d d d d d w % & x r.G.P.T.T.T.I.I.I.I.G.w.d % w z &.*.*.*.*.2.*.@ L B.M.m.n.b.l.U M 1 1 N P Q X.+.+.",
"+.+.( U A A Q c.z.K , - - , ; ; , ; > % s d d y u d u u d d d d d u q % y 0.L.I.I.I.P.I.P.P.I.I.I.I.I.G.2.q % d *.*.*.*.:.;.% Z o.+.n.m.l.U M v 2 n M S W / ) +.",
"+.+.O.^ H M G z.x.K , - ; ; ; , , 4 > q d d d t r d d d d d d d y & @ d h.T.T.T.I.P.P.P.P.P.I.P.P.P.P.P.P.y.y % u $.*.*.:.*.& Z v.m.m.l.v.W Y G S M M M U ^ ( ) ",
"+.+.( W F M M U _ K - ; ; ; , ; ; ; $ w d d s y u d d d d d d y % % q w $.f.G.T.P.P.R.Q.!.^.^.'.^.!.E.R.I.R.f.r % d *.*.:.*.% Z m.C.V.m.b.b.l.z.~ N m N G W ^ O.",
") v.( G A A G / x.K - - - ; ; , , : @ r d d d d d j d d d d t & @ y ~.Y.1.e g t.R./..XXXOXOXOXOXOXOXXX.X^.y.' q $ 5 z *.;.$.% Z ) m.B.m.m.n.l.^ A 3 v b H Q ( ) ",
"+.+.+.~ U S U ) x.R ; - - - ; ; , % % y d d d d d d d d d y % 5 q q.&X&X%X_.3.r ' L..XOXXX.XOXOXXXOXXXR.>.e >.L.g @ w $.;.z % | v.v.m.m.m.z.~ S 2 3 v F | ^ v.( ",
") v.l.^ R B M S ! / 1 , ; ; , , ; : % y d d d d d d d d u % 5 8.d e.[.`.].#X%X`.q.r &.i.<.&.P.I.=.q.<.y >.~.#X#X>.@ % s ;.s 5 +.C.m.x.m.m.c.( U S m M B U X.v.O.",
") +.) Q B S S T z._ N ; ; ; , , , : % y d d d d d d j s q % 8.L.d 3.Y.3.f 1.i._.+X_.q.s ;.r r.>.f f &.U.}.W.K.Y.%.5 % 5 $.e 9 B.C.C.V.m.m.n.l.z.) Q S M M W X./ ",
"v.+.+.W B A F l.c.z.Y , - , ; , ; : $ y d d d d d d d r % ;.P.I.>.s g f r.>.y r 1.i._.].`.p k.5.3.~.U.i.%.e q 1.u w w & y & Z C.Z.C.C.V.m.x.z.z.z.Q M 3 B G E / ",
") +.+.( W S M G ! l.z.S , , - - - + $ w u r u d d j u & k G.P.I.h.d % W.=X%X}.L.3.i r %.%.s /.f.e g t s 3.K.3.% & y u @ $ %  .A.Z.C.C.m.m.M.M.l.G c 2 3 N J Y / ",
") +.+.( ^ Q D m M F / ( M - ; ; - + $ & s r y d d d u % 7.R.P.I.P.k.p i.;X;X;X=X#X).K.z 5 G.OX X=.r U.oX&X@X1.@ @ u y & @ 9 B.A.Z.C.C.m.m.m.c.z.J M 2 3 V P ! / ",
"v.+.+.+.( Q P M A S ^ m./ N ; ; , , : % y u u d d d r @ s G.T.P.P.P.0.y ].:X:X:X>X@X{.g 7.OXOX+XP.i ].:X:X(.q > & u y % % Z n.B.C.C.C.V.m.m.) G m 2 < M D E ^ ) ",
") +.) +.( G S A F ^ b.m.m.l.S < , , , $ & d d d d d r & @ 2.P.P.P.P.!.8.y g.oX*X$X(.#.' /.OXOXXX'.<.' R.F.p 2.d & u w $ 6 E ..o.@.m.m.B.m.M.l.U M 1 3 V P Q ( +.",
") v.v.) ) Q H M A G ( b.m.V.b.U 7 , , 5 $ q d j d f y y q & w.P.T.T.|..Xh.k p f p 5 >.^.OXOXXXE.F./.7.a e k t.q & u & & L ! +.@.N.B.M.m.M.N.z.l.F m v B R ^ ( +.",
"+.+.v.v.( W H F W ~ l.m.m.V.C.C.O.D < , 5 % q u d d s d y % q 0.P.P. XOX XQ.f.-.$.j. XOXOXOXXXk.y.XXXX|.^.^.r.% q & & L o.o.@.b.N.B.C.B.m.l.Q S M c 3 B R ^ ( +.",
"+.+.) ! F F F W z.z.b.z.m.V.C.C.A.M.V , - $ $ q u d d d d y & q 2.P. X^.P.k.G.Q. XOXOXOXOXOXOXXX|. XOXOX+XR.u % @ & ` @.N.N.o.O.+.+.v.B.m./ G v < 1 m V P ! ( +.",
"v.+.+.^ G A A G z.c.l.m.m.m.m.Z.A.B.B , , , - $ % e u d d d y & % ] R.OXOXOXOX+XOXOXOXOXOXOX^.f.y.G.|..Xk.y @ @ w ..S.Z.C.Z.m.@.v.+.O.+.b.b.~ A c 2 M D Y X.O.) ",
") +.+.( U M M A J z.m.m.m.m.C.Z.A.+.1 , < , , , : $ % w y d f s w $ y t.E. XOXOXOXOXOX+XOX.XQ./.XX XT.<.& @ & C N.S.S.A.Z.A.Z.C.V.m.N.v.( ~ U M n v m J Q ( ) v.",
"+.+.+.) ~ D n S Q x.x.N.m.m.m.Z.Z.E , , , , < , < : % % % % q r y e % % w ] t.R.'. X.X.X.X X'.E.u.$.5 $ & 0 X.S.D.S.S.S.A.A.A.Z.C.C.V.m.v.A M c 1 3 B K Q ( +.) ",
"+.+.l.) Q S A F / x.M.@.o.n.m.Z.B.D , , < , < , , < e L.i.#.q % $ % % $ $ @ % q p f ] ] ] l p 5 $ % p t ` V.S.D.D.S.S.S.A.A.Z.Z.C.V.m.m.v.G M c < 3 V P ! ( +.v.",
"v.) v.v. .G A M W z.M.n.) ! +.Z.n.N ; 4 ; < , , , - =.&X&X].e.% & & % % % @ @ @ @ @ @ @ @ @ & w 5 q.oXe...Z.M.S.S.S.S.A.A.A.Z.Z.C.B.B.m.n.U M v 2 v D Y ^ O.) +.",
") +.b.b.v.W S U z.m.+.v.+.O.n.m.+.1 , , , ; , , , - i.=X-XL.q r z z & q r r y d y u y & q d x ;.y q._.q.` S.A.A.S.S.S.S.A.Z.Z.M.C.m.m.n.z.^ A v 2 m J ! O.+.v.) ",
"+.+.) v.~ S S / x.z.o.o./ X.m.m.o.< , , , , - - ; 6 L.}.$Xe.q z $.$.e q u y d *.*.*.x w % x *.:.s %.}.].{ A.D.S.S.S.S.A.A.Z.N.n.n.X./ o.) / F m 7 N J ! +.+.+.+.",
"+.+.+.~ F S M F ) _ o./ E ! v.m.X., , N < , , - - s  X#X].r u z $.*.r q u r d *.$.$.$.w % k *.;.z p oX%X,.v.S.D.S.S.A.A.A.C.n.O.X.E ! o./ F M 2 2 N P T O.v.+.O.",
"+.+.+.^ ~ F S ~ c.z.o./ ..E ! O.! 8 D E , , ; ; = &.$X*Xt.5 z x *.*.r q u r j *.*.*.$.e % s *.z $.r [.*Xr.X.S.S.A.A.A.A.Z.Z.N.+.X.^ X.) l.F n 2 1 N W ..b.v.b.b.",
"v.) +.( R A A G ! c.n.o.o...X.+.n.O.m.P , , , ; - q.+Xg.r y z $.*.*.r q y y x *.*.*.$.e $ r $.$.=.q q.oXg...S.A.S.A.A.A.C.C.B.n.O.O.O.@.z.) S c 3 N E O.b.v.B.b.",
") ) +.^ H S M G _ z.) ) O.) +.N.m.C.Z.E , , , , - u.L.5 % r g $.*.$.w q u z *.*.*.*.$.w @ q $.:.7.d # u.L.| S.S.A.A.A.Z.C.C.B.m.v.X./ l.z.c.U v 2 B E O.+.b.N.+.",
"+.v.+.( ~ F M U z._ ) ) l.l.n.m.m.m.m.+.8 , ; , : >.] : % w 5 w y y q u 5.5.:.;.-.:.;.z } 5.6.d.s.p.t ' 3.| S.S.A.Z.C.A.C.C.C.m.m.) ) ) z.) G M m M P ..+.O.b.+.",
"+.+.+.( G A A G / / ) ) l.l.l.l.m.m.V.V.~ 1 ; , , % , : s G.y.;.z s r t p.s.a.a.a.a.a.s.J.s.} 6.4.z f z 5 O.A.A.A.C.Z.C.C.C.m.m.m.l.l.( l.W M M 2 8 J Q ( +.+.) ",
"+.+.+.( G A A A B G ^ ) ( ) l.l.l.m.m.V.m.N 1 3 , , , : ' !.^.^.'.I.=.& a *.-.[ [ 4.[ } H.H.[ z *.&.% % Z A.A.Z.A.C.C.C.B.B.m.m.l.l.v.l.l.l.S < 7 8 D E ^ +.+.v.",
"+.+.l.^ G B m m M U ) / ~ l.l.l.b.m.m.m.v.Q ) +.N , , - 5 k./.!.^.E.7.& u z &.$.] *.x 6.} 6.H.4.$.;.w % ` A.A.Z.Z.B.n.B.B.m.n.n.l.l.l.) z.c.T M 1 m D Y ^ +.+.+.",
"+.+.) ( ! U B c S ^ ( ( l.l.l.l.l.l.m.m.B.V.C.C.E , , , : p f.P.j.g.s & y j *.*.*.*.j h h t 6.[ $.*.y 9 B.A.Z.Z.C.m.+.+.v.l.v.l.l.) ) ( z.) G M n N G Q ( +.+.) ",
"l.+.+.) ^ Q S M S G ^ ( ( ( l.l.v.v.n.m.m.m.m.C.E , ; < ; $ 5 z d z q w u d *.*.*.*.y q y u e % y y w 9 m.C.C.C.C.B.+.O.( Q X.O._ ) / ) z.l.S c c m D T ^ +.+.+.",
"+.+.+.+.( U A A A U l.) ( ( ( ^ / O.l.b.v.m.m.V.I ; ; ; , $ # : % @ @ & e d $.*.=.z 5 q w q & % % 9 6 % X.Z.C.C.B.m.n.O.Q Q ! / / ) z.x.c.z.G v 2 3 D E ^ +.+.v.",
"v.+.v.) ( J M M A U ) ) ) ) ( ^ Q ^ l.+./ v.m.m.+.P B B N 0 8 D 0 % % @ % q r g k w % @ $ % $ $ q +.v.| X.B.B.m.m.m.m.O. .Q X./ / _ _ ( ) F M M v 3 V E / +.+.+.",
") +.+.+.) ~ A A M A T l.) ) ( ^ ! Q ( O.( v.N.m.m.+...O.X.E E O.` % & % & & & % % 5 % & & q w q 5 O.C.m.m.v.n.m.m.m.n.+./ X./ / ) z.T S S M M c 2 3 L E ( ) +.+.",
"+.+.+.+.+.W M M M M S T l.( ^ ^ ! ^ / / l.l.l.b.l.l.v.b.^ Q X.o.L % q q t u t & 9 L & & w t y w @ ` B.O./ O.O.n.z.b.l.l.l.( / ) / ) ~ M c 2 c 2 3 m D E / +.) +.",
"+.+.+.+.+.^ G m c M M Q x.) / / / / ( / ( l.l.l.l.l.m.l.^ / o.o.I 6 & & & & & & 0  .6 5 5 5 6 6 9 | n.! E ..o.o.l.l.l.l.( ) ) ^ A U T M c 2 < 2 N B K ! ( +.v.+.",
"+.+.+.+.+.O.^ D v c A ^ ^ z.) _ ) ) ( ( ( l.l.l.l.l.m.b.@.o.m.@.+.+.O.! E  .` ..o.@.@.o.O.X.O.) n.m.) Q ! o.o.o.l.l.l.) ( ~ ^ ^ A M m v c 7 m B D J W ! ) +.+.) ",
") +.+.+.+.+./ Y S m M A G x.) _ ) ) l.( ) ( ) ) l.l.l.b.@.+.m.n.n.m.m.m.m.m.n.M.m.m.m.m.m.m.m.m.m.N.+.! o.+.z.n.l.) ) l.) W A F M v < 2 2 8 N G W Q ^ ( O.+.) v.",
"+.+.) v.+.) +.^ F M m v F ! S ^ c.z.c.x.z.) _ ) l.l.l.l.v.n.x.n.l.m.m.M.m.m.z.m.M.M.m.m.m.n.b.m.z.c.c./ o._ z.! l.l.^ G G F M M M v < 1 3 N D R ! ( +.+.) v.+.+.",
"+.) v.) +.+.+.^ F S m M M M M ^ ^ U z.) z.c.x.z.) ^ ~ T ) ) Y ^ z.z.z.^ ) M.v.m.n.M.M.m.z.) ~ b.l.( x.c./ @.! N U z.T M M M n n 2 2 1 N S J P ! ( ) +.+.+.+.+.) ",
"v.) +.+.v.+.+.( ~ Y M m 2 2 M M M M F G ) T ^ _ U S F G / Y M S x.c.T n G z.c.z.K / x.n.l.G F l.( S G ( Y / U M n W U M c c 2 2 < 2 3 B L Y ! ^ ( +.) v.) v.+.v.",
"+.+.+.+.) +.+.+.l.~ V V B c m 3 c m v A S M S D M n c G Y M m M ~ ~ M v M ^ c.~ N S T x.Q M A ~ U n m M M S S c < 2 M n 2 < 7 7 1 v V P T / / ) +.+.+.+.+.) +.+.",
"+.) +.) ( v.v.b.v.v.Q | H m m 7 2 1 n n n n M 2 c c 2 M m < < n M M 2 2 2 F / F 2 c D / F n 2 B A c 2 2 v c v 2 < 3 m M 8 8 N N B D P T ^ O.) ) +.+.+.+.+.+.+.+.",
"+.v.) v.v.+.( b.b.O.O.^ Y G D V N m n 8 2 2 2 1 2 2 v m 2 3 c v n n 7 1 2 M S v 2 1 m S M 2 < m M c < < 1 3 c 2 3 N D M m B D H W Q ^ / ( ) +.v.+.+.+.+.+.+.+.+.",
"+.+.+.v.+.+.O.v.v.v.O.O.^ Q W U U D N B M 8 m N N b m m N N B B n 2 M M B m M 1 1 v m M n 2 8 8 M 1 m B B B N M V D R P H L R Q ^ / ( +.) v.) v.v.+.O.) v.+.+.+.",
"+.+.+.) ) v.) ) O.O.O.v.+.( ^ ^ ^ Q E K J D D D G P G D D J U U | D L W R D m M N V F M c 8 N B m B B D P E P P P Q Q X.! T Q ^ ( O.+.+.+.) v.l.) ) ) b.+.+.+.+.",
"v.) ) +.+.+.) v.v.O.+.+.+.+.( O.O./ ^ Q Q T Q Q T ^ Q Q E Y ! ! X. . ...^  .D D D P Y J V V D P P J H Y ! ^ ! ! ^ / ( ( ( / ( O.+.+.+.+.+.v.v.b.b.) v.b.O.v.+.+.",
"+.+.v.+.+.+.+.) +.+.+.+.+.+.+.) ) +.) O.( ( o./ O.O.( ^ ^ / ( X.O.O.O.O.O.v.Q W R ! ^ ! Y R Y ! ! T Q Q / O.) ( ) O.+.) O.+.) +.) +.+.) +.) +.v.B.v.b.b.b.v.+.+.",
"+.) v.+.l.+.+.v.v.+.+.+.) +.+.v.) v.+.+.+.+.) +.) +.+.) ( ) +.+.O.v.O.+.v.O.^ ^ ^ / ) / ^ Q ^ ( ( / / ( +.) +.+.+.+.+.+.+.) +.+.v.) +.v.) ) +.+.b.v.b.b.b.v.O.+.",
") v.) +.+.+.+.+.+.+.+.+.v.) v.( +.) v.) +.+.+.+.+.+.+.+.+.+.+.+.+.+.v.+.+.v.) O.( +.) ) O.( ( +.) ) +.+.+.+.+.+.+.+.+.+.) v.v.) ) v.+.+.v.O.+.+.+.v.O.N.+.+.v.+."
};
