/* XPM */
static char *dummy[]={
"25 25 18 1",
". c None",
"l c None",
"n c None",
"k c None",
"b c None",
"i c None",
"j c None",
"p c #000000",
"o c #001236",
"m c #1b4baa",
"d c #304dbc",
"e c #550013",
"# c #5b442b",
"g c #793025",
"c c #aa7550",
"h c #b03320",
"a c #cf8e5f",
"f c #ffffff",
".........................",
"..........#####..........",
".........#######.........",
".........a######.........",
".........aa#####.........",
"........bcaaaaaa.........",
"........bcdaaaaa.........",
"........bccaaaaa.........",
"........bceeaaaf.........",
"........bbccaa...........",
"....bb.....gghi.i...jj...",
"...bbbbb...gghi.ijjjjjj..",
"....bb.....hghi.i...jj...",
"...........hchi..........",
"...........hchi..........",
"..........kccci..........",
"..........lcccl..........",
"...........mcmn..........",
"...........mmmn..........",
"...........mmmn..........",
"...........mmmn..........",
"...........mmmn..........",
"...........ooo...........",
"...........ppp...........",
"...........ppp..........."};
