/* XPM */
static char *sand[] = {
/* columns rows colors chars-per-pixel */
"80 80 45 1 ",
"  c #AEAA8F",
". c #AEAA92",
"X c #B2AE93",
"o c #B6B296",
"O c #B9B497",
"+ c #B7B399",
"@ c #BAB69B",
"# c #BEBA9D",
"$ c #BBB7A0",
"% c #BFBBA1",
"& c #C1BD9E",
"* c #C2BEA2",
"= c #C5C09F",
"- c #C6C1A4",
"; c #C9C5A6",
": c #CDC8A7",
"> c #C7C3A8",
", c #CAC6A9",
"< c #CEC9AB",
"1 c #D0CBA6",
"2 c #D1CDAD",
"3 c #D5D0AF",
"4 c #D8D3AF",
"5 c #CFCBB0",
"6 c #D2CEB1",
"7 c #D6D1B3",
"8 c #D9D5B5",
"9 c #DDD9B6",
"0 c #D7D3B9",
"q c #DAD6B9",
"w c #DED9BA",
"e c #E0DBB6",
"r c #E1DDBD",
"t c #E5E1BE",
"y c #DFDBC0",
"u c #E2DEC1",
"i c #E5E1C2",
"p c #E9E5C4",
"a c #EDE9C6",
"s c #E6E3C9",
"d c #EAE6C9",
"f c #EDE9CA",
"g c #F0EDCE",
"h c #F2EED0",
"j c #F3F0D2",
/* pixels */
"7qqq99r9928;&-828e8:qe6:6<7q025*,<u6*6**;<227ee70:2**2ur7ur,it8,-<wuwwi9iefr8q86",
"78qq44rr94,;&22:q7:57q<,*62q7:,<:77<*6;*77276q862*,26r0:<e28r0**<88riw8rwrq26722",
"2<<68890,6,>;-:2r766*;6<8q6772,26,6676<63:;:0876*&;62,,6wy742**2iwttuw7862828u;7",
"6<:24882298;2qiiu5e727ewwq7<77e6600q820r028688q<,6u62676wwu6;2e8w288wuiqq842w208",
"2,689pq6qw6;qiirq6q7r9rrer879e7,096827792:0eee6<6u0<urerqq72rw026887896:uw277267",
"-;wwrw2<66<q99q;*6:608u8227066:,712;;:;:*,ruy<*;666666q;,2,06<6<:<;<<<,<76<#-;*<",
"208777<;6qq260q6,66rree8082667e629:22:<6r8666*&*qe96q90>>-290q667<;-208;682:<,,2",
"7w:62<-20r;@2<;**760ur72e0*1,:<7718,&2:2r0,,<**q8q<<q32&+,eriq,68;>;-772662--7<<",
"7:*,>26e97<>6*7q:6<8uq;21661:22<8660687rr2****<w2;*;4<->,68pp,&<<<,622<;:22,2067",
"r272<766-;;666r7&>28r7222,,2<5<<9r07208ra886,267-*,287-*#eiir<;;<<-672<798<<-;<8",
"722*6666--2;2762*;60q8q32**<***,32,-<q8262:>666<22766;-*0tate62:75-<727882,-;777",
"**&*,,66822;<*&;*<6672286:*,**,,:-@*<32,>*#**,:8wwwq<<<wptpr87,62-;8w7880<*-<76:",
";*;2q99e2,2*#>>*&**,22;,,;2<*O&#***22;*****288up88e2222:w82,6;-;<2sdqq0<7;606<<;",
"rerrree28e0-;<2-*$*676,7<**X+#*>,00::2;>227ee2rrupr2208;02622*,8w782298wrupq6r62",
"828e6228412;>2<;*,5,70565*+X&;72236606*>,*<7,*-7w722227:82<;22896;*<42rrww88q6;:",
"2:<;;;:e22*:->26<6reqr66***5066,*;822<*,<**&,*:e76;<6,628w98q086<-,86q<0662&*-:6",
"**<<68ee7:***;2663ueuue2&;2q66:**6r6,*<2er822:9eq6>*-<2777089447:792;<262w;-0678",
"&;2e7q6,6*&*&*66<*:2e8;22:262,*,6rr<&*,288;<7;*;<>*>*-6<;**<2-<60q6:>;;6822qyu6*",
"4re8r6>2,&;,@&,,:67807,,>*28,**;88<**2e76<****&&&*6<#*;,--;<;5776,<66>,>;6;**<><",
"pq81:*,;**<$*27e8rree6*&&*>,**<682:16eu0<*<:*;:2;-0*><47<72:>56<><,5**2<<>*6;9qe",
"<<::2;2;<6*&0upeerq655***>:**:7221r<5q6**67<73338<;*0wirw87;67;*;,,,<26<6<9<2088",
"76*;*;;:,*>67uu2:0<*<***&:77078827<*00*;77<227778<-6qrw6<72-7r60668wu62<20:-<2*>",
",@&**&**#*,77qe283***o**23ue66006<<7e6&;6,666222<->6788748;26<66rre9<*62:2&0q;*2",
"*****&&&66e2qee7r**,***0erqqrrq2<6ue766q<<0,<5<67q7<6888w708<<76qe6,,6q<<8e98296",
"6*&*,6*2e862uer7***+&**7upr7qe6*68rw50081:<;:<666u22u80r0267<;<8091;086-7ipu<86,",
",;88866832,8766**@.oX&<7eq88<&$,<87**6&&;,6;,,*5266028q6;2;<*>6<<:,02&;,0uw;;2*-",
"86e7qq800qe77:,**+o&,;78083:;***68,;,:;;721266<620e880692<2<2<76227<:,2:qr7;<;;<",
"rr87ee372866,,<$o**5duuupe,&*,&;62;@;2:rrr83r6::126q720<2w6;0w7692,**,2226<$*;,6",
"u83q38ee72*;**&*,2*2pr6er7*>>*,;---:486rp9288388euq2-;6880*<rw268;**,:2;-;*-2228",
"r88627<6,&@&**@,7<*8u2776,+*>,0>=242608ru626287we70><6662,-8r2,,:;-2722-2656-68e",
"84q68,&&&o@***,2e65025,*q<<<:2228er09rre812,42270:,*,26*<<22<;;<72890221wr0<209u",
"1355,@.o+**,*&*35,05*<287,,08222280r8006,2*&&&;2;>636>*;<;2:;2,w082qr08008284727",
"1%###+#;;=-%%%0q2<<<qw3255ii2-;<:202-*$#*+@OO&07&:7;;*6822,2898243wi4<7;,23<;;&*",
"<@o##*7<<:-,<ui7<,wpd4&-4pw=-#%2euq>*@@@*+@**,7;32;,0ri3666rd08828i<<<;,8w6<-&-#",
"#*;,#1-*;,<9w9<063ai7;,022%oXX:30:;*&-,>><896<**,*,9ueq6;6qeq<23:;&@%##<77<<--<&",
"1,;,75<7<<,71;<erru3-*506<--O;<7,@&*2uuerr983628226r02;<2984<22682<<<3<98<;<89w<",
"<<<,56713,45,4sae37=,qw6-,*,:792<2ipauueupq429eerruw6>600216quq67;,2478007tr077;",
"<,,<76,**%*1qfg0,;#*06-***#;:=3uepgdeq278728ee8;80666rw6>;&7w6**5;,<<<;w09i7<;*#",
",;,5,;;,*#7qpi7-#-<qq<<<::<499ta8eqe6q0212,0080766qr66*,*6072<;278qi2;78<2<*-<,-",
";,5<-,;<49uyq7*,-3eu07qq349u99tw0e9pwer912,66662:7rw6**62up620uq<7wq628;;--;-766",
",37<9we9w0q47,q;7q979yq370w4tttq8tfe29r2<72:70rq8282;&2e9u0:6e0*<787766*;<w6;:;<",
";7797wew3,3-,<130w27y41-<wwrt93u99e6<66-221-;wq6022*O-;0e8;8762,584702<6<76-*;-*",
"<,17wy4<#;3,7<3qu974q1329itt9q792<2226->-;-*;22*&&*#&*;rpr66**16wwrr26<<,,;-<<*-",
"25039q7>;9r270wwr4sswwt87w799tw2267<6;<6*<;-,62&;26**:rre0q12687777788q<,62-2:27",
"q74ur91<4i<<wdiy4qsw9w907730wi7*7826,*&*;-*227:-26-*84dd79627<;>66268q6*62<2;;,6",
"20iq8:--22<89y0;<40wq41#-,-;<5--;,;@+#@#@#2266;-,*;00qr766622,:;--;52;;;<<,#>--7",
"ii927-+;quw0qw77748ey<-@-<=;<57-:<,;;**;2:22<-&-6990ef92,,626>**<4<;22<;722,<0w8",
"tu5,,+-4wy7,,7<-,ywiy3*--,<,;,<<<62->;><76:,;--2ur489r6>*8<:66*6808202;<<<727pw8",
"9<#%#-qu7,-@*5228r9q9;@*;<;67765672>,82822*,<<6rr966986028628<567qww<<<2<722q929",
"w<;*;707*#-*<i93279eq***>;;7<2<6q86>*,,ee2q8,72q06q9ei02;269ewrw8udq27q<wu6:5628",
",>#%76,-*%,,<471wiurq<**72;<2<<8q2<*;276122:0:667098r8,:208euuw0i7;2<42,<66@,5<<",
"$+X-,6,23-,<70qrrrwq02;,--;27<976<*><7q02<*;622qre92862022420w7q6-&*--;;;-o+*<<>",
"@$-7q794;;3:;79uw66625,;;<ww278:2><076622,2e97ed9682,26;****<;><,,>#X#;;;*-;,,*+",
"0uutiw0,qw7279q94,<;5*><<77<27<73eq,88973rque0q26rq;26,#*#**2**;;%* #2<<68q;;6<,",
"uq9476-,q120w9ww76<-5-,2*>><42w7232;*,0:18986<**402;;2-***#*<><5%#X+760<;65567,6",
"u32<-*,76q709uitwwq62;**-%;0,76<2;@X&-026,*#*#;:;>&*,>;<-52,<<;-@.*y77;>>;55786q",
"ddeq139uuw06qrte046;*O*;<206;,<*1;*:8rr8;**<22675*$#*-6727:;0w82-6u76;;>-,0q228r",
"w0<77,,9977q0q97>*#-#*226w6<-;;6828826,,-<222-O--*%*+*72*#+*62;<qiw66->*>892-;<8",
"<;*;-*3q37q4<,,,***;;2u0w026,;6,22*++&2;:<;#OX@--*<;#,2-#$*282<,2r70<%%*79<><288",
"<,,;;qyw7qe2<:<<-<2;,260676<-*6,,**-&20;#*#%@*::*;6>;262@;90q6;;=2--##;wr06w2ui0",
"<028uye9w476,<u2,;<;:<*-226,:,22;-r26q2#*<;>22822;&;;;w2648<76-*;,-O-7ir9rp88t8;",
"00-:<74q4;-,*;7:;2,;<0<>,888066728;-22*&27,2<7666;*;>2wq282-7<>,,<60uui90r6;08<5",
"*-,-<,1<%@&*@%1,29-:;-,<9q8:>;;-,2>60:;2,#*<0665,--**2rqew**;**-6rsi78q222;68,*<",
";,,;,,,#*-,%%<w76277;:26248>;26;,6w82;6;*-:,6;20766;7gfue626,6<6wtiqeru<67806>22",
"<,,616<;<;-+,qwwq<72;,77qq;-<7,-2rw8;2<-<<;<702428<<iaaf0<>,>;24rde7r2<><qr0<6;-",
"@#90<3,<,->-,37533----q3:-#-;*>-<86**;#*-<227622<:2uriw<;*#%%>0eeu096&*&:22#%>**",
"-3q7772,7wiquq3w93;=-:6<<:,>--,;28<-<;<088627q6q77dppr82&##*,7rriiq<--**60,*;**;",
"rr4yq3337wwq77q7<0;-3763w47-%,;,22,*;7<quu92eq787weuw6<**-@*uiurfe,*###-*5;@*<;0",
"i4174qqyq903-:3703-,0<><<<;&-27726;<7628w0;28wuerrq5-*@#*-&2ftr9w6>%**-%***,022r",
"d721<q043,-,-7:7,,%77-5<-,#232766q90;2799222798wrq6*#@o@*22wt80<;;%***<*;q0e677e",
"y33<4<,,,-#-7w7<<,<7<,->6<q9<q078q8<<78q87q7r2<26-*##**;20ww82;*625<;;229pe0rr9r",
"32=,,##,-*,377-;767<;<,qq7779qqq62,2626889662&#&-$#%**;qwqu62:,26<*6wwrr899ee80w",
";-#*-,,2#-;,=#094<<-<73007id976;222;62,<2>*---;-#%*#*>upuq6<2;*-,>qrqwr8278<--*;",
"7%%7<2<-<<,--9t4:--4w3<973u7<5-<eie7<-;:7-#--&-o>5**2phu92706>%>;5w622<;qu0,*$%-",
"5;<w40<=--;3wu4:,&-7<<70<4<&*#-38806,28--&,;-# @**6wdau0,-;;>**-&;>*>&;6q2*&#*;>",
"040q0723<279w7--<<7<>-,<q7,;>2<w0<2<wir82-;-%#&2<8rpiq;,>;<*%**>q627626y6*@*6676",
"9w2760qqqqw3<7q772;-<q03<-<3374077re8q7<26;;,7wrert81,q0,,,--<7wq22282wq,-226wwq",
"w2-7u3<52<,:7ti,&-=<<>#---*<5-,9664<&#*>=;*;wuw7q0:-28q>+*%;:<<60;-6:*5,&28227;<",
":;<3<<<2<,727:-%*778,--7777u7;37;;**@*--&&-;677w877,,,@+*,<q688462,w2<67*082,702",
"1,17;<<576q<2-#67r97<7w0<777;27<,;=;#;;;-*<6<774:6q:;%#6-6wrw8e9<6<q8quq0r982t92"
};
