/* XPM */
static char *silver_door[] = {
/* columns rows colors chars-per-pixel */
"80 80 199 2 ",
"   c #000000",
".  c #080A0A",
"X  c #0F1112",
"o  c #131617",
"O  c #3E291C",
"+  c #3A261B",
"@  c #1C2123",
"#  c #272D30",
"$  c #31393D",
"%  c #442F21",
"&  c #4C3323",
"*  c #493A2F",
"=  c #453328",
"-  c #503728",
";  c #533A2B",
":  c #5A3E2C",
">  c #513626",
",  c #4A3B30",
"<  c #553F32",
"1  c #5E402E",
"2  c #4C4038",
"3  c #5D4334",
"4  c #5E493D",
"5  c #53443B",
"6  c #62422E",
"7  c #644532",
"8  c #664836",
"9  c #664B3A",
"0  c #694C3A",
"q  c #3B4449",
"w  c #534A42",
"e  c #5D5B59",
"r  c #5B524B",
"t  c #6C5343",
"y  c #685548",
"u  c #705747",
"i  c #735C4D",
"p  c #615B56",
"a  c #725E51",
"s  c #64625F",
"d  c #6F625A",
"f  c #746256",
"g  c #73645A",
"h  c #7A6659",
"j  c #7D685B",
"k  c #5B6367",
"l  c #5D6D73",
"z  c #686967",
"x  c #7C6C62",
"c  c #756B64",
"v  c #7F7167",
"b  c #7A716A",
"n  c #6A777B",
"m  c #7A7977",
"M  c #806F63",
"N  c #83756C",
"B  c #88786E",
"V  c #857B73",
"C  c #857E79",
"Z  c #8D827B",
"A  c #83807C",
"S  c #91867D",
"D  c #6A7C83",
"F  c #788A92",
"G  c #7D919A",
"H  c #71848C",
"J  c #898987",
"K  c #968C85",
"L  c #938E8A",
"P  c #98918B",
"I  c #869296",
"U  c #8B999E",
"Y  c #899497",
"T  c #9A9693",
"R  c #9A9B9A",
"E  c #969795",
"W  c #A29C98",
"Q  c #BBB79B",
"!  c #BDBA9E",
"~  c #B7B399",
"^  c #8399A4",
"/  c #879EA9",
"(  c #8DA3AC",
")  c #91A4AB",
"_  c #9EA6A9",
"`  c #9EA2A2",
"'  c #8CA7B3",
"]  c #8DABB9",
"[  c #92AAB4",
"{  c #95AEB9",
"}  c #99B3BE",
"|  c #A4ABAE",
" . c #ADAEAC",
".. c #A6A5A3",
"X. c #BCBAA3",
"o. c #A4ADB0",
"O. c #AAB5BA",
"+. c #A9B4BA",
"@. c #B4B7B8",
"#. c #B4BABC",
"$. c #B8BDBE",
"%. c #C1BD9E",
"&. c #C2BEA2",
"*. c #BAC1BB",
"=. c #BEC1B3",
"-. c #C6C1A4",
";. c #C9C5A6",
":. c #CDC9A6",
">. c #C5C2AA",
",. c #CAC6A9",
"<. c #CEC9AC",
"1. c #D2CDAE",
"2. c #D6D1AF",
"3. c #D8D3AE",
"4. c #C5C7B6",
"5. c #C5C8B6",
"6. c #CCCAB2",
"7. c #C5CABD",
"8. c #CACDBC",
"9. c #D2CEB1",
"0. c #D0CFB8",
"q. c #CDD1BE",
"w. c #D6D1B3",
"e. c #D9D5B5",
"r. c #DED9B6",
"t. c #D4D3BB",
"y. c #DAD6B9",
"u. c #DED9BB",
"i. c #E1DDBD",
"p. c #E5E0BF",
"a. c #9CB9C6",
"s. c #9CBDCC",
"d. c #95B4C3",
"f. c #A3BCC6",
"g. c #AEBBC0",
"h. c #A3BECA",
"j. c #B0BFC6",
"k. c #9FC0CF",
"l. c #9FC1D1",
"z. c #B4C1C5",
"x. c #BBC4C3",
"c. c #B4C4CA",
"v. c #BCC9CD",
"b. c #BBC7C8",
"n. c #A1C3D4",
"m. c #ADCAD6",
"M. c #BCCDD4",
"N. c #B0CEDA",
"B. c #B4D1DD",
"V. c #A4C0CC",
"C. c #BBD6E1",
"Z. c #BCDCE9",
"A. c #B9D8E5",
"S. c #BEE0EE",
"D. c #C2CBCE",
"F. c #C1C8C5",
"G. c #CDD2C3",
"H. c #CAD2CB",
"J. c #D2D5C4",
"K. c #DCDBC4",
"L. c #D1D7CB",
"P. c #DCDECB",
"I. c #D4D9CB",
"U. c #C5D0D4",
"Y. c #CCD7D3",
"T. c #C3D4DC",
"R. c #CBD9DE",
"E. c #C8D3D8",
"W. c #D4DDD5",
"Q. c #D4DEDA",
"!. c #E2DEC1",
"~. c #DEE1CC",
"^. c #DDE1D2",
"/. c #D6E1DB",
"(. c #DAE4DD",
"). c #E5E2C3",
"_. c #E8E4C5",
"`. c #E9E5C8",
"'. c #E0E4D4",
"]. c #C6D8E0",
"[. c #CBDDE5",
"{. c #CDDFE8",
"}. c #D0DFE3",
"|. c #CFE1E9",
" X c #C1E1EF",
".X c #D2E1E4",
"XX c #D9E6E3",
"oX c #D3E5EC",
"OX c #D9E7E9",
"+X c #D9E9EC",
"@X c #D9E8EA",
"#X c #C5E6F4",
"$X c #C7E8F6",
"%X c #C8E9F8",
"&X c #D4E7F0",
"*X c #D6E9F1",
"=X c #DBEEF7",
"-X c #DCEFF8",
";X c #DDF0F9",
/* pixels */
"w.y.y.y.r.r.i.3.r.1.2.;.%.&.w.1.2.i.i.,.e.i.2.<.9.<.9.y.e.1.6.&.,.1.i.9.&.6.&.&.,.<.1.9.w.i.i.w.w.<.<.&.&.<.!.!.w.i.i.<.!.!.w.,.>.1.u.i.i.i.!.r.!.i.).i.e.r.e.1.",
"w.e.y.y.2.e.p.i.i.w.1.,.-.1.1.:.e.2.;.1.2.e.1.&.&.2.9.y.2.<.,.<.<.9.y.&.&.9.&.&.2.w.1.9.9.e.e.w.9.&.,.1.9.i.e.<.,.i.1.e.!.e.&.&.,.r.w.i.).r.r.u.i.!.i.1.9.9.9.6.",
"1.<.<.9.y.w.r.w.,.1.<.-.>.&.:.1.i.t.1.1.&.&.w.<.y.y.9.w.w.<.,.1.6.&.w.9.w.2.1.w.2.:.&.<.y.w.e.9.&.%.&.w.1.<.,.9.y.!.w.2.9.&.%.1.i.i.i.).i.u.9.e.9.1.e.1.e.!.,.9.",
"1.<.,.1.2.e.e.9.1.e.w.,.9.e._._.i.<.i.w.1.2.i.i.i.y.w.<.w.1.i.9.e.t.y.i.y.1.e.i.2.1.i.1.w.e.y.,.,.1.!.w.<.9.t.9.i.y.!.2.&.1.i.e.u.2.w.e.u.!._.y.y.e.9.1.u.9.e.r.",
"1.,.9.e.r._.y.9.y.r.9.;.r.!.).i.t.2.w.w.i.e.i.i.y.i.y.2.y.i.w.,.e.y.w.e.1.2.2.e.1.<.2.i.i.i.9.<.9.!.y.,.!.i.i.i.y.i.2.<.!.i.w.9.1.e.e.w.e.r.9.,.!.r.1.e.1.1.9.w.",
"-.,.u.r.!.u.1.1.9.1.<.y.r.e.i.-.>.9.<.w.e.e.!.e.1.1.w.w.9.<.,.,.9.9.t.0.8.J.J.I.8.8.~.^.!.t.&.&.1.1.9.w.9.9.i.&.&.<.,.w.9.<.w.<.<.<.:.:.<.1.,.<.w.9.1.Q &.,.-.,.",
"1.w.w.e.w.w.<.-.9.r.u.<.9.y.y.9.,.9.t.y.i.i.i.e.2.w.9.9.9.y.!.W.Q.}.OX+X*X=X=X=X-X=X-X=X*X}.}.Q.Q.!.i.9.t.y.e.,.&.&.1.i.e.y.9.6.9.<.,.-.1.w.w.:.9.e.<.1.1.,.,.1.",
"w.i.<.1.1.,.-.9.e.i.,.Q 6.,.,.&.&.9.9.y.!.r.w.9.i.y.,.J.Q.OX=X-X=X;X=X=X=X=X=X=X=X-X-X-X;X;X-X-X-X-XOXQ.~.w.<.%.~ 9.i.!.!.e.<.1.e.;.>.,.-.9.9.1.9.9.1.&.&.9.,.1.",
"9.,.&.-.,.,.1.i.e.w.,.-.w.%.e.r.<.1.1.e.!.y.;.9.P.Q.oX*X-X-X=X=X=X=X=X;X=X=X=X=X=X=X-X=X=X=X=X=X=X=X-X-X*XOXL.8.6.2.y._.!.<.&.<.<.<.6.9.9.9.1.;.:.1.1.,.9.e.6.w.",
"i.1.e.9.1.e.1.w.-.&.,.9.9.9.i.9.%.&.1.e.i.t.K.}.=X-X-X=X=X=X=X-X=X=X=X=X-X=X=X-X=X=X=X=X-X=X=X=X=X=X=X=X-X-X-X=XR.P.!.`.!.<.;.;.<.<.-.<.9.1.1.9.r.w.<.<.&.:.<.r.",
"e.<.9.&.9.1.1.9.,.-.9.,.1.9.9.<.&.<.9.r.~.XX=X=X=X=X=X-X=X-X=X=X=X=X=X=X=X=X-X-X=X=X=X=X=X=X=X-X-X=X=X=X-X-X-X=X=X=XXX!.i.9.:.:.w.<.-.<.w.1.2.y.r.1.,.-.,.9.w.w.",
"-.&.! &.,.,.:.2.y.,.9.-.<.>.&.-.&.,.J.Q.=X-X=X=X=X=X=X=X=X=X=X=X=X=X=X=X-X-X-X-X=X=X=X-X=X=X=X=X=X=X=X=X-X=X=X=X=X=X=X*XQ.t.<.w.1.-.,.y.u.w.r.e.e.<.&.>.<.w.9.:.",
"-.-.-.:.e.r.e.i.1.,.9.&.%.>.-.&.&.Y.+X-X-X=X=X=X=X=X=X=X=X=X-X=X=X;X;X-X-X-X-X-X-X-X;X;X-X-X-X=X=X=X=X=X=X=X=X=X-X=X=X-X=X}.8.>.1.1.`.`.y.u.e.<.w.,.9.y.9.1.<.-.",
"i.i.i.i.i.i.i.1.3.i.e.&.,.,.<.6.W.*X-X-X=X=X=X-X=X=X-X=X=X-X-X=X=X*X{.{.{.{.].].[.[.{.&X*X-X=X-X-X=X=X=X=X=X-X=X=X=X=X=X=X=X*XY.t.9.e.<.<.r.w.r.u.!._.y.9.u.9.1.",
"3.1.e.i.w.1.1.1.3.1.1.:.,.9.J.+X-X=X=X=X=X-X=X=X=X-X=X-X*X*X{.T.j. .R K B M c a c M M C P ..j.}.*X-X-X-X-X-X=X=X=X=X=X=X=X=X=X=XQ.4.&.<.w.9.!.!.r.u.e.e.r.9.:.,.",
"1.:.:.;.:.&.1.i.1.<.&.-.-.J.*X-X=X=X-X=X=X=X=X=X-X-X&X[.U.O.E V i 0 8 8 6 6 - - 1 6 7 6 7 8 0 a J  .U.*X-X-X=X-X=X=X=X=X=X=X=X=X=X[.7.e.9.y.,.y.9.9.9.! &.-.,.w.",
"-.-.1.<.1.e.r.r.w.<.%.&.H.=X=X=X=X=X-X=X=X=X=X=XoXT.j.R V i 8 6 7 6 7 7 7 7 ; > 7 7 7 7 7 7 7 7 6 8 i S @.}.-X-X-X-X=X=X=X-X=X=X=X*XoX8.;.<.2.6.1.y.>.-.w.w.w.w.",
"%.-.1.r.w.r.w.,.9.&.%.L.=X=X=X=X=X-X=X=X-X=X{.T.g.T h 7 7 6 7 7 8 7 7 7 7 7 ; ; 7 7 7 7 7 7 7 7 7 6 6 7 0 M  .}.-X-X-X=X=X=X=X=X=X;X=X[.7.-.;.1.e.2.1.e.K.!.<.-.",
"3.i.i.3.i.1.>.1.,.Q J.*X=X=X=X=X=X=X-X-X*X[.j.R a 0 6 7 7 7 7 7 6 8 7 7 7 7 ; > 6 7 7 7 7 7 7 7 8 7 7 7 7 6 0 M @.oX-X-X=X=X=X-X=X=X=X=X[.=.,.,.:.6.;.-.>.,.;.,.",
").u.w.1.:.-.,.-.&.G.*X-X=X=X=X=X=X=X=XoXM.o.B 0 7 7 7 7 7 7 7 7 7 6 7 7 7 7 ; > 7 7 7 7 7 7 7 7 7 7 7 7 7 7 7 6 t K E.-X-X=X=X=X=X=X=X=X*XR.5.<.<.>.&.9.;.e.y.i.",
"<.1.,.,.1.-.1.:.J.+X-X=X=X=X=X-X-X*X{.c.R a 6 7 7 7 7 7 7 7 7 7 8 7 7 7 7 6 : ; 6 7 7 7 7 7 7 7 7 7 7 7 7 7 7 7 6 7 M g.=X=X-X-X=X=X=X=X;X*XU.6.<.<.e.1.<.y.e.w.",
"9.1.&.,.&.-.;.9.}.-X-X-X-X=X=X-X=X[.j.K t 6 7 7 8 7 7 7 7 7 7 7 6 7 6 8 6 8 ; > 6 7 7 7 7 7 7 7 7 7 7 7 7 7 7 7 7 6 6 u ..oX-X-X=X=X=X=X=X-XoXb.<.e.;.-.<.1.&.;.",
",.Q %.&.&.%.&.Q.=X-X=X=X=X=X-X=X].g.V 8 7 7 7 7 7 7 7 7 7 7 7 7 6 8 7 7 7 7 ; ; 7 7 7 7 7 7 7 7 7 7 7 7 7 7 7 7 7 7 7 6 8 W oX=X=X=X=X=X-X=X=X{.*.<.-.w.u.<.-.1.",
"&.&.&.&.&.&.8.=X=X=X=X-X=X=X*X].O.N 8 7 7 7 7 7 7 7 7 7 7 7 7 7 7 7 7 7 6 6 ; ; 7 7 7 7 7 7 7 7 7 7 7 7 7 7 7 7 7 7 7 7 6 0 P }.;X=X-X=X=X=X=X=XT.q.i.r.w.<.e.w.",
"9.&.&.&.<.w.OX=X=X=X=X=X-X-X].g.N 7 7 7 7 7 7 7 7 7 7 7 7 7 7 8 7 7 6 8 6 6 ; ; 7 7 7 7 7 7 7 7 7 7 7 7 7 7 7 7 7 7 7 7 7 7 8 K *X;X=X=X=X=X=X;XoXU.).i.1.w.9.,.",
":.-.r.w.e.(.=X=X=X=X=X-X-X{.j.C 8 7 7 7 7 7 7 7 7 7 7 7 7 7 7 7 7 7 8 6 8 6 ; ; 7 7 7 7 7 7 7 7 7 7 7 7 8 7 7 7 7 7 7 7 7 7 7 0 W =X-X=X=X=X=X=X-X].8.-.-.1.&.>.",
"e.9.r.9.K.=X=X-X=X=X=X-X{.c.L 0 7 7 7 7 7 7 7 7 7 7 7 7 7 7 7 7 8 8 6 8 8 6 ; ; 7 7 7 7 7 7 7 7 7 7 7 7 7 7 7 7 7 7 7 7 7 7 7 7 0  .=X;X=X-X=X=X-X*XD.4.1.-.-.<.",
"i.i.e.e.XX-X=X=X=X=X=X*XM.` t 6 7 7 7 7 7 7 7 7 7 7 7 7 7 7 7 7 6 6 8 6 6 6 ; > 7 7 7 7 7 7 7 7 7 7 7 7 7 7 7 7 7 7 7 7 7 7 7 7 7 i D.;X=X=X=X=X-X-X].*.&.:.;.2.",
"!.e.1.P.=X=X=X=X-X=X=X].+.a 7 7 7 7 7 7 8 7 7 7 7 7 7 7 7 7 7 7 7 7 7 7 7 6 ; ; 6 7 7 7 7 7 7 7 7 7 7 7 7 7 7 7 7 7 7 7 7 7 7 7 7 6 B .X-X=X=X=X=X-X*Xv.5.1.1.e.",
"i.e.w.XX=X=X=X=X=X-XoXj.C 8 7 7 7 7 7 7 7 7 7 7 7 7 7 7 7 7 7 7 7 7 7 7 7 7 ; ; 7 7 7 7 7 8 7 7 7 7 7 7 7 7 7 7 7 7 7 7 7 7 7 7 7 7 8 W *X-X=X=X=X=X-X].*.9.e.i.",
"3.3.!.+X=X=X=X=X=X*XM.` t 7 7 7 7 7 7 7 7 7 7 7 7 7 8 7 7 7 7 7 7 7 7 7 7 6 ; ; 7 7 7 7 7 7 7 7 7 7 7 7 7 7 7 7 7 7 7 7 7 7 7 7 7 7 7 i D.;X=X=X=X=X-XoXb.t.u.i.",
"1.1.W.=X=X=X=X=X-X[.g.x 6 7 7 7 7 7 7 7 7 7 7 7 7 7 7 7 7 7 7 7 7 7 7 7 7 6 ; > 7 7 7 7 7 7 7 7 7 7 7 7 7 7 7 7 7 7 7 7 7 7 7 7 7 7 7 7 S *X-X-X=X=X-X=XU.7.9.w.",
",.-..X-X=X-X-X-X*XM.E 0 7 7 7 7 7 7 7 7 7 7 7 7 7 7 7 7 7 7 7 7 7 7 7 7 7 7 : > 7 7 7 7 7 7 7 7 7 7 7 7 7 7 7 7 7 7 7 7 7 7 7 7 7 7 7 7 t j.;X=X=X=X-X-X[.$.! &.",
",.5.&X-X=X=X=X;X|.g.j 6 7 7 7 7 7 7 7 7 7 7 7 7 7 7 7 7 7 7 7 7 7 7 7 7 7 7 ; ; 6 7 7 7 8 7 7 7 7 7 7 7 7 7 7 7 7 7 7 7 7 7 7 7 7 7 7 7 6 S *X=X=X=X=X=X&Xb.>.! ",
"! G.=X=X=X=X-X*XM.R 0 7 7 7 7 7 8 7 7 7 7 7 7 7 7 7 7 7 7 7 7 7 7 7 7 7 6 8 ; > 6 7 7 7 7 7 7 7 7 7 7 7 7 7 7 7 7 7 7 7 7 7 7 7 7 7 7 7 7 u F.;X=X=X=X-X=XM.4.%.",
"<./.-X=X=X-X-X|.z.N 7 7 7 7 8 7 7 7 7 7 7 7 7 7 7 7 7 7 7 7 7 7 7 7 7 7 8 6 ; ; 7 7 7 7 7 7 7 7 7 7 7 7 7 7 7 7 7 7 7 7 7 8 7 7 7 7 7 7 7 7 K =X-X=X=X=X=XR.F.<.",
"q.@X;X;X-X=X=X].| y 7 7 7 7 7 7 7 7 7 7 7 7 7 7 7 7 7 7 7 7 7 7 7 7 7 7 6 6 ; ; 7 7 7 7 7 7 7 7 7 7 7 7 7 7 7 7 7 7 7 8 7 7 7 7 7 7 7 7 7 7 j Q.;X=X=X=X;X}.x.>.",
"L.*X=X=X=X=X*XM.L 7 7 7 7 7 7 7 7 7 7 7 7 7 7 7 7 7 7 7 7 7 7 7 7 7 7 7 7 7 ; > 6 8 7 7 7 7 7 7 7 7 7 7 7 7 7 7 7 7 7 7 7 7 7 7 7 7 7 7 7 7 8 @.;X=X=X=X=X*Xx.X.",
"L.=X=X=X=X-XoXg.c 7 7 7 7 7 7 7 7 7 7 7 7 7 7 7 7 7 7 7 7 7 7 7 7 7 7 7 6 6 ; : 6 6 7 6 7 7 7 7 7 7 7 7 7 7 7 7 7 7 7 7 7 7 7 7 7 7 7 7 7 7 6 K =X=X=X=X=X=Xv.@.",
"W.;X=X=X-X-X[.+.t 7 7 7 7 7 7 7 7 7 7 7 7 7 7 8 7 7 7 7 7 7 7 7 7 7 7 i V I I ^ I I c t 7 7 7 7 7 7 7 7 7 7 7 8 7 7 7 7 7 7 7 7 7 7 7 7 7 7 6 M }.;X;X=X=X-XM.7.",
"XX=X=X=X=X;XT.E 9 7 7 7 7 7 7 7 7 7 7 7 7 7 7 7 7 7 7 7 7 7 7 7 7 y J d.s.n.n.h.n.n.s.{ m t 6 7 7 7 7 7 8 6 6 8 7 7 7 7 7 7 7 7 7 7 7 7 7 7 6 u D.-X-X=X=X=XT.x.",
"@X=X=X=X=X*XM.A 1 7 7 7 7 7 7 7 7 7 7 7 7 7 8 7 7 7 7 7 7 7 7 7 a ) n.s.s.a.s.s.s.n.n.n.s.Y t 6 8 7 7 7 6 8 6 7 7 7 7 7 7 7 7 7 7 7 7 7 7 7 7 0  .;X=X=X=X=XR.$.",
"*X;X;X=X=X*Xc.b 1 7 7 7 7 7 7 7 7 7 7 7 7 7 7 7 7 7 7 7 7 7 7 f { s.s.d./ D k k l G a.s.n.n.Y 0 6 7 8 6 8 6 7 7 7 7 7 7 7 7 8 6 7 7 7 7 7 7 7 7 W -X=X=X=X=X[.j.",
"*X;X=X=X;XoXg.d 6 7 7 7 7 7 7 7 7 7 7 7 7 7 7 7 7 7 7 7 7 7 t / n.h.] D w % + O - < p ( n.h.h.D 8 6 6 8 6 8 7 7 7 7 7 7 8 7 7 7 7 8 7 7 7 7 7 6 S *X=X=X=X=X{.x.",
"=X=X-X=X=X|.+.y 6 7 7 7 7 7 7 7 7 7 7 7 7 7 7 7 7 7 7 7 8 8 m h.s.d.n = % ; - - 7 7 1 y / h.n.{ y 6 7 7 7 7 7 6 8 7 7 7 6 7 7 7 7 7 7 7 7 7 7 6 B .X-X=X-X-X{.j.",
"=X=X=X=X-X|.o.5 7 7 7 7 7 7 7 7 7 7 7 7 7 7 7 7 7 7 7 7 7 0 ) n.a.F , % 1 6 ; ; 7 7 7 7 a s.n.s.m : 8 7 6 8 7 8 6 7 7 6 7 7 6 8 7 7 7 7 7 7 7 6 j [.-X=X-X-X{.j.",
"=X=X=X=X-X{.| 3 6 7 7 7 7 7 7 8 7 7 7 7 7 7 7 7 7 7 7 7 7 a a.n.d.e % : 7 7 ; ; 6 7 7 7 t ^ h.n.F - 6 7 7 7 6 8 7 7 7 8 6 8 7 7 7 7 7 7 7 7 7 7 i R.-X-X-X-XoXj.",
"=X=X=X-X-X{._ < 6 7 7 7 7 7 7 7 7 7 7 7 7 7 7 7 7 7 7 7 7 b s.n.' , = 8 7 7 ; > 6 7 7 7 1 b n.n.^ w 6 7 7 7 7 7 7 7 7 7 7 7 7 7 7 7 7 7 7 7 7 7 u E.;X=X-X-X{.j.",
"=X=X=X=X-X[._ < 7 7 7 7 7 7 7 7 7 7 7 7 7 7 7 7 7 7 7 7 7 m n.n.] 2 ; 7 7 7 ; & 7 7 7 7 7 b n.n.^ w : 7 7 7 7 7 7 7 7 7 7 7 7 7 7 7 7 7 7 7 7 7 0 U.-X-X-X-X{.j.",
"=X=X=X-X;X[._ ; 3 7 7 7 7 7 7 7 7 7 7 7 7 7 7 7 7 7 7 7 1 J n.n.a.r 9 u t t 4 4 t t t t t A n.n.^ 5 : 7 7 7 8 6 7 7 7 7 7 7 7 7 7 8 7 7 7 7 7 7 0 U.-X-X-X-X{.j.",
"=X=X=X=X;X[._ < 6 7 7 7 7 7 7 7 7 7 7 7 7 7 7 7 7 7 7 7 3 J A.Z.#XC.B.C.C.C.B.C.C.C.B.].C.Z.Z.Z.h.r : 7 7 7 7 7 7 7 8 7 7 7 7 7 7 7 7 7 7 7 7 7 0 U.-X-X-X-X{.j.",
"=X=X-X=X;X[._ ; 3 7 7 7 7 7 7 7 8 7 7 7 7 7 7 7 7 7 7 7 i c.$X#X#X$X$X$X$X$X#X#X$X$X$X#X$X$X#X#X#X^ 6 7 7 6 8 7 7 7 6 7 7 7 7 7 7 7 7 7 7 7 7 7 0 U.-X-X-X-X{.j.",
"=X-X=X=X-X[._ < 7 7 7 7 7 7 7 7 7 7 7 7 7 7 7 7 7 7 7 6 M #X#X#X#X#X#X#X#X#X#X#X#X#X#X#X#X#X#X#X#Xf.< 8 6 8 7 7 7 7 7 7 7 7 7 7 7 7 7 7 7 7 7 7 0 U.;X-X-X-XOXj.",
"=X=X-X=X;X[._ ; 6 7 7 7 7 7 7 7 7 7 7 7 7 7 7 7 7 7 7 7 M #X#X#X#X#X#X#X#X#X#X#X#X#X#X#X#X#X#X#X$Xf., 1 8 6 7 7 7 7 7 7 7 7 7 7 7 7 7 7 7 7 7 7 0 U.-X=X=X-X{.j.",
"=X-X=X=X-X{._ < 7 7 7 7 7 7 7 7 7 7 7 7 7 7 7 7 7 7 7 6 N #X#X#X#X#X#X#X#X#X#X#X#X#X#X#X#X#X#X#X$Xf., : 6 8 6 7 7 7 7 7 7 7 7 7 7 7 7 7 7 7 7 7 0 U.-X-X-X-XoXj.",
"=X=X=X=X-X[._ ; 6 7 7 7 7 7 7 7 7 7 7 7 7 7 7 7 7 7 7 6 v #X#X#X#X#X#X#X#X#X#X#X#X#X#X#X#X#X#X#X#Xf., : 8 6 8 6 7 7 7 7 7 7 7 7 7 7 7 7 7 7 7 7 0 U.;X-X=X-X{.j.",
"=X-X=X=X-X{._ < 3 7 7 7 7 7 7 7 7 7 7 7 7 7 7 7 7 7 7 6 x #X#X#X#X#X#X#X#X$X$X$X$X$X$X#X#X#X#X#X%Xf., : 7 7 7 7 7 7 7 7 7 7 7 7 7 7 7 7 7 7 7 7 9 U.-X-X-X-X|.j.",
"=X=X=X=X-X[._ ; 6 7 7 7 7 7 7 7 7 7 7 8 7 7 7 7 7 7 7 6 v #X#X#X#X#X#X#X XV.[ ' [ m.#X#X#X#X#X#X$Xf.= : 8 7 7 7 7 7 7 7 7 7 7 7 7 7 7 7 7 7 7 7 0 U.-X-X-X-X|.z.",
"=X=X=X-X-X[._ < 6 7 7 7 7 7 7 7 7 7 7 7 7 7 7 7 7 7 7 6 v #X#X#X#X#X#X#X[ @ X X X $ m.$X#X#X#X#X$Xf., : 7 7 7 7 7 7 7 7 7 7 7 7 7 7 8 7 7 7 7 7 0 U.-X-X-X-X|.j.",
"-X=X=X-X-X{._ ; 3 7 7 7 7 7 7 7 7 7 7 7 7 7 7 7 7 7 7 7 x #X#X#X#X#X#X#XD         X ' $X#X#X#X#X$Xf.; 6 7 7 7 7 7 7 7 8 7 7 7 7 7 7 7 7 7 7 7 7 0 U.-X-X-X-X|.j.",
"=X=X-X=X-X{._ < 7 7 7 7 7 7 7 7 7 7 7 7 7 7 7 7 7 7 7 6 v #X#X#X#X#X#X#Xk         X ( $X#X#X#X#X#Xf., : 7 7 7 7 7 7 7 8 7 7 7 7 7 7 7 7 7 7 7 7 0 U.-X-X=X-X{.j.",
"=X=X=X=X-X[._ ; 7 7 7 7 7 7 7 7 7 7 7 7 7 7 7 7 7 7 7 6 v #X#X#X#X#X#X#Xn         X ( $X#X#X#X#X$Xf., : 7 7 7 7 7 7 7 7 7 7 7 7 7 7 7 7 7 7 7 7 0 U.-X-X=X-XoXg.",
"=X=X=X=X-X{._ ; 6 7 7 7 7 7 7 7 7 7 7 7 7 7 7 7 7 7 7 6 b $X#X#X#X#X#X#XG .       @ f.#X#X#X#X#X#Xf., : 8 7 7 7 7 7 7 7 7 7 7 7 7 7 7 7 7 7 7 7 0 U.;X-X=X-X{.j.",
"=X=X=X-X;X{._ ; 7 7 7 7 7 7 7 7 7 7 7 7 7 7 7 7 7 7 7 6 x #X#X#X#X#X#X#XA.F #   q /  X#X#X#X#X#X#Xf.* : 7 7 7 7 7 7 7 7 7 7 7 7 7 7 7 7 7 7 7 8 0 U.-X-X=X=XoXj.",
"-X=X=X=X-X[._ < 3 7 7 7 7 7 7 7 7 7 7 7 7 7 7 7 7 7 8 6 M $X#X#X#X#X#X#X#X#Xl . U $X#X#X#X#X#X#X#Xf.* : 6 8 6 6 7 7 7 7 7 7 7 7 8 7 7 7 7 7 7 7 0 U.;X=X=X-X{.j.",
"=X=X=X=X-X[._ ; 7 7 7 7 7 7 7 7 7 7 7 7 7 7 7 7 7 7 7 6 M $X#X#X#X#X#X#X#X#Xf.H N.#X#X#X#X#X#X#X#Xf.* : 8 6 6 8 7 7 7 7 7 7 7 7 7 7 7 7 7 7 7 7 0 U.;X-X=X-XoXj.",
"=X=X=X-X-X[._ < 1 7 7 7 7 7 7 7 7 7 7 7 7 7 7 7 7 7 7 6 v #X#X#X#X#X#X#X#X#X$X$X#X#X#X#X#X#X#X#X#Xf.* : 8 6 8 6 7 7 7 7 7 7 7 7 7 7 7 7 7 7 7 7 0 U.-X=X=X-XoXj.",
"=X-X=X=X;X{._ ; 7 7 7 7 7 7 7 7 7 7 7 7 7 7 7 7 7 7 7 6 g C.$X#X$X#X#X#X#X#X#X$X$X#X#X#X#X#X#X#XA.) * : 6 8 6 8 7 7 7 7 7 7 7 7 7 7 7 7 7 7 7 7 0 U.;X=X=X-X{.j.",
"=X=X=X=X-X{._ ; 1 7 7 7 7 7 7 7 7 7 7 7 7 7 7 7 7 7 7 7 8 J B.Z.Z.Z.Z.Z.Z.Z.Z.Z.Z.Z.Z.Z.Z.Z.Z.B.{ p % 6 8 7 8 6 7 7 7 7 7 8 7 7 7 7 7 7 7 7 7 7 0 U.-X-X-X-X|.j.",
"=X=X-X=X-X[._ < 7 7 7 7 7 7 7 7 7 7 7 7 7 7 7 7 7 7 7 7 7 8 g d s s s s s s e p s s s s s s s s w % ; 6 6 7 7 7 7 7 7 7 7 7 7 7 7 7 7 7 7 7 7 7 0 U.;X-X=X-X|.j.",
"-X=X=X=X-X{._ ; 7 7 7 7 7 7 7 7 7 7 7 7 7 7 7 7 7 7 7 7 7 7 7 ; > & & & & & O O & & & & & & & & > 1 7 7 8 7 7 7 7 7 7 7 7 7 7 7 7 7 7 7 7 7 7 7 0 U.-X=X=X-X|.j.",
"=X=X-X-X-X[._ < 6 7 7 7 7 7 7 7 7 7 7 7 7 8 7 7 7 7 7 7 7 7 7 7 6 8 6 8 6 8 ; > 3 7 7 7 7 7 7 8 8 6 7 7 6 7 7 7 7 7 7 7 7 7 7 7 7 7 7 7 7 7 7 7 0 U.;X-X=X-X|.j.",
"=X=X=X=X=X{._ ; 7 7 7 7 7 8 7 7 7 7 7 7 7 6 7 7 8 6 8 6 7 7 7 8 7 7 7 6 7 7 > ; 7 7 7 7 8 7 7 7 6 8 6 7 7 7 8 7 7 7 7 7 7 7 7 7 7 7 7 7 7 7 7 7 0 Y.-X-X=X-XoXj.",
"=X-X=X=X;X[._ ; 3 7 7 7 7 7 7 7 7 7 7 7 7 8 7 7 7 7 7 7 7 7 7 6 7 7 7 8 8 6 ; ; 6 7 7 7 7 7 7 7 7 7 8 7 7 7 6 7 7 7 8 7 7 7 7 7 7 7 8 7 7 7 7 7 0 H.;X=X=X-X{.j.",
"-X=X-X=X=X{._ < 7 7 7 7 7 7 7 7 7 7 7 8 7 7 7 7 7 8 6 7 7 7 7 7 7 7 7 7 7 8 ; > 6 8 7 7 7 7 7 7 7 7 6 7 7 7 8 7 7 7 6 7 7 7 7 7 7 7 7 7 7 7 8 7 0 U.;X=X=X-XoXj.",
"=X=X=X=X;X{._ ; 6 7 7 7 7 7 7 7 7 7 7 7 7 7 7 7 7 7 7 7 7 6 8 7 7 6 8 7 7 6 ; ; 6 7 7 7 7 7 7 7 7 7 7 7 7 7 6 7 7 7 7 7 7 7 7 7 7 7 7 7 7 7 7 7 0 U.;X=X=X-X{.j.",
"=X=X=X=X-X[._ < 1 7 7 7 7 7 7 7 7 7 7 7 7 7 7 6 6 8 8 7 7 6 7 7 7 7 7 7 7 6 ; ; 6 8 6 8 7 7 7 7 7 7 7 7 7 7 7 7 7 8 7 7 7 7 7 7 7 7 7 7 7 7 7 7 0 U.-X-X-X-X].z.",
"OX=X=X=X=X|._ , 7 7 7 7 7 7 7 7 7 7 7 7 7 7 7 8 8 6 6 7 7 8 7 7 6 8 7 7 7 6 ; > 8 6 7 6 7 7 7 7 6 8 6 8 7 7 7 7 7 7 7 7 7 7 7 7 7 7 7 7 7 7 7 7 0 U.-X=X-X*XM.*.",
"t.+X=X-X-X[._ 1 3 7 7 7 7 7 7 7 7 7 7 7 7 7 6 8 6 8 7 7 7 7 7 8 7 7 8 6 7 6 ; ; 6 6 7 7 7 7 7 7 7 7 7 7 7 8 6 7 7 7 7 7 7 7 7 7 7 7 7 7 7 7 7 7 0 U.-X=X&XT.j.5.",
"<.G.E.T.T.M._ ; 6 7 7 7 7 7 7 7 7 7 7 7 7 6 8 6 8 6 7 6 8 7 7 6 6 8 6 8 6 8 ; ; 7 8 7 7 7 7 7 7 7 7 7 7 7 7 7 7 7 7 7 7 7 7 7 7 7 7 7 7 7 7 7 7 0 #.T.T.M.x.8.1."
};
