/* XPM */
static char *wall[] = {
/* columns rows colors chars-per-pixel */
"40 40 34 1 ",
"  c #0C0A0A",
". c #120D0D",
"X c #171010",
"o c #1C1414",
"O c #211616",
"+ c #261A1A",
"@ c #2C1E1E",
"# c #311F1F",
"$ c #2E2020",
"% c #342323",
"& c #3A2626",
"* c #3C2929",
"= c #432C2C",
"- c #482F2F",
"; c #473030",
": c #4C3232",
"> c #523636",
", c #563838",
"< c #5D3C3C",
"1 c #613E3E",
"2 c #654141",
"3 c #6B4545",
"4 c #6F4848",
"5 c #704747",
"6 c #734A4A",
"7 c #794E4E",
"8 c #7D5050",
"9 c #845555",
"0 c #885757",
"q c #8B5959",
"w c #925E5E",
"e c #976161",
"r c #996262",
"t c #AE7070",
/* pixels */
"@++OOOoO.XOoXo..+Oooooo.O+OO+OOOOoOXO++X",
"72,,,,,,%-1,,,-%1,>,>,>&>1,>,,,>,>,-:11#",
"931<<<11&,31<<>&5111<<1-15111111111:111&",
"021<1<<<*,3<<<:=51111<1-11111111111>111=",
"w1111111&<3<<<>=51<1<11-23111111111:111=",
"w7331223=29322,-9533331>67551551511,571=",
"<,:-----$-2,>:;%11<<,,>&=<,,>-::---#=:-O",
">-=====%@;==--=====%%--==&#-===#====#=&+",
"91111,1:-511<121111,:3111,-211<:51111<1=",
"0111111::511<1<<<11,,4<<<<>311,>511<<<1-",
"w111111>-51,<<<<<12,,41<<<,611<,51111<1-",
"w511111>>911<21<111<<7211<,611<,6111111-",
"w966655,:07666443231<87422,8732>9955311:",
"########@%&&&&&=**&&$&**&%@&&&$+#&#####.",
"3,>::=-1>>>>,:-1,,>>>;,,>>=:,:>:>::-::= ",
"91111:,11111<,>31<<<1,2211>23<12111111:.",
"821<1><22<<<<,,41<<1<,42<<>24<<<<<<111>.",
"83<<<;14<<<,<,<7<<<<<<44<<;42<<<111,<1:.",
"r8222>4744244<<842332<7744>47242133111,.",
"34<,<*>44<22<,;44422<,<4<,;<42421111,,- ",
"**$$$$%$$*****%*%******%**%****$%&%%###X",
"82<<<<<>;2<<<<<<,*3<<2,>4<<<,<<*<1<,<1,%",
"84<<<<<>>4<<<2<<,>4211<<4<<<<<<;13<1111%",
"82<<<<<>,4<<<<<<>>421<,,4<<<<<2;1111111&",
"e411<11>,42<<2<<,<4<<<,<4<<<<<2;3311111&",
"r847444,<8744444<<8742428774444,5965532=",
"**;****%$;;;*****$;;***%>;;;;**$%:--==&O",
"****&&%**$$********$*$*******%+$=#####@.",
"431,1<1<<>,4<2<2,<<<<,12<<<<<<;,511111,+",
"4311111<<,<4<<<<<<<<1,22<<<<2<;,111,111@",
"74,1<11<<><4<<<<<2<<<,442<<<<<;2111,11,#",
"841<1<11<>44<22<<<<21,44<<2<1<;25111111@",
"796655522<20766655532160763323>19565513#",
"+$%$#%%@@@+%&&%%%#####%&&%%%##+@==&%%##o",
"<;*-=======@=-=*=&&=@-:=======&--=-====#",
"q2<<11<<11<-111111,,-111111<11,11111111:",
"q21111<<<11-12111111>1111111<<,21111111:",
"q2<1111<<<<-22111111:53111<1<1<5311<111>",
"r2111111111-33111111:631111111165111111>",
"trqq9999757,9eq09776<9rq09976739ww996691"
};
