/* XPM */
static char *wall[] = {
/* columns rows colors chars-per-pixel */
"80 80 51 1 ",
"  c #020303",
". c #090707",
"X c #070808",
"o c #0C0B0B",
"O c #130D0D",
"+ c #180F0F",
"@ c #0F1010",
"# c #151212",
"$ c #1B1414",
"% c #1D1919",
"& c #211616",
"* c #241A1A",
"= c #2B1D1D",
"- c #311F1F",
"; c #272020",
": c #2C2121",
"> c #342323",
", c #3A2626",
"< c #3D2929",
"1 c #432C2C",
"2 c #492F2F",
"3 c #463030",
"4 c #4D3232",
"5 c #4F3939",
"6 c #533535",
"7 c #553A3A",
"8 c #5D3C3C",
"9 c #613E3E",
"0 c #5E4040",
"q c #654141",
"w c #6B4545",
"e c #6D4949",
"r c #704747",
"t c #734A4A",
"y c #7A4E4E",
"u c #7E5151",
"i c #835454",
"p c #885757",
"a c #865858",
"s c #8C5A5A",
"d c #925E5E",
"f c #966060",
"g c #9C6464",
"h c #A06767",
"j c #A46969",
"k c #AB6E6E",
"l c #AF7070",
"z c #B47373",
"x c #B97777",
"c c #BE7A7A",
"v c #C47E7E",
/* pixels */
"                                                                            .   ",
",2,----====*==*=*..--&&&$&&$&+ O>-*&&&&&&&&&$&&.+1<----=-=-=====-=====-+O11>-1=.",
"iiw88888888888882O=yr988868882.1iw8888888888886&1yw99888988888888686886>-tw9996O",
"piw99888888899898O=iw988988896O1iw8889989898886&2yw98888898898888988898<,tw9996O",
"siw99988888888996+-pr988888996O1ir8889888889888=2yw99989899898889999999,1tr9998O",
"diw88998888988996O-pr888888886+2ir9999988988886=4yw9989988989988999889911y99996O",
"diw99998988888898O>sr998888896O4pr9899989988888=6yw9998899999888999988911y99998O",
"diw88998998888886+>dr998888886O2pw8889988889988=6iw8999899998888969988611yr9998O",
"gpw98889999999998O>gr988988988#4pr99889q8898898=6pw9889998898888889989611i99999+",
"gpw98888989999998$>dr988888998#4dw8988899999988=8pr9888988888989888889811ir9999+",
"hpr999999999999w7#,jyw99899996#8dr9898888999898=8dr9899999999999999999812sr9999+",
"khittrww9ww999wtq$,kirww9999w8#6kit9wwqwqwwwqwq>8jiytrttrrrrwwrwqwwwwww12hi9rr9+",
"ixkgdddpiiiiiytyy$=kxjfspiyyiu$<zxjggggdgddiiyu<,jkghhggdddspidiiiuuyyy8-ddpii9.",
" ..OOO+OOOO++####oo$**=====*=*oo&=====*=====***#X###$#O####O$+#####O+OO...+OO.. ",
"----======*==*=&o*1>=:=-:======>=&=&*=*&#$<=======*=##1>>====*&O->===*&&&&&&&&&.",
"di99888898888892O8yw88899988888988888886>6yw88q89886,,yw8988881,rw8898888868996&",
"di99999898888892+9tw98889898989889998888>7tw989999881<tq9888882,tw9888998888999&",
"di98998988888996#qyw9989888q999888899888>8tq88998898<1uw8888982<iw9988889898999&",
"di99898998888896#wyw9989888qq9q888899888,8yq88989898<1uw98889831iw9888889888999*",
"hiw9899898988896$wyw98888889888988999988,qyw9888889821iw98888841iw9988889888999*",
"hi99889888989886$wyw89888898888888998q98,quwq888899822itq8899821pw9998898988899=",
"hiw9989888898896#wiw98888898888899999q98,wuqq888899923sw989q9821pr9998898988899*",
"ji99989898888986$tiw988888q88q88899989q8,eiw898q889823stq9989841sw9988899999899=",
"jiw9999999988984$ypw9999988q88q0989988q9<taeqq88999814gww9899842frq999899999999=",
"xdirr9r9rrr9www8$ugiewwwewweqqwqwqqqqqww<tguewqqqqww35kurwwqqw42jitwwqqqw9999w9=",
"dvzjhhhhhddgsiiy$8zxlggjgggggfddipiiuuia37zzgfsauuua7,kzjgsiuaq>kzkjggdspiiiypi-",
".&&&&&&&*******&o#*:;==::::::::::::::;::%#=:::::::::%#*:::=***%o*>--=========*&.",
".+O.OO.OOO+..$$+#$##$$$$$$$$#$:****%%**%$*%#%;**%%%%%##$########OOOOOOoo......  ",
"9i966646664--r98686667667444>4yq88867868766<2w9876666>,q966676664446644266246>. ",
"ii999996699--tr9888q99989888,7tw8989888888947r9899898<3yw988998998998988999992. ",
"ii999999999-,yr9889999998888,0tw9889988689848tw99999823yq988999999999998988896. ",
"ii9999999991,ir98q9999998888,0yq9899898889848tw99999816uw998999989899899888894. ",
"ppw889999881,pw99q9899888887<qyw988889998886qyq99998714uwq98889988888889898896. ",
"ppw98898888<,aw9899898888998<0uw898899888884quwq9899817iw989899988888888898996. ",
"spw98888898<,sw989q9888889q8<que889888889984quwq9998827iw988998988898889998896. ",
"ddw988889981,deq8888q8888908<wiw988888998986wae08889827aqq8889899898q888898996. ",
"ddw999989991<ftw9989888999883wae888099880086eae089q9817seq88889998q898888888q6. ",
"ddy999999991,jyqqqqqqqqq9998<egtwqq09w9wq084eftwqqqq817ftwqq9999q8999qqq9988q6. ",
"dvhdiiyyyyy6,xkjfsddsssauyyu40xljggdfdspuyuq0zkfsiyuu75zjdssssiaiuuuiuuuyytyyqo ",
"=8866642434>O499088870887777>*5077007877055<;40075344,%qteqeeqqwq088q87886666<  ",
" . .......oooo.oXo##O#######$%#$%%@%%%%%%%%%%%##$#######@oOoOoooXooo......   .. ",
"8w6222222221221>#7w84663444344634<%5e876334433><076444423324331$>9422222111111-.",
"ii98889888889994$qtq88888898998896%0twq888888817tq8888888989896=6yw888888899996.",
"piw9999988888996%wtq888889989888q7;0yw8888q88837tq9888889888996=6t9888888899996.",
"pi98898989889986$ttq88888989888886*wyq88998qq828yw9888888898898*6tw888899999996O",
"diw9998888989896&wyw88899998988996;qyeq9888q8810yq9988888889998=8yw888899999996.",
"di99988888888986$yuw89889989q98886*euwqqq88q8810yq9989989989988*8y9899988999898O",
"diw9888888898988%yyw8898888898q887*euw8898888828iw9889888989998=9ir988998989898.",
"hpr9988889999888*yyw99989898889886*eiw88998888<0iw9989888888998=0iw999998988998O",
"gpw8999989999986%uuw99998899889888;eiwq09q98803wiw988q988989998=qiwq99999988998.",
"hdr9999999999996%iatqq9999q99q8qq8;ydtqq9q99q0<wdrq9qqqq89qqq98=qstw998qq9999w8O",
"kxdpppdiiyytytyw*izgfssiyyyyytttye*exgsaytttyy5wxgsiaaiiiyyttyt>qzdaiiiyyyutty9O",
"6iiytyyyttewwqwq#<tutttewwqewqq0q0%,yuteeqqq0q<>uaiuauuuyuyewwe*>ifapiiiuiiywt8.",
"          .. .XoXooX@oooo@@@@@@@@@@@@o@@@@@@@@#@@#@@@@@o@@ooooooooXX.....       ",
".-&&&$$$*$$&&$$*&*$$@;=*****%**%%*%**$*$%%%%$;=*******%*%%*$$#o*&#++O#+OOOOOOO. ",
"1pr98888888688866871:ew8887787876687766666412qq88667777667664*:tw8686666666666= ",
"2sr98898899889888882>yw9898899988898898886846wq88988898888898=>yr9969869889999< ",
"6dwq8888888899889994,ywq898999q88898889888867tw98989888988998>>yr99998898889991 ",
"4dr99888888999888986<uwq998999988898999888868yq98888998898998:,ur98989698899991 ",
"6dr88988899q88999986,iwq89898899898q888888968yq99998888899999>,i998989989899991 ",
"6dr98888989999989984<pww988899898999989898868iw98999889888888>,ar99999889988991 ",
"6gt98888899889889884,pr9888899888998888888869iwq88899988888q8,<st99998888888991.",
"8ht98888898889998986<dr9888899889888998899969aw99889q88889898><fr988888899999w1 ",
"6jy98888998989898984<drw98998898899899998886qdt999889q888q088>,ft96898988898992 ",
"8jywww9ww9w9w9qqqqq6<jytwqqqqqqq999999qq8q86qguwqqqqqqqq9qqq9><jyqq8qqq999999w1 ",
"2vxjhhggddddddiuuuiw:kzljgggfddddsdpiiiuiiuw8xzkgggsaiiiiyyii2:xxkffdfssdpiyii6 ",
".->>>,>>><,,<<,>>,,=o>232333331222111<1<31<,#<3333333<<<1<<1<$o177777664664111= ",
"          ... . XX .X ..  X  X    .... .  XXX.... . X .... ...o. X.  X          ",
"441>>>,,-,--1--->>,,:>=O=3,,>>>:-----=--=#,6<<>,,<,,,,>>-,,--=-11,,,,,>>-------+",
"di9898899999999988q8886&6yw88888966999666*qtw888888888876898826rq98888888999889-",
"hi99888899999969q8q8898*8ww88888996969996=qw98888889988869988489q99889889968899-",
"gy988888999966998888886&8yw98988999996696*wtq899998999999889869t998888qq9998999-",
"hi999999999996998998898&8tq98988999699999*rr9999999999998899949tqq9999999989999-",
"hy999999699996968899998&8yw89889969999996-tt9999q99898998898969y9988999999989991",
"hi996999999999969888898&quw89989999999999*tt9969999888899888969yw98899998999999-",
"lp999999999999999888888*qiw88998999999699=ii999999998888998996riw9889988998999r,",
"lp999999999999998998988*qiw98888999999996=it999998988888888886riw998888989899891",
"zpr99999999999999999896&wat9999q999999996=iir99999999999999984tdr99998999889999,",
"vhittttr9ttrrrrrrr9wwr9&thuttwww9r99999t9=pgpttttrwtwwwrwwww96rjpytytwwwwwwwwtr,",
"jvvlllljjjjjhgggddssddp=8vvxxxlkggggdgddp-9vvzlllkjjhhgddspddt4xczkkkhhdddspsdd1"
};
