/* XPM */
static char *wall[] = {
/* columns rows colors chars-per-pixel */
"100 100 50 1 ",
"  c #030404",
". c #080707",
"X c #0D0A0A",
"o c #130E0E",
"O c #180F0F",
"+ c #141111",
"@ c #1C1414",
"# c #1E1818",
"$ c #211616",
"% c #241A1A",
"& c #2B1D1D",
"* c #311F1F",
"= c #2E2121",
"- c #332323",
"; c #3A2626",
": c #372828",
"> c #3D2929",
", c #432C2C",
"< c #492F2F",
"1 c #443030",
"2 c #4C3232",
"3 c #4F3838",
"4 c #533636",
"5 c #563939",
"6 c #5D3C3C",
"7 c #613E3E",
"8 c #5F4040",
"9 c #654141",
"0 c #6B4545",
"q c #6E4848",
"w c #704747",
"e c #744A4A",
"r c #7A4E4E",
"t c #7D5151",
"y c #835555",
"u c #885757",
"i c #865858",
"p c #8C5A5A",
"a c #925E5E",
"s c #966060",
"d c #9C6464",
"f c #A06767",
"g c #A46969",
"h c #AB6E6E",
"j c #AE7070",
"k c #B37373",
"l c #B87777",
"z c #BC7979",
"x c #C37D7D",
"c c #C78080",
/* pixels */
"                                                                                               .    ",
"%*&%$$$$$@@$@@O@@OO$@. X$$OoOoooOooOo  X$$@OOOOoOoOoOOOooOo.X%*%$$$$$$$$$$@@$@@@$$$O@@@$$.X%**%$*%O.",
"7974<<<<,,,,,,,,,,,,-Oo*54,,,;,;;;,;-Oo*55,,;,;,;,;,,;,;>;*+&574<2<,,,<,,,,,,,,,,,,,,,,,,$%274224<*X",
"uyr976767776767777774%O,ye77677467675&O<ye7777777676676666,%,we77776777777777676756646774*;7w07776,O",
"uyr977666666666777477&@<y777776666676*@<yw7766777676676666,&,ww77666666777676666677676774,*7ew7777,X",
"pur977776666666677774$$<ue77666666775*$<rr7766776666667667<*,wew7777666777676666777777772,,7e77777,O",
"aur976776666666677774$@<yw77666666666*$2re7667776667666665<*<we07776776677677766777766774,<ww77776,X",
"aue977776666667647777$@2uw77766666774*$4ye0777777667766666<*2we77767677677776666777776777,,7w77777,X",
"aur077777676666666675&$2ue77766666664*#4re77677776767667674&4we07777667777776666777776674,,0w77777<X",
"ape966777677766667664%$4ae97666666666-$4ye77666776666677762*2er96777767777766666644776652,,0y77777<O",
"dae976666777777777776%@4ae97667666766:$4yr9776677766676677<&4er97667777766766666667776762,,we77777<@",
"sar976676677677777776&$4ae76666666777:$4ur77766677777777674*4ryq7667676666667667667766774,,wy77777<O",
"fae077777777777777775&%5ae07766667776*%6ur77777666677777764*5yy77777777767767777667777775,,ey777774$",
"gayw997777777777770q6&%5gyw7976777776*%7ayw7677777677797774-6uuw9777997779977797777777776,<yuw7777<O",
"hgayreeeww70w99979we7-%6gaywwq97777w9;$6faye9eww0qqqww00006;4aauyererreeeeewqqwq70wwwwww7,,uay7wy7<O",
"ugjfaappuyyryyryrewre-$4gkgapuyyreryy<$2gkgdaaasaaapuuyyer7;,uggdaddaappppuyyyptyyrrreerw4;eaayyyw<X",
"%-;*,;*,;****--;--*--+o$13222,,<,,;,,%o#,4422222<<2<<<,,>>:#O-,>>,,;;;;;:;:;-;;-:-:-*****$O%;--**$O.",
"oooOOOOOOO$O@OO@+@@OX+#%$#$%%&%&%%%&%$+@$$$%$$%$#$#@&&%$$%$#O++++OX#$####++@@OOo@$@@@@OOXXoXoOOooX..",
"2<,,,;;;;;;---;;--;%o&,4,;;;;;>;;--;;;;,;--;--:--&$%,2,;;;>;;;;:-$#;5,,>;;;;-*%%,,,-;;*-**********&X",
"auw7666767767676776,+,qe06666777776666676666666664-<9e97677666664;:5r966766662,;907667667767546677,$",
"auw7777776776666676,$<ww07666666776777766777766665;<9e97677777665,;6w977666664,,qw9766667766666777<$",
"auw7677767666666776<@2ee07766666677777666666776675;<9e97667767776,,6r976666664,,ew97766677767667774$",
"auw7677767766566676<#4ee07966766777777766666776675,4qe77667776675>>9t076666774,<ye97666666766667774$",
"auw7766767766766677<#4re09666766679777766667777665;4we97676676676,,7r076666664,2re77666666766667772%",
"gae7767776767766676<$4eeq7766666667666666667777764>5qr086666667752,9t077666774<<re97777666766667774&",
"gue7766766666766666<$4er97766666776666666667769776>5wr096666667762,9yw97667764<2ye77777667676666774*",
"gue7777776666776677<@4req7666666676666667777777976>6rr097666677762,0yq76677774,2ye77776677777666772%",
"fae0776776666667677<$4yy97666666776676667777777974;6rr996667667762,0yq77777764<<ye07766677777666772&",
"gpw7777776777777776,%6yr07667666676677666777766996,6ttq89669667752,quw07766774<2ue97776677777777774*",
"gar7777777777777776<$6uyw7779796699667997767766996,7tyq997667777611raw07777775<4uyw7777777777777772&",
"kfuyww7w77wwww779995%6aayw0000q000q999090999999909,6patq00999900922yfrwqq09997<4aarw007777777777777*",
"gkkgfaaaaaaapppuyyy9%4pkhfsaasaapssppppytytrtrrttr35pkgspyytrrrtt5,rkgdauyrryw4<gjgfaaaauyuyryreuy7*",
"49w0977779976776544<#&4erq099090000098886665853585::5eq0888553585>=1qqq0865453-%7reww7077766555454,$",
" oOOOOOOOO@@@@OO#@#OX+++###%#=#%%#%$#==%%%=#%%=%#%#+#$%%==%%=%%%%#++##$#####$++o+$%%$$$$@@@@@$$$+Oo ",
"o$%OOOOOO+@O@OXX@%%$#$####$$#%$$#$#++===&&=&%%=%=%#=%$##=====%%%%%#+#%#####+@##@+@+O@@OOOOooooXoo.  ",
"50744<2,<<<<<,**574424422232222212,:>6q85554333325313,;,5853331322;-,653<2<34<<<<<<<<<<<,,,<,,,<-@  ",
"ryw77777644674**7e07666686666666565>29e067766666666665249976566666,;4eq76566666666567665566666664%  ",
"uyw77777755774**7ew7666697797676666>30q07766776665666625qq978886762,5r997767777777777777667766774&  ",
"yuw77777777775-;0r07667777777766666>3qw07666776655676426qw977777762<6r977667777777777777767666674*  ",
"yue77777777775,;wr07699777777766665;5qw09667767666667646ww077777662,6rq97667777767767777776666674*  ",
"uur77777777664,;wy97779767966666665>5qr08666667777666449ew977777651,6t097766677766666666676766676&  ",
"uur07767767674,;wr07777767666666665,5er08666667766666647re997677662,9tq97676677766666666666676774*  ",
"uur77666666674;;wy77777776666667796>5qr09686667666666627re99767766229tq96676777766666666677766776*  ",
"ppy77666666774,;ey97777776666666966,5et06666666666777439rr09777666329tq97667766766667666667776774*  ",
"aay97666667764,>ryq9766669666667685,6rtq9666666677676550ttq6666676220y097666766776777776666666775*  ",
"aay77777667776,>tuw977767666677766616ttq666686866688855qtr08677966229iq97666667776777777666666776*  ",
"aayw7777777776,;yaw7797777777977666,6ipq997986997998853qptq9979996110pr09776666777777777777766676&  ",
"aggurewwqqqww7<,phauyrrtttrrrrwqqw026pgspyytttttrtwqq05qddpyrreweq53qgpytrrrrreewwwwwwwewewwq9qw7*  ",
"rdduyrewwwwww7<-rdsauyyyytyyyrrwwwq31rddaaatyiitttrqq083tdsptrqqww6,8ddpiyiiyytyrrrerreeeeewwwww7*  ",
"&<542<2<,,,,,,&O-466544554554432332-%:3533385355345331:=>353331><,;&=6998889666666455654445<<<2<,$  ",
" oooOooooOooO+oXOoO+o+#################$#%##=%%%#=%==#%#%###%######++###@+##+++Oo+++OOooOoooXX.XoX  ",
",<,**-******------&%+=12,;>>;:;;;;:>>,>;::%=>331>>::>>>;::==11>>>>;;>:----:---&O%>,--*---********&O.",
"wrw6554454444444642>#<qq766554465546655583==8q088553454551>2086546455444555444,%,7064444544424444<* ",
"uue7776776767677776<$4qw766666667767866685::8qq0886676666516q09866666677777676<-2we766767666777777,.",
"uye77777776666667762%5ew776666677766666696::8rq9866679666425w09666666666666776,*40q766666666777776;.",
"uye76677776766677762$5rw966666677676666665::0r06666967996426rq9666666666776677<&<0e766666777777776,o",
"aue07777666667676762%4ee976667677677666766::9rq0766666976428rq96766666666767772&4we076666777777774,X",
"aue77766666666667662%6rr066667777777766666;:0rq0999666966328w077766666766677772-6ee767666777777776,X",
"aue77766666666667762%6yr976766776677766665;:qtq0979766766229rq97767776677677772&5ee767777677777677,O",
"aue77666666667766765%6re976676666667679665;;qtw9667666666427te96666766676677772*6er076667777767677,.",
"gae07766666777776664&6yeq77776766766667665::qtw9669676667<<9tw97767766666667774-6re077777777777777<O",
"day76777676677777664%6yr077777667776677666>:qyw9766976666339yw97667766676677772-6rr977777777677777,.",
"far77777777777777662%0yrw77776677777776786>>rir996999766632qye97677776677777772-7yr0777777777677w7,X",
"ggpr000ww90009999993=9apyeewqq9900990990001:tdprqq090990053esurwqwww0qq99q9q994-7uarew0970ww7777w7<O",
"ghgpuuuupyyrrrwrere7=6sgsapiittrrrreqqrqrr>:qggppiteqeerr93qggsiyititittrrqqrr9:6sgpuyyyyeeyeewwew<O",
"7ruyreerrrwwwq009006#-9ttreqeqq008q0908888:=1rttqqq8088894;,tpittitttttttrq0005%:qaayuyyyyyyyyeww0,X",
"O$%%%$%$%%$$$&$$$%$$X+#&&==%%%%%%====%%%%=#+#======%%%=%%%##==:===:======%&%%%%++&==*&&*%&%%%%$$$@O ",
" .X.XX....X..Xo.XXX+o+o.XX++++++++++++++++++++XX++X++++++#++++++++++++++++XXXXX+oX.....X..... ..    ",
"O,,-******-*&***-==-&:=&%#-,>::----=---&==-:=-==&&====%=:>;:----:-:=====-=&&#+$>:&&&&%%%&$&$$%&$%@. ",
",wyw77665666664466644664>=6w96666556566438555554443431>169766444555533534442-%,wq7546444444<44444,$ ",
"<ry7766776677766666666641:9e976666676776885686866664553370766766656656666666;&<ew97646644747777774& ",
"2yy9766666667667766666762;9eq7677677777683886666666666350w966776686688666776>=<rw97777747777777774& ",
"2yy7776664766677776667762>9r9977667777766667666776666545ww076766876667666776>=2rw74777774777777775* ",
"2yu7677666677777766667752,qrq777767777766667777766667556ww776666669666777776;*3rw77774744747777774* ",
"4yu7667766677776667777764>qr0977667667776767776666666646ew777777666666777777>-4t777777777777777774* ",
"4yuw766666767777777777752>wr0976666777676777776766766646rr076777766666666666,*3ye77777777777774774* ",
"4yuw77766666776676667665<;wy0776666777666777676666666646rrq77667767666666696>:4yy77777774747747775*.",
"7uuw777466677666776776664,ey0766666776666766676666666647rr977666797666666696,:6pw77777477777777775*.",
"4paw77476667666677776775<,ry0776666776667666777767777647yr077766797666669666>-6pe77777777777777776* ",
"4paw77776677777677676776<,ruw076777667766777777777666647yuw77766679766699666>-4ay77447777477477776* ",
"6aaeq0q770w77777777779974,yarwq9099999997977777799686649pprq7777999997799797,-7ay77769999777777776* ",
"4flgaaaaaapuappuuyyrreye6;ujgfaapppppiypyyyyyyrrrrrttw99dkfsaaapytttryreeeyr4-6kgdapuupyyyyyrrery0* ",
"&7yewwwww07ww77wq7766676,%6rytrrrerwqqqwwqwqw7779909964>qyttyeywq09999777797,%;yuuyytrrewwrew97975* ",
" o$$$%%%$$$%&*&&&&%$%%&&@X+&--*-===--=&----&****&&==&&$+$&--****==&&&&*&&&*&@.O*-;;,;>;;;--;;-***%O ",
".... ... X...XX.....Xo..XX..X...XX..XX. ..XXXX...X...oXXoXXoX.XX.XXXo.ooX.oX.XO.XooX..X............ ",
",<,;*&**-******,*&&&**-*:&=&$O$;;--=**&&&&%*&*%*&&&+%;2;:-*-;*;*:---&*&*--&&%&*,;--**--***&&&&&&&*$O",
"ye95444446444444544444464442;$,9064444244<<<442<<<,&>7076444<44<44444<<25444,,47775454444224444444<&",
"dae7777777777777777777776676<&4qw966666676567777664-,0q966667777776676477766447w7777777777777677774*",
"fuw77666667777776567767766662&40w777776677747447674-<9w77747777777766656776444777777667777777577774*",
"du07666667777774466766666666,&6we777776677777772565*<we977777777777777776676467w7766666777777767774*",
"fuw7777777777777456767776667<&4qw777776677774777777*<ew777777777777777666777247w7777777777777677774*",
"fuw7777777477777466666776777<&4we777766777477777775-4ew777777777776777667767477y0776677777777677774,",
"fuw7757777777777676466666777<&5ee777774774777777777-2ew777777777666677666667467e0777677777677767776;",
"gaw77577777777777774776666672&7ry777777777777777777-2re97777777766666777667747wrw777677777677777775*",
"haw77777777777777777766666672&6re777777777777776477-5uy77777777766666677767747eyw766677666777677797;",
"kaw77777777777777777667767672&7re777477777777777775-5ye77777777766666666677747wyw777666667676777775,",
"kae7777777777777777777777777,*7yyw77777777777777774*4uy77777777777777777777646ruw777777777777677775;",
"xfue77w7w7777w77777777777777,&7py777777777777777777*4puyw7w7777797979079977746yarw00w77777977999906;",
"lkgauuuuuyeyyyuyyyyyyy777yyy7*7dfpapuyyyyyewwwwwey7,4ugdpuuuyyyyyrrrrreeeeee76rgdauuuyyrrerreeeery9,",
"glxxjhhjhgfffgffddaddaaaaaaa7*7gxxkxkjhjdddddadaaau<,yxxxjjjhhffgfffsaaappaar6qzxkhhhhffdaaaapupaae,"
};
