/* XPM */
static char *wall[] = {
/* columns rows colors chars-per-pixel */
"60 60 52 1 ",
"  c #482913",
". c #492A13",
"X c #4A2B13",
"o c #492A14",
"O c #4A2B14",
"+ c #4B2B14",
"@ c #4C2B14",
"# c #4D2B14",
"$ c #4B2C14",
"% c #4C2C14",
"& c #4D2C14",
"* c #4D2C15",
"= c #4D2D15",
"- c #4E2C14",
"; c #4F2C14",
": c #4E2C15",
"> c #4F2C15",
", c #4E2D15",
"< c #4F2D15",
"1 c #4F2E15",
"2 c #502D15",
"3 c #512D15",
"4 c #502E15",
"5 c #512E15",
"6 c #512F15",
"7 c #522E15",
"8 c #522F15",
"9 c #502E16",
"0 c #512E16",
"q c #512F16",
"w c #522E16",
"e c #522F16",
"r c #532F16",
"t c #542F16",
"y c #523016",
"u c #533016",
"i c #533017",
"p c #543016",
"a c #553016",
"s c #543116",
"d c #553116",
"f c #543017",
"g c #553017",
"h c #543117",
"j c #553117",
"k c #563116",
"l c #563117",
"z c #573117",
"x c #553217",
"c c #563217",
"v c #573217",
"b c #583217",
/* pixels */
"vvvvvvvvcbbccbbbbbcbbbzzzbbzbzbzbcbbcbcbcbbcbbbbbbbbgbbcbzbb",
"vvvvvvvvbccbbbbbbbbbbbzbzbzbbbbbbcbbcbbbbbbbbcbgcbbbbbbbbzbz",
"vvvvvvvvcbcbbbgbbbgczbzzbbbbzbbzcbvvbbcccccbbbbzbbbbbcgbzbbb",
"vvvvcvvvbcbcbccgbgbbzbbbzbzbbzbbcvvbbbbbbbbbbbgbgbbbbbbbbbzz",
"vvvvccbccbccccgcgchzzzbzbbbzbzbxvbbvbvvvbbbcbbzbbbzggbbcbbbb",
"vvvvcbcbccbcggqcggzzbbzbbbbbbbbzbbvbbvvbzbbbgbcbzbbbbbbbbzbb",
"ccbvvbbccbgggqqqqgggzzzzxbbzbbbbvvvvvvvvbcbgbbbbbbbbbbbbbzzb",
"bbbbbbcbbccgqqqqqqggzzzbbbzzbxbzvvvvvvvvcbbbbbcbbbzcbbbgbzbb",
"cbbbcbbbbbcrr*rq99ixccbbbbcccccbvvbvvvvbbcccbcbbbzzzzzzzzzbz",
"bcbbbbbbctttyr*r9iixbbcczbcxbbbbvvbvvbvvbbcbbbcczzbzzzzzzzzb",
"bbbbcbbbcccty**r9iixcbcbbbzzbbbbvvvvvvvvbbbbbbcczzzzzzzzbbbb",
"bcbbcbbcccvrr*r*,ixzzcbcbbbbcbbcvvvbvvvvcbbcbccczzzzzzzzzbbz",
"cbbbbbbbcgtttrr*iqqhccbbbcbbcbcbvvvvcbbcbcbbccccxizxxxzzbbbb",
"cbccbccbbtbtrr##iqhhbbbcbbbccbbcvvvvbbcbcbbcccccxxixizzczzbb",
"bbbbcbbcbcttrrrr0gggccbbbcbbbccbbvvvbvbcbbbcccxxxiiiizqzbbzz",
"bbbbbbbbccctrrrr0qgbcccccbccbbbbvvvvvbcbbcbcxxxxiiiqqiczzzzz",
"btvvbvvbvvvyr6r6ggggbcbbbcbcccbbvbvvvccbbbbbcccxrrrr6rrrvvvv",
"bvvvvbbvvvvvvvruqgggcbbcbbbcbbbcvvvvbcbbcbbcxxcxrr26rrrrryyy",
"bbbbvbbbvvvrvruvgcgbbcbccbcbbccbvvvvbbbccbbbxxxxr#62=666rrrr",
"vbbbtbbbvvvvvvkkggcbcbcbbbbcbbbcvvvvcccbbbbbxxyyr2####66u==r",
"bbbbbbbbvtvvbvvvcccbcbbccbbbcbcbvvvvcbbbcbbbccxy22###26#=666",
"bvbvbbvbvvvvvbvvbccbccccbcccbccbvbvvbbccbbbcccxy222##2#2u6r6",
"bbbtvtvvvvbvbbbbcbgcgcgcccbbbbbbvvvvbbbbcbbccccx222###666rrr",
"vbbbbvbbvvvbbbbbgcggggggccccbccbvvvvvvccbcbccccvtt62r#rrrrrr",
"bvbvbvbbbbbbbbkbctggrrggcccccccbbbcbcbbbbcbcvyvvttttttttrrrv",
"vbbbbbbtkbbbbbbkvcgqrgqcccccccbccbcbbbbcbbbbvvvvtttttttvvvvy",
"bbbbbbbbbkkbbbbkvrcqrrgqccccvvvvbbbcccbbccccvcvvbbtbvvvvvvvv",
"tbbbvbbbbkbbbkkbrvq*rrqqccccvbvbcbcbcbcbbbbcccvvbbbbttvvvvvv",
"bbbbbvbtbbbbbkvvvyvrhh,qxxvvvvvvbcbbbbbcbcbcvvbvvvbbbbbbvvvb",
"bbbbbbbbbkbbbvbvyvvyhhhhxvvvvvvvbcbccbcbcbbbbbbvbbbbbbbbvvvb",
"bbtbbbvbkbbkkbvvvyvyhhhxxxvvvvbvbcbbcbcbbcbbbbbvbbbbbbbbvvvv",
"btvbvbbbbbbbbkvvvvvvvhvxxvvbvbvvcbccbbbcbbbbbbbvvvvvvvvvvvvv",
"bbbtzbzbzbbbbbbvvvvvvvvvcccvbcbcbbbbccbbcbccccccbbbvvvvvvvvv",
"bbbbbzbzbbbbbbvvvbvvvvvvcvvvcbbbbcbcbbbcbbccccccbbbvvvvvvvvv",
"bbbbzbbbbbtbbbtbbbbbvvvvcvvvbccccccbcbccbccccccctbvbvvvvvvvv",
"zbbbbbzbbzbbbbbbbvvbvvvvcvvvbbbbbbbbbbbcbcccxyccbtvbbvvvvbbb",
"bbbzbbzbbvvbbbvvvvvbvbvvvvccbcbcbbbbcbcccchhyyyxtbbbbbtbbvvv",
"bbzbzbzzbvbbbvvvvvvbbbvvvvccbbcccccbbbbcch,qyy66tbbbbbbbbvvv",
"bbbbzzzbtbbvvvvvvvvvvvvvvvvccbcbbbbcbbcchqhq6q6ytttbbbbbvvvv",
"tbbbbbbbbbvvbvvvvvvvvvvvvvvcbcbbcccccccccqqq$=666tbbbbbbbvvv",
"bbbbvvbbbbbbbbvvvvvvvvvvcbcbbbcbccvvvvtrqr******6rvtvvvtvvcc",
"bbbbbbbvbbtbbbvbvvvbvvbvbbcbbcbbccyvvvtrr*##$O**=rrttvbbvvbc",
"bbbbvkbbbbbbvvbvvbvvvvvbbccbbcbcccvyttr6r##O O$$#rrrrbvbvvvv",
"bbbbbbbbbbbbvvvvvvvbbvvvbbbcbbbbbcvvvtrr##OO  OO r=rrtttvvvv",
"kkbbkkvvvvvvvvvvcbvvcbcbcbcbbcbbccvvvrr==XXX   O#*rryyycvvvv",
"btkkkkkkyvvvvvvvbcvvbcbcbccbbcbcccvvrr*rr=X     ##2rvyccvvvv",
"tkkkkkkkvvvyvvvvbbcbbcbbbbbcbbccvvyvrrr6===XXX$$#rrryyxxvvvv",
"kkktukukuuvyvvvvcbbbcbcbccbbbcccxvvyvrrr6r*=*****rrryvxxvvvv",
"66ttttttt6ttzzvvvvbbbbbbvcccbccbvvxyvyvyyyyr*rrrrrrrvvrvvvvv",
"t62tt2t2ttt7tzvvvbbvtbbbvvcccbbcvvvvvvyvxvyyrrrryrvyrvvvvvvv",
"6t6252226t6ttzbvbvbvbbbbvvvvbbcbvvvxcccccvvcyvyvvvvvvvvvvvxv",
"226tt22t6t66tzbbbvvvbtbbvvvvcbbcvvvvbbcccbccvvvvvvvvvvvvvvvv",
"66t62tt26ttttkbbbvvvbbbvvvvvvvvvvvvvccbccbbbbcbcvvvvvvvvvvvv",
"ttt6ttttttkkvbbbvbvbbbbvvvvvvvvvvvvvbbbbbcbbbbbcvvvvvvvvvvvv",
"tttkktttk6kkvvbbvvvvbbbbvvvvvvvvvvvvcbbbbbbbbbvcvvvvvvvvvvvv",
"kkkkktkkkkkktkkbvvvvvtbbvvvvvvvvvvbcbbccbcbbbbvvvvvvvvvvvvvv",
"kkkkbkkkkkkbkbbbvvvvvvvvvvvvvvvvvvvvvvvvvvvvvvvvvvvcvvvvvvvv",
"kkkkkbbkbbkbbbbbbvvvvvvvvvvvvvvvvvvvvvvvvvvvvvvvvvvcvvvvvvvv",
"bbkbbbbbbbbbbkbbvvvvvvvbvvvvvvvvvvvvvvvvvvvvvvvvvvvvvvvvvvvv",
"bbbbbbbbbbbbbbkkvvvvvvvvvvvvvvvvvvvvvvvvvvvvvvvvvvvvvvvvvvvv"
};
