/* XPM */
static char *water[] = {
/* columns rows colors chars-per-pixel */
"80 80 256 2 ",
"   c #114C52",
".  c #265D64",
"X  c #14636C",
"o  c #0C6B76",
"O  c #166B75",
"+  c #0D717C",
"@  c #18727D",
"#  c #0C636C",
"$  c #26737D",
"%  c #2C6A72",
"&  c #165860",
"*  c #2C5B62",
"=  c #0D7B88",
"-  c #1C7984",
";  c #147C8B",
":  c #1B7C8A",
">  c #157784",
",  c #167E90",
"<  c #277B86",
"1  c #347A85",
"2  c #14828E",
"3  c #1B818D",
"4  c #0D8694",
"5  c #138493",
"6  c #1C8492",
"7  c #158B9B",
"8  c #1C8C9C",
"9  c #1A8996",
"0  c #18919E",
"q  c #0C828E",
"w  c #24828C",
"e  c #2B828C",
"r  c #2D8087",
"t  c #37848C",
"y  c #248593",
"u  c #248995",
"i  c #2B8A96",
"p  c #238C9B",
"a  c #2B8C9A",
"s  c #2B8692",
"d  c #328D9A",
"f  c #388A94",
"g  c #2B929E",
"h  c #24919D",
"j  c #37929C",
"k  c #188EA1",
"l  c #1592A4",
"z  c #1C93A4",
"x  c #1B96AA",
"c  c #1C9AAC",
"v  c #1598AA",
"b  c #1C9CB2",
"n  c #149EB2",
"m  c #0D95A5",
"M  c #2393A3",
"N  c #2B94A3",
"B  c #239BAC",
"V  c #2C9CAB",
"C  c #2797A7",
"Z  c #3394A3",
"A  c #3499A6",
"S  c #339CAB",
"D  c #3B9CAA",
"F  c #3A97A5",
"G  c #239DB2",
"H  c #2B9DB2",
"J  c #219FB8",
"K  c #339EB1",
"L  c #248EA1",
"P  c #1DA1B4",
"I  c #1DA4BA",
"U  c #1CA9BD",
"Y  c #15A4B9",
"T  c #1CA1AF",
"R  c #2AA1AE",
"E  c #33A1AE",
"W  c #3BA2AD",
"Q  c #23A3B4",
"!  c #2BA3B3",
"~  c #23A5BB",
"^  c #2BA5BB",
"/  c #24AABE",
"(  c #2CAABC",
")  c #2CA8B6",
"_  c #34A4B3",
"`  c #3CA4B3",
"'  c #3CAAB6",
"]  c #34A6BB",
"[  c #34ACBC",
"{  c #3BACBC",
"}  c #37A7B8",
"|  c #3BB0BE",
" . c #47919C",
".. c #468B95",
"X. c #429DAB",
"o. c #489AA5",
"O. c #5498A4",
"+. c #429FB0",
"@. c #46A3AD",
"#. c #43A5B2",
"$. c #43ACBB",
"%. c #4BADBB",
"&. c #48A8B4",
"*. c #55AAB7",
"=. c #43B1BE",
"-. c #4BB2BE",
";. c #56B2BD",
":. c #54A2AE",
">. c #63A9B8",
",. c #1DABC3",
"<. c #17ABC4",
"1. c #1BB1C9",
"2. c #1EB7D2",
"3. c #24ACC3",
"4. c #2BADC3",
"5. c #25ADC7",
"6. c #33ADC3",
"7. c #3AADC2",
"8. c #2BB1C5",
"9. c #24B3CA",
"0. c #2CB3CA",
"q. c #28B6C9",
"w. c #34B2C4",
"e. c #3CB3C4",
"r. c #34B5CA",
"t. c #3BB5CA",
"y. c #34BBCD",
"u. c #3CBACC",
"i. c #37B9C7",
"p. c #24BBD4",
"a. c #2CBCD4",
"s. c #2ABAD6",
"d. c #33BCD3",
"f. c #3CBDD3",
"g. c #35BBD7",
"h. c #47AEC1",
"j. c #43B4C4",
"k. c #4CB4C3",
"l. c #43B9C6",
"z. c #4BBAC6",
"x. c #43B6CB",
"c. c #43BBCC",
"v. c #4BBBCB",
"b. c #4CB5C9",
"n. c #54B4C3",
"m. c #53BCCC",
"M. c #5ABDCB",
"N. c #58B8C5",
"B. c #43BDD2",
"V. c #4BBED2",
"C. c #54BED1",
"Z. c #52AEC1",
"A. c #63BCCC",
"S. c #2AC3DB",
"D. c #34C2D6",
"F. c #3CC2D4",
"G. c #33C3DB",
"H. c #3CC4DB",
"J. c #3BCADD",
"K. c #34C9DE",
"L. c #3BC1CF",
"P. c #29C9E6",
"I. c #34CBE3",
"U. c #3BCCE3",
"Y. c #37CAE6",
"T. c #2CD4ED",
"R. c #3BD4EC",
"E. c #39D5EA",
"W. c #34D4F2",
"Q. c #3CDBF3",
"!. c #36D9F4",
"~. c #2CD8F5",
"^. c #3AE4F8",
"/. c #35E7F5",
"(. c #1FC6E0",
"). c #48C1CE",
"_. c #5BC1CD",
"`. c #55C2CD",
"'. c #44C3D4",
"]. c #4CC3D4",
"[. c #43C5DB",
"{. c #4BC6D9",
"}. c #44CADC",
"|. c #4BCBDC",
" X c #49C9D6",
".X c #53C4D4",
"XX c #5BC4D3",
"oX c #54C9D6",
"OX c #52C6DA",
"+X c #54CBDC",
"@X c #5BCBDB",
"#X c #5BC8D7",
"$X c #45D0DE",
"%X c #5AD1DE",
"&X c #62CCDC",
"*X c #63C5D6",
"=X c #61C5D1",
"-X c #43CCE2",
";X c #4CCDE2",
":X c #45CCE7",
">X c #52CEE2",
",X c #5BCDE1",
"<X c #44D2E4",
"1X c #4CD3E5",
"2X c #44D4EB",
"3X c #4BD5EB",
"4X c #44DBED",
"5X c #4CDAED",
"6X c #4ADAE5",
"7X c #54D3E4",
"8X c #5BD3E4",
"9X c #53D5E9",
"0X c #5BD5EA",
"qX c #54DBEC",
"wX c #5BDBEC",
"eX c #56DAE6",
"rX c #43DCF2",
"tX c #4CDCF3",
"yX c #43D5F0",
"uX c #57DCF2",
"iX c #63D4E5",
"pX c #63DBEB",
"aX c #65D7E9",
"sX c #64DEF2",
"dX c #63CEE2",
"fX c #59E1ED",
"gX c #44E3F5",
"hX c #4CE3F3",
"jX c #43EBFB",
"kX c #4CEBFB",
"lX c #48E7F8",
"zX c #54E3F3",
"xX c #5CE4F4",
"cX c #5BEAF5",
"vX c #54ECFA",
"bX c #5CECFA",
"nX c #56E7F8",
"mX c #4CF5FD",
"MX c #54F3FD",
"NX c #5CF3FC",
"BX c #5DFBFE",
"VX c #56F9FE",
"CX c #4AE2EE",
"ZX c #62E3EE",
"AX c #63E4F4",
"SX c #64EAF6",
"DX c #63ECFA",
"FX c #6AECFA",
"GX c #69E6F5",
"HX c #63F4FC",
"JX c #6BF4FD",
"KX c #64FAFE",
"LX c #6CFCFF",
"PX c #63F1F7",
"IX c #73FCFF",
"UX c #75F8FD",
/* pixels */
"qXp O y C 7.Z s < $ ..`.eXLXIXUXIXcXb k B x 3.l l n q q 2 R R Q J.L.9 = + q v 2 2 W =.S S H ! B N y $ h G t.0X@X%.#.r.3XHXKXIXLXKX@X#X@X%XZXPXfX|.$X5X5X4X<X5XeX",
"|.j  .X.N 6 - < t t f W R L.cXIXJX<X9.b x n ,.v m <.m 4 8 E ) R L.W @ = = q Y q ; W .X' K [ [ / ) ` | +X{.[.t.$.&.V.0.5.E.kXIXHXbX*XiXpX@X&XZXfX X1XnXtXH.'.tXJX",
"m.Z.j j ! 7 V &...$ % @ 2 C ) '.-X6.0.~ z b 9.n <.U n ( ' | | =.N.N.=.R 0 7 n q > g k.m.'.G.u.( R ' oX+Xx.) V -.XX0Xf.g.E.NXIXGXxXaX&X8XoX-. XSXqX|.3XtXB.l.uX9X",
"m.r.I / s.b M a $ % O $ 2 h 9 0 C _ 6.^ H 0.5.3.2.B ' `.`.| L._._._.).#.=.' w.R u a { 8XAXY./ ! R ) R v c ; B 7XDXsXDXDXHXIXIXKXAXAX8XoX-.i.F.zXxX].u.t.7.] 6.x.",
"3XlXQ.U Y Q C : f < u w 6 0 Q B w.[.U.a.4.y.( / Q ' ;._.).| l.oX@X+Xm.j.`.#X#Xj.! N S b.9X2Xa.4.F.w.h 7 9 8 Q $XAXGXGXJXLXJXBXNXqX>XsX0X|.w.9.i.8X8XB.H p i C t.",
"vXBXmX/ c C z L p p R E g ) U D.bXKXQ.9.a.8.q.3.0 V W ' L.| i.i.i.).x.B.).{.#Xv.N i i K B.f.D.K.I.r.R 0 2 R Q ( tXFXAXZXLXUXqXoXC.m.8X9X1X( ) ' M.,Xv.B 7 4.U.2X",
"MXVX4Xv 0 V 6 6 6 8 |  X X$XK.CXKXHXlXP.U.r.5.I.Q 0 R R ( D.P.S.) R 6.d.K.g.'.e.a e s _ w.t.i.8.d.( ( ) M ' 8.~ a.zXeXqXnX5X[ j ..m.V.x.+X].E A N.#X9XU.I.!.Q.tX",
"}.F.J.8.M 3 < j 6 7 =.AXHXPXBXLXqXf.U.R.g.w.Q U.E.U g h ( P.(.(.! 8 x / a.q.8.6.7.V B d.a.r.[ 8.) ) _ h [ oX( P F.<X9X:Xg.B.#.$ X Z b.C.+XV.[ L.}.+XSXbXY.I.W.H.",
"i.) | ).R y @ w z m R fXfXPXBXfX6.u.:XQ.Y.H./ 0.E.).&.} p.(.~.S.w.h 7 P s.0.( { 6.4.a.a.I.x.{ ( q.I.w.M ].' k g.AX0X:XV.+.Z Z  .$ - F D j.oX$XK.S.%XPXnXJ./ T ) ",
"R g g 8.3.0 9 0 P v q R ' E.T.L.} -XR.Q.jXR.K.a.$X`.`. XK.~./.lX|.l._ ) 4.H K #.S w.w.e.+X&X;X0.r.E.J.) .XN M t.V.>XB.N &.:.Z.Z...w k.v.>XR.E.4XeXZXDXfX XR q 2 ",
"0 C ~ ( q.z h ( q.m 2 W | / 2./ w.2X^.^.nXV.{.{.eXoXz.).}.<X6X%X-.#X@X| K D X.h.N ^ { OX&X.XJ.S.3.E.kXi..XZ +.$._ f.J Z A.+.1 A.o.g ].t.-XMXE.u.e.fXfX+XoX) = q ",
"4 v )  XeX8.T <.S.4 3 =.L.) 2.D.2XjXrXuXx.i < V =.-.@.W ' e.| `.-.XX%X` K h.h.x.r.V j.OX8XF.J.D.D.$XbXR f O o.C.$.` Z.X.h.] < :.o.8 ! =.qX}.[ i.i.F.L. X).| ; 2 ",
"U n / L.L.U D.1.U 0 2 B ) [ $XcXDXnX9Xh.X.Z 8 B _ j F A j ' ) -.oX`.z.#._ V t.B.B.7.u.,X0X9XwX4XE.}.ZXA > X 1 m.*X .1  .F ] +.>.A P v B ) | _ ' +X X).%XeXu.A 6.",
"U.) Y 1.U 1.S.S.,.T U B.`.z.iXZX0X:XV F $.c.1X|.u.W A l.| ).'.).XX:.-.`.w.B 6.9XOXV.m.&XpXDXJXcX$XfXPX=., < Z F :...1 1 1  .+. .E 3.L. Xl. X).l.eX| [ zXeXw.}.tX",
"CXL.( S.L.L.'.E.S.F.|.oX-.$.8XSX>Xg.C _ V.9XqXzX'.{ e.l.=.| ).;.@.t &.&XOXu.r.B.;X>X8XdXuXqXLXwX].xXpX`.[.H , 1 :.+.1  .+.Z.x., 8.D.6X+X`.).i.$XBX'.F.CXu.y.zXnX",
"NX$X).| E g C ( u.).j.' i z.UXJXf.5.9 x ] ] ) [ u.u.}. Xl.| @X;. .@.;.XXXX.XB.[.3X{.3X[.D.Q.kX1Xe.u.+Xv.:Xx.1 < 1 K , , H 6.5.5.K.K.( 8 | $X XcXvXCXMXJ.'.:XxXDX",
"| ).XXX.:.=.e.r.B.Z F +.] AXUXtXB k z ( f.[ 9 z i.[.'.}.L.'.%X_.;.N.=X`.+X%X%X$X;X7X3XU.Q.gXkXDX[.w.{.,X=XA.>.W d ` B B B 5 l I 0.x.z.' z T 8.gXMXCXgX| .X;X-X{.",
"j.m.k.j W B |.{ s < F K 7XHXtX6.K 7.qXBXBX3Xu.F.<X1X<X).F.1XaXN.;.#X#XXX X%X%XoXz..X-XY.R.tXAXAX>Xe.| m.A.*XaX&X%.v.f.[ 3.x 8 ( B.j.%.`.).C ~ P.E.CX<X! N f.t.;X",
"sXC.< < ' E #.$ O < N 7.[.U.:X^ B.AXLXKXzX[.t. X5XH.H.r.c.pXXXo.&.&X#X`.z.oX`.=.=.z.l. X>X].%.#X#X=.g N.=X=X&X&X#Xx.j.m.j.OXk.#X#XV.u.].eX#X+XnXU.<XoXh B 6.] ,X",
"aXj.O Z h.X.f < F N C K V G 0.Q r.yX$XD.( _ B 8.4.) Q Q | z.&.@._.%X`.j #.z.=.#.#.&.$.z.6.k 2 ` @X).j N.=XaX&X=XpXF.7.n.@.j.z.` j.+XxXeXSXPX6XtX<X).h 6 ` h.u.}.",
"C.x.F -.eX`.N p K D D , C z 3.8.6.~ 5.^ M B w.u.z 8 9 5 h e y $.;.W A =.`.oX).z.z.-.&.C p 6 z 7.eXZX`.;._.%X%XZXJXDXC.m.>X;XB.7.c.3XnXbXKX$X1X6X).'.W g j D 8.~ ",
"h.' X..XSXfXH 7 G V K 4.~ ~ 5.r.,X;XY.5.a.R.9.B 5 5 ; v M + + - r r r E ).=.' ' | ' i - L / U.3XfXiXW i | [ ! 8XUXaXC.,XGXAX>X,X0X|.:X2XcX}.H.6Xw.j.l.F f y 0 ! ",
"{.W - $.DXDX-XB ^ B.4.[.8.Q H.6.V.AX[.g.R.W.a.k 7 B M l h 9 ; a r r w 3 u @ O - w - O O ( kXvX2X X`.j + 7 T T ` aX{.' OXAXxX{.F.qXfX|.5XNXmX4XJ.| ).=.j y C g `.",
".X@.< t.uXtXf.p x.0X( e.l.w.3X9X;Xt.V.C.uX:Xf.C a _ 0.v Q ! h a w d w @ w O $ O X O @ h 1XzXR.I.D.} =.E ) / U 9 $.` F F +XDX7X6.F.<Xu.y.U./.mXcX[ -.` u ( $X) =.",
"#.' E e.[.qXu.S iXsXc.M e.[.d.'.7.B.,XA.aXaXV.} Z H 5.I ~ M p - w i d w g y < @ # @ @ / a./ p.P.s.~ 1XsXDXbXuXL t f @.h.uXHXeX0X1Xa.3.U q.K.F.).u #.oX) ).L.) =.",
"e i E ` }.cX'.] #X.X[ ~ 3.[..X-.h.dX>X:X2Xg.3.J B b Y ( oX{ N 3 6 i A | V u p 8 6 2 3 c 3.d.S.T.~.t.9XAXDXDX,Xo.O.o.$.tXvX1Xu.qXMXI.$X$X).i.).u w ' fX$X) M h  .",
"r d ` =.+XfX-X4.t.) ~ y.r.].n.@.h.sX3X5.G.K.a./ C 9.3.( v.m.h a w i i.}.H p p G | &.#.) Y / U p.T.yXGXsX0XsX*XO.O.F D yX<Xw.F.PXKXCXqXt.| | l.A 9 T l.`.%Xl.A f ",
"j &.v.).].{.g.3.U ,.d.oXD h.k.$.0XUXAXg.6.'.qX+XF.f.B.( C ) y $ $ 3 i.F.B ] x.V.`.%.#.h M v Q S.P.3XpXsXsXdXA.Z.A.b.h.B.[.{ <XKXNXzXpX|.L.'.u.i.v h E =.oXoXW  .",
"A.;.n.Z.$.k.+X;Xr.U  Xv.6 6 ` @XsXUXFX0XAXAXeXi.0.d.J.[ B / N @ $ O 5 B M V _ ] ) T B R y.3.5.S.^ e.m.XXiXaXdXA.*XaX@Xz.v.c.zXcXqX9X XqX<XR.R.<X) ' W l.|.|.j.n.",
"O.O.o.D w.-X,XuX3X~ =.W + o u e.'.:X3XxXAX3X$X$XK.5.D./ 3.p.R @ # w z k 6 w 6 2 P F.T U a.1X].[ { V S %.A.dX*XA.A.GXpXz.j.].9Xg.B.pX[.-XtXgX^.lXoXk.v.|.].$.W N.",
"O.>.%.f.:XhXvXMXkX( { j.- @ ; 4.U.I.T.S.J.6XLXNXE.r.S.) 8./ C + X g r.G.v 2 5 4 ) J.U.S.Q c.1X[ j.v.V.=X*XZ.*.N.*X@Xv.k.k.'.cXU.d.tX7XD.4XgXjXcX{ $.{.|.V + f O.",
"A.=X}.rXyX<XnXvXCX|.[ { d ;.e.d.2XQ.P.S.kXKXMXE.|.oXeXz.|.) h O X h U.4XD.I I 7 c Q.I.D.i.w.U.! F $.#.F 1 < $ d #.#._ W `.xXJX-XI.<X3XhXE.}.|.6.B _ t.) @ O 1 O.",
"M.1XlXrXyX9X7X;X;XsXDX$.*.N.{.}.6XkX^.S.U.R.R.;X).j.v.oXoX=.i r $ 0.^.gXQ.,.U l k K.4XuXpXbXxX#.< 1 1 . . . . . < 7.wXfXxXLXbXH.I.tXQ.gXnX|.6.9 k , , , g d F &.",
"'.;XmXmXtXAX8XV.x.+X0Xm.b.[ 8.0.nXvXT.K.K.lXDX+XN.=.].oX`.`.*. .d 9.!.E.G.B.l.j.oXwX1X,X#XdXM. .1 %     & & . 1 a 6.nX X|.SXAXnXvXgXR.W.U.d.b k , = > : D v.B.{ ",
"H.}.2XCXuXsXiX.XB.V.OX,X>Xr.r.'.cXHXzX4XzXHXaX*XXX7XeXeX#X_.:.o.g m p.q.B.XXXXaXsX8XV.|.] +.N.*. .1 . * % 1 F Z.7.Q i.'.oXAXDXvXVXBXcXY.2X3.c , , , = 7 w.|. Xt.",
"/ i.V..XXXM.C.qXtXuX0XwX7X{.C.].qXHXKXqX|.,XOX*XoX{.fXZX%X_._.`.i.S.(.2.g.j.n.0X+XOXqX;X7.t.7.x.+.Z.:... .&.m.OXV.x.{ / 4.-XtXMXmXVXvXq.( ! H k , z r.r.Y.}.B.6.",
"c ( %.:.*.Z.h.).c.7XoXm.m.`.XXV.1XNXHXuX6.x 7.OXoX.X[.B.oXoXpXLXNXgXS.a.D.S ' 8X|.l.7XcXr.G 3.c 6.x.K X.h.h.+.#.].).z.{ Q I a.rXVXBXJ.z D Z.b.J l n g.P.0.[.9X X",
"G.f.&.X.n.n.j.E ' %.-.-.&.*.XXV.}.DXqX{ D H 6.K S S M h &.;.`.fXcXHXnXuX+XN D AXeXh =.JXH.x w.6 Z K : < L p y < j.).+XeX X3.P.!.gXY.b N ;.A.Z.v.} ^ 3.b k 0.bXDX",
"KXSXM.N.pXHXeXv.+XOX+X.Xh.b.oXwXqX9X{ +.%.#.C.N.*._ B B =.N.=.A ` e.7..XXX&.' 0X0X' `.IX<Xt.v.K x.C.X.K Z , : > { ].>XqXtXT.!.^.BXU.S j *.M.h.A.dXsXwXf.L H Y.vX",
"HXUXGXGXKXVXcXLXJXDXxX8X@XOX9X9X7.a i K } 7.OX'. X6X1X].`._.=.h W z.7.t.@XN.XX8X0X8XeXbX:Xh.h.L , Z.+.+.+.$.F L <XqXqXtXgX^.^.mXHX-XF 1 %.B.K b.M.sXDX:XL H a.W.",
"yXFXLXbXMXCXHXIXLXLXNXtXDXDXwXj.d a N '.qXnXnXbXKXBX+X).%X%XW g 8 ` u.) m.*XiX0XpXiXwXfX,X7.J k > : < A ` .X Xl.J.H.eXMXVXmXR.kXhXU.N > x 5.b b B a.W.S.x J I.Y.",
"G.Q.gXlXvXeXxXJXIXKXMXSXzXKXfX$.N u.xXLXJXNXBXVXBXBXfXoX%X:.@ o o y V 8 } 8X7XsXpXiXsXXXh.v.G L N , , C { +XqX5XU.8.( q.K.J.[.Y.I.uXx.k v 2.P.S.5.4.I.W.5.5.s.Y.",
"Y.S.Y H.nXxX1XJXHXHXcX9XtXNX+X$.V.JXIXIXHXmXmXkXmXkXu.F t %     # @ : 9 c  XZXaX*XXXXX&X0XsXv.%.b.N M / d.w.u.i.S.E.D./ I 3XuXg.g.wXwX_ J 2.P.W.2X,X8X0Xj.6.g.I.",
"d.y.P ( tXxXwX7X9X1XqXV.].AXpXpXDXHXKXLXNX^.MXKXcX'.A &     # o + + + 8 R V &.;.;.;.b.aXGX{.h.d +.V [ f.4.b T T 8.E.kX$X4.,X[.U v 7.sX.X0.1.~.W.V.@X.XXX&.OX[.8.",
"0.yXr.G f.>XC.X.$._ { a M 5XIXLXDXKXKXKXKXkXMX%X$X) i X X O d 6 9 5 2 R | 7 s *.;.:.D #XsX' D d Z B.6.( x 9.E.E.q.Q.MXf.} B.J b z [ pXiXqXR.yXf.] qXGXZX>XxX|.) ",
"4X4XQ , 0.;X&.X.#.S Z D ' xXIXLXwXbXLXLXLXMX^.( J.Q a Z 2 > w 6 z c ! B 7 + @ e j o.X.`.sXh.S F 7.9X Xp 7 S.Q.E.1.Q.rX:XXX:X5.c B ].GXGXSXwX#Xk.r.tXKXbXtXDX8Xc.",
"cX! > > v { #.+.%.$.W ' {.vXJXSXeXxXLXLXNXhXNXJ.Y.B.a S z o # 5 H.q.c = # O X $ 1 f :.m.OX,Xt.N =.l.#Xx.P 9.U ) L.NXqX9XGX9X4.r.a.4XxXeXAX+Xm.OX[.tXNXqX'.8XGXHX",
"zXB + + 6 a F t X.$.{ H s.gXMX X3XHXBXCX$XfXKXzXqXx.F f e # # 5 a.( 9 > o + @ f ..e r k.:X:Xx.6.u.t.{ k.'.l.).CX4XNXzX:XAXqXE.E.P.p.U.-XzX8XOXFXuXnXcX;X{ [.HXIX",
"4Xc 4 z R C j % f F W E U T.jXL.a.2X1Xw.u..XAXxXV.&. .O.j F + + x 4.y , = 9 < t < @ - c.f.f.[.-Xf.x.b.%.l.e.z.eXK.!.T.R.Y.g.Q.VXJ.a.CXJ.{.0XsXJXJX5X;X@X].:XmXBX",
"I.9.P 8.8.R j X f @.W | E.^.mXCXS.a./ ( 8 ( tX3Xb.t % f w #.F w S V.K k : L < % O $ 0 ] ].:XrXH.{.OX] V. Xw. XNXgXT.P.P.P.yXrXhXJ.J.vXfXy.|.SXLXIX<X^ 8XHXNXmXmX",
"P.,.p.J.3.z f e W ` #.).jXrXW.2Xg.5.r.7.z b I.U.Z.1 1 X.#.F @.&.%.n.Z s s < @ < : y B G e.AXbX7X1X7XuXU.u.1XnXkXzXI.!.W.rXuXnXlXR.^.tXuX;Xl.AXLXFX].L 7XkXNXNXmX",
"a.~ / -XB , w F ' =.).).4XQ.9.8.2Xd.4.K ' 0.G.r.D O o 6 ) W j :._.d : y a s > > 7 B B P 6 oXFX8XF.r.zXU.4XKXmX:Xg.Y.rXyX3X6.9XrXE.MXbX9XV.m.iXFXpXm.7.DXgXQ.HXK.",
"p b x 4.G , : 6 R | ).). XhXR.H.rX:XG h.].R.G.! i > k v v , @.OX.X6 5 8 N L N M x P 0 l l u.fX+X:XK.gXY.lXKX3Xf.f.r.0.t.@Xx.qXtXR.HX7X.XV.x.|.AX]._ c.LXlXjXKXy.",
"x k n v 5.G 5 = 4 0 R L. X5X5XkX2X:Xx.b.w.G.}.h.Z ` b p.I = V >X].H.,.J B N V H ~ 8.b 8 ~ 0 u.wXeX5XhXrXkXzXr.6.H C L p h.9XFXbXD.:X X0.f.[.[.7X{.C e.JXKXmXNXK.",
"0.x v x ^ ^ l = m v m v [ '.<X<Xg.:X;Xw.a.Y.,Xn.%.9X5X[.J > s C.t.1Xw.- @ - u 5 l 9.s.} ` 0 b F.xXbXbXvXMXD.6.6.7.H C 8 B 1XFXJXtXU.wXf.t.B.'.'.OX%.b.0XMXBXIXrX",
"a.5.5.9.H B H b 1.2.1.4 0 [ 1XqXB.B.3X:XH.:X7.{ 9XkXbX{.L > : OX| ` d X O w 2 4 4 n I.;Xz.M n 9.bXbXHXHX|./ x J 0.g.6.B P y.FXIXIXDXuX0X;Xj.v.0XiX&X.XJ.U.BXLX6X",
"r.-XrXa.~ 8 b Q U 9.Y m Y J.DXIXpXB.:XnXyXuXx.B.I.!.nX;Xt.z H 0X-.g D < u N 0 T 4 9 9.g.x.8.1.p.HXJXHX<X( 7.0.I 5.g.r.^ J ,.U.LXLXcXxXAX+X'.].iXdXsXzXQ.^.NXxX6.",
"G.NXKXa.~ J U ,./ P c P l -XFXJXJX1XU.tXtXAXAX2X<.:XtXAX;Xx x v.A w ' K H 6.oXd.B p / 5.P U (.P.NXJX<X/ N t.Y.0.;XU.yXg.~ 9.U 6XHX<X;XpX}.4X).aXsXxXnXjXmXLXtXs.",
"T.NXHXd.3.J Q |. XD.3.~ G.wXJXUXIXJXtXuXGXGXbXW.I.1X:XsX>X6.G B 9 K f.f.B l. XH.4.M U <.l m P.P.gXLXR.w.S t.D.0.uXtXY.9.U ,.b 9.zXL.f.7X9X}.m.=XFXDXmXmXmXNXg.Y.",
"P.W.:X[.[ L W +X5XgXI./ [.DXUXIXJXFXFXFXsXwXDXbXqXg.>XaXdX0XtX~ a u.U.g.c ). X}.3.k p.1.v n T.~.^.bXD.5.t.r.U.4.0.rXT.S.d.U U 1.R.1X{.9Xd.{ &.m.uXnXkXmXBXHXY.S.",
"s.g.U.x._ p 8 ( T.lXT.2.R.DXIXJXFXDX,X,Xx.M 6.;XwX9X>X0XAXAXDXH.i 7.U.U B |.`.F.( c I.S.Y 1.T.^.gX'.( d.H.H.g.r.0.P.~.T.cXK.U p.s.3X0XpXR ; F eXvXMXmXNXbXKXvXQ.",
"V.{.B.t.F.r.,.2.P.T.Q.tXxXFX7Xu.9XuXV.A.D V M z 7XwXY.yXbXDXLXwXu V r.S.w.R M L.2XF.F.D.2.P.S.I.cXfX6.U.-X2Xg.0.g.rXQ.P.U.a.,.a.3.9.g.tX4.x [ cXNXBXbXW.W.jXvX2X",
".Xb.t.U.rX!.T./.!.T.tXiX#X{ k H 3X:XV.*Xh.H b 3.H.AXuXnXDXtXHXZXV S J.E.[ 9 [ }.}.'.}.g.3.2.P.2XDXDX3XI.G.G.a.Y.d.E.Y.s.a.5.p.5.~ b 5.g.r.4.5.U.|.3XY.P.P.s.:X0X",
"b.V.yXyXlXjX~.~.W.!.uX&X&.N M r.[.0.$.*XC.! r.[.d.qXUXJXLXHXJX1X_ [.U.( B E e.u.F.1Xf.Q I a.W.bXxXqXxX|.0.4.G.Q.E.P.W.tXbXI.9.0.0.g.5.4.4.4.4.3.l b I P.P.3.6.b.",
"B.rXkXkXBXBXW.!.nXbXxXK S C.7.H 3.7.K b.oX].f.x./ }.SXDXJXHXuX[.V.f.r.7.7.B.'.}.}.1XF.b U 4X^.cXxX;X X9X;Xd.a.R.^.(.T.R.HX5X5.s.yXR.C p G 5.a.3.5 , v s.s.~ N h.",
"zXKXVXmXVXkXlXDXsXAXOXM B.pXB.Q 5.g.0.;XaXpXc._ x ) v.FXUXFXOXN N z G 4.6.w.i.l.}.[.-X( a.E.Q.cXJXbXcXuX9XR.S.^.kXjXW.s.g.a.s.P.W.R.C B 4.2.S.~ q , v <.,.0.] ;X",
"KXIXKXjXgXR.|.pXdXaX,XB.sX@X[ B 3.n 4.{.pXiX#Xt.w.! j.UXUXpXF > p J G G 8 z q.) r.i.3X3XJ.I.T.MXcXBXNX X3XU.S.^.mX^.P.g.4.0.s.Q.W.s.G / G.p.,.J v k 1.2.2.p.s.Y.",
"R.vXNXE.i.u.,X.XM.,X,XC.].] B x z 7 Y s.uXiX,XuX4XY.'.FXUX,X, 7.).g.B.d.}.6X<XR b ( E.^.lXjXT.kXcXbXqXj.eXlXT.^.!.g.g.r.7.0.P.~.W.G 9 4.Y.4.7 l v 4 7 n I <.2.4.",
"P 9.9.L.e.).&XXXm.@X@XXXn.{ J C L K <XP.[.iXGXDXvXMXwXJXJX.Xu 0XcXF.y.I.PXKXL.C ( D.K.T.jXE.G.HXJXHX3Xu.ZXKX^.D.b 5.g.g.Y.W.!.!.P.G x 8.0.9 - 2 0 4 4 7 v m v l ",
"0 0 T / | oX_.).h.V.h.h.M.C.K - Z #XwX[.{ +XwXY.Y.FXsXAXFX$.V AXxXeX( 9.jXI.! C 3.<XCXQ.jXT.tXzXtXzXwXqXNXNXD.b b s.G.g.Y.T.Y.g.5.k z 3.P 6 w > 8 P q.U Y m v m ",
"E ) ( ) [ -.;.;.+.7.H L +.Z.t s X.m.#Xb.y K t.~ 4.,X8X2XSXh.].JXbXwX.Xi.S.D.h M P 4X|.3.( J.eX}.B.;X+X,XnXwXr.4.6.:XY.0.0.3.3.k G B x ~ 8 i 6 9 R c p.P.1.n Q _ ",
"].}.t.( $.n.*.;.&.K +.< < t X.m.z.%.m._.K G x.7.K } 7.8.9X8XcXKXfX' W v.) P 5 5 z 3.) v 0 [ 8X|.OX@Xm.e.;X&XC.*XsXFXFX9X6.6.J H K } Q S W E 0 0 c ~ a.T.p.M S x.",
"uXqX} i d +.*.N.O.. % 1 1 F @XZX`.2 A #Xv.z K x.$.' W M w.| $XwX[ + E %X4.x 9 7 l P T Y B } f.;X>X0XuX].].*XdXdX0XuXUXFXaX0X0XC.Z.m.].Z.&.$.) E ' v.1XtXt.S _ :X",
"tX2XS : & X d M.1   * ..@.pXJXHXoX6 z e.K > : 0.B.@X' 6 c 5 R W @ u `.].0.5.U 3.,.<.I U B.uXY.I.9XuXHXfX_ x.tXW.W.g.9XdXA.,Xb.&.N.M.0XM.@.z.&.W ` .X).].$.] t.:X",
"yXyXd.K < X > f % * ..>.;.eXDXJXJXc.^ b 8 > = Y [ -.` 5 0 u w w h z.#X! l 9.U.a.U Y l / .XqX/.(.zXtXnX}.l U gX^.W.x.Z.Z.C.XX$.e  .;.M.M.*.*.o.K f.e.N.%.` H F.yX",
"gXQ.hX,X*.Z > <  .f :.M.-.`.0XfXJXSX;X0.c , , 4 6 Z S = g j e i N e.' p z P F.3.I x M l..X<X/./.mXkXbXH.5.R.NXG.7.:.Z.M.aXGX#X;.*. .@.M.z.$.v. Xu.E %.@.s N 1XkX",
"^.Q.jX,X#.n.c.j.XXiXeXx.' `.ZXGXJXSXFX$Xl , ; > y g c 4 W d r g V w.w.i.U 0 R v z g [ `.`.a././.mXkXcXd.G.gXhXh.O.>.>.aXFXFXAX.X_.;.`.%Xv.| c.].=.C b.#.D eXvXE.",
"mXjXgX8Xa b.wXcX0X8XpX=.A k.GXIXLXJXSX7Xz , ; - u 3 q 0 [ i i =.[.6XzXCX) q 7 4 2 N E ;.| 1.T.(.4XvXDXu.x.qX,XO.O.>.*XuX3XnXNX X-.`.+XeX+Xk.=.l.oX).m.$..XxX5XzX",
"NXJ.w.v.%.].-XbX%XN.$.F $.#XZXHXIXHX$X{ S Z S d g 6 2 7 R |  XfXNXbXNXH.q 2 B 2 3 g A A C Y 1.U w.eX).&.k.M.XX*...:.OX:X:XmXkXW.K.L.7XpX`.%X%X].{.wX;Xx.qXzXa.R.",
"1X6.> u m.@X+X0X;.t r @.8XJXUXJXLXqXG L A S } A V 7 2 2 0 u.fXPXNXcX$Xl + 2 Q 9 @ g A N z I P Q E N s < w $.iXn...Z V.uXbXLXVX!.!.5X0X%Xz.@XFXzX|.1X1X;XtXvXr.U "
};
